<svg xmlns="http://www.w3.org/2000/svg" width="145.54" height="35.203" viewBox="0 0 145.54 35.203">
  <g id="Grupo_1159265" data-name="Grupo 1159265" transform="translate(-307.519 -2412.797)">
    <path id="Trazado_994794" data-name="Trazado 994794" d="M9.188-8.258A4.3,4.3,0,0,1,8.906-6.7a3.463,3.463,0,0,1-.855,1.277,4.07,4.07,0,0,1-1.457.863,6.161,6.161,0,0,1-2.078.316h-1.7L1.922,0H.578L2.945-11.2h2.9a4.264,4.264,0,0,1,1.535.246,2.889,2.889,0,0,1,1.039.656A2.493,2.493,0,0,1,9-9.359,3.349,3.349,0,0,1,9.188-8.258ZM7.8-8.141a1.986,1.986,0,0,0-.145-.77A1.589,1.589,0,0,0,7.234-9.5a1.937,1.937,0,0,0-.7-.379,3.189,3.189,0,0,0-.965-.133H4.047L3.07-5.422h1.57a4.37,4.37,0,0,0,1.426-.207,2.71,2.71,0,0,0,.984-.57,2.222,2.222,0,0,0,.57-.859A3.1,3.1,0,0,0,7.8-8.141ZM19.955,0h-1.3l1.594-7.516q.094-.445.242-1.012t.344-1.215H20.8q-.094.188-.234.418t-.293.445q-.152.215-.277.387t-.18.258L15.806-2.922h-.641l-1.75-5.3a1.939,1.939,0,0,0-.074-.27q-.059-.176-.113-.391t-.1-.441a2.273,2.273,0,0,1-.043-.422h-.031q-.047.336-.152.906T12.642-7.5L11.048,0H9.783l2.375-11.2H13.72l1.773,5.328a6.393,6.393,0,0,1,.184.656,3.757,3.757,0,0,1,.082.531h.047q.125-.234.3-.547a5.787,5.787,0,0,1,.461-.672L20.6-11.2H22.33Zm9.822-6.125A2.381,2.381,0,0,1,29.5-4.973a2.331,2.331,0,0,1-.93.891,5.584,5.584,0,0,1-1.711.574A14.678,14.678,0,0,1,24.23-3.3a1,1,0,0,0-.016.18v.156a2.657,2.657,0,0,0,.117.8,1.8,1.8,0,0,0,.363.656,1.714,1.714,0,0,0,.633.445,2.341,2.341,0,0,0,.918.164,3.9,3.9,0,0,0,1.184-.207,5.087,5.087,0,0,0,1.23-.59L28.417-.43a5.078,5.078,0,0,1-1.023.438A4.4,4.4,0,0,1,26.066.2a3.609,3.609,0,0,1-1.488-.273,2.621,2.621,0,0,1-.977-.73,2.848,2.848,0,0,1-.535-1.055A4.716,4.716,0,0,1,22.9-3.117a5.8,5.8,0,0,1,.156-1.355A5.519,5.519,0,0,1,23.5-5.687a5.148,5.148,0,0,1,.684-1.027,4.444,4.444,0,0,1,.883-.793A4.092,4.092,0,0,1,26.1-8.016a3.7,3.7,0,0,1,1.148-.18,3.319,3.319,0,0,1,1.09.164,2.277,2.277,0,0,1,.789.449,1.915,1.915,0,0,1,.48.66A1.966,1.966,0,0,1,29.777-6.125Zm-1.3.063a.9.9,0,0,0-.363-.766,1.565,1.565,0,0,0-.965-.273,2.163,2.163,0,0,0-.922.207,2.984,2.984,0,0,0-.82.57,3.56,3.56,0,0,0-.648.867,4.038,4.038,0,0,0-.4,1.09,13.5,13.5,0,0,0,1.9-.113,4.925,4.925,0,0,0,1.273-.332,1.712,1.712,0,0,0,.719-.535A1.2,1.2,0,0,0,28.472-6.062Zm3.611.258V-6.852h7.344V-5.8Zm0,3.328V-3.523h7.344v1.047Z" transform="translate(306.941 2436)" fill="#212429"/>
    <path id="Trazado_994795" data-name="Trazado 994795" d="M.378-8.258A4.3,4.3,0,0,1,.1-6.7,3.463,3.463,0,0,1-.759-5.422a4.07,4.07,0,0,1-1.457.863,6.161,6.161,0,0,1-2.078.316H-6L-6.888,0H-8.231l2.367-11.2h2.9a4.264,4.264,0,0,1,1.535.246A2.889,2.889,0,0,1-.391-10.3a2.493,2.493,0,0,1,.586.941A3.349,3.349,0,0,1,.378-8.258ZM-1-8.141a1.986,1.986,0,0,0-.145-.77A1.589,1.589,0,0,0-1.575-9.5a1.937,1.937,0,0,0-.7-.379,3.189,3.189,0,0,0-.965-.133H-4.763l-.977,4.594h1.57a4.37,4.37,0,0,0,1.426-.207,2.71,2.71,0,0,0,.984-.57,2.222,2.222,0,0,0,.57-.859A3.1,3.1,0,0,0-1-8.141Zm10.7-1.875H6.5L4.4,0H3.052L5.177-10.016H1.919l.25-1.187H9.95ZM2.68,24h-5.8L-.758,12.8H.6l-2.125,9.984H2.938Z" transform="translate(411.941 2424)" fill="#212429"/>
    <path id="Trazado_994259" data-name="Trazado 994259" d="M4204.926,4714.5h86.192" transform="translate(-3838.059 -2285)" fill="none" stroke="#0b0a0a" stroke-width="1"/>
  </g>
</svg>
