<svg xmlns="http://www.w3.org/2000/svg" width="651" height="789" viewBox="0 0 651 789">
  <g id="Grupo_1159266" data-name="Grupo 1159266" transform="translate(-475 -2655)">
    <path id="Trazado_994796" data-name="Trazado 994796" d="M0,0H651V789H0Z" transform="translate(475 2655)" fill="#fff"/>
    <path id="Trazado_994255" data-name="Trazado 994255" d="M4089.389,4149.312v268.631h317.23" transform="translate(-3422 -1421.877)" fill="none" stroke="#0b0a0a" stroke-width="1.5"/>
    <path id="Contenido" d="M4.28-4.342V0H1.441V-12.6H5.889q4.764,0,4.764,4.017A3.854,3.854,0,0,1,9.286-5.515,5.414,5.414,0,0,1,5.634-4.342Zm0-6.082V-6.5H5.4q2.268,0,2.268-1.986,0-1.942-2.268-1.942ZM18.1-6.5a2.409,2.409,0,0,0-1.169-.272,1.684,1.684,0,0,0-1.415.664A2.9,2.9,0,0,0,15-4.3V0H12.227V-9H15v1.67h.035a2.4,2.4,0,0,1,2.373-1.828,1.788,1.788,0,0,1,.686.105ZM23.611.22a4.838,4.838,0,0,1-3.538-1.261,4.573,4.573,0,0,1-1.288-3.423,4.573,4.573,0,0,1,1.336-3.494A5.048,5.048,0,0,1,23.734-9.22,4.78,4.78,0,0,1,27.25-7.958a4.483,4.483,0,0,1,1.274,3.335A4.759,4.759,0,0,1,27.21-1.081,4.892,4.892,0,0,1,23.611.22Zm.07-7.312a1.852,1.852,0,0,0-1.529.677A2.984,2.984,0,0,0,21.607-4.5q0,2.593,2.092,2.593,2,0,2-2.663Q25.694-7.093,23.681-7.093ZM39.134,0H36.357V-1.239h-.035A3.114,3.114,0,0,1,33.536.22,3.412,3.412,0,0,1,30.82-.971,4.93,4.93,0,0,1,29.792-4.3a5.366,5.366,0,0,1,1.134-3.577A3.7,3.7,0,0,1,33.9-9.22a2.527,2.527,0,0,1,2.426,1.248h.035v-5.353h2.777ZM36.41-4.377v-.677a2.13,2.13,0,0,0-.51-1.459,1.683,1.683,0,0,0-1.327-.58,1.673,1.673,0,0,0-1.441.725,3.367,3.367,0,0,0-.519,1.991,2.914,2.914,0,0,0,.5,1.828,1.663,1.663,0,0,0,1.389.642,1.67,1.67,0,0,0,1.375-.677A2.821,2.821,0,0,0,36.41-4.377ZM50.026,0H47.257V-1.371h-.044A3.141,3.141,0,0,1,44.462.22q-3.129,0-3.129-3.788V-9H44.1v5.186q0,1.907,1.512,1.907a1.5,1.5,0,0,0,1.2-.523,2.109,2.109,0,0,0,.448-1.419V-9h2.769Zm9.16-.325A5.492,5.492,0,0,1,56.47.22a4.593,4.593,0,0,1-3.357-1.257A4.341,4.341,0,0,1,51.829-4.28,4.782,4.782,0,0,1,53.2-7.9,5.083,5.083,0,0,1,56.883-9.22a4.72,4.72,0,0,1,2.3.422v2.355a3.166,3.166,0,0,0-1.942-.65,2.559,2.559,0,0,0-1.894.7,2.607,2.607,0,0,0-.7,1.929,2.565,2.565,0,0,0,.668,1.876,2.455,2.455,0,0,0,1.837.681,3.666,3.666,0,0,0,2.03-.65Zm8.641,0A5.492,5.492,0,0,1,65.111.22a4.593,4.593,0,0,1-3.357-1.257A4.341,4.341,0,0,1,60.471-4.28,4.782,4.782,0,0,1,61.846-7.9,5.083,5.083,0,0,1,65.524-9.22a4.72,4.72,0,0,1,2.3.422v2.355a3.166,3.166,0,0,0-1.942-.65,2.559,2.559,0,0,0-1.894.7,2.607,2.607,0,0,0-.7,1.929,2.565,2.565,0,0,0,.668,1.876,2.455,2.455,0,0,0,1.837.681,3.666,3.666,0,0,0,2.03-.65Zm3.227-10.1a1.622,1.622,0,0,1-1.151-.417,1.345,1.345,0,0,1-.448-1.024,1.3,1.3,0,0,1,.448-1.02,1.676,1.676,0,0,1,1.151-.4,1.672,1.672,0,0,1,1.156.4,1.3,1.3,0,0,1,.444,1.02,1.34,1.34,0,0,1-.444,1.037A1.65,1.65,0,0,1,71.055-10.424ZM72.426,0H69.648V-9h2.777Zm6.629.22a4.838,4.838,0,0,1-3.538-1.261,4.573,4.573,0,0,1-1.288-3.423,4.573,4.573,0,0,1,1.336-3.494A5.048,5.048,0,0,1,79.177-9.22a4.78,4.78,0,0,1,3.516,1.261,4.483,4.483,0,0,1,1.274,3.335,4.759,4.759,0,0,1-1.314,3.542A4.892,4.892,0,0,1,79.054.22Zm.07-7.312a1.852,1.852,0,0,0-1.529.677A2.984,2.984,0,0,0,77.051-4.5q0,2.593,2.092,2.593,2,0,2-2.663Q81.137-7.093,79.125-7.093Zm2.979-6.17-2.751,2.839h-2l2.285-2.839ZM94.455,0H91.686V-5q0-2.092-1.494-2.092a1.483,1.483,0,0,0-1.187.554,2.109,2.109,0,0,0-.466,1.406V0H85.762V-9H88.54v1.424h.035A3.183,3.183,0,0,1,91.466-9.22q2.988,0,2.988,3.709Z" transform="translate(617 2713)" fill="#212429"/>
    <path id="Contenido-2" data-name="Contenido" d="M11.575-9.018a4.929,4.929,0,0,1-.325,1.78,3.964,3.964,0,0,1-1.011,1.49A5,5,0,0,1,8.5-4.724a7.419,7.419,0,0,1-2.522.382H4.21L3.3,0H.431L3.111-12.6H7.436a5.568,5.568,0,0,1,1.854.277,3.576,3.576,0,0,1,1.288.756,2.993,2.993,0,0,1,.751,1.134A4,4,0,0,1,11.575-9.018Zm-3.006.193a1.477,1.477,0,0,0-.492-1.165,2.129,2.129,0,0,0-1.45-.435H5.511L4.676-6.5h1.3a3.223,3.223,0,0,0,1.165-.189,2.254,2.254,0,0,0,.8-.51,2.042,2.042,0,0,0,.47-.743A2.571,2.571,0,0,0,8.569-8.824Zm14.223-1.468H19.241L17.061,0H14.2l2.171-10.292H12.781l.5-2.312H23.293Z" transform="translate(976 2753)" fill="#212429"/>
    <path id="Contenido-3" data-name="Contenido" d="M4.28,0H1.441V-12.6H4.28ZM15.567,0H12.8V-5q0-2.092-1.494-2.092a1.483,1.483,0,0,0-1.187.554,2.109,2.109,0,0,0-.466,1.406V0H6.875V-9H9.652v1.424h.035A3.183,3.183,0,0,1,12.579-9.22q2.988,0,2.988,3.709Zm1.61-.237v-2.25a5.913,5.913,0,0,0,1.367.615,4.531,4.531,0,0,0,1.288.2A2.762,2.762,0,0,0,21-1.872a.653.653,0,0,0,.426-.615.569.569,0,0,0-.193-.439,1.8,1.8,0,0,0-.5-.308,5.635,5.635,0,0,0-.664-.237q-.36-.105-.694-.237a6.653,6.653,0,0,1-.945-.435,2.731,2.731,0,0,1-.686-.541,2.125,2.125,0,0,1-.422-.712,2.841,2.841,0,0,1-.145-.958,2.466,2.466,0,0,1,.33-1.3,2.692,2.692,0,0,1,.879-.892,4.016,4.016,0,0,1,1.257-.51,6.553,6.553,0,0,1,1.472-.163,8.168,8.168,0,0,1,1.213.092,9.053,9.053,0,0,1,1.213.268v2.145a4.383,4.383,0,0,0-1.129-.461,4.764,4.764,0,0,0-1.182-.154,2.619,2.619,0,0,0-.514.048,1.693,1.693,0,0,0-.426.141A.783.783,0,0,0,20-6.9a.546.546,0,0,0-.105.33.609.609,0,0,0,.158.422,1.374,1.374,0,0,0,.413.3,4.078,4.078,0,0,0,.567.229q.312.1.62.207a8.056,8.056,0,0,1,1,.422,3.2,3.2,0,0,1,.769.536,2.105,2.105,0,0,1,.492.721,2.562,2.562,0,0,1,.171.984,2.568,2.568,0,0,1-.347,1.367,2.78,2.78,0,0,1-.923.923,4.185,4.185,0,0,1-1.327.519,7.357,7.357,0,0,1-1.56.163A8.042,8.042,0,0,1,17.177-.237ZM34.239,0H31.47V-1.371h-.044A3.141,3.141,0,0,1,28.675.22q-3.129,0-3.129-3.788V-9h2.769v5.186q0,1.907,1.512,1.907a1.5,1.5,0,0,0,1.2-.523A2.109,2.109,0,0,0,31.47-3.85V-9h2.769ZM50.87,0H48.1V-5.133q0-1.96-1.441-1.96a1.324,1.324,0,0,0-1.116.589,2.42,2.42,0,0,0-.431,1.468V0H42.335V-5.186q0-1.907-1.415-1.907a1.356,1.356,0,0,0-1.138.563A2.475,2.475,0,0,0,39.356-5V0H36.578V-9h2.777v1.406h.035A3.321,3.321,0,0,1,40.6-8.767a3.321,3.321,0,0,1,1.7-.453,2.592,2.592,0,0,1,2.61,1.679A3.329,3.329,0,0,1,47.934-9.22q2.936,0,2.936,3.621Zm6.488.22A4.838,4.838,0,0,1,53.82-1.042a4.573,4.573,0,0,1-1.288-3.423,4.573,4.573,0,0,1,1.336-3.494A5.048,5.048,0,0,1,57.481-9.22,4.78,4.78,0,0,1,61-7.958a4.483,4.483,0,0,1,1.274,3.335,4.759,4.759,0,0,1-1.314,3.542A4.892,4.892,0,0,1,57.358.22Zm.07-7.312a1.852,1.852,0,0,0-1.529.677A2.984,2.984,0,0,0,55.354-4.5q0,2.593,2.092,2.593,2,0,2-2.663Q59.441-7.093,57.428-7.093ZM63.485-.237v-2.25a5.913,5.913,0,0,0,1.367.615,4.531,4.531,0,0,0,1.288.2,2.762,2.762,0,0,0,1.165-.2.653.653,0,0,0,.426-.615.569.569,0,0,0-.193-.439,1.8,1.8,0,0,0-.5-.308,5.635,5.635,0,0,0-.664-.237q-.36-.105-.694-.237a6.652,6.652,0,0,1-.945-.435,2.731,2.731,0,0,1-.686-.541A2.125,2.125,0,0,1,63.63-5.4a2.841,2.841,0,0,1-.145-.958,2.466,2.466,0,0,1,.33-1.3,2.692,2.692,0,0,1,.879-.892,4.016,4.016,0,0,1,1.257-.51,6.553,6.553,0,0,1,1.472-.163,8.168,8.168,0,0,1,1.213.092,9.053,9.053,0,0,1,1.213.268v2.145a4.383,4.383,0,0,0-1.129-.461,4.764,4.764,0,0,0-1.182-.154,2.619,2.619,0,0,0-.514.048,1.693,1.693,0,0,0-.426.141.783.783,0,0,0-.29.237.546.546,0,0,0-.105.33.609.609,0,0,0,.158.422,1.374,1.374,0,0,0,.413.3,4.077,4.077,0,0,0,.567.229q.312.1.62.207a8.056,8.056,0,0,1,1,.422,3.2,3.2,0,0,1,.769.536,2.106,2.106,0,0,1,.492.721,2.562,2.562,0,0,1,.171.984,2.568,2.568,0,0,1-.347,1.367,2.78,2.78,0,0,1-.923.923A4.185,4.185,0,0,1,67.8.057a7.358,7.358,0,0,1-1.56.163A8.042,8.042,0,0,1,63.485-.237ZM85.769,0H82.992V-1.239h-.035A3.114,3.114,0,0,1,80.171.22,3.412,3.412,0,0,1,77.455-.971,4.93,4.93,0,0,1,76.427-4.3,5.366,5.366,0,0,1,77.56-7.875,3.7,3.7,0,0,1,80.531-9.22a2.527,2.527,0,0,1,2.426,1.248h.035v-5.353h2.777ZM83.045-4.377v-.677a2.13,2.13,0,0,0-.51-1.459,1.683,1.683,0,0,0-1.327-.58,1.673,1.673,0,0,0-1.441.725,3.367,3.367,0,0,0-.519,1.991,2.914,2.914,0,0,0,.5,1.828,1.663,1.663,0,0,0,1.389.642,1.67,1.67,0,0,0,1.375-.677A2.821,2.821,0,0,0,83.045-4.377Zm13.15.668H90.324q.141,1.96,2.47,1.96a4.822,4.822,0,0,0,2.61-.7v2A6.858,6.858,0,0,1,92.161.22,4.565,4.565,0,0,1,88.777-.989a4.566,4.566,0,0,1-1.2-3.371,4.816,4.816,0,0,1,1.3-3.551,4.334,4.334,0,0,1,3.2-1.31,3.933,3.933,0,0,1,3.045,1.169,4.5,4.5,0,0,1,1.077,3.173ZM93.62-5.414q0-1.934-1.564-1.934a1.494,1.494,0,0,0-1.156.554,2.513,2.513,0,0,0-.593,1.38ZM108.257-.105A4.105,4.105,0,0,1,106.4.22q-2.936,0-2.936-3.05V-6.952h-1.459V-9h1.459v-1.942l2.769-.791V-9h2.021v2.048h-2.021v3.639q0,1.406,1.116,1.406a1.882,1.882,0,0,0,.905-.255Zm7.437-6.39a2.409,2.409,0,0,0-1.169-.272,1.684,1.684,0,0,0-1.415.664A2.9,2.9,0,0,0,112.6-4.3V0h-2.777V-9H112.6v1.67h.035a2.4,2.4,0,0,1,2.373-1.828,1.788,1.788,0,0,1,.686.105ZM124.477,0h-2.628V-1.292h-.035A2.933,2.933,0,0,1,119.133.22a2.8,2.8,0,0,1-2.061-.743A2.661,2.661,0,0,1,116.32-2.5q0-2.619,3.1-3.023l2.443-.325q0-1.477-1.6-1.477a5.46,5.46,0,0,0-3.059.958V-8.464a6.881,6.881,0,0,1,1.586-.527,8.339,8.339,0,0,1,1.833-.229q3.85,0,3.85,3.841Zm-2.61-3.656v-.606l-1.635.211q-1.354.176-1.354,1.222a1.01,1.01,0,0,0,.33.778,1.266,1.266,0,0,0,.892.3,1.644,1.644,0,0,0,1.274-.541A1.952,1.952,0,0,0,121.866-3.656ZM134.164,0h-2.628V-1.292H131.5A2.933,2.933,0,0,1,128.82.22a2.8,2.8,0,0,1-2.061-.743,2.661,2.661,0,0,1-.751-1.982q0-2.619,3.1-3.023l2.443-.325q0-1.477-1.6-1.477a5.46,5.46,0,0,0-3.059.958V-8.464a6.881,6.881,0,0,1,1.586-.527,8.339,8.339,0,0,1,1.833-.229q3.85,0,3.85,3.841Zm-2.61-3.656v-.606l-1.635.211q-1.354.176-1.354,1.222a1.01,1.01,0,0,0,.33.778,1.266,1.266,0,0,0,.892.3,1.644,1.644,0,0,0,1.274-.541A1.952,1.952,0,0,0,131.554-3.656Zm6.216-6.768a1.622,1.622,0,0,1-1.151-.417,1.345,1.345,0,0,1-.448-1.024,1.3,1.3,0,0,1,.448-1.02,1.676,1.676,0,0,1,1.151-.4,1.672,1.672,0,0,1,1.156.4,1.3,1.3,0,0,1,.444,1.02,1.34,1.34,0,0,1-.444,1.037A1.65,1.65,0,0,1,137.769-10.424ZM139.14-.158a4.892,4.892,0,0,1-.976,3.19,3.421,3.421,0,0,1-2.812,1.2,3.889,3.889,0,0,1-1.327-.264V1.784a2.163,2.163,0,0,0,1.028.325q1.31,0,1.31-2.057V-9h2.777Zm6.629.378a4.838,4.838,0,0,1-3.538-1.261,4.573,4.573,0,0,1-1.288-3.423,4.573,4.573,0,0,1,1.336-3.494,5.048,5.048,0,0,1,3.612-1.261,4.78,4.78,0,0,1,3.516,1.261,4.483,4.483,0,0,1,1.274,3.335,4.759,4.759,0,0,1-1.314,3.542A4.892,4.892,0,0,1,145.769.22Zm.07-7.312a1.852,1.852,0,0,0-1.529.677,2.984,2.984,0,0,0-.545,1.916q0,2.593,2.092,2.593,2,0,2-2.663Q147.852-7.093,145.839-7.093Z" transform="translate(830.619 3022)" fill="#212429"/>
    <path id="Trazado_994255-2" data-name="Trazado 994255" d="M4089.389,4149.312v268.631h317.23" transform="translate(-3422 -1080.877)" fill="none" stroke="#0b0a0a" stroke-width="1.5"/>
    <path id="Contenido-4" data-name="Contenido" d="M4.28-4.342V0H1.441V-12.6H5.889q4.764,0,4.764,4.017A3.854,3.854,0,0,1,9.286-5.515,5.414,5.414,0,0,1,5.634-4.342Zm0-6.082V-6.5H5.4q2.268,0,2.268-1.986,0-1.942-2.268-1.942ZM26.861,0h-2.8V-7.541q0-1.222.105-2.7h-.07a13.278,13.278,0,0,1-.4,1.67L20.744,0h-2.32L15.418-8.481a16.5,16.5,0,0,1-.4-1.758h-.079q.114,1.863.114,3.27V0H12.5V-12.6h4.157l2.575,7.471a10.519,10.519,0,0,1,.448,1.8h.053a18.142,18.142,0,0,1,.5-1.819L22.809-12.6h4.052ZM37.542-3.709H31.671q.141,1.96,2.47,1.96a4.822,4.822,0,0,0,2.61-.7v2A6.858,6.858,0,0,1,33.508.22,4.565,4.565,0,0,1,30.124-.989a4.566,4.566,0,0,1-1.2-3.371,4.816,4.816,0,0,1,1.3-3.551,4.334,4.334,0,0,1,3.2-1.31,3.933,3.933,0,0,1,3.045,1.169,4.5,4.5,0,0,1,1.077,3.173ZM34.966-5.414q0-1.934-1.564-1.934a1.494,1.494,0,0,0-1.156.554,2.513,2.513,0,0,0-.593,1.38Z" transform="translate(647 3054)" fill="#212429"/>
    <path id="Contenido-5" data-name="Contenido" d="M11.575-9.018a4.929,4.929,0,0,1-.325,1.78,3.964,3.964,0,0,1-1.011,1.49A5,5,0,0,1,8.5-4.724a7.419,7.419,0,0,1-2.522.382H4.21L3.3,0H.431L3.111-12.6H7.436a5.568,5.568,0,0,1,1.854.277,3.576,3.576,0,0,1,1.288.756,2.993,2.993,0,0,1,.751,1.134A4,4,0,0,1,11.575-9.018Zm-3.006.193a1.477,1.477,0,0,0-.492-1.165,2.129,2.129,0,0,0-1.45-.435H5.511L4.676-6.5h1.3a3.223,3.223,0,0,0,1.165-.189,2.254,2.254,0,0,0,.8-.51,2.042,2.042,0,0,0,.47-.743A2.571,2.571,0,0,0,8.569-8.824ZM24.567,0H22.018l1.6-7.541q.264-1.2.686-2.7h-.07q-.123.281-.259.563t-.268.532q-.132.25-.246.448t-.2.321l-3.375,4.6H17.9l-1.31-4.509a2.552,2.552,0,0,1-.083-.417,4.323,4.323,0,0,1-.04-.593v-.94h-.079q-.123.826-.242,1.521T15.928-7.55L14.319,0H11.762l2.681-12.6h3.375l1.292,4.377q.062.211.114.453t.088.483q.035.242.053.466t.018.4h.044q.1-.193.207-.435t.229-.492q.119-.25.25-.483a3.814,3.814,0,0,1,.264-.409L23.592-12.6h3.656ZM36.232-6.68a2.775,2.775,0,0,1-.294,1.274,2.551,2.551,0,0,1-.984,1,5.86,5.86,0,0,1-1.833.664,15.212,15.212,0,0,1-2.848.268.3.3,0,0,0-.018.092V-3.3a1.766,1.766,0,0,0,.088.545,1.244,1.244,0,0,0,.3.492,1.579,1.579,0,0,0,.567.356,2.451,2.451,0,0,0,.879.136,4.587,4.587,0,0,0,.69-.057,6.228,6.228,0,0,0,.76-.167,7.692,7.692,0,0,0,.769-.264,5.873,5.873,0,0,0,.708-.338L34.589-.519a5.828,5.828,0,0,1-.624.272,7.516,7.516,0,0,1-.76.237,7.394,7.394,0,0,1-.87.167,7.142,7.142,0,0,1-.945.062,4.607,4.607,0,0,1-1.749-.3,3.337,3.337,0,0,1-1.2-.8,3.132,3.132,0,0,1-.69-1.182,4.64,4.64,0,0,1-.22-1.441A6.276,6.276,0,0,1,27.913-5.7,5.536,5.536,0,0,1,29-7.515a5.231,5.231,0,0,1,1.705-1.244,5.245,5.245,0,0,1,2.228-.461,4.751,4.751,0,0,1,1.512.211,2.882,2.882,0,0,1,1.02.567,2.192,2.192,0,0,1,.58.813A2.512,2.512,0,0,1,36.232-6.68Zm-2.646.035a.693.693,0,0,0-.242-.541.99.99,0,0,0-.681-.215,1.729,1.729,0,0,0-.743.167,2.3,2.3,0,0,0-.65.461,2.8,2.8,0,0,0-.505.7,3.637,3.637,0,0,0-.316.883,5.5,5.5,0,0,0,2.36-.36A1.188,1.188,0,0,0,33.587-6.645Z" transform="translate(961 3293)" fill="#212429"/>
    <path id="Contenido-6" data-name="Contenido" d="M4.28,0H1.441V-12.6H4.28ZM15.567,0H12.8V-5q0-2.092-1.494-2.092a1.483,1.483,0,0,0-1.187.554,2.109,2.109,0,0,0-.466,1.406V0H6.875V-9H9.652v1.424h.035A3.183,3.183,0,0,1,12.579-9.22q2.988,0,2.988,3.709Zm1.61-.237v-2.25a5.913,5.913,0,0,0,1.367.615,4.531,4.531,0,0,0,1.288.2A2.762,2.762,0,0,0,21-1.872a.653.653,0,0,0,.426-.615.569.569,0,0,0-.193-.439,1.8,1.8,0,0,0-.5-.308,5.635,5.635,0,0,0-.664-.237q-.36-.105-.694-.237a6.653,6.653,0,0,1-.945-.435,2.731,2.731,0,0,1-.686-.541,2.125,2.125,0,0,1-.422-.712,2.841,2.841,0,0,1-.145-.958,2.466,2.466,0,0,1,.33-1.3,2.692,2.692,0,0,1,.879-.892,4.016,4.016,0,0,1,1.257-.51,6.553,6.553,0,0,1,1.472-.163,8.168,8.168,0,0,1,1.213.092,9.053,9.053,0,0,1,1.213.268v2.145a4.383,4.383,0,0,0-1.129-.461,4.764,4.764,0,0,0-1.182-.154,2.619,2.619,0,0,0-.514.048,1.693,1.693,0,0,0-.426.141A.783.783,0,0,0,20-6.9a.546.546,0,0,0-.105.33.609.609,0,0,0,.158.422,1.374,1.374,0,0,0,.413.3,4.078,4.078,0,0,0,.567.229q.312.1.62.207a8.056,8.056,0,0,1,1,.422,3.2,3.2,0,0,1,.769.536,2.105,2.105,0,0,1,.492.721,2.562,2.562,0,0,1,.171.984,2.568,2.568,0,0,1-.347,1.367,2.78,2.78,0,0,1-.923.923,4.185,4.185,0,0,1-1.327.519,7.357,7.357,0,0,1-1.56.163A8.042,8.042,0,0,1,17.177-.237ZM34.239,0H31.47V-1.371h-.044A3.141,3.141,0,0,1,28.675.22q-3.129,0-3.129-3.788V-9h2.769v5.186q0,1.907,1.512,1.907a1.5,1.5,0,0,0,1.2-.523A2.109,2.109,0,0,0,31.47-3.85V-9h2.769ZM50.87,0H48.1V-5.133q0-1.96-1.441-1.96a1.324,1.324,0,0,0-1.116.589,2.42,2.42,0,0,0-.431,1.468V0H42.335V-5.186q0-1.907-1.415-1.907a1.356,1.356,0,0,0-1.138.563A2.475,2.475,0,0,0,39.356-5V0H36.578V-9h2.777v1.406h.035A3.321,3.321,0,0,1,40.6-8.767a3.321,3.321,0,0,1,1.7-.453,2.592,2.592,0,0,1,2.61,1.679A3.329,3.329,0,0,1,47.934-9.22q2.936,0,2.936,3.621Zm6.488.22A4.838,4.838,0,0,1,53.82-1.042a4.573,4.573,0,0,1-1.288-3.423,4.573,4.573,0,0,1,1.336-3.494A5.048,5.048,0,0,1,57.481-9.22,4.78,4.78,0,0,1,61-7.958a4.483,4.483,0,0,1,1.274,3.335,4.759,4.759,0,0,1-1.314,3.542A4.892,4.892,0,0,1,57.358.22Zm.07-7.312a1.852,1.852,0,0,0-1.529.677A2.984,2.984,0,0,0,55.354-4.5q0,2.593,2.092,2.593,2,0,2-2.663Q59.441-7.093,57.428-7.093ZM63.485-.237v-2.25a5.913,5.913,0,0,0,1.367.615,4.531,4.531,0,0,0,1.288.2,2.762,2.762,0,0,0,1.165-.2.653.653,0,0,0,.426-.615.569.569,0,0,0-.193-.439,1.8,1.8,0,0,0-.5-.308,5.635,5.635,0,0,0-.664-.237q-.36-.105-.694-.237a6.652,6.652,0,0,1-.945-.435,2.731,2.731,0,0,1-.686-.541A2.125,2.125,0,0,1,63.63-5.4a2.841,2.841,0,0,1-.145-.958,2.466,2.466,0,0,1,.33-1.3,2.692,2.692,0,0,1,.879-.892,4.016,4.016,0,0,1,1.257-.51,6.553,6.553,0,0,1,1.472-.163,8.168,8.168,0,0,1,1.213.092,9.053,9.053,0,0,1,1.213.268v2.145a4.383,4.383,0,0,0-1.129-.461,4.764,4.764,0,0,0-1.182-.154,2.619,2.619,0,0,0-.514.048,1.693,1.693,0,0,0-.426.141.783.783,0,0,0-.29.237.546.546,0,0,0-.105.33.609.609,0,0,0,.158.422,1.374,1.374,0,0,0,.413.3,4.077,4.077,0,0,0,.567.229q.312.1.62.207a8.056,8.056,0,0,1,1,.422,3.2,3.2,0,0,1,.769.536,2.106,2.106,0,0,1,.492.721,2.562,2.562,0,0,1,.171.984,2.568,2.568,0,0,1-.347,1.367,2.78,2.78,0,0,1-.923.923A4.185,4.185,0,0,1,67.8.057a7.358,7.358,0,0,1-1.56.163A8.042,8.042,0,0,1,63.485-.237ZM85.769,0H82.992V-1.239h-.035A3.114,3.114,0,0,1,80.171.22,3.412,3.412,0,0,1,77.455-.971,4.93,4.93,0,0,1,76.427-4.3,5.366,5.366,0,0,1,77.56-7.875,3.7,3.7,0,0,1,80.531-9.22a2.527,2.527,0,0,1,2.426,1.248h.035v-5.353h2.777ZM83.045-4.377v-.677a2.13,2.13,0,0,0-.51-1.459,1.683,1.683,0,0,0-1.327-.58,1.673,1.673,0,0,0-1.441.725,3.367,3.367,0,0,0-.519,1.991,2.914,2.914,0,0,0,.5,1.828,1.663,1.663,0,0,0,1.389.642,1.67,1.67,0,0,0,1.375-.677A2.821,2.821,0,0,0,83.045-4.377Zm13.15.668H90.324q.141,1.96,2.47,1.96a4.822,4.822,0,0,0,2.61-.7v2A6.858,6.858,0,0,1,92.161.22,4.565,4.565,0,0,1,88.777-.989a4.566,4.566,0,0,1-1.2-3.371,4.816,4.816,0,0,1,1.3-3.551,4.334,4.334,0,0,1,3.2-1.31,3.933,3.933,0,0,1,3.045,1.169,4.5,4.5,0,0,1,1.077,3.173ZM93.62-5.414q0-1.934-1.564-1.934a1.494,1.494,0,0,0-1.156.554,2.513,2.513,0,0,0-.593,1.38ZM108.257-.105A4.105,4.105,0,0,1,106.4.22q-2.936,0-2.936-3.05V-6.952h-1.459V-9h1.459v-1.942l2.769-.791V-9h2.021v2.048h-2.021v3.639q0,1.406,1.116,1.406a1.882,1.882,0,0,0,.905-.255Zm7.437-6.39a2.409,2.409,0,0,0-1.169-.272,1.684,1.684,0,0,0-1.415.664A2.9,2.9,0,0,0,112.6-4.3V0h-2.777V-9H112.6v1.67h.035a2.4,2.4,0,0,1,2.373-1.828,1.788,1.788,0,0,1,.686.105ZM124.477,0h-2.628V-1.292h-.035A2.933,2.933,0,0,1,119.133.22a2.8,2.8,0,0,1-2.061-.743A2.661,2.661,0,0,1,116.32-2.5q0-2.619,3.1-3.023l2.443-.325q0-1.477-1.6-1.477a5.46,5.46,0,0,0-3.059.958V-8.464a6.881,6.881,0,0,1,1.586-.527,8.339,8.339,0,0,1,1.833-.229q3.85,0,3.85,3.841Zm-2.61-3.656v-.606l-1.635.211q-1.354.176-1.354,1.222a1.01,1.01,0,0,0,.33.778,1.266,1.266,0,0,0,.892.3,1.644,1.644,0,0,0,1.274-.541A1.952,1.952,0,0,0,121.866-3.656ZM134.164,0h-2.628V-1.292H131.5A2.933,2.933,0,0,1,128.82.22a2.8,2.8,0,0,1-2.061-.743,2.661,2.661,0,0,1-.751-1.982q0-2.619,3.1-3.023l2.443-.325q0-1.477-1.6-1.477a5.46,5.46,0,0,0-3.059.958V-8.464a6.881,6.881,0,0,1,1.586-.527,8.339,8.339,0,0,1,1.833-.229q3.85,0,3.85,3.841Zm-2.61-3.656v-.606l-1.635.211q-1.354.176-1.354,1.222a1.01,1.01,0,0,0,.33.778,1.266,1.266,0,0,0,.892.3,1.644,1.644,0,0,0,1.274-.541A1.952,1.952,0,0,0,131.554-3.656Zm6.216-6.768a1.622,1.622,0,0,1-1.151-.417,1.345,1.345,0,0,1-.448-1.024,1.3,1.3,0,0,1,.448-1.02,1.676,1.676,0,0,1,1.151-.4,1.672,1.672,0,0,1,1.156.4,1.3,1.3,0,0,1,.444,1.02,1.34,1.34,0,0,1-.444,1.037A1.65,1.65,0,0,1,137.769-10.424ZM139.14-.158a4.892,4.892,0,0,1-.976,3.19,3.421,3.421,0,0,1-2.812,1.2,3.889,3.889,0,0,1-1.327-.264V1.784a2.163,2.163,0,0,0,1.028.325q1.31,0,1.31-2.057V-9h2.777Zm6.629.378a4.838,4.838,0,0,1-3.538-1.261,4.573,4.573,0,0,1-1.288-3.423,4.573,4.573,0,0,1,1.336-3.494,5.048,5.048,0,0,1,3.612-1.261,4.78,4.78,0,0,1,3.516,1.261,4.483,4.483,0,0,1,1.274,3.335,4.759,4.759,0,0,1-1.314,3.542A4.892,4.892,0,0,1,145.769.22Zm.07-7.312a1.852,1.852,0,0,0-1.529.677,2.984,2.984,0,0,0-.545,1.916q0,2.593,2.092,2.593,2,0,2-2.663Q147.852-7.093,145.839-7.093Z" transform="translate(830.619 3366)" fill="#212429"/>
    <path id="Contenido-7" data-name="Contenido" d="M8.332,0H1.652V-12.6h6.4v1.336H3.129v4.192H7.682v1.327H3.129v4.412h5.2Zm1.689-.325V-1.872A4.266,4.266,0,0,0,12.614-1q1.9,0,1.9-1.266a1.1,1.1,0,0,0-.163-.611,1.621,1.621,0,0,0-.439-.444,3.383,3.383,0,0,0-.65-.347q-.374-.154-.8-.321a10.357,10.357,0,0,1-1.05-.479,3.173,3.173,0,0,1-.756-.545,2.028,2.028,0,0,1-.457-.69,2.441,2.441,0,0,1-.154-.905,2.15,2.15,0,0,1,.29-1.121,2.572,2.572,0,0,1,.773-.817,3.607,3.607,0,0,1,1.1-.5,4.893,4.893,0,0,1,1.279-.167,5.164,5.164,0,0,1,2.092.4v1.459A4.077,4.077,0,0,0,13.291-8a2.671,2.671,0,0,0-.729.092A1.786,1.786,0,0,0,12-7.646a1.2,1.2,0,0,0-.36.4,1.053,1.053,0,0,0-.127.514,1.233,1.233,0,0,0,.127.589,1.3,1.3,0,0,0,.374.422,2.855,2.855,0,0,0,.6.334q.352.149.8.325a11.131,11.131,0,0,1,1.072.47,3.678,3.678,0,0,1,.809.545,2.129,2.129,0,0,1,.514.7,2.254,2.254,0,0,1,.18.94,2.217,2.217,0,0,1-.294,1.16,2.523,2.523,0,0,1-.787.817,3.6,3.6,0,0,1-1.134.483A5.6,5.6,0,0,1,12.43.211,5.106,5.106,0,0,1,10.021-.325ZM24.58,0H23.138V-13.324H24.58Zm9.362,0H32.5V-1.406h-.035A3.018,3.018,0,0,1,29.7.211a2.959,2.959,0,0,1-2.1-.712,2.466,2.466,0,0,1-.76-1.89q0-2.522,2.971-2.936L32.5-5.7Q32.5-8,30.646-8A4.431,4.431,0,0,0,27.71-6.891V-8.367a5.577,5.577,0,0,1,3.059-.844q3.173,0,3.173,3.357ZM32.5-4.553l-2.171.3a3.525,3.525,0,0,0-1.512.5,1.432,1.432,0,0,0-.51,1.261,1.374,1.374,0,0,0,.47,1.077A1.817,1.817,0,0,0,30.031-1,2.314,2.314,0,0,0,31.8-1.753a2.685,2.685,0,0,0,.7-1.9ZM43.068-1.3h-.035V4.14H41.592V-9h1.441v1.582h.035A3.408,3.408,0,0,1,46.18-9.211,3.3,3.3,0,0,1,48.9-8a5.005,5.005,0,0,1,.976,3.239,5.578,5.578,0,0,1-1.1,3.617A3.658,3.658,0,0,1,45.767.211,3.011,3.011,0,0,1,43.068-1.3Zm-.035-3.63v1.257a2.676,2.676,0,0,0,.725,1.894A2.408,2.408,0,0,0,45.6-1a2.413,2.413,0,0,0,2.052-1,4.6,4.6,0,0,0,.743-2.786A3.629,3.629,0,0,0,47.7-7.146,2.3,2.3,0,0,0,45.819-8a2.554,2.554,0,0,0-2.021.875A3.211,3.211,0,0,0,43.033-4.931Zm13.836-2.61a1.763,1.763,0,0,0-1.09-.29,1.839,1.839,0,0,0-1.542.87,4.023,4.023,0,0,0-.62,2.373V0H52.176V-9h1.441v1.854h.035a3.143,3.143,0,0,1,.94-1.481,2.144,2.144,0,0,1,1.415-.532,2.353,2.353,0,0,1,.861.123ZM62.2.211A4.175,4.175,0,0,1,59.011-1.05,4.672,4.672,0,0,1,57.82-4.395a4.867,4.867,0,0,1,1.239-3.542,4.455,4.455,0,0,1,3.349-1.274A4.037,4.037,0,0,1,65.55-7.972a4.914,4.914,0,0,1,1.129,3.437,4.835,4.835,0,0,1-1.217,3.45A4.265,4.265,0,0,1,62.2.211ZM62.3-8a2.742,2.742,0,0,0-2.2.945A3.88,3.88,0,0,0,59.3-4.447a3.67,3.67,0,0,0,.817,2.522A2.778,2.778,0,0,0,62.3-1a2.635,2.635,0,0,0,2.149-.905A3.929,3.929,0,0,0,65.2-4.482a4,4,0,0,0-.751-2.6A2.623,2.623,0,0,0,62.3-8ZM76.666,0H75.224V-1.529h-.035A3.327,3.327,0,0,1,72.1.211,3.362,3.362,0,0,1,69.384-1a4.958,4.958,0,0,1-1.015-3.292,5.394,5.394,0,0,1,1.125-3.577,3.71,3.71,0,0,1,3-1.345,2.885,2.885,0,0,1,2.7,1.459h.035v-5.572h1.441ZM75.224-4.069V-5.4A2.575,2.575,0,0,0,74.5-7.242,2.417,2.417,0,0,0,72.675-8a2.489,2.489,0,0,0-2.074.967,4.237,4.237,0,0,0-.756,2.672A3.81,3.81,0,0,0,70.57-1.9a2.37,2.37,0,0,0,1.947.9,2.462,2.462,0,0,0,1.956-.87A3.242,3.242,0,0,0,75.224-4.069ZM86.863,0H85.421V-1.424h-.035A2.96,2.96,0,0,1,82.609.211q-3.217,0-3.217-3.832V-9h1.433v5.15Q80.825-1,83-1A2.205,2.205,0,0,0,84.74-1.78a2.976,2.976,0,0,0,.681-2.035V-9h1.441Zm9.046-.413a4.684,4.684,0,0,1-2.461.624,4.074,4.074,0,0,1-3.107-1.252,4.539,4.539,0,0,1-1.182-3.248,4.99,4.99,0,0,1,1.274-3.573,4.458,4.458,0,0,1,3.4-1.349,4.735,4.735,0,0,1,2.092.439v1.477A3.665,3.665,0,0,0,93.782-8a2.9,2.9,0,0,0-2.263.989,3.752,3.752,0,0,0-.883,2.6,3.573,3.573,0,0,0,.831,2.5A2.863,2.863,0,0,0,93.694-1a3.613,3.613,0,0,0,2.215-.782Zm8.316,0a4.684,4.684,0,0,1-2.461.624,4.074,4.074,0,0,1-3.107-1.252,4.539,4.539,0,0,1-1.182-3.248,4.99,4.99,0,0,1,1.274-3.573,4.458,4.458,0,0,1,3.4-1.349,4.735,4.735,0,0,1,2.092.439v1.477A3.665,3.665,0,0,0,102.1-8a2.9,2.9,0,0,0-2.263.989,3.752,3.752,0,0,0-.883,2.6,3.573,3.573,0,0,0,.831,2.5A2.863,2.863,0,0,0,102.01-1a3.613,3.613,0,0,0,2.215-.782Zm2.92-10.872a.913.913,0,0,1-.659-.264.89.89,0,0,1-.272-.668.9.9,0,0,1,.272-.672.905.905,0,0,1,.659-.268.931.931,0,0,1,.672.268.9.9,0,0,1,.277.672.891.891,0,0,1-.277.659A.923.923,0,0,1,107.144-11.285ZM107.848,0h-1.441V-9h1.441Zm6.681.211a4.175,4.175,0,0,1-3.186-1.261,4.672,4.672,0,0,1-1.191-3.344,4.867,4.867,0,0,1,1.239-3.542,4.455,4.455,0,0,1,3.349-1.274,4.037,4.037,0,0,1,3.142,1.239,4.914,4.914,0,0,1,1.129,3.437,4.835,4.835,0,0,1-1.217,3.45A4.265,4.265,0,0,1,114.529.211ZM114.635-8a2.742,2.742,0,0,0-2.2.945,3.88,3.88,0,0,0-.809,2.606,3.67,3.67,0,0,0,.817,2.522A2.778,2.778,0,0,0,114.635-1a2.635,2.635,0,0,0,2.149-.905,3.928,3.928,0,0,0,.751-2.575,4,4,0,0,0-.751-2.6A2.623,2.623,0,0,0,114.635-8Zm2.109-5.59-2.3,2.883h-1.116l1.96-2.883ZM128.787,0h-1.441V-5.133Q127.345-8,125.254-8a2.269,2.269,0,0,0-1.789.813,3.013,3.013,0,0,0-.708,2.052V0h-1.441V-9h1.441v1.494h.035a3.248,3.248,0,0,1,2.953-1.705A2.753,2.753,0,0,1,128-8.257a4.248,4.248,0,0,1,.782,2.755Zm11.825-.088a2.779,2.779,0,0,1-1.345.281q-2.364,0-2.364-2.637V-7.77h-1.547V-9H136.9v-2.2l1.441-.466V-9h2.268v1.23h-2.268V-2.7a2.1,2.1,0,0,0,.308,1.292,1.228,1.228,0,0,0,1.02.387,1.515,1.515,0,0,0,.94-.3Zm5.688.3a4.175,4.175,0,0,1-3.186-1.261,4.672,4.672,0,0,1-1.191-3.344,4.867,4.867,0,0,1,1.239-3.542,4.455,4.455,0,0,1,3.349-1.274,4.037,4.037,0,0,1,3.142,1.239,4.914,4.914,0,0,1,1.129,3.437,4.835,4.835,0,0,1-1.217,3.45A4.265,4.265,0,0,1,146.3.211ZM146.405-8a2.742,2.742,0,0,0-2.2.945,3.88,3.88,0,0,0-.809,2.606,3.67,3.67,0,0,0,.817,2.522A2.778,2.778,0,0,0,146.405-1a2.635,2.635,0,0,0,2.149-.905,3.928,3.928,0,0,0,.751-2.575,4,4,0,0,0-.751-2.6A2.623,2.623,0,0,0,146.405-8Zm10.856,7.91a2.779,2.779,0,0,1-1.345.281q-2.364,0-2.364-2.637V-7.77h-1.547V-9h1.547v-2.2l1.441-.466V-9h2.268v1.23h-2.268V-2.7a2.1,2.1,0,0,0,.308,1.292,1.228,1.228,0,0,0,1.02.387,1.515,1.515,0,0,0,.94-.3ZM165.631,0h-1.441V-1.406h-.035A3.018,3.018,0,0,1,161.386.211a2.959,2.959,0,0,1-2.1-.712,2.466,2.466,0,0,1-.76-1.89q0-2.522,2.971-2.936l2.7-.378Q164.189-8,162.335-8A4.431,4.431,0,0,0,159.4-6.891V-8.367a5.577,5.577,0,0,1,3.059-.844q3.173,0,3.173,3.357Zm-1.441-4.553-2.171.3a3.525,3.525,0,0,0-1.512.5A1.432,1.432,0,0,0,160-2.5a1.374,1.374,0,0,0,.47,1.077A1.817,1.817,0,0,0,161.72-1a2.314,2.314,0,0,0,1.771-.751,2.685,2.685,0,0,0,.7-1.9ZM169.79,0h-1.441V-13.324h1.441Zm15.534,0h-1.441V-1.529h-.035a3.327,3.327,0,0,1-3.094,1.74A3.362,3.362,0,0,1,178.042-1a4.958,4.958,0,0,1-1.015-3.292,5.394,5.394,0,0,1,1.125-3.577,3.71,3.71,0,0,1,3-1.345,2.885,2.885,0,0,1,2.7,1.459h.035v-5.572h1.441Zm-1.441-4.069V-5.4a2.575,2.575,0,0,0-.721-1.846A2.417,2.417,0,0,0,181.333-8a2.489,2.489,0,0,0-2.074.967,4.237,4.237,0,0,0-.756,2.672,3.81,3.81,0,0,0,.725,2.457,2.37,2.37,0,0,0,1.947.9,2.462,2.462,0,0,0,1.956-.87A3.242,3.242,0,0,0,183.882-4.069Zm5.1-7.216a.913.913,0,0,1-.659-.264.89.89,0,0,1-.272-.668.9.9,0,0,1,.272-.672.905.905,0,0,1,.659-.268.931.931,0,0,1,.672.268.9.9,0,0,1,.277.672.891.891,0,0,1-.277.659A.923.923,0,0,1,188.982-11.285ZM189.685,0h-1.441V-9h1.441Zm9.995-9-3.586,9h-1.415l-3.41-9h1.582l2.285,6.539a5.869,5.869,0,0,1,.316,1.257h.035a5.943,5.943,0,0,1,.281-1.222L198.159-9Zm2.287-2.285a.913.913,0,0,1-.659-.264.89.89,0,0,1-.272-.668.9.9,0,0,1,.272-.672.905.905,0,0,1,.659-.268.931.931,0,0,1,.672.268.9.9,0,0,1,.277.672.891.891,0,0,1-.277.659A.923.923,0,0,1,201.967-11.285ZM202.67,0h-1.441V-9h1.441Zm10.6,0H211.83V-1.529h-.035A3.327,3.327,0,0,1,208.7.211,3.362,3.362,0,0,1,205.99-1a4.958,4.958,0,0,1-1.015-3.292A5.394,5.394,0,0,1,206.1-7.866a3.71,3.71,0,0,1,3-1.345,2.885,2.885,0,0,1,2.7,1.459h.035v-5.572h1.441ZM211.83-4.069V-5.4a2.575,2.575,0,0,0-.721-1.846A2.417,2.417,0,0,0,209.281-8a2.489,2.489,0,0,0-2.074.967,4.237,4.237,0,0,0-.756,2.672,3.81,3.81,0,0,0,.725,2.457,2.37,2.37,0,0,0,1.947.9,2.462,2.462,0,0,0,1.956-.87A3.242,3.242,0,0,0,211.83-4.069Zm5.1-7.216a.913.913,0,0,1-.659-.264.89.89,0,0,1-.272-.668.9.9,0,0,1,.272-.672.905.905,0,0,1,.659-.268.931.931,0,0,1,.672.268.9.9,0,0,1,.277.672.891.891,0,0,1-.277.659A.923.923,0,0,1,216.929-11.285ZM217.632,0h-1.441V-9h1.441Zm10.6,0h-1.441V-1.529h-.035a3.327,3.327,0,0,1-3.094,1.74A3.362,3.362,0,0,1,220.952-1a4.958,4.958,0,0,1-1.015-3.292,5.394,5.394,0,0,1,1.125-3.577,3.71,3.71,0,0,1,3-1.345,2.885,2.885,0,0,1,2.7,1.459h.035v-5.572h1.441Zm-1.441-4.069V-5.4a2.575,2.575,0,0,0-.721-1.846A2.417,2.417,0,0,0,224.244-8a2.489,2.489,0,0,0-2.074.967,4.237,4.237,0,0,0-.756,2.672,3.81,3.81,0,0,0,.725,2.457,2.37,2.37,0,0,0,1.947.9,2.462,2.462,0,0,0,1.956-.87A3.242,3.242,0,0,0,226.792-4.069ZM237.6,0h-1.441V-1.406h-.035A3.018,3.018,0,0,1,233.351.211a2.959,2.959,0,0,1-2.1-.712,2.466,2.466,0,0,1-.76-1.89q0-2.522,2.971-2.936l2.7-.378Q236.155-8,234.3-8a4.431,4.431,0,0,0-2.936,1.107V-8.367a5.577,5.577,0,0,1,3.059-.844q3.173,0,3.173,3.357Zm-1.441-4.553-2.171.3a3.525,3.525,0,0,0-1.512.5,1.432,1.432,0,0,0-.51,1.261,1.374,1.374,0,0,0,.47,1.077A1.817,1.817,0,0,0,233.685-1a2.314,2.314,0,0,0,1.771-.751,2.685,2.685,0,0,0,.7-1.9Zm16.325.413h-6.354a3.366,3.366,0,0,0,.809,2.32A2.788,2.788,0,0,0,249.061-1a4.422,4.422,0,0,0,2.795-1V-.65a5.224,5.224,0,0,1-3.138.861,3.8,3.8,0,0,1-3-1.226,5.018,5.018,0,0,1-1.09-3.45,4.921,4.921,0,0,1,1.191-3.423,3.819,3.819,0,0,1,2.958-1.323,3.384,3.384,0,0,1,2.733,1.143,4.764,4.764,0,0,1,.967,3.173ZM251-5.361a2.933,2.933,0,0,0-.6-1.942A2.051,2.051,0,0,0,248.753-8a2.328,2.328,0,0,0-1.731.729,3.311,3.311,0,0,0-.879,1.907ZM262.132,0H260.69V-5.133Q260.69-8,258.6-8a2.269,2.269,0,0,0-1.789.813,3.013,3.013,0,0,0-.708,2.052V0h-1.441V-9H256.1v1.494h.035a3.248,3.248,0,0,1,2.953-1.705,2.753,2.753,0,0,1,2.259.954,4.248,4.248,0,0,1,.782,2.755Zm6.892-.088a2.779,2.779,0,0,1-1.345.281q-2.364,0-2.364-2.637V-7.77h-1.547V-9h1.547v-2.2l1.441-.466V-9h2.268v1.23h-2.268V-2.7a2.1,2.1,0,0,0,.308,1.292,1.228,1.228,0,0,0,1.02.387,1.515,1.515,0,0,0,.94-.3Zm6.62-7.453a1.763,1.763,0,0,0-1.09-.29,1.839,1.839,0,0,0-1.542.87,4.023,4.023,0,0,0-.62,2.373V0h-1.441V-9h1.441v1.854h.035a3.143,3.143,0,0,1,.94-1.481,2.144,2.144,0,0,1,1.415-.532,2.353,2.353,0,0,1,.861.123Zm8.8,3.4h-6.354a3.366,3.366,0,0,0,.809,2.32A2.788,2.788,0,0,0,281.025-1a4.422,4.422,0,0,0,2.795-1V-.65a5.224,5.224,0,0,1-3.138.861,3.8,3.8,0,0,1-3-1.226,5.018,5.018,0,0,1-1.09-3.45,4.921,4.921,0,0,1,1.191-3.423,3.819,3.819,0,0,1,2.958-1.323,3.384,3.384,0,0,1,2.733,1.143,4.764,4.764,0,0,1,.967,3.173Zm-1.477-1.222a2.933,2.933,0,0,0-.6-1.942A2.051,2.051,0,0,0,280.717-8a2.328,2.328,0,0,0-1.731.729,3.311,3.311,0,0,0-.879,1.907ZM298.791-4.14h-6.354a3.366,3.366,0,0,0,.809,2.32A2.788,2.788,0,0,0,295.372-1a4.422,4.422,0,0,0,2.795-1V-.65a5.224,5.224,0,0,1-3.138.861,3.8,3.8,0,0,1-3-1.226,5.018,5.018,0,0,1-1.09-3.45,4.921,4.921,0,0,1,1.191-3.423,3.819,3.819,0,0,1,2.958-1.323,3.384,3.384,0,0,1,2.733,1.143,4.764,4.764,0,0,1,.967,3.173Zm-1.477-1.222a2.933,2.933,0,0,0-.6-1.942A2.051,2.051,0,0,0,295.064-8a2.328,2.328,0,0,0-1.731.729,3.311,3.311,0,0,0-.879,1.907ZM302.414,0h-1.441V-13.324h1.441Zm15.323,0H316.3V-5.133Q316.3-8,314.2-8a2.269,2.269,0,0,0-1.789.813,3.013,3.013,0,0,0-.708,2.052V0h-1.441V-9h1.441v1.494h.035A3.248,3.248,0,0,1,314.7-9.211a2.753,2.753,0,0,1,2.259.954,4.248,4.248,0,0,1,.782,2.755Zm9.995,0H326.29V-1.424h-.035A2.96,2.96,0,0,1,323.478.211q-3.217,0-3.217-3.832V-9h1.433v5.15q0,2.848,2.18,2.848a2.205,2.205,0,0,0,1.736-.778,2.976,2.976,0,0,0,.681-2.035V-9h1.441Zm-1.354-13.588-2.3,2.883h-1.116l1.96-2.883ZM343.422,0h-1.441V-5.168a3.9,3.9,0,0,0-.461-2.162A1.75,1.75,0,0,0,339.968-8a1.921,1.921,0,0,0-1.569.844,3.228,3.228,0,0,0-.646,2.021V0h-1.441V-5.344Q336.312-8,334.264-8a1.9,1.9,0,0,0-1.564.8,3.288,3.288,0,0,0-.615,2.07V0h-1.441V-9h1.441v1.424h.035a3.058,3.058,0,0,1,2.795-1.635,2.606,2.606,0,0,1,1.608.514,2.586,2.586,0,0,1,.94,1.349,3.212,3.212,0,0,1,2.988-1.863q2.971,0,2.971,3.665Zm9.96-4.14h-6.354a3.366,3.366,0,0,0,.809,2.32A2.788,2.788,0,0,0,349.963-1a4.422,4.422,0,0,0,2.795-1V-.65a5.224,5.224,0,0,1-3.138.861,3.8,3.8,0,0,1-3-1.226,5.018,5.018,0,0,1-1.09-3.45,4.921,4.921,0,0,1,1.191-3.423,3.819,3.819,0,0,1,2.958-1.323,3.384,3.384,0,0,1,2.733,1.143,4.764,4.764,0,0,1,.967,3.173Zm-1.477-1.222a2.933,2.933,0,0,0-.6-1.942A2.051,2.051,0,0,0,349.655-8a2.328,2.328,0,0,0-1.731.729,3.311,3.311,0,0,0-.879,1.907Zm8.351-2.18a1.763,1.763,0,0,0-1.09-.29,1.839,1.839,0,0,0-1.542.87A4.023,4.023,0,0,0,357-4.588V0h-1.441V-9H357v1.854h.035a3.143,3.143,0,0,1,.94-1.481,2.144,2.144,0,0,1,1.415-.532,2.353,2.353,0,0,1,.861.123ZM365.585.211A4.175,4.175,0,0,1,362.4-1.05a4.672,4.672,0,0,1-1.191-3.344,4.867,4.867,0,0,1,1.239-3.542A4.455,4.455,0,0,1,365.8-9.211a4.037,4.037,0,0,1,3.142,1.239,4.914,4.914,0,0,1,1.129,3.437,4.835,4.835,0,0,1-1.217,3.45A4.265,4.265,0,0,1,365.585.211ZM365.69-8a2.742,2.742,0,0,0-2.2.945,3.88,3.88,0,0,0-.809,2.606,3.67,3.67,0,0,0,.817,2.522A2.778,2.778,0,0,0,365.69-1a2.635,2.635,0,0,0,2.149-.905,3.928,3.928,0,0,0,.751-2.575,4,4,0,0,0-.751-2.6A2.623,2.623,0,0,0,365.69-8Zm19.3,8h-1.441V-1.529h-.035a3.327,3.327,0,0,1-3.094,1.74A3.362,3.362,0,0,1,377.7-1a4.958,4.958,0,0,1-1.015-3.292,5.394,5.394,0,0,1,1.125-3.577,3.71,3.71,0,0,1,3-1.345,2.885,2.885,0,0,1,2.7,1.459h.035v-5.572h1.441Zm-1.441-4.069V-5.4a2.575,2.575,0,0,0-.721-1.846A2.417,2.417,0,0,0,381-8a2.489,2.489,0,0,0-2.074.967,4.237,4.237,0,0,0-.756,2.672,3.81,3.81,0,0,0,.725,2.457,2.37,2.37,0,0,0,1.947.9,2.462,2.462,0,0,0,1.956-.87A3.242,3.242,0,0,0,383.544-4.069Zm11.595-.07h-6.354a3.366,3.366,0,0,0,.809,2.32A2.788,2.788,0,0,0,391.72-1a4.422,4.422,0,0,0,2.795-1V-.65a5.224,5.224,0,0,1-3.138.861,3.8,3.8,0,0,1-3-1.226,5.018,5.018,0,0,1-1.09-3.45,4.921,4.921,0,0,1,1.191-3.423,3.819,3.819,0,0,1,2.958-1.323,3.384,3.384,0,0,1,2.733,1.143,4.764,4.764,0,0,1,.967,3.173Zm-1.477-1.222a2.933,2.933,0,0,0-.6-1.942A2.051,2.051,0,0,0,391.412-8a2.328,2.328,0,0,0-1.731.729,3.311,3.311,0,0,0-.879,1.907ZM406.428-.088a2.779,2.779,0,0,1-1.345.281q-2.364,0-2.364-2.637V-7.77h-1.547V-9h1.547v-2.2l1.441-.466V-9h2.268v1.23H404.16V-2.7a2.1,2.1,0,0,0,.308,1.292,1.228,1.228,0,0,0,1.02.387,1.515,1.515,0,0,0,.94-.3Zm6.62-7.453a1.763,1.763,0,0,0-1.09-.29,1.839,1.839,0,0,0-1.542.87,4.023,4.023,0,0,0-.62,2.373V0h-1.441V-9H409.8v1.854h.035a3.143,3.143,0,0,1,.94-1.481,2.144,2.144,0,0,1,1.415-.532,2.353,2.353,0,0,1,.861.123ZM421.056,0h-1.441V-1.406h-.035A3.018,3.018,0,0,1,416.811.211a2.959,2.959,0,0,1-2.1-.712,2.466,2.466,0,0,1-.76-1.89q0-2.522,2.971-2.936l2.7-.378Q419.615-8,417.76-8a4.431,4.431,0,0,0-2.936,1.107V-8.367a5.577,5.577,0,0,1,3.059-.844q3.173,0,3.173,3.357Zm-1.441-4.553-2.171.3a3.525,3.525,0,0,0-1.512.5,1.432,1.432,0,0,0-.51,1.261,1.374,1.374,0,0,0,.47,1.077A1.817,1.817,0,0,0,417.145-1a2.314,2.314,0,0,0,1.771-.751,2.685,2.685,0,0,0,.7-1.9ZM425.251-1.3h-.035V0h-1.441V-13.324h1.441v5.906h.035a3.408,3.408,0,0,1,3.111-1.793A3.3,3.3,0,0,1,431.073-8a4.99,4.99,0,0,1,.98,3.239,5.578,5.578,0,0,1-1.1,3.617A3.658,3.658,0,0,1,427.949.211,2.96,2.96,0,0,1,425.251-1.3Zm-.035-3.63v1.257a2.676,2.676,0,0,0,.725,1.894A2.408,2.408,0,0,0,427.782-1a2.413,2.413,0,0,0,2.052-1,4.6,4.6,0,0,0,.743-2.786,3.629,3.629,0,0,0-.694-2.355A2.3,2.3,0,0,0,428-8a2.554,2.554,0,0,0-2.021.875A3.211,3.211,0,0,0,425.215-4.931ZM440.8,0h-1.441V-1.406h-.035A3.018,3.018,0,0,1,436.555.211a2.959,2.959,0,0,1-2.1-.712,2.466,2.466,0,0,1-.76-1.89q0-2.522,2.971-2.936l2.7-.378Q439.359-8,437.5-8a4.431,4.431,0,0,0-2.936,1.107V-8.367a5.577,5.577,0,0,1,3.059-.844q3.173,0,3.173,3.357Zm-1.441-4.553-2.171.3a3.525,3.525,0,0,0-1.512.5,1.432,1.432,0,0,0-.51,1.261,1.374,1.374,0,0,0,.47,1.077A1.817,1.817,0,0,0,436.889-1a2.314,2.314,0,0,0,1.771-.751,2.685,2.685,0,0,0,.7-1.9Zm5.6,4.175a5.641,5.641,0,0,1-.892,3.415,2.99,2.99,0,0,1-2.553,1.2,2.71,2.71,0,0,1-1.2-.281V2.61a2.385,2.385,0,0,0,1.23.4q1.969,0,1.969-3.146V-9h1.441Zm-.7-10.907a.913.913,0,0,1-.659-.264.89.89,0,0,1-.272-.668.9.9,0,0,1,.272-.672.905.905,0,0,1,.659-.268.931.931,0,0,1,.672.268.9.9,0,0,1,.277.672.891.891,0,0,1-.277.659A.923.923,0,0,1,444.256-11.285ZM454.321,0H452.88V-1.406h-.035A3.018,3.018,0,0,1,450.076.211a2.959,2.959,0,0,1-2.1-.712,2.466,2.466,0,0,1-.76-1.89q0-2.522,2.971-2.936l2.7-.378Q452.88-8,451.025-8a4.431,4.431,0,0,0-2.936,1.107V-8.367a5.577,5.577,0,0,1,3.059-.844q3.173,0,3.173,3.357ZM452.88-4.553l-2.171.3a3.525,3.525,0,0,0-1.512.5,1.432,1.432,0,0,0-.51,1.261,1.374,1.374,0,0,0,.47,1.077A1.817,1.817,0,0,0,450.41-1a2.314,2.314,0,0,0,1.771-.751,2.685,2.685,0,0,0,.7-1.9ZM464.721,0h-1.441V-1.529h-.035A3.327,3.327,0,0,1,460.15.211,3.362,3.362,0,0,1,457.439-1a4.958,4.958,0,0,1-1.015-3.292,5.394,5.394,0,0,1,1.125-3.577,3.71,3.71,0,0,1,3-1.345,2.885,2.885,0,0,1,2.7,1.459h.035v-5.572h1.441Zm-1.441-4.069V-5.4a2.575,2.575,0,0,0-.721-1.846A2.417,2.417,0,0,0,460.73-8a2.489,2.489,0,0,0-2.074.967,4.237,4.237,0,0,0-.756,2.672,3.81,3.81,0,0,0,.725,2.457,2.37,2.37,0,0,0,1.947.9,2.462,2.462,0,0,0,1.956-.87A3.242,3.242,0,0,0,463.279-4.069ZM471.4.211a4.175,4.175,0,0,1-3.186-1.261,4.672,4.672,0,0,1-1.191-3.344,4.867,4.867,0,0,1,1.239-3.542,4.455,4.455,0,0,1,3.349-1.274,4.037,4.037,0,0,1,3.142,1.239,4.914,4.914,0,0,1,1.129,3.437,4.835,4.835,0,0,1-1.217,3.45A4.265,4.265,0,0,1,471.4.211ZM471.508-8a2.742,2.742,0,0,0-2.2.945,3.88,3.88,0,0,0-.809,2.606,3.67,3.67,0,0,0,.817,2.522A2.778,2.778,0,0,0,471.508-1a2.635,2.635,0,0,0,2.149-.905,3.928,3.928,0,0,0,.751-2.575,4,4,0,0,0-.751-2.6A2.623,2.623,0,0,0,471.508-8Zm11.375.457a1.763,1.763,0,0,0-1.09-.29,1.839,1.839,0,0,0-1.542.87,4.023,4.023,0,0,0-.62,2.373V0h-1.441V-9h1.441v1.854h.035a3.143,3.143,0,0,1,.94-1.481,2.144,2.144,0,0,1,1.415-.532,2.353,2.353,0,0,1,.861.123Zm8.8,3.4h-6.354a3.366,3.366,0,0,0,.809,2.32A2.788,2.788,0,0,0,488.263-1a4.422,4.422,0,0,0,2.795-1V-.65a5.224,5.224,0,0,1-3.138.861,3.8,3.8,0,0,1-3-1.226,5.018,5.018,0,0,1-1.09-3.45,4.921,4.921,0,0,1,1.191-3.423,3.819,3.819,0,0,1,2.958-1.323,3.384,3.384,0,0,1,2.733,1.143,4.764,4.764,0,0,1,.967,3.173Zm-1.477-1.222a2.933,2.933,0,0,0-.6-1.942A2.051,2.051,0,0,0,487.956-8a2.328,2.328,0,0,0-1.731.729,3.311,3.311,0,0,0-.879,1.907Zm3.113,5.036V-1.872a4.266,4.266,0,0,0,2.593.87q1.9,0,1.9-1.266a1.1,1.1,0,0,0-.163-.611,1.62,1.62,0,0,0-.439-.444,3.383,3.383,0,0,0-.65-.347q-.374-.154-.8-.321a10.357,10.357,0,0,1-1.05-.479,3.173,3.173,0,0,1-.756-.545,2.028,2.028,0,0,1-.457-.69,2.441,2.441,0,0,1-.154-.905,2.15,2.15,0,0,1,.29-1.121,2.572,2.572,0,0,1,.773-.817,3.607,3.607,0,0,1,1.1-.5,4.893,4.893,0,0,1,1.279-.167,5.164,5.164,0,0,1,2.092.4v1.459A4.077,4.077,0,0,0,496.588-8a2.671,2.671,0,0,0-.729.092,1.786,1.786,0,0,0-.558.259,1.2,1.2,0,0,0-.36.4,1.053,1.053,0,0,0-.127.514,1.233,1.233,0,0,0,.127.589,1.3,1.3,0,0,0,.374.422,2.855,2.855,0,0,0,.6.334q.352.149.8.325a11.131,11.131,0,0,1,1.072.47,3.678,3.678,0,0,1,.809.545,2.129,2.129,0,0,1,.514.7,2.254,2.254,0,0,1,.18.94,2.217,2.217,0,0,1-.294,1.16,2.523,2.523,0,0,1-.787.817,3.6,3.6,0,0,1-1.134.483,5.6,5.6,0,0,1-1.345.158A5.106,5.106,0,0,1,493.319-.325Z" transform="translate(541 3415)" fill="#212429"/>
    <path id="Trazado_994283" data-name="Trazado 994283" d="M6124,2801.684v543.094" transform="translate(-5293.207 -12.335)" fill="none" stroke="#707070" stroke-width="1" stroke-dasharray="7"/>
    <path id="Trazado_994284" data-name="Trazado 994284" d="M6287.035,2744.22s-83.8-2.457-163.035,58.2-142.31,193.747-142.31,193.747" transform="translate(-5314)" fill="none" stroke="#707070" stroke-width="1"/>
    <path id="Trazado_994285" data-name="Trazado 994285" d="M6019,3286.934s62.167-75.489,125.063-75.489,126.523,75.489,126.523,75.489" transform="translate(-5314)" fill="none" stroke="#707070" stroke-width="1"/>
  </g>
</svg>
