<svg xmlns="http://www.w3.org/2000/svg" width="145.54" height="48.203" viewBox="0 0 145.54 48.203">
  <g id="Grupo_1159266" data-name="Grupo 1159266" transform="translate(-307.578 -3884.797)">
    <path id="Trazado_994797" data-name="Trazado 994797" d="M9.188-8.258A4.3,4.3,0,0,1,8.906-6.7a3.463,3.463,0,0,1-.855,1.277,4.07,4.07,0,0,1-1.457.863,6.161,6.161,0,0,1-2.078.316h-1.7L1.922,0H.578L2.945-11.2h2.9a4.264,4.264,0,0,1,1.535.246,2.889,2.889,0,0,1,1.039.656A2.493,2.493,0,0,1,9-9.359,3.349,3.349,0,0,1,9.188-8.258ZM7.8-8.141a1.986,1.986,0,0,0-.145-.77A1.589,1.589,0,0,0,7.234-9.5a1.937,1.937,0,0,0-.7-.379,3.189,3.189,0,0,0-.965-.133H4.047L3.07-5.422h1.57a4.37,4.37,0,0,0,1.426-.207,2.71,2.71,0,0,0,.984-.57,2.222,2.222,0,0,0,.57-.859A3.1,3.1,0,0,0,7.8-8.141ZM19.955,0h-1.3l1.594-7.516q.094-.445.242-1.012t.344-1.215H20.8q-.094.188-.234.418t-.293.445q-.152.215-.277.387t-.18.258L15.806-2.922h-.641l-1.75-5.3a1.939,1.939,0,0,0-.074-.27q-.059-.176-.113-.391t-.1-.441a2.273,2.273,0,0,1-.043-.422h-.031q-.047.336-.152.906T12.642-7.5L11.048,0H9.783l2.375-11.2H13.72l1.773,5.328a6.393,6.393,0,0,1,.184.656,3.757,3.757,0,0,1,.082.531h.047q.125-.234.3-.547a5.787,5.787,0,0,1,.461-.672L20.6-11.2H22.33Zm8.978-.578a10.133,10.133,0,0,1-.516,1.73,4.58,4.58,0,0,1-.848,1.375,3.611,3.611,0,0,1-1.3.906,4.869,4.869,0,0,1-1.883.324,4.42,4.42,0,0,1-1.332-.18,6.143,6.143,0,0,1-1.035-.43l.242-1.2a6.048,6.048,0,0,0,1.047.5,3.45,3.45,0,0,0,1.2.2,3.263,3.263,0,0,0,1.207-.2,2.424,2.424,0,0,0,.883-.6A3.3,3.3,0,0,0,27.21.891a7.336,7.336,0,0,0,.41-1.3l.273-1.25h-.031a7.841,7.841,0,0,1-.582.824,3.357,3.357,0,0,1-.6.578,2.334,2.334,0,0,1-.656.344A2.41,2.41,0,0,1,25.269.2,2.411,2.411,0,0,1,24.292,0a1.985,1.985,0,0,1-.746-.566A2.649,2.649,0,0,1,23.07-1.5,4.541,4.541,0,0,1,22.9-2.8a6.163,6.163,0,0,1,.152-1.367A5.986,5.986,0,0,1,23.5-5.437,5.361,5.361,0,0,1,24.2-6.543a4.7,4.7,0,0,1,.949-.871,4.475,4.475,0,0,1,1.168-.574A4.383,4.383,0,0,1,27.683-8.2a11.344,11.344,0,0,1,1.453.094q.727.094,1.336.211ZM29-6.945a6.181,6.181,0,0,0-.645-.109,6.6,6.6,0,0,0-.809-.047,2.712,2.712,0,0,0-1.344.34,3.373,3.373,0,0,0-1.051.922,4.458,4.458,0,0,0-.687,1.355,5.353,5.353,0,0,0-.246,1.633,3.864,3.864,0,0,0,.074.781,1.882,1.882,0,0,0,.234.617,1.188,1.188,0,0,0,.414.406,1.212,1.212,0,0,0,.621.148,1.764,1.764,0,0,0,.793-.18,2.617,2.617,0,0,0,.668-.477,3.655,3.655,0,0,0,.543-.676,6.823,6.823,0,0,0,.422-.777,7.086,7.086,0,0,0,.309-.785q.125-.387.2-.7ZM37.366-5.8V-6.852H44.71V-5.8Zm0,3.328V-3.523H44.71v1.047Z" transform="translate(307 3913)" fill="#212429"/>
    <path id="Trazado_994798" data-name="Trazado 994798" d="M-16.664-8.258A4.3,4.3,0,0,1-16.946-6.7,3.463,3.463,0,0,1-17.8-5.422a4.07,4.07,0,0,1-1.457.863,6.161,6.161,0,0,1-2.078.316h-1.7L-23.93,0h-1.344l2.367-11.2h2.9a4.264,4.264,0,0,1,1.535.246,2.889,2.889,0,0,1,1.039.656,2.493,2.493,0,0,1,.586.941A3.349,3.349,0,0,1-16.664-8.258Zm-1.383.117a1.986,1.986,0,0,0-.145-.77,1.589,1.589,0,0,0-.426-.594,1.937,1.937,0,0,0-.7-.379,3.189,3.189,0,0,0-.965-.133H-21.8l-.977,4.594h1.57a4.37,4.37,0,0,0,1.426-.207A2.71,2.71,0,0,0-18.8-6.2a2.222,2.222,0,0,0,.57-.859A3.1,3.1,0,0,0-18.047-8.141Zm10.7-1.875h-3.187L-12.647,0h-1.344l2.125-10.016h-3.258l.25-1.187h7.781Zm3.243,9.93a.885.885,0,0,0-.262-.681A1.026,1.026,0,0,0-5.1-1.011a2.288,2.288,0,0,0-.889.187,2.87,2.87,0,0,0-.834.542l.187-.838a2.421,2.421,0,0,1,.791-.41,3.389,3.389,0,0,1,.927-.114,1.684,1.684,0,0,1,1.162.385A1.318,1.318,0,0,1-3.319-.222a2.368,2.368,0,0,1-.189.977,2.6,2.6,0,0,1-.6.813,8.047,8.047,0,0,1-1.212.893q-.725.451-1.1.743a2.935,2.935,0,0,0-.558.538,1.55,1.55,0,0,0-.26.588h3.226L-4.157,5H-8.19l.068-.324a3.151,3.151,0,0,1,.353-.948,3.249,3.249,0,0,1,.658-.77A11.233,11.233,0,0,1-5.8,2.02a7.764,7.764,0,0,0,1-.729A2.361,2.361,0,0,0-4.271.657,1.568,1.568,0,0,0-4.107-.086ZM2.1-3.953H-2.176l.227-1.008H2.324Zm10.291-4.3A4.3,4.3,0,0,1,12.107-6.7a3.463,3.463,0,0,1-.855,1.277,4.07,4.07,0,0,1-1.457.863,6.161,6.161,0,0,1-2.078.316h-1.7L5.122,0H3.779L6.146-11.2h2.9a4.264,4.264,0,0,1,1.535.246,2.889,2.889,0,0,1,1.039.656,2.493,2.493,0,0,1,.586.941A3.349,3.349,0,0,1,12.388-8.258Zm-1.383.117a1.986,1.986,0,0,0-.145-.77,1.589,1.589,0,0,0-.426-.594,1.937,1.937,0,0,0-.7-.379,3.189,3.189,0,0,0-.965-.133H7.247L6.271-5.422h1.57a4.37,4.37,0,0,0,1.426-.207,2.71,2.71,0,0,0,.984-.57,2.222,2.222,0,0,0,.57-.859A3.1,3.1,0,0,0,11.005-8.141Zm10.7-1.875H18.515L16.405,0H15.061l2.125-10.016H13.929l.25-1.187H21.96ZM22.917,5,24.134-.692l-1.613.437.159-.72,2.4-.67L23.674,5Z" transform="translate(412 3896)" fill="#212429"/>
    <path id="Trazado_994799" data-name="Trazado 994799" d="M-9.256,0h-5.8l2.367-11.2h1.359L-13.46-1.219H-9Zm5.149-.086a.885.885,0,0,0-.262-.681A1.026,1.026,0,0,0-5.1-1.011a2.288,2.288,0,0,0-.889.187,2.87,2.87,0,0,0-.834.542l.187-.838a2.421,2.421,0,0,1,.791-.41,3.389,3.389,0,0,1,.927-.114,1.684,1.684,0,0,1,1.162.385A1.318,1.318,0,0,1-3.319-.222a2.368,2.368,0,0,1-.189.977,2.6,2.6,0,0,1-.6.813,8.047,8.047,0,0,1-1.212.893q-.725.451-1.1.743a2.935,2.935,0,0,0-.558.538,1.55,1.55,0,0,0-.26.588h3.226L-4.157,5H-8.19l.068-.324a3.151,3.151,0,0,1,.353-.948,3.249,3.249,0,0,1,.658-.77A11.233,11.233,0,0,1-5.8,2.02a7.764,7.764,0,0,0,1-.729A2.361,2.361,0,0,0-4.271.657,1.568,1.568,0,0,0-4.107-.086ZM2.1-3.953H-2.176l.227-1.008H2.324ZM9.583,0h-5.8L6.146-11.2H7.505L5.38-1.219H9.841ZM12.7,5,13.921-.692l-1.613.437.159-.72,2.4-.67L13.461,5Z" transform="translate(412 3928)" fill="#212429"/>
    <path id="Trazado_994259" data-name="Trazado 994259" d="M4204.926,4714.5h86.192" transform="translate(-3838 -808)" fill="none" stroke="#0b0a0a" stroke-width="1"/>
  </g>
</svg>
