<svg xmlns="http://www.w3.org/2000/svg" xmlns:xlink="http://www.w3.org/1999/xlink" width="108" height="108" viewBox="0 0 108 108">
  <defs>
    <filter id="Trazado_982547" x="0" y="0" width="108" height="108" filterUnits="userSpaceOnUse">
      <feOffset dy="3" input="SourceAlpha"/>
      <feGaussianBlur stdDeviation="3" result="blur"/>
      <feFlood flood-opacity="0.161"/>
      <feComposite operator="in" in2="blur"/>
      <feComposite in="SourceGraphic"/>
    </filter>
  </defs>
  <g id="Grupo_1159131" data-name="Grupo 1159131" transform="translate(9 6)">
    <g id="Grupo_1154033" data-name="Grupo 1154033" transform="translate(0)">
      <g id="Grupo_1153177" data-name="Grupo 1153177">
        <g id="Grupo_1149598" data-name="Grupo 1149598">
          <g id="Grupo_1148770" data-name="Grupo 1148770">
            <g id="Grupo_1146954" data-name="Grupo 1146954">
              <g transform="matrix(1, 0, 0, 1, -9, -6)" filter="url(#Trazado_982547)">
                <g id="Trazado_982547-2" data-name="Trazado 982547" transform="translate(9 6)" fill="#f5fdfa">
                  <path d="M 45 88.5 C 39.12687683105469 88.5 33.43022537231445 87.35007476806641 28.06830024719238 85.08217620849609 C 22.88852500915527 82.89131164550781 18.23629951477051 79.75458526611328 14.2408504486084 75.75914764404297 C 10.24541282653809 71.76370239257812 7.108687400817871 67.11147308349609 4.917825222015381 61.93170166015625 C 2.649924993515015 56.56977462768555 1.5 50.87312316894531 1.5 45 C 1.5 39.12687683105469 2.649924993515015 33.43022537231445 4.917825222015381 28.06830024719238 C 7.108687400817871 22.88852500915527 10.24541282653809 18.23629951477051 14.2408504486084 14.2408504486084 C 18.23629951477051 10.24541282653809 22.88852500915527 7.108687400817871 28.06830024719238 4.917825222015381 C 33.43022537231445 2.649924993515015 39.12687683105469 1.5 45 1.5 C 50.87312316894531 1.5 56.56977462768555 2.649924993515015 61.93170166015625 4.917825222015381 C 67.11147308349609 7.108687400817871 71.76370239257812 10.24541282653809 75.75914764404297 14.2408504486084 C 79.75458526611328 18.23629951477051 82.89131164550781 22.88852500915527 85.08217620849609 28.06830024719238 C 87.35007476806641 33.43022537231445 88.5 39.12687683105469 88.5 45 C 88.5 50.87312316894531 87.35007476806641 56.56977462768555 85.08217620849609 61.93170166015625 C 82.89131164550781 67.11147308349609 79.75458526611328 71.76370239257812 75.75914764404297 75.75914764404297 C 71.76370239257812 79.75458526611328 67.11147308349609 82.89131164550781 61.93170166015625 85.08217620849609 C 56.56977462768555 87.35007476806641 50.87312316894531 88.5 45 88.5 Z" stroke="none"/>
                  <path d="M 45 3 C 39.32871246337891 3 33.82865524291992 4.110054016113281 28.65262985229492 6.299339294433594 C 23.65165710449219 8.414573669433594 19.15968322753906 11.44334411621094 15.301513671875 15.301513671875 C 11.44334411621094 19.15968322753906 8.414573669433594 23.65165710449219 6.299339294433594 28.65262985229492 C 4.110054016113281 33.82865524291992 3 39.32871246337891 3 45 C 3 50.67128753662109 4.110054016113281 56.17134475708008 6.299339294433594 61.34737396240234 C 8.414573669433594 66.34834289550781 11.44334411621094 70.84031677246094 15.301513671875 74.698486328125 C 19.15968322753906 78.55665588378906 23.65165710449219 81.58542633056641 28.65262985229492 83.70066070556641 C 33.82865524291992 85.88994598388672 39.32871246337891 87 45 87 C 50.67128753662109 87 56.17134475708008 85.88994598388672 61.34737396240234 83.70066070556641 C 66.34834289550781 81.58542633056641 70.84031677246094 78.55665588378906 74.698486328125 74.698486328125 C 78.55665588378906 70.84031677246094 81.58542633056641 66.34834289550781 83.70066070556641 61.34737396240234 C 85.88994598388672 56.17134475708008 87 50.67128753662109 87 45 C 87 39.32871246337891 85.88994598388672 33.82865524291992 83.70066070556641 28.65262985229492 C 81.58542633056641 23.65165710449219 78.55665588378906 19.15968322753906 74.698486328125 15.301513671875 C 70.84031677246094 11.44334411621094 66.34834289550781 8.414573669433594 61.34737396240234 6.299339294433594 C 56.17134475708008 4.110054016113281 50.67128753662109 3 45 3 M 45 0 C 69.85281372070312 0 90 20.14718627929688 90 45 C 90 69.85281372070312 69.85281372070312 90 45 90 C 20.14718627929688 90 0 69.85281372070312 0 45 C 0 20.14718627929688 20.14718627929688 0 45 0 Z" stroke="none" fill="#2e5bb6"/>
                </g>
              </g>
            </g>
          </g>
        </g>
      </g>
    </g>
    <g id="filled_outline" data-name="filled outline" transform="translate(0.459 0.549)">
      <path id="Trazado_994650" data-name="Trazado 994650" d="M55.174,184H44.742A4.742,4.742,0,0,0,40,188.742v14.225h3.793V188.742a.948.948,0,0,1,.948-.948H55.174Z" transform="translate(-21.155 -148.084)" fill="#aa3a2e"/>
      <path id="Trazado_994651" data-name="Trazado 994651" d="M40,302.213v3h3.793V300Z" transform="translate(-21.155 -250.333)" fill="#983429"/>
      <path id="Trazado_994652" data-name="Trazado 994652" d="M144,184h1.9v3.793H144Z" transform="translate(-112.826 -148.084)" fill="#983429"/>
      <path id="Trazado_994653" data-name="Trazado 994653" d="M328,104h3.793v8.535H328Z" transform="translate(-275.014 -77.568)" fill="#cdcdcd"/>
      <path id="Trazado_994654" data-name="Trazado 994654" d="M248,104h3.793v8.535H248Z" transform="translate(-204.498 -77.568)" fill="#cdcdcd"/>
      <path id="Trazado_994655" data-name="Trazado 994655" d="M168,104h3.793v8.535H168Z" transform="translate(-133.981 -77.568)" fill="#cdcdcd"/>
      <path id="Trazado_994656" data-name="Trazado 994656" d="M168,160h3.793v.948H168Z" transform="translate(-133.981 -126.93)" fill="#a8a8a8"/>
      <path id="Trazado_994657" data-name="Trazado 994657" d="M248,160h3.793v.948H248Z" transform="translate(-204.498 -126.93)" fill="#a8a8a8"/>
      <path id="Trazado_994658" data-name="Trazado 994658" d="M328,160h3.793v.948H328Z" transform="translate(-275.014 -126.93)" fill="#a8a8a8"/>
      <path id="Trazado_994659" data-name="Trazado 994659" d="M168,104h3.793v3.793H168Z" transform="translate(-133.981 -77.568)" fill="#ebebeb"/>
      <path id="Trazado_994660" data-name="Trazado 994660" d="M248,104h3.793v3.793H248Z" transform="translate(-204.498 -77.568)" fill="#ebebeb"/>
      <path id="Trazado_994661" data-name="Trazado 994661" d="M328,104h3.793v3.793H328Z" transform="translate(-275.014 -77.568)" fill="#ebebeb"/>
      <path id="Trazado_994662" data-name="Trazado 994662" d="M160,168h24.657v6.639H160Z" transform="translate(-126.929 -133.981)" fill="#dc9315"/>
      <path id="Trazado_994663" data-name="Trazado 994663" d="M160,200h24.657v1.9H160Z" transform="translate(-126.929 -162.188)" fill="#c48412"/>
      <path id="Trazado_994664" data-name="Trazado 994664" d="M229.69,23.587h-1.9v-1.9a.949.949,0,0,0-.948-.948A2.848,2.848,0,0,1,224,17.9V16h1.9v1.9a.949.949,0,0,0,.948.948,2.848,2.848,0,0,1,2.845,2.845Z" transform="translate(-183.343)" fill="#ebebeb"/>
      <path id="Trazado_994665" data-name="Trazado 994665" d="M149.69,23.587h-1.9v-1.9a.949.949,0,0,0-.948-.948A2.848,2.848,0,0,1,144,17.9V16h1.9v1.9a.949.949,0,0,0,.948.948,2.848,2.848,0,0,1,2.845,2.845Z" transform="translate(-112.826)" fill="#ebebeb"/>
      <path id="Trazado_994666" data-name="Trazado 994666" d="M309.69,23.587h-1.9v-1.9a.949.949,0,0,0-.948-.948A2.848,2.848,0,0,1,304,17.9V16h1.9v1.9a.949.949,0,0,0,.948.948,2.848,2.848,0,0,1,2.845,2.845Z" transform="translate(-253.859)" fill="#ebebeb"/>
      <path id="Trazado_994667" data-name="Trazado 994667" d="M120,216h34.141v32.244H120Z" transform="translate(-91.671 -176.291)" fill="#fdb62f"/>
      <path id="Trazado_994668" data-name="Trazado 994668" d="M131.38,311.709H120v-17.07L131.38,288Z" transform="translate(-91.671 -239.756)" fill="#bb4033"/>
      <path id="Trazado_994669" data-name="Trazado 994669" d="M35.38,311.709H24v-17.07L35.38,288Z" transform="translate(-7.052 -239.756)" fill="#bb4033"/>
      <path id="Trazado_994670" data-name="Trazado 994670" d="M227.38,311.709H216v-17.07L227.38,288Z" transform="translate(-176.291 -239.756)" fill="#bb4033"/>
      <path id="Trazado_994671" data-name="Trazado 994671" d="M131.38,339.916H120V326.639L131.38,320Z" transform="translate(-91.671 -267.962)" fill="#de4c3b"/>
      <path id="Trazado_994672" data-name="Trazado 994672" d="M35.38,339.916H24V326.639L35.38,320Z" transform="translate(-7.052 -267.962)" fill="#de4c3b"/>
      <path id="Trazado_994673" data-name="Trazado 994673" d="M227.38,339.916H216V326.639L227.38,320Z" transform="translate(-176.291 -267.962)" fill="#de4c3b"/>
      <path id="Trazado_994674" data-name="Trazado 994674" d="M314.762,287.809l-.2-.1v-8.535a9.484,9.484,0,0,0-7.658-9.3l.839-5.87h-7.587l.85,5.951a9.48,9.48,0,0,0-7.308,9.223v8.535l-.2.1a1.9,1.9,0,0,0-.848,2.545l.1.2h22.761l.1-.2A1.9,1.9,0,0,0,314.762,287.809Z" transform="translate(-243.677 -218.601)" fill="#97d9a9"/>
      <path id="Trazado_994675" data-name="Trazado 994675" d="M368.306,356.742a.948.948,0,1,1,.948-.948h1.9a2.84,2.84,0,0,0-1.9-2.67V352h-1.9v1.123a2.838,2.838,0,0,0,.948,5.515.948.948,0,1,1-.948.948h-1.9a2.84,2.84,0,0,0,1.9,2.67v1.123h1.9v-1.123a2.838,2.838,0,0,0-.948-5.515Z" transform="translate(-308.034 -296.169)" fill="#6a9876"/>
      <path id="Trazado_994676" data-name="Trazado 994676" d="M335.286,298.315a11.225,11.225,0,0,1-5.771-1.6l-1.055-.633a.948.948,0,0,1,.976-1.626l1.053.632a9.475,9.475,0,0,0,9.593,0l.723-.433a.948.948,0,1,1,.974,1.627l-.722.433A11.218,11.218,0,0,1,335.286,298.315Z" transform="translate(-275.014 -245.329)" fill="#6a9876"/>
      <path id="Trazado_994677" data-name="Trazado 994677" d="M152,456h3.793v3.793H152Z" transform="translate(-119.878 -387.84)" fill="#bb4033"/>
      <path id="Trazado_994678" data-name="Trazado 994678" d="M144,384h1.9v1.9H144Z" transform="translate(-112.826 -324.375)" fill="#d9d9d9"/>
      <path id="Trazado_994679" data-name="Trazado 994679" d="M144,416h1.9v1.9H144Z" transform="translate(-112.826 -352.582)" fill="#d9d9d9"/>
      <path id="Trazado_994680" data-name="Trazado 994680" d="M176,416h1.9v1.9H176Z" transform="translate(-141.033 -352.582)" fill="#d9d9d9"/>
      <path id="Trazado_994681" data-name="Trazado 994681" d="M176,384h1.9v1.9H176Z" transform="translate(-141.033 -324.375)" fill="#d9d9d9"/>
      <path id="Trazado_994682" data-name="Trazado 994682" d="M56,456h3.793v3.793H56Z" transform="translate(-35.258 -387.84)" fill="#bb4033"/>
      <path id="Trazado_994683" data-name="Trazado 994683" d="M48,384h1.9v1.9H48Z" transform="translate(-28.207 -324.375)" fill="#d9d9d9"/>
      <path id="Trazado_994684" data-name="Trazado 994684" d="M48,416h1.9v1.9H48Z" transform="translate(-28.207 -352.582)" fill="#d9d9d9"/>
      <path id="Trazado_994685" data-name="Trazado 994685" d="M80,416h1.9v1.9H80Z" transform="translate(-56.413 -352.582)" fill="#d9d9d9"/>
      <path id="Trazado_994686" data-name="Trazado 994686" d="M80,384h1.9v1.9H80Z" transform="translate(-56.413 -324.375)" fill="#d9d9d9"/>
      <path id="Trazado_994687" data-name="Trazado 994687" d="M248,456h3.793v3.793H248Z" transform="translate(-204.498 -387.84)" fill="#bb4033"/>
      <path id="Trazado_994688" data-name="Trazado 994688" d="M240,384h1.9v1.9H240Z" transform="translate(-197.446 -324.375)" fill="#d9d9d9"/>
      <path id="Trazado_994689" data-name="Trazado 994689" d="M240,416h1.9v1.9H240Z" transform="translate(-197.446 -352.582)" fill="#d9d9d9"/>
      <path id="Trazado_994690" data-name="Trazado 994690" d="M272,384h1.9v1.9H272Z" transform="translate(-225.652 -324.375)" fill="#d9d9d9"/>
      <path id="Trazado_994691" data-name="Trazado 994691" d="M272,416h1.9v1.9H272Z" transform="translate(-225.652 -352.582)" fill="#d9d9d9"/>
      <g id="Grupo_1159253" data-name="Grupo 1159253" transform="translate(28.329 42.554)">
        <path id="Trazado_994692" data-name="Trazado 994692" d="M208,240h1.9v1.9H208Z" transform="translate(-197.568 -240)" fill="#dc9315"/>
        <path id="Trazado_994693" data-name="Trazado 994693" d="M240,240h1.9v1.9H240Z" transform="translate(-225.775 -240)" fill="#dc9315"/>
        <path id="Trazado_994694" data-name="Trazado 994694" d="M144,240h1.9v1.9H144Z" transform="translate(-141.155 -240)" fill="#dc9315"/>
        <path id="Trazado_994695" data-name="Trazado 994695" d="M176,240h1.9v1.9H176Z" transform="translate(-169.361 -240)" fill="#dc9315"/>
        <path id="Trazado_994696" data-name="Trazado 994696" d="M304,240h1.9v1.9H304Z" transform="translate(-282.188 -240)" fill="#dc9315"/>
        <path id="Trazado_994697" data-name="Trazado 994697" d="M272,240h1.9v1.9H272Z" transform="translate(-253.981 -240)" fill="#dc9315"/>
        <path id="Trazado_994698" data-name="Trazado 994698" d="M120,272h6.639v1.9H120Z" transform="translate(-120 -268.207)" fill="#dc9315"/>
      </g>
      <path id="Trazado_994699" data-name="Trazado 994699" d="M71.83,139.067v-7.978a10.444,10.444,0,0,0-5.647-9.268l.584-.351a.948.948,0,1,0-.976-1.626l-.721.433c-.232.139-.479.249-.722.366L65,116.05a.948.948,0,0,0-.939-1.083h-.645v-4.742a.948.948,0,0,0-.948-.948H58.676v-4.742a.948.948,0,0,0-.948-.948V96.948A.948.948,0,0,0,56.78,96H52.986a.948.948,0,0,0-.948.948v6.639H48.244V96.948A.948.948,0,0,0,47.3,96H43.5a.948.948,0,0,0-.948.948v6.639H38.761V96.948A.948.948,0,0,0,37.812,96H34.019a.948.948,0,0,0-.948.948v6.639a.948.948,0,0,0-.948.948v.948H23.587a5.7,5.7,0,0,0-5.69,5.69v12.574l-1.426.832A.948.948,0,0,0,16,125.4v17.07a.948.948,0,0,0,.948.948H71.83a.948.948,0,0,0,.839-.507l.116-.22a2.85,2.85,0,0,0-.955-3.623ZM58.212,121.339l-.643-4.475h5.4l-.636,4.475A9.6,9.6,0,0,1,58.212,121.339Zm3.309-6.372H56.476a.948.948,0,0,0-.939,1.083l.66,4.592c-.243-.117-.489-.226-.721-.365l-1.053-.632a.948.948,0,0,0-.976,1.626l1.053.632c.015.009.031.014.045.024a10.351,10.351,0,0,0-2.507,1.89v-5.056a.948.948,0,0,0-1.426-.819l-9.954,5.807v-4.987a.948.948,0,0,0-1.426-.819l-9.954,5.807v-4.987h5.69v-1.9h-5.69v-5.69H61.521ZM27.38,118.215l-3.793,2.213v-9.255H27.38Zm1.9,7.728,9.484-5.532v1.6l-9.484,5.532Zm11.38,0,9.484-5.532v1.6l-9.484,5.532Zm-6.639-16.666v-3.793H56.78v3.793ZM53.934,97.9h1.9v1.9h-1.9Zm0,3.793h1.9v1.9h-1.9ZM44.451,97.9h1.9v1.9h-1.9Zm0,3.793h1.9v1.9h-1.9ZM34.967,97.9h1.9v1.9h-1.9Zm0,3.793h1.9v1.9h-1.9Zm-15.174,9.484a3.8,3.8,0,0,1,3.793-3.793h8.535v1.9H23.587a1.9,1.9,0,0,0-1.9,1.9v10.361l-1.9,1.106Zm7.587,9.238v1.6L17.9,127.542v-1.6ZM17.9,129.737l9.484-5.532v17.316h-1.9v-2.845a.948.948,0,0,0-.948-.948H20.742a.948.948,0,0,0-.948.948v2.845H17.9Zm3.793,11.784v-1.9h1.9v1.9Zm7.587-11.784,9.484-5.532v17.316h-1.9v-2.845a.948.948,0,0,0-.948-.948H32.122a.948.948,0,0,0-.948.948v2.845h-1.9Zm3.793,11.784v-1.9h1.9v1.9Zm7.587-11.784,9.484-5.532v2.314a10.437,10.437,0,0,0-1.072,4.57v7.98a2.792,2.792,0,0,0-.825.875v-1.268a.948.948,0,0,0-.948-.948H43.5a.948.948,0,0,0-.948.948v2.845h-1.9Zm3.793,11.784v-1.9h1.9v1.9Zm5.273,0a.912.912,0,0,1,.043-.4.942.942,0,0,1,.492-.551l.2-.1a.95.95,0,0,0,.508-.84v-8.535a8.521,8.521,0,0,1,5.95-8.12,10.789,10.789,0,0,0,6.9-.065,8.535,8.535,0,0,1,6.121,8.185v8.535a.95.95,0,0,0,.508.84l.219.113a.953.953,0,0,1,.522.943Z" transform="translate(0 -70.516)"/>
      <path id="Trazado_994700" data-name="Trazado 994700" d="M368.306,354.845a.949.949,0,0,1,.948.948h1.9a2.84,2.84,0,0,0-1.9-2.67V352h-1.9v1.123a2.838,2.838,0,0,0,.948,5.515.948.948,0,1,1-.948.948h-1.9a2.84,2.84,0,0,0,1.9,2.67v1.123h1.9v-1.123a2.838,2.838,0,0,0-.948-5.515.948.948,0,0,1,0-1.9Z" transform="translate(-308.034 -296.169)"/>
      <path id="Trazado_994701" data-name="Trazado 994701" d="M144,384h1.9v1.9H144Z" transform="translate(-112.826 -324.375)"/>
      <path id="Trazado_994702" data-name="Trazado 994702" d="M144,416h1.9v1.9H144Z" transform="translate(-112.826 -352.582)"/>
      <path id="Trazado_994703" data-name="Trazado 994703" d="M176,416h1.9v1.9H176Z" transform="translate(-141.033 -352.582)"/>
      <path id="Trazado_994704" data-name="Trazado 994704" d="M176,384h1.9v1.9H176Z" transform="translate(-141.033 -324.375)"/>
      <path id="Trazado_994705" data-name="Trazado 994705" d="M48,384h1.9v1.9H48Z" transform="translate(-28.207 -324.375)"/>
      <path id="Trazado_994706" data-name="Trazado 994706" d="M48,416h1.9v1.9H48Z" transform="translate(-28.207 -352.582)"/>
      <path id="Trazado_994707" data-name="Trazado 994707" d="M80,416h1.9v1.9H80Z" transform="translate(-56.413 -352.582)"/>
      <path id="Trazado_994708" data-name="Trazado 994708" d="M80,384h1.9v1.9H80Z" transform="translate(-56.413 -324.375)"/>
      <path id="Trazado_994709" data-name="Trazado 994709" d="M240,384h1.9v1.9H240Z" transform="translate(-197.446 -324.375)"/>
      <path id="Trazado_994710" data-name="Trazado 994710" d="M240,416h1.9v1.9H240Z" transform="translate(-197.446 -352.582)"/>
      <path id="Trazado_994711" data-name="Trazado 994711" d="M272,384h1.9v1.9H272Z" transform="translate(-225.652 -324.375)"/>
      <path id="Trazado_994712" data-name="Trazado 994712" d="M272,416h1.9v1.9H272Z" transform="translate(-225.652 -352.582)"/>
      <path id="Trazado_994713" data-name="Trazado 994713" d="M226.845,20.742a.949.949,0,0,1,.948.948v1.9h1.9v-1.9a2.848,2.848,0,0,0-2.845-2.845.949.949,0,0,1-.948-.948V16H224v1.9a2.848,2.848,0,0,0,2.845,2.845Z" transform="translate(-183.343)"/>
      <path id="Trazado_994714" data-name="Trazado 994714" d="M146.845,20.742a.949.949,0,0,1,.948.948v1.9h1.9v-1.9a2.848,2.848,0,0,0-2.845-2.845.949.949,0,0,1-.948-.948V16H144v1.9A2.848,2.848,0,0,0,146.845,20.742Z" transform="translate(-112.826)"/>
      <path id="Trazado_994715" data-name="Trazado 994715" d="M306.845,20.742a.949.949,0,0,1,.948.948v1.9h1.9v-1.9a2.848,2.848,0,0,0-2.845-2.845.949.949,0,0,1-.948-.948V16H304v1.9A2.848,2.848,0,0,0,306.845,20.742Z" transform="translate(-253.859)"/>
      <path id="Trazado_994716" data-name="Trazado 994716" d="M208,240h1.9v1.9H208Z" transform="translate(-169.239 -197.446)"/>
      <path id="Trazado_994717" data-name="Trazado 994717" d="M240,240h1.9v1.9H240Z" transform="translate(-197.446 -197.446)"/>
      <path id="Trazado_994718" data-name="Trazado 994718" d="M144,240h1.9v1.9H144Z" transform="translate(-112.826 -197.446)"/>
      <path id="Trazado_994719" data-name="Trazado 994719" d="M176,240h1.9v1.9H176Z" transform="translate(-141.033 -197.446)"/>
      <path id="Trazado_994720" data-name="Trazado 994720" d="M304,240h1.9v1.9H304Z" transform="translate(-253.859 -197.446)"/>
      <path id="Trazado_994721" data-name="Trazado 994721" d="M272,240h1.9v1.9H272Z" transform="translate(-225.652 -197.446)"/>
    </g>
  </g>
</svg>
