<svg xmlns="http://www.w3.org/2000/svg" width="1030" height="544" viewBox="0 0 1030 544">
  <g id="Grupo_1159255" data-name="Grupo 1159255" transform="translate(-285 -8153)">
    <rect id="Fondo" width="1030" height="544" transform="translate(285 8153)" fill="#e8edf7"/>
    <g id="Grupo_1159144" data-name="Grupo 1159144" transform="translate(0 944)">
      <rect id="Imagen_12" data-name="Imagen 12" width="611" height="452" transform="translate(495 7257)" fill="#fff"/>
      <path id="Trazado_994263" data-name="Trazado 994263" d="M4131.422,6322.642v265.488H4446.61" transform="translate(-3499.422 970.306)" fill="none" stroke="#6e7a97" stroke-width="1.5"/>
      <path id="Trazado_994722" data-name="Trazado 994722" d="M-1.77-.859A4.694,4.694,0,0,1-5.067.32,4.967,4.967,0,0,1-8.973-1.273,6.379,6.379,0,0,1-10.4-5.664a6.324,6.324,0,0,1,1.617-4.648A4.819,4.819,0,0,1-5.2-11.734,4.839,4.839,0,0,1-.95-9.828a4.127,4.127,0,0,1,.8,2.148H-2.559a3.25,3.25,0,0,0-.6-1.25,2.447,2.447,0,0,0-1.945-.75,2.412,2.412,0,0,0-2.07,1.059,5.089,5.089,0,0,0-.758,3,4.467,4.467,0,0,0,.8,2.9A2.53,2.53,0,0,0-5.1-1.758a2.328,2.328,0,0,0,1.93-.828,3.6,3.6,0,0,0,.609-1.336H-.177A5.178,5.178,0,0,1-1.77-.859ZM.809-11.516H3.38l2.5,8.742L8.4-11.516h2.5L6.973,0H4.7Z" transform="translate(610 7298.947)" fill="#212429"/>
      <path id="Trazado_994725" data-name="Trazado 994725" d="M1.918.063A5.884,5.884,0,0,1,.066.32,5.3,5.3,0,0,1-3.652-1.023a6.091,6.091,0,0,1-1.781-4.75,6.038,6.038,0,0,1,1.828-4.773,5.4,5.4,0,0,1,3.711-1.32,5.322,5.322,0,0,1,3.75,1.4,5.853,5.853,0,0,1,1.75,4.523A7.661,7.661,0,0,1,5.23-3.367a4.3,4.3,0,0,1-.9,1.648L5.66-.477,4.4.836,3.012-.477A5.8,5.8,0,0,1,1.918.063ZM1.4-2.016.238-3.125l1.242-1.3L2.645-3.312A5.44,5.44,0,0,0,3.027-4.3,5.664,5.664,0,0,0,3.2-5.773a4.918,4.918,0,0,0-.793-3A2.715,2.715,0,0,0,.09-9.828,2.825,2.825,0,0,0-2.191-8.812a4.639,4.639,0,0,0-.852,3.039A4.2,4.2,0,0,0-1.824-2.383a2.84,2.84,0,0,0,1.891.664,3.1,3.1,0,0,0,.8-.1A3.967,3.967,0,0,0,1.4-2.016Z" transform="translate(949 7587.306)" fill="#212429"/>
      <path id="Trazado_994726" data-name="Trazado 994726" d="M-.043.281A3.205,3.205,0,0,1-3.078-1.234a8.768,8.768,0,0,1-.871-4.32,8.815,8.815,0,0,1,.871-4.328A3.2,3.2,0,0,1-.043-11.406,3.21,3.21,0,0,1,3-9.883a8.849,8.849,0,0,1,.867,4.328,8.768,8.768,0,0,1-.871,4.32A3.205,3.205,0,0,1-.043.281Zm1.3-2.852a11.146,11.146,0,0,0,.3-2.984,10.933,10.933,0,0,0-.309-3.031,1.261,1.261,0,0,0-1.3-.984,1.279,1.279,0,0,0-1.312.984,10.552,10.552,0,0,0-.32,3.031,10.67,10.67,0,0,0,.32,2.988A1.29,1.29,0,0,0-.043-1.531,1.279,1.279,0,0,0,1.262-2.57Z" transform="translate(630 7587.306)" fill="#212429"/>
      <path id="Trazado_994724" data-name="Trazado 994724" d="M-1.321-.859A4.694,4.694,0,0,1-4.618.32,4.967,4.967,0,0,1-8.524-1.273,6.379,6.379,0,0,1-9.946-5.664a6.324,6.324,0,0,1,1.617-4.648,4.819,4.819,0,0,1,3.578-1.422A4.839,4.839,0,0,1-.5-9.828,4.127,4.127,0,0,1,.3-7.68H-2.11a3.25,3.25,0,0,0-.6-1.25,2.447,2.447,0,0,0-1.945-.75,2.412,2.412,0,0,0-2.07,1.059,5.089,5.089,0,0,0-.758,3,4.467,4.467,0,0,0,.8,2.9,2.53,2.53,0,0,0,2.035.965,2.328,2.328,0,0,0,1.93-.828A3.6,3.6,0,0,0-2.11-3.922H.273A5.178,5.178,0,0,1-1.321-.859Zm11.6-8.617H4.5v2.648H9.555v2H4.5V0H2.11V-11.5h8.164Z" transform="translate(947.188 7424.878)" fill="#212429"/>
      <path id="Trazado_994723" data-name="Trazado 994723" d="M-1.77-.859A4.694,4.694,0,0,1-5.067.32,4.967,4.967,0,0,1-8.973-1.273,6.379,6.379,0,0,1-10.4-5.664a6.324,6.324,0,0,1,1.617-4.648A4.819,4.819,0,0,1-5.2-11.734,4.839,4.839,0,0,1-.95-9.828a4.127,4.127,0,0,1,.8,2.148H-2.559a3.25,3.25,0,0,0-.6-1.25,2.447,2.447,0,0,0-1.945-.75,2.412,2.412,0,0,0-2.07,1.059,5.089,5.089,0,0,0-.758,3,4.467,4.467,0,0,0,.8,2.9A2.53,2.53,0,0,0-5.1-1.758a2.328,2.328,0,0,0,1.93-.828,3.6,3.6,0,0,0,.609-1.336H-.177A5.178,5.178,0,0,1-1.77-.859ZM.809-11.516H3.38l2.5,8.742L8.4-11.516h2.5L6.973,0H4.7Z" transform="translate(908.188 7370.878)" fill="#212429"/>
      <path id="Polígono_38" data-name="Polígono 38" d="M8,0l8,10H0Z" transform="translate(624 7289.306)" fill="#0b0a0a"/>
      <path id="Polígono_39" data-name="Polígono 39" d="M8,0l8,10H0Z" transform="translate(955 7550.306) rotate(90)" fill="#0b0a0a"/>
      <path id="Trazado_994301" data-name="Trazado 994301" d="M5946,7418.878h296.375" transform="translate(-5314)" fill="none" stroke="#6e7a97" stroke-width="1"/>
      <path id="Contenido" d="M9.344,11.141a4.694,4.694,0,0,1-3.3,1.18,4.967,4.967,0,0,1-3.906-1.594A6.379,6.379,0,0,1,.719,6.336,6.324,6.324,0,0,1,2.336,1.688,4.819,4.819,0,0,1,5.914.266a4.839,4.839,0,0,1,4.25,1.906,4.127,4.127,0,0,1,.8,2.148H8.555a3.25,3.25,0,0,0-.6-1.25,2.447,2.447,0,0,0-1.945-.75,2.412,2.412,0,0,0-2.07,1.059,5.089,5.089,0,0,0-.758,3,4.467,4.467,0,0,0,.8,2.9,2.53,2.53,0,0,0,2.035.965,2.328,2.328,0,0,0,1.93-.828,3.6,3.6,0,0,0,.609-1.336h2.383A5.178,5.178,0,0,1,9.344,11.141ZM19.7,4.563a4.969,4.969,0,0,1,1.078,3.2A4.936,4.936,0,0,1,19.7,10.965,3.961,3.961,0,0,1,16.423,12.3a3.961,3.961,0,0,1-3.273-1.332,4.936,4.936,0,0,1-1.078-3.207,4.969,4.969,0,0,1,1.078-3.2,3.934,3.934,0,0,1,3.273-1.352A3.934,3.934,0,0,1,19.7,4.563Zm-3.281.531a1.779,1.779,0,0,0-1.5.691,3.2,3.2,0,0,0-.527,1.973,3.217,3.217,0,0,0,.527,1.977,1.775,1.775,0,0,0,1.5.7,1.765,1.765,0,0,0,1.5-.7,3.235,3.235,0,0,0,.523-1.977,3.217,3.217,0,0,0-.523-1.973A1.769,1.769,0,0,0,16.416,5.094ZM28.238,3.875a2.743,2.743,0,0,1,1.148,2.2H27.159a1.317,1.317,0,0,0-.242-.68,1.524,1.524,0,0,0-1.25-.453,1.8,1.8,0,0,0-1.035.227.652.652,0,0,0-.309.531.581.581,0,0,0,.328.555,14.2,14.2,0,0,0,2.32.617,4.262,4.262,0,0,1,1.992.945,2.146,2.146,0,0,1,.656,1.6,2.588,2.588,0,0,1-.941,2.066,4.423,4.423,0,0,1-2.91.8,4.381,4.381,0,0,1-2.965-.848,2.758,2.758,0,0,1-.957-2.16H24.1a1.487,1.487,0,0,0,.3.844,2.06,2.06,0,0,0,1.531.445,2.334,2.334,0,0,0,1.043-.2.655.655,0,0,0,.074-1.156,12.713,12.713,0,0,0-2.32-.672,4.833,4.833,0,0,1-2.039-.9A1.948,1.948,0,0,1,22.1,6.117a2.656,2.656,0,0,1,.926-2.027,3.718,3.718,0,0,1,2.605-.848A4.824,4.824,0,0,1,28.238,3.875Zm6.931,6.539v1.664l-1.055.039a2.83,2.83,0,0,1-2.156-.547,1.628,1.628,0,0,1-.375-1.18V5.148H30.4V3.563h1.188V1.188h2.2V3.563h1.383V5.148H33.786v4.5a1.014,1.014,0,0,0,.133.652,1.462,1.462,0,0,0,.813.129q.1,0,.215,0T35.169,10.414ZM43.7,4.563a4.969,4.969,0,0,1,1.078,3.2A4.936,4.936,0,0,1,43.7,10.965,3.961,3.961,0,0,1,40.428,12.3a3.961,3.961,0,0,1-3.273-1.332,4.936,4.936,0,0,1-1.078-3.207,4.969,4.969,0,0,1,1.078-3.2,3.934,3.934,0,0,1,3.273-1.352A3.934,3.934,0,0,1,43.7,4.563Zm-3.281.531a1.779,1.779,0,0,0-1.5.691,3.2,3.2,0,0,0-.527,1.973,3.217,3.217,0,0,0,.527,1.977,1.97,1.97,0,0,0,3,0,3.235,3.235,0,0,0,.523-1.977,3.217,3.217,0,0,0-.523-1.973A1.769,1.769,0,0,0,40.42,5.094Zm9.566-1.609h2.5L54.26,9.766l1.813-6.281h2.391L55.392,12H53.041Zm10.056.922a3.636,3.636,0,0,1,3.031-1.125,5.386,5.386,0,0,1,2.484.555A2.13,2.13,0,0,1,66.644,5.93V9.836q0,.406.016.984a1.238,1.238,0,0,0,.133.594.8.8,0,0,0,.328.258V12H64.7a2.48,2.48,0,0,1-.141-.484q-.039-.227-.062-.516a4.575,4.575,0,0,1-1.062.852,3.2,3.2,0,0,1-1.625.414,2.794,2.794,0,0,1-1.91-.66,2.355,2.355,0,0,1-.754-1.871,2.429,2.429,0,0,1,1.211-2.273,5.377,5.377,0,0,1,1.953-.547l.758-.094a3.475,3.475,0,0,0,.883-.2.669.669,0,0,0,.477-.633.751.751,0,0,0-.363-.723A2.269,2.269,0,0,0,63,5.07a1.389,1.389,0,0,0-1.117.391,1.624,1.624,0,0,0-.312.781H59.417A3.268,3.268,0,0,1,60.042,4.406ZM61.7,10.391a1.163,1.163,0,0,0,.766.258,2.268,2.268,0,0,0,1.324-.422,1.8,1.8,0,0,0,.629-1.539V7.859a2.42,2.42,0,0,1-.426.215,3.561,3.561,0,0,1-.59.152l-.5.094a3.229,3.229,0,0,0-1.008.3,1.021,1.021,0,0,0-.516.945A.978.978,0,0,0,61.7,10.391ZM72.9,5.539a1.847,1.847,0,0,0-1.8.875,3.4,3.4,0,0,0-.258,1.516V12H68.6V3.484h2.125V4.969a4.707,4.707,0,0,1,.9-1.164,2.446,2.446,0,0,1,1.625-.523q.062,0,.105,0l.191.012V5.578q-.211-.023-.375-.031T72.9,5.539Zm4.236-2.055V12H74.882V3.484Zm0-3.07V2.469H74.882V.414Zm2.478,3.992a3.636,3.636,0,0,1,3.031-1.125,5.386,5.386,0,0,1,2.484.555A2.13,2.13,0,0,1,86.219,5.93V9.836q0,.406.016.984a1.238,1.238,0,0,0,.133.594.8.8,0,0,0,.328.258V12H84.274a2.48,2.48,0,0,1-.141-.484q-.039-.227-.062-.516a4.575,4.575,0,0,1-1.062.852,3.2,3.2,0,0,1-1.625.414,2.794,2.794,0,0,1-1.91-.66,2.355,2.355,0,0,1-.754-1.871A2.429,2.429,0,0,1,79.93,7.461a5.377,5.377,0,0,1,1.953-.547l.758-.094a3.475,3.475,0,0,0,.883-.2A.669.669,0,0,0,84,5.992a.751.751,0,0,0-.363-.723,2.269,2.269,0,0,0-1.066-.2,1.389,1.389,0,0,0-1.117.391,1.624,1.624,0,0,0-.312.781H78.993A3.268,3.268,0,0,1,79.618,4.406Zm1.656,5.984a1.163,1.163,0,0,0,.766.258,2.268,2.268,0,0,0,1.324-.422,1.8,1.8,0,0,0,.629-1.539V7.859a2.42,2.42,0,0,1-.426.215,3.561,3.561,0,0,1-.59.152l-.5.094a3.229,3.229,0,0,0-1.008.3,1.021,1.021,0,0,0-.516.945A.978.978,0,0,0,81.274,10.391Zm11.548,1.836a3.038,3.038,0,0,1-1.7-.422,3.386,3.386,0,0,1-.828-.875V12h-2.18V.5h2.219V4.594a3.249,3.249,0,0,1,.93-.906A2.761,2.761,0,0,1,92.8,3.3a3.154,3.154,0,0,1,2.629,1.211,4.916,4.916,0,0,1,.949,3.125,5.5,5.5,0,0,1-.937,3.289A3.04,3.04,0,0,1,92.822,12.227Zm1.219-4.359a4.121,4.121,0,0,0-.234-1.5,1.632,1.632,0,0,0-1.641-1.125,1.657,1.657,0,0,0-1.664,1.1,4.134,4.134,0,0,0-.234,1.516,3.175,3.175,0,0,0,.484,1.813,1.659,1.659,0,0,0,1.477.719,1.528,1.528,0,0,0,1.336-.7A3.175,3.175,0,0,0,94.041,7.867ZM98.019.484h2.227V12H98.019ZM109.708,9.5a2.824,2.824,0,0,1-.789,1.539,3.866,3.866,0,0,1-3.062,1.242,4.318,4.318,0,0,1-2.867-1.047,4.222,4.222,0,0,1-1.242-3.406,4.734,4.734,0,0,1,1.121-3.391,3.833,3.833,0,0,1,2.91-1.18,4.463,4.463,0,0,1,1.914.4A3.353,3.353,0,0,1,109.1,4.914a4.292,4.292,0,0,1,.648,1.758,11.353,11.353,0,0,1,.07,1.688H103.99a2.116,2.116,0,0,0,.8,1.8,1.9,1.9,0,0,0,1.109.32,1.6,1.6,0,0,0,1.117-.391,1.855,1.855,0,0,0,.414-.586Zm-2.2-2.609a1.938,1.938,0,0,0-.535-1.34,1.662,1.662,0,0,0-1.191-.457,1.512,1.512,0,0,0-1.2.484,2.418,2.418,0,0,0-.535,1.313Zm10.706,8.336-.555-.758a10.154,10.154,0,0,1-1.148-2.047,11.657,11.657,0,0,1-1.086-4.781,10.606,10.606,0,0,1,.914-4.25A16.748,16.748,0,0,1,118.141.3h1.68l-.477.875a13.029,13.029,0,0,0-1.367,3.781,14.959,14.959,0,0,0-.25,2.828,13.362,13.362,0,0,0,.7,4.4,20.065,20.065,0,0,0,1.438,3.047ZM129.4,11.141a4.694,4.694,0,0,1-3.3,1.18,4.967,4.967,0,0,1-3.906-1.594,6.379,6.379,0,0,1-1.422-4.391,6.324,6.324,0,0,1,1.617-4.648,5.467,5.467,0,0,1,7.828.484,4.127,4.127,0,0,1,.8,2.148h-2.406a3.25,3.25,0,0,0-.6-1.25,2.447,2.447,0,0,0-1.945-.75,2.412,2.412,0,0,0-2.07,1.059,5.089,5.089,0,0,0-.758,3,4.467,4.467,0,0,0,.8,2.9,2.53,2.53,0,0,0,2.035.965A2.328,2.328,0,0,0,128,9.414a3.6,3.6,0,0,0,.609-1.336h2.383A5.178,5.178,0,0,1,129.4,11.141ZM131.98.484h2.57l2.5,8.742L139.574.484h2.5L138.144,12h-2.273Zm12.673,13.984-.555.758h-1.648a20.064,20.064,0,0,0,1.438-3.047,13.362,13.362,0,0,0,.7-4.4,14.958,14.958,0,0,0-.25-2.828,13.029,13.029,0,0,0-1.367-3.781L142.49.3h1.68a16.747,16.747,0,0,1,1.8,3.094,10.606,10.606,0,0,1,.914,4.25,11.658,11.658,0,0,1-1.086,4.781A10.154,10.154,0,0,1,144.654,14.469Zm4.291-.836a.985.985,0,0,0,.758-.758,2.145,2.145,0,0,0,.117-.68q0-.055,0-.1a.538.538,0,0,0-.02-.1h-.852V10.3h1.672v1.578a3.418,3.418,0,0,1-.375,1.633,1.709,1.709,0,0,1-1.3.867ZM161.026,3.445a3.817,3.817,0,0,1,1.727.418,3.184,3.184,0,0,1,1.273,1.082,3.733,3.733,0,0,1,.563,1.477,9.661,9.661,0,0,1,.125,1.844H158.58a3.579,3.579,0,0,0,.6,2.043,2.014,2.014,0,0,0,1.742.77,2.252,2.252,0,0,0,1.758-.727,2.449,2.449,0,0,0,.531-.977H164.6a2.912,2.912,0,0,1-.363,1.027,3.654,3.654,0,0,1-.691.926,3.277,3.277,0,0,1-1.586.844,4.818,4.818,0,0,1-1.148.125,3.524,3.524,0,0,1-2.648-1.137,4.423,4.423,0,0,1-1.086-3.184A4.809,4.809,0,0,1,158.166,4.7,3.608,3.608,0,0,1,161.026,3.445Zm2.242,3.7a3.643,3.643,0,0,0-.4-1.461,2.042,2.042,0,0,0-1.93-1.016,2.139,2.139,0,0,0-1.625.7,2.641,2.641,0,0,0-.7,1.777Zm4.009,2.227a2.045,2.045,0,0,0,.352,1.078,2.209,2.209,0,0,0,1.844.68,2.719,2.719,0,0,0,1.375-.34,1.129,1.129,0,0,0,.594-1.051.9.9,0,0,0-.477-.82,5.666,5.666,0,0,0-1.2-.4l-1.117-.281a5.45,5.45,0,0,1-1.578-.594,1.775,1.775,0,0,1-.906-1.578,2.411,2.411,0,0,1,.855-1.922,3.413,3.413,0,0,1,2.3-.734,3.194,3.194,0,0,1,2.727,1.109,2.407,2.407,0,0,1,.508,1.516h-1.328a1.627,1.627,0,0,0-.336-.867,2.143,2.143,0,0,0-1.68-.555,2.008,2.008,0,0,0-1.207.3.955.955,0,0,0-.41.8.991.991,0,0,0,.539.875,3.239,3.239,0,0,0,.922.344l.93.227a7.188,7.188,0,0,1,2.031.711,1.882,1.882,0,0,1,.82,1.7,2.584,2.584,0,0,1-.848,1.93,3.608,3.608,0,0,1-2.582.813,3.464,3.464,0,0,1-2.645-.848,3.206,3.206,0,0,1-.832-2.1Zm15.1-5.93a3.817,3.817,0,0,1,1.727.418,3.184,3.184,0,0,1,1.273,1.082,3.733,3.733,0,0,1,.563,1.477,9.661,9.661,0,0,1,.125,1.844h-6.133a3.579,3.579,0,0,0,.6,2.043,2.014,2.014,0,0,0,1.742.77,2.252,2.252,0,0,0,1.758-.727,2.449,2.449,0,0,0,.531-.977h1.383a2.912,2.912,0,0,1-.363,1.027,3.654,3.654,0,0,1-.691.926,3.277,3.277,0,0,1-1.586.844,4.818,4.818,0,0,1-1.148.125,3.524,3.524,0,0,1-2.648-1.137,4.423,4.423,0,0,1-1.086-3.184A4.809,4.809,0,0,1,179.515,4.7,3.608,3.608,0,0,1,182.374,3.445Zm2.242,3.7a3.643,3.643,0,0,0-.4-1.461,2.042,2.042,0,0,0-1.93-1.016,2.139,2.139,0,0,0-1.625.7,2.641,2.641,0,0,0-.7,1.777ZM187.829.523h1.406V12h-1.406Zm8.652,3.109,2.234,6.813,2.336-6.812h1.539L199.434,12h-1.5l-3.086-8.367Zm8.392,6.141a1.158,1.158,0,0,0,.445.961,1.651,1.651,0,0,0,1.055.352,3.207,3.207,0,0,0,1.438-.344,1.935,1.935,0,0,0,1.172-1.867V7.742a2.406,2.406,0,0,1-.664.273,5.658,5.658,0,0,1-.8.156l-.852.109a3.257,3.257,0,0,0-1.148.32A1.248,1.248,0,0,0,204.873,9.773Zm3.406-2.844a.764.764,0,0,0,.648-.406,1.236,1.236,0,0,0,.094-.539,1.142,1.142,0,0,0-.512-1.043,2.745,2.745,0,0,0-1.465-.324,1.861,1.861,0,0,0-1.562.594,1.953,1.953,0,0,0-.336.977h-1.312a2.416,2.416,0,0,1,1-2.152,4.122,4.122,0,0,1,2.238-.605,4.554,4.554,0,0,1,2.4.563,1.908,1.908,0,0,1,.914,1.75v4.82a.617.617,0,0,0,.09.352.433.433,0,0,0,.379.133q.094,0,.211-.012t.25-.035v1.039a3.917,3.917,0,0,1-.5.117,3.654,3.654,0,0,1-.469.023,1.157,1.157,0,0,1-1.055-.516,1.99,1.99,0,0,1-.242-.773,3.578,3.578,0,0,1-1.234.977,3.818,3.818,0,0,1-1.773.414,2.637,2.637,0,0,1-1.9-.707A2.349,2.349,0,0,1,203.4,9.8a2.279,2.279,0,0,1,.727-1.8,3.457,3.457,0,0,1,1.906-.789ZM212.734.523h1.406V12h-1.406Zm6.838,10.57a1.939,1.939,0,0,0,1.918-1.059,5.274,5.274,0,0,0,.52-2.355,4.194,4.194,0,0,0-.375-1.906,2.11,2.11,0,0,0-2.047-1.156,2.018,2.018,0,0,0-1.875.984,4.563,4.563,0,0,0-.586,2.375,3.969,3.969,0,0,0,.586,2.227A2.064,2.064,0,0,0,219.571,11.094Zm.055-7.7a3.789,3.789,0,0,1,2.734,1.078,4.21,4.21,0,0,1,1.117,3.172,5.442,5.442,0,0,1-.984,3.344,3.561,3.561,0,0,1-3.055,1.32,3.449,3.449,0,0,1-2.742-1.168A4.613,4.613,0,0,1,215.681,8a4.991,4.991,0,0,1,1.07-3.359A3.592,3.592,0,0,1,219.626,3.391Zm5.564.242h1.336V5.078a3.193,3.193,0,0,1,.8-1.027,2.086,2.086,0,0,1,1.477-.605q.039,0,.133.008l.32.031V4.969a2.1,2.1,0,0,0-.23-.031q-.105-.008-.23-.008a2.007,2.007,0,0,0-1.633.684,2.386,2.386,0,0,0-.57,1.574V12H225.19Zm9.738,0h1.391V4.82a4.674,4.674,0,0,1,.906-.9,2.726,2.726,0,0,1,1.578-.477,2.484,2.484,0,0,1,1.609.492,2.573,2.573,0,0,1,.625.828,3.039,3.039,0,0,1,1.1-1,3.073,3.073,0,0,1,1.422-.324,2.325,2.325,0,0,1,2.3,1.219,3.984,3.984,0,0,1,.328,1.766V12h-1.461V6.188a1.354,1.354,0,0,0-.418-1.148,1.654,1.654,0,0,0-1.02-.312,2.024,2.024,0,0,0-1.426.555,2.436,2.436,0,0,0-.6,1.852V12h-1.43V6.539a2.837,2.837,0,0,0-.2-1.242,1.239,1.239,0,0,0-1.2-.586,2.062,2.062,0,0,0-1.449.617,3.025,3.025,0,0,0-.652,2.234V12h-1.406Zm16.65,7.461a1.939,1.939,0,0,0,1.918-1.059,5.274,5.274,0,0,0,.52-2.355,4.194,4.194,0,0,0-.375-1.906,2.11,2.11,0,0,0-2.047-1.156,2.018,2.018,0,0,0-1.875.984,4.563,4.563,0,0,0-.586,2.375,3.969,3.969,0,0,0,.586,2.227A2.064,2.064,0,0,0,251.578,11.094Zm.055-7.7a3.789,3.789,0,0,1,2.734,1.078,4.21,4.21,0,0,1,1.117,3.172,5.442,5.442,0,0,1-.984,3.344,3.561,3.561,0,0,1-3.055,1.32,3.449,3.449,0,0,1-2.742-1.168A4.613,4.613,0,0,1,247.687,8a4.991,4.991,0,0,1,1.07-3.359A3.592,3.592,0,0,1,251.633,3.391Zm5.525.242h1.336V4.82a3.747,3.747,0,0,1,1.258-1.055,3.354,3.354,0,0,1,1.477-.32,2.435,2.435,0,0,1,2.406,1.242,4.411,4.411,0,0,1,.344,1.945V12h-1.43V6.727a2.856,2.856,0,0,0-.227-1.234,1.374,1.374,0,0,0-1.359-.781,2.768,2.768,0,0,0-.82.1,2.113,2.113,0,0,0-1.016.688,2.07,2.07,0,0,0-.457.855,5.758,5.758,0,0,0-.105,1.262V12h-1.406Zm12.384-.187a3.817,3.817,0,0,1,1.727.418,3.184,3.184,0,0,1,1.273,1.082,3.733,3.733,0,0,1,.563,1.477,9.66,9.66,0,0,1,.125,1.844H267.1a3.579,3.579,0,0,0,.6,2.043,2.014,2.014,0,0,0,1.742.77,2.252,2.252,0,0,0,1.758-.727,2.449,2.449,0,0,0,.531-.977h1.383a2.913,2.913,0,0,1-.363,1.027,3.653,3.653,0,0,1-.691.926,3.277,3.277,0,0,1-1.586.844,4.818,4.818,0,0,1-1.148.125,3.524,3.524,0,0,1-2.648-1.137,4.423,4.423,0,0,1-1.086-3.184A4.809,4.809,0,0,1,266.683,4.7,3.608,3.608,0,0,1,269.542,3.445Zm2.242,3.7a3.643,3.643,0,0,0-.4-1.461,2.042,2.042,0,0,0-1.93-1.016,2.139,2.139,0,0,0-1.625.7,2.641,2.641,0,0,0-.7,1.777ZM275.239,1.3h1.422V3.633H278V4.781h-1.336v5.461a.591.591,0,0,0,.3.586,1.262,1.262,0,0,0,.547.086q.1,0,.219,0t.273-.02V12a3.14,3.14,0,0,1-.5.1,4.791,4.791,0,0,1-.566.031,1.527,1.527,0,0,1-1.336-.5,2.239,2.239,0,0,1-.352-1.309V4.781h-1.133V3.633h1.133Zm5.244,8.477a1.158,1.158,0,0,0,.445.961,1.651,1.651,0,0,0,1.055.352,3.207,3.207,0,0,0,1.438-.344,1.935,1.935,0,0,0,1.172-1.867V7.742a2.406,2.406,0,0,1-.664.273,5.659,5.659,0,0,1-.8.156l-.852.109a3.257,3.257,0,0,0-1.148.32A1.248,1.248,0,0,0,280.483,9.773Zm3.406-2.844a.764.764,0,0,0,.648-.406,1.236,1.236,0,0,0,.094-.539,1.142,1.142,0,0,0-.512-1.043,2.746,2.746,0,0,0-1.465-.324,1.861,1.861,0,0,0-1.562.594,1.954,1.954,0,0,0-.336.977h-1.312a2.416,2.416,0,0,1,1-2.152,4.122,4.122,0,0,1,2.238-.605,4.554,4.554,0,0,1,2.4.563A1.908,1.908,0,0,1,286,5.742v4.82a.617.617,0,0,0,.09.352.433.433,0,0,0,.379.133q.094,0,.211-.012t.25-.035v1.039a3.916,3.916,0,0,1-.5.117,3.654,3.654,0,0,1-.469.023,1.157,1.157,0,0,1-1.055-.516,1.99,1.99,0,0,1-.242-.773,3.578,3.578,0,0,1-1.234.977,3.818,3.818,0,0,1-1.773.414,2.637,2.637,0,0,1-1.9-.707,2.349,2.349,0,0,1-.738-1.77A2.279,2.279,0,0,1,279.74,8a3.457,3.457,0,0,1,1.906-.789Zm4.455-3.3h1.336V5.078a3.193,3.193,0,0,1,.8-1.027,2.086,2.086,0,0,1,1.477-.605q.039,0,.133.008l.32.031V4.969a2.1,2.1,0,0,0-.23-.031q-.105-.008-.23-.008a2.007,2.007,0,0,0-1.633.684,2.386,2.386,0,0,0-.57,1.574V12h-1.406Zm5.291.039h1.43V12h-1.43Zm0-3.148h1.43V2.117h-1.43Zm6.877,10.57a1.939,1.939,0,0,0,1.918-1.059,5.274,5.274,0,0,0,.52-2.355,4.194,4.194,0,0,0-.375-1.906,2.11,2.11,0,0,0-2.047-1.156,2.018,2.018,0,0,0-1.875.984,4.563,4.563,0,0,0-.586,2.375,3.969,3.969,0,0,0,.586,2.227A2.064,2.064,0,0,0,300.511,11.094Zm.055-7.7A3.789,3.789,0,0,1,303.3,4.469a4.21,4.21,0,0,1,1.117,3.172,5.442,5.442,0,0,1-.984,3.344,3.561,3.561,0,0,1-3.055,1.32,3.449,3.449,0,0,1-2.742-1.168A4.613,4.613,0,0,1,296.62,8a4.991,4.991,0,0,1,1.07-3.359A3.592,3.592,0,0,1,300.566,3.391Zm10.863,4.523a4.147,4.147,0,0,0,.57,2.25,2,2,0,0,0,1.828.906,1.925,1.925,0,0,0,1.605-.84,3.966,3.966,0,0,0,.629-2.41,3.564,3.564,0,0,0-.648-2.348,2.023,2.023,0,0,0-1.6-.762,2.114,2.114,0,0,0-1.723.813A3.721,3.721,0,0,0,311.428,7.914Zm2.117-4.43a2.977,2.977,0,0,1,1.609.406,3.781,3.781,0,0,1,.852.82V.484h1.352V12h-1.266V10.836a3.043,3.043,0,0,1-1.164,1.117,3.332,3.332,0,0,1-1.539.344,3.117,3.117,0,0,1-2.422-1.176,4.6,4.6,0,0,1-1.023-3.129,5.4,5.4,0,0,1,.934-3.168A3.057,3.057,0,0,1,313.545,3.484Zm9.377-.039a3.817,3.817,0,0,1,1.727.418,3.184,3.184,0,0,1,1.273,1.082,3.733,3.733,0,0,1,.563,1.477,9.66,9.66,0,0,1,.125,1.844h-6.133a3.579,3.579,0,0,0,.6,2.043,2.014,2.014,0,0,0,1.742.77,2.252,2.252,0,0,0,1.758-.727,2.449,2.449,0,0,0,.531-.977h1.383a2.913,2.913,0,0,1-.363,1.027,3.653,3.653,0,0,1-.691.926,3.277,3.277,0,0,1-1.586.844,4.818,4.818,0,0,1-1.148.125,3.524,3.524,0,0,1-2.648-1.137,4.423,4.423,0,0,1-1.086-3.184A4.809,4.809,0,0,1,320.063,4.7,3.608,3.608,0,0,1,322.922,3.445Zm2.242,3.7a3.643,3.643,0,0,0-.4-1.461,2.042,2.042,0,0,0-1.93-1.016,2.139,2.139,0,0,0-1.625.7,2.641,2.641,0,0,0-.7,1.777ZM332.824.523h1.406V12h-1.406Zm6.838,10.57a1.939,1.939,0,0,0,1.918-1.059,5.274,5.274,0,0,0,.52-2.355,4.194,4.194,0,0,0-.375-1.906,2.11,2.11,0,0,0-2.047-1.156A2.018,2.018,0,0,0,337.8,5.6a4.563,4.563,0,0,0-.586,2.375A3.969,3.969,0,0,0,337.8,10.2,2.064,2.064,0,0,0,339.661,11.094Zm.055-7.7a3.789,3.789,0,0,1,2.734,1.078,4.21,4.21,0,0,1,1.117,3.172,5.442,5.442,0,0,1-.984,3.344,3.561,3.561,0,0,1-3.055,1.32,3.449,3.449,0,0,1-2.742-1.168A4.613,4.613,0,0,1,335.771,8a4.991,4.991,0,0,1,1.07-3.359A3.592,3.592,0,0,1,339.716,3.391Zm6.361,5.984a2.045,2.045,0,0,0,.352,1.078,2.209,2.209,0,0,0,1.844.68,2.719,2.719,0,0,0,1.375-.34,1.129,1.129,0,0,0,.594-1.051.9.9,0,0,0-.477-.82,5.666,5.666,0,0,0-1.2-.4l-1.117-.281a5.45,5.45,0,0,1-1.578-.594,1.775,1.775,0,0,1-.906-1.578,2.411,2.411,0,0,1,.855-1.922,3.413,3.413,0,0,1,2.3-.734,3.194,3.194,0,0,1,2.727,1.109,2.407,2.407,0,0,1,.508,1.516h-1.328a1.627,1.627,0,0,0-.336-.867,2.142,2.142,0,0,0-1.68-.555,2.008,2.008,0,0,0-1.207.3.955.955,0,0,0-.41.8.991.991,0,0,0,.539.875,3.239,3.239,0,0,0,.922.344l.93.227a7.188,7.188,0,0,1,2.031.711,1.882,1.882,0,0,1,.82,1.7,2.584,2.584,0,0,1-.848,1.93,3.608,3.608,0,0,1-2.582.813,3.464,3.464,0,0,1-2.645-.848,3.206,3.206,0,0,1-.832-2.1Zm11.964-7.016a2.508,2.508,0,0,1,.3-1.281,2.153,2.153,0,0,1,1.9-.719q.133,0,.273.008t.32.023V1.672q-.219-.016-.316-.02t-.184,0q-.641,0-.766.332a6.564,6.564,0,0,0-.125,1.691h1.391V4.781h-1.406V12h-1.391V4.781h-1.164V3.672h1.164Zm5.173,7.414a1.158,1.158,0,0,0,.445.961,1.651,1.651,0,0,0,1.055.352,3.207,3.207,0,0,0,1.438-.344,1.935,1.935,0,0,0,1.172-1.867V7.742a2.406,2.406,0,0,1-.664.273,5.659,5.659,0,0,1-.8.156l-.852.109a3.257,3.257,0,0,0-1.148.32A1.248,1.248,0,0,0,363.214,9.773Zm3.406-2.844a.764.764,0,0,0,.648-.406,1.236,1.236,0,0,0,.094-.539,1.142,1.142,0,0,0-.512-1.043,2.746,2.746,0,0,0-1.465-.324,1.861,1.861,0,0,0-1.562.594,1.954,1.954,0,0,0-.336.977h-1.312a2.416,2.416,0,0,1,1-2.152,4.122,4.122,0,0,1,2.238-.605,4.554,4.554,0,0,1,2.4.563,1.908,1.908,0,0,1,.914,1.75v4.82a.617.617,0,0,0,.09.352.433.433,0,0,0,.379.133q.094,0,.211-.012t.25-.035v1.039a3.916,3.916,0,0,1-.5.117,3.654,3.654,0,0,1-.469.023,1.157,1.157,0,0,1-1.055-.516,1.99,1.99,0,0,1-.242-.773,3.578,3.578,0,0,1-1.234.977,3.818,3.818,0,0,1-1.773.414,2.637,2.637,0,0,1-1.9-.707,2.349,2.349,0,0,1-.738-1.77,2.279,2.279,0,0,1,.727-1.8,3.457,3.457,0,0,1,1.906-.789Zm7.642-3.539a3.648,3.648,0,0,1,2.3.688,3.293,3.293,0,0,1,1.066,2.367h-1.367a2.524,2.524,0,0,0-.57-1.285,1.8,1.8,0,0,0-1.43-.512,1.975,1.975,0,0,0-1.922,1.313,5.214,5.214,0,0,0-.375,2.1,3.955,3.955,0,0,0,.531,2.117,2.06,2.06,0,0,0,3.059.324,2.943,2.943,0,0,0,.707-1.465h1.367a3.67,3.67,0,0,1-1.172,2.434,3.656,3.656,0,0,1-2.4.77,3.2,3.2,0,0,1-2.617-1.2,4.59,4.59,0,0,1-.977-3,5.048,5.048,0,0,1,1.07-3.43A3.459,3.459,0,0,1,374.263,3.391ZM379.319,1.3h1.422V3.633h1.336V4.781h-1.336v5.461a.591.591,0,0,0,.3.586,1.262,1.262,0,0,0,.547.086q.1,0,.219,0t.273-.02V12a3.14,3.14,0,0,1-.5.1,4.791,4.791,0,0,1-.566.031,1.527,1.527,0,0,1-1.336-.5,2.239,2.239,0,0,1-.352-1.309V4.781h-1.133V3.633h1.133Zm7.486,9.8a1.939,1.939,0,0,0,1.918-1.059,5.274,5.274,0,0,0,.52-2.355,4.194,4.194,0,0,0-.375-1.906,2.11,2.11,0,0,0-2.047-1.156,2.018,2.018,0,0,0-1.875.984,4.563,4.563,0,0,0-.586,2.375,3.969,3.969,0,0,0,.586,2.227A2.064,2.064,0,0,0,386.805,11.094Zm.055-7.7a3.789,3.789,0,0,1,2.734,1.078,4.21,4.21,0,0,1,1.117,3.172,5.442,5.442,0,0,1-.984,3.344,3.561,3.561,0,0,1-3.055,1.32,3.449,3.449,0,0,1-2.742-1.168A4.613,4.613,0,0,1,382.915,8a4.991,4.991,0,0,1,1.07-3.359A3.592,3.592,0,0,1,386.86,3.391Zm5.564.242h1.336V5.078a3.193,3.193,0,0,1,.8-1.027,2.086,2.086,0,0,1,1.477-.605q.039,0,.133.008l.32.031V4.969a2.1,2.1,0,0,0-.23-.031q-.105-.008-.23-.008a2.007,2.007,0,0,0-1.633.684,2.386,2.386,0,0,0-.57,1.574V12h-1.406Zm8.775-.187a3.817,3.817,0,0,1,1.727.418A3.184,3.184,0,0,1,404.2,4.945a3.733,3.733,0,0,1,.563,1.477,9.66,9.66,0,0,1,.125,1.844h-6.133a3.579,3.579,0,0,0,.6,2.043,2.014,2.014,0,0,0,1.742.77,2.252,2.252,0,0,0,1.758-.727,2.449,2.449,0,0,0,.531-.977h1.383a2.913,2.913,0,0,1-.363,1.027,3.653,3.653,0,0,1-.691.926,3.277,3.277,0,0,1-1.586.844,4.818,4.818,0,0,1-1.148.125,3.524,3.524,0,0,1-2.648-1.137,4.423,4.423,0,0,1-1.086-3.184A4.809,4.809,0,0,1,398.34,4.7,3.608,3.608,0,0,1,401.2,3.445Zm2.242,3.7a3.643,3.643,0,0,0-.4-1.461,2.042,2.042,0,0,0-1.93-1.016,2.139,2.139,0,0,0-1.625.7,2.641,2.641,0,0,0-.7,1.777Zm4.009,2.227a2.045,2.045,0,0,0,.352,1.078,2.209,2.209,0,0,0,1.844.68,2.719,2.719,0,0,0,1.375-.34,1.129,1.129,0,0,0,.594-1.051.9.9,0,0,0-.477-.82,5.666,5.666,0,0,0-1.2-.4l-1.117-.281a5.45,5.45,0,0,1-1.578-.594,1.775,1.775,0,0,1-.906-1.578,2.411,2.411,0,0,1,.855-1.922,3.413,3.413,0,0,1,2.3-.734,3.194,3.194,0,0,1,2.727,1.109,2.407,2.407,0,0,1,.508,1.516H411.4a1.627,1.627,0,0,0-.336-.867,2.142,2.142,0,0,0-1.68-.555,2.008,2.008,0,0,0-1.207.3.955.955,0,0,0-.41.8.991.991,0,0,0,.539.875,3.239,3.239,0,0,0,.922.344l.93.227a7.188,7.188,0,0,1,2.031.711,1.882,1.882,0,0,1,.82,1.7,2.584,2.584,0,0,1-.848,1.93,3.608,3.608,0,0,1-2.582.813,3.464,3.464,0,0,1-2.645-.848,3.206,3.206,0,0,1-.832-2.1Zm12.3-5.742,2.234,6.813,2.336-6.812h1.539L422.7,12h-1.5l-3.086-8.367Zm8.392,6.141a1.158,1.158,0,0,0,.445.961,1.651,1.651,0,0,0,1.055.352,3.207,3.207,0,0,0,1.438-.344,1.935,1.935,0,0,0,1.172-1.867V7.742a2.406,2.406,0,0,1-.664.273,5.659,5.659,0,0,1-.8.156l-.852.109a3.257,3.257,0,0,0-1.148.32A1.248,1.248,0,0,0,428.143,9.773Zm3.406-2.844a.764.764,0,0,0,.648-.406,1.236,1.236,0,0,0,.094-.539,1.142,1.142,0,0,0-.512-1.043,2.746,2.746,0,0,0-1.465-.324,1.861,1.861,0,0,0-1.562.594,1.954,1.954,0,0,0-.336.977H427.1a2.416,2.416,0,0,1,1-2.152,4.122,4.122,0,0,1,2.238-.605,4.554,4.554,0,0,1,2.4.563,1.908,1.908,0,0,1,.914,1.75v4.82a.617.617,0,0,0,.09.352.433.433,0,0,0,.379.133q.094,0,.211-.012t.25-.035v1.039a3.916,3.916,0,0,1-.5.117,3.654,3.654,0,0,1-.469.023,1.157,1.157,0,0,1-1.055-.516,1.99,1.99,0,0,1-.242-.773,3.578,3.578,0,0,1-1.234.977,3.818,3.818,0,0,1-1.773.414,2.637,2.637,0,0,1-1.9-.707,2.349,2.349,0,0,1-.738-1.77A2.279,2.279,0,0,1,427.4,8a3.457,3.457,0,0,1,1.906-.789ZM436,3.633h1.336V5.078a3.193,3.193,0,0,1,.8-1.027,2.086,2.086,0,0,1,1.477-.605q.039,0,.133.008l.32.031V4.969a2.1,2.1,0,0,0-.23-.031q-.105-.008-.23-.008a2.007,2.007,0,0,0-1.633.684,2.386,2.386,0,0,0-.57,1.574V12H436Zm5.291.039h1.43V12h-1.43Zm0-3.148h1.43V2.117h-1.43Zm4.634,9.25a1.158,1.158,0,0,0,.445.961,1.651,1.651,0,0,0,1.055.352,3.207,3.207,0,0,0,1.438-.344,1.935,1.935,0,0,0,1.172-1.867V7.742a2.406,2.406,0,0,1-.664.273,5.659,5.659,0,0,1-.8.156l-.852.109a3.257,3.257,0,0,0-1.148.32A1.248,1.248,0,0,0,445.929,9.773Zm3.406-2.844a.764.764,0,0,0,.648-.406,1.236,1.236,0,0,0,.094-.539,1.142,1.142,0,0,0-.512-1.043,2.746,2.746,0,0,0-1.465-.324,1.861,1.861,0,0,0-1.562.594,1.954,1.954,0,0,0-.336.977H444.89a2.416,2.416,0,0,1,1-2.152,4.122,4.122,0,0,1,2.238-.605,4.554,4.554,0,0,1,2.4.563,1.908,1.908,0,0,1,.914,1.75v4.82a.617.617,0,0,0,.09.352.433.433,0,0,0,.379.133q.094,0,.211-.012t.25-.035v1.039a3.916,3.916,0,0,1-.5.117,3.654,3.654,0,0,1-.469.023,1.157,1.157,0,0,1-1.055-.516,1.99,1.99,0,0,1-.242-.773,3.578,3.578,0,0,1-1.234.977,3.818,3.818,0,0,1-1.773.414,2.637,2.637,0,0,1-1.9-.707,2.349,2.349,0,0,1-.738-1.77,2.279,2.279,0,0,1,.727-1.8,3.457,3.457,0,0,1,1.906-.789ZM453.641.484h1.367V4.648A3.064,3.064,0,0,1,457.5,3.414a3.26,3.26,0,0,1,2.535,1.074,4.576,4.576,0,0,1,.973,3.168,5.433,5.433,0,0,1-.961,3.3,3.117,3.117,0,0,1-2.664,1.313,2.73,2.73,0,0,1-1.609-.461,3.887,3.887,0,0,1-.836-.875V12h-1.3ZM457.3,11.023A1.879,1.879,0,0,0,459,10.117a4.462,4.462,0,0,0,.566-2.391A3.924,3.924,0,0,0,459,5.539a1.865,1.865,0,0,0-1.668-.867,2.327,2.327,0,0,0-1.684.711,3.192,3.192,0,0,0-.723,2.344,5.18,5.18,0,0,0,.3,1.914A2.051,2.051,0,0,0,457.3,11.023ZM462.69.523H464.1V12H462.69Zm7,2.922a3.817,3.817,0,0,1,1.727.418,3.184,3.184,0,0,1,1.273,1.082,3.733,3.733,0,0,1,.563,1.477,9.66,9.66,0,0,1,.125,1.844h-6.133a3.579,3.579,0,0,0,.6,2.043,2.014,2.014,0,0,0,1.742.77,2.252,2.252,0,0,0,1.758-.727,2.449,2.449,0,0,0,.531-.977h1.383A2.913,2.913,0,0,1,472.9,10.4a3.653,3.653,0,0,1-.691.926,3.277,3.277,0,0,1-1.586.844,4.818,4.818,0,0,1-1.148.125,3.524,3.524,0,0,1-2.648-1.137,4.423,4.423,0,0,1-1.086-3.184A4.809,4.809,0,0,1,466.832,4.7,3.608,3.608,0,0,1,469.692,3.445Zm2.242,3.7a3.643,3.643,0,0,0-.4-1.461,2.042,2.042,0,0,0-1.93-1.016,2.139,2.139,0,0,0-1.625.7,2.641,2.641,0,0,0-.7,1.777Zm4.009,2.227a2.045,2.045,0,0,0,.352,1.078,2.209,2.209,0,0,0,1.844.68,2.719,2.719,0,0,0,1.375-.34,1.129,1.129,0,0,0,.594-1.051.9.9,0,0,0-.477-.82,5.666,5.666,0,0,0-1.2-.4l-1.117-.281a5.45,5.45,0,0,1-1.578-.594,1.775,1.775,0,0,1-.906-1.578,2.411,2.411,0,0,1,.855-1.922,3.413,3.413,0,0,1,2.3-.734,3.194,3.194,0,0,1,2.727,1.109,2.407,2.407,0,0,1,.508,1.516h-1.328a1.627,1.627,0,0,0-.336-.867,2.142,2.142,0,0,0-1.68-.555,2.008,2.008,0,0,0-1.207.3.955.955,0,0,0-.41.8.991.991,0,0,0,.539.875,3.239,3.239,0,0,0,.922.344l.93.227a7.188,7.188,0,0,1,2.031.711,1.882,1.882,0,0,1,.82,1.7,2.584,2.584,0,0,1-.848,1.93,3.608,3.608,0,0,1-2.582.813,3.464,3.464,0,0,1-2.645-.848,3.206,3.206,0,0,1-.832-2.1Zm12.5-1.461a4.147,4.147,0,0,0,.57,2.25,2,2,0,0,0,1.828.906,1.925,1.925,0,0,0,1.605-.84,3.966,3.966,0,0,0,.629-2.41,3.564,3.564,0,0,0-.648-2.348,2.023,2.023,0,0,0-1.6-.762,2.114,2.114,0,0,0-1.723.813A3.721,3.721,0,0,0,488.446,7.914Zm2.117-4.43a2.977,2.977,0,0,1,1.609.406,3.781,3.781,0,0,1,.852.82V.484h1.352V12H493.11V10.836a3.043,3.043,0,0,1-1.164,1.117,3.332,3.332,0,0,1-1.539.344,3.117,3.117,0,0,1-2.422-1.176,4.6,4.6,0,0,1-1.023-3.129,5.4,5.4,0,0,1,.934-3.168A3.057,3.057,0,0,1,490.564,3.484Zm9.377-.039a3.817,3.817,0,0,1,1.727.418,3.184,3.184,0,0,1,1.273,1.082,3.733,3.733,0,0,1,.563,1.477,9.66,9.66,0,0,1,.125,1.844h-6.133a3.579,3.579,0,0,0,.6,2.043,2.014,2.014,0,0,0,1.742.77,2.252,2.252,0,0,0,1.758-.727,2.449,2.449,0,0,0,.531-.977h1.383a2.913,2.913,0,0,1-.363,1.027,3.653,3.653,0,0,1-.691.926,3.277,3.277,0,0,1-1.586.844,4.818,4.818,0,0,1-1.148.125,3.524,3.524,0,0,1-2.648-1.137,4.423,4.423,0,0,1-1.086-3.184A4.809,4.809,0,0,1,497.081,4.7,3.608,3.608,0,0,1,499.94,3.445Zm2.242,3.7a3.643,3.643,0,0,0-.4-1.461,2.042,2.042,0,0,0-1.93-1.016,2.139,2.139,0,0,0-1.625.7,2.641,2.641,0,0,0-.7,1.777ZM509.842.523h1.406V12h-1.406Zm4.6,9.25a1.158,1.158,0,0,0,.445.961,1.651,1.651,0,0,0,1.055.352,3.207,3.207,0,0,0,1.438-.344,1.935,1.935,0,0,0,1.172-1.867V7.742a2.406,2.406,0,0,1-.664.273,5.657,5.657,0,0,1-.8.156l-.852.109a3.257,3.257,0,0,0-1.148.32A1.248,1.248,0,0,0,514.437,9.773Zm3.406-2.844a.764.764,0,0,0,.648-.406,1.236,1.236,0,0,0,.094-.539,1.142,1.142,0,0,0-.512-1.043,2.745,2.745,0,0,0-1.465-.324,1.861,1.861,0,0,0-1.562.594,1.953,1.953,0,0,0-.336.977H513.4a2.416,2.416,0,0,1,1-2.152,4.122,4.122,0,0,1,2.238-.605,4.554,4.554,0,0,1,2.4.563,1.908,1.908,0,0,1,.914,1.75v4.82a.617.617,0,0,0,.09.352.433.433,0,0,0,.379.133q.094,0,.211-.012t.25-.035v1.039a3.917,3.917,0,0,1-.5.117,3.653,3.653,0,0,1-.469.023,1.157,1.157,0,0,1-1.055-.516,1.99,1.99,0,0,1-.242-.773,3.578,3.578,0,0,1-1.234.977,3.818,3.818,0,0,1-1.773.414,2.637,2.637,0,0,1-1.9-.707,2.349,2.349,0,0,1-.738-1.77,2.279,2.279,0,0,1,.727-1.8,3.457,3.457,0,0,1,1.906-.789ZM4.516,27.445a3.817,3.817,0,0,1,1.727.418,3.184,3.184,0,0,1,1.273,1.082,3.733,3.733,0,0,1,.563,1.477A9.661,9.661,0,0,1,8.2,32.266H2.07a3.579,3.579,0,0,0,.6,2.043,2.014,2.014,0,0,0,1.742.77,2.252,2.252,0,0,0,1.758-.727,2.449,2.449,0,0,0,.531-.977H8.086A2.912,2.912,0,0,1,7.723,34.4a3.654,3.654,0,0,1-.691.926,3.277,3.277,0,0,1-1.586.844A4.818,4.818,0,0,1,4.3,36.3,3.524,3.524,0,0,1,1.648,35.16,4.423,4.423,0,0,1,.563,31.977,4.809,4.809,0,0,1,1.656,28.7,3.608,3.608,0,0,1,4.516,27.445Zm2.242,3.7a3.643,3.643,0,0,0-.4-1.461,2.042,2.042,0,0,0-1.93-1.016,2.139,2.139,0,0,0-1.625.7,2.641,2.641,0,0,0-.7,1.777Zm3.173-3.516h1.391V28.82a4.674,4.674,0,0,1,.906-.9,2.726,2.726,0,0,1,1.578-.477,2.484,2.484,0,0,1,1.609.492,2.573,2.573,0,0,1,.625.828,3.039,3.039,0,0,1,1.1-1,3.073,3.073,0,0,1,1.422-.324,2.325,2.325,0,0,1,2.3,1.219,3.984,3.984,0,0,1,.328,1.766V36H19.728V30.188a1.354,1.354,0,0,0-.418-1.148,1.654,1.654,0,0,0-1.02-.312,2.024,2.024,0,0,0-1.426.555,2.436,2.436,0,0,0-.6,1.852V36h-1.43V30.539a2.837,2.837,0,0,0-.2-1.242,1.239,1.239,0,0,0-1.2-.586,2.062,2.062,0,0,0-1.449.617,3.025,3.025,0,0,0-.652,2.234V36H9.931Zm16.861,7.422a2.006,2.006,0,0,0,1.637-.824,3.922,3.922,0,0,0,.652-2.465,4.6,4.6,0,0,0-.289-1.719,2.118,2.118,0,0,0-4,.078,5.79,5.79,0,0,0-.289,1.984,4.207,4.207,0,0,0,.289,1.648A1.994,1.994,0,0,0,26.792,35.055Zm-3.641-7.383h1.367v1.109a3.413,3.413,0,0,1,.922-.883,2.967,2.967,0,0,1,1.672-.469,3.144,3.144,0,0,1,2.414,1.09,4.465,4.465,0,0,1,.992,3.113,4.781,4.781,0,0,1-1.43,3.906,3.23,3.23,0,0,1-2.109.742,2.863,2.863,0,0,1-1.586-.414,3.654,3.654,0,0,1-.836-.8v4.273H23.152Zm9.048-.039h1.336v1.445a3.193,3.193,0,0,1,.8-1.027,2.086,2.086,0,0,1,1.477-.605q.039,0,.133.008l.32.031v1.484a2.1,2.1,0,0,0-.23-.031q-.105-.008-.23-.008a2.007,2.007,0,0,0-1.633.684,2.386,2.386,0,0,0-.57,1.574V36H32.2Zm8.775-.187a3.817,3.817,0,0,1,1.727.418,3.184,3.184,0,0,1,1.273,1.082,3.733,3.733,0,0,1,.563,1.477,9.661,9.661,0,0,1,.125,1.844H38.53a3.579,3.579,0,0,0,.6,2.043,2.014,2.014,0,0,0,1.742.77,2.252,2.252,0,0,0,1.758-.727,2.449,2.449,0,0,0,.531-.977h1.383a2.912,2.912,0,0,1-.363,1.027,3.654,3.654,0,0,1-.691.926,3.277,3.277,0,0,1-1.586.844,4.818,4.818,0,0,1-1.148.125,3.524,3.524,0,0,1-2.648-1.137,4.423,4.423,0,0,1-1.086-3.184A4.809,4.809,0,0,1,38.116,28.7,3.608,3.608,0,0,1,40.975,27.445Zm2.242,3.7a3.643,3.643,0,0,0-.4-1.461,2.042,2.042,0,0,0-1.93-1.016,2.139,2.139,0,0,0-1.625.7,2.641,2.641,0,0,0-.7,1.777Zm4.009,2.227a2.045,2.045,0,0,0,.352,1.078,2.209,2.209,0,0,0,1.844.68,2.719,2.719,0,0,0,1.375-.34,1.129,1.129,0,0,0,.594-1.051.9.9,0,0,0-.477-.82,5.666,5.666,0,0,0-1.2-.4l-1.117-.281a5.45,5.45,0,0,1-1.578-.594,1.775,1.775,0,0,1-.906-1.578,2.411,2.411,0,0,1,.855-1.922,3.413,3.413,0,0,1,2.3-.734,3.194,3.194,0,0,1,2.727,1.109,2.407,2.407,0,0,1,.508,1.516H51.172a1.627,1.627,0,0,0-.336-.867,2.143,2.143,0,0,0-1.68-.555,2.008,2.008,0,0,0-1.207.3.955.955,0,0,0-.41.8.991.991,0,0,0,.539.875,3.239,3.239,0,0,0,.922.344l.93.227a7.188,7.188,0,0,1,2.031.711,1.882,1.882,0,0,1,.82,1.7,2.584,2.584,0,0,1-.848,1.93,3.608,3.608,0,0,1-2.582.813,3.464,3.464,0,0,1-2.645-.848,3.206,3.206,0,0,1-.832-2.1Zm8.244.4a1.158,1.158,0,0,0,.445.961,1.651,1.651,0,0,0,1.055.352,3.207,3.207,0,0,0,1.438-.344,1.935,1.935,0,0,0,1.172-1.867V31.742a2.406,2.406,0,0,1-.664.273,5.658,5.658,0,0,1-.8.156l-.852.109a3.257,3.257,0,0,0-1.148.32A1.248,1.248,0,0,0,55.471,33.773Zm3.406-2.844a.764.764,0,0,0,.648-.406,1.236,1.236,0,0,0,.094-.539,1.142,1.142,0,0,0-.512-1.043,2.745,2.745,0,0,0-1.465-.324,1.861,1.861,0,0,0-1.562.594,1.953,1.953,0,0,0-.336.977H54.431a2.416,2.416,0,0,1,1-2.152,4.122,4.122,0,0,1,2.238-.605,4.554,4.554,0,0,1,2.4.563,1.908,1.908,0,0,1,.914,1.75v4.82a.617.617,0,0,0,.09.352.433.433,0,0,0,.379.133q.094,0,.211-.012t.25-.035v1.039a3.917,3.917,0,0,1-.5.117,3.654,3.654,0,0,1-.469.023,1.157,1.157,0,0,1-1.055-.516,1.99,1.99,0,0,1-.242-.773,3.578,3.578,0,0,1-1.234.977,3.818,3.818,0,0,1-1.773.414,2.637,2.637,0,0,1-1.9-.707A2.349,2.349,0,0,1,54,33.8a2.279,2.279,0,0,1,.727-1.8,3.457,3.457,0,0,1,1.906-.789ZM63.628,34.3h1.633V36H63.628Zm8.894-9.773h8.367V25.93H74.038v3.484h6.336v1.328H74.038v3.891h6.969V36H72.522ZM82.86,27.633H84.2V28.82a3.747,3.747,0,0,1,1.258-1.055,3.354,3.354,0,0,1,1.477-.32,2.435,2.435,0,0,1,2.406,1.242,4.411,4.411,0,0,1,.344,1.945V36H88.25V30.727a2.856,2.856,0,0,0-.227-1.234,1.374,1.374,0,0,0-1.359-.781,2.768,2.768,0,0,0-.82.1,2.113,2.113,0,0,0-1.016.688,2.07,2.07,0,0,0-.457.855,5.758,5.758,0,0,0-.105,1.262V36H82.86Zm16.831-.187a3.817,3.817,0,0,1,1.727.418,3.184,3.184,0,0,1,1.273,1.082,3.733,3.733,0,0,1,.563,1.477,9.66,9.66,0,0,1,.125,1.844H97.246a3.579,3.579,0,0,0,.6,2.043,2.014,2.014,0,0,0,1.742.77,2.252,2.252,0,0,0,1.758-.727,2.449,2.449,0,0,0,.531-.977h1.383A2.912,2.912,0,0,1,102.9,34.4a3.654,3.654,0,0,1-.691.926,3.277,3.277,0,0,1-1.586.844,4.818,4.818,0,0,1-1.148.125,3.524,3.524,0,0,1-2.648-1.137,4.423,4.423,0,0,1-1.086-3.184A4.809,4.809,0,0,1,96.832,28.7,3.608,3.608,0,0,1,99.691,27.445Zm2.242,3.7a3.643,3.643,0,0,0-.4-1.461,2.042,2.042,0,0,0-1.93-1.016,2.139,2.139,0,0,0-1.625.7,2.641,2.641,0,0,0-.7,1.777Zm3.213-6.625h1.406V36h-1.406Zm11.191,2.867a3.648,3.648,0,0,1,2.3.688,3.294,3.294,0,0,1,1.066,2.367h-1.367a2.524,2.524,0,0,0-.57-1.285,1.8,1.8,0,0,0-1.43-.512,1.975,1.975,0,0,0-1.922,1.313,5.214,5.214,0,0,0-.375,2.1,3.955,3.955,0,0,0,.531,2.117,2.06,2.06,0,0,0,3.059.324,2.943,2.943,0,0,0,.707-1.465H119.7a3.306,3.306,0,0,1-3.57,3.2,3.2,3.2,0,0,1-2.617-1.2,4.59,4.59,0,0,1-.977-3,5.048,5.048,0,0,1,1.07-3.43A3.459,3.459,0,0,1,116.337,27.391Zm8.1,7.7a1.939,1.939,0,0,0,1.918-1.059,5.274,5.274,0,0,0,.52-2.355,4.194,4.194,0,0,0-.375-1.906,2.11,2.11,0,0,0-2.047-1.156,2.018,2.018,0,0,0-1.875.984,4.563,4.563,0,0,0-.586,2.375,3.969,3.969,0,0,0,.586,2.227A2.064,2.064,0,0,0,124.432,35.094Zm.055-7.7a3.789,3.789,0,0,1,2.734,1.078,4.21,4.21,0,0,1,1.117,3.172,5.442,5.442,0,0,1-.984,3.344A3.561,3.561,0,0,1,124.3,36.3a3.449,3.449,0,0,1-2.742-1.168A4.613,4.613,0,0,1,120.541,32a4.991,4.991,0,0,1,1.07-3.359A3.592,3.592,0,0,1,124.487,27.391Zm5.564.242h1.336v1.445a3.193,3.193,0,0,1,.8-1.027,2.086,2.086,0,0,1,1.477-.605q.039,0,.133.008l.32.031v1.484a2.1,2.1,0,0,0-.23-.031q-.105-.008-.23-.008a2.007,2.007,0,0,0-1.633.684,2.386,2.386,0,0,0-.57,1.574V36h-1.406Zm5.572-2.336h1.422v2.336h1.336v1.148h-1.336v5.461a.591.591,0,0,0,.3.586,1.262,1.262,0,0,0,.547.086q.1,0,.219,0t.273-.02V36a3.139,3.139,0,0,1-.5.1,4.791,4.791,0,0,1-.566.031,1.527,1.527,0,0,1-1.336-.5,2.239,2.239,0,0,1-.352-1.309V28.781H134.49V27.633h1.133Zm7.486,9.8a1.939,1.939,0,0,0,1.918-1.059,5.274,5.274,0,0,0,.52-2.355,4.194,4.194,0,0,0-.375-1.906,2.11,2.11,0,0,0-2.047-1.156,2.018,2.018,0,0,0-1.875.984,4.563,4.563,0,0,0-.586,2.375,3.969,3.969,0,0,0,.586,2.227A2.064,2.064,0,0,0,143.109,35.094Zm.055-7.7a3.789,3.789,0,0,1,2.734,1.078,4.21,4.21,0,0,1,1.117,3.172,5.442,5.442,0,0,1-.984,3.344,3.561,3.561,0,0,1-3.055,1.32,3.449,3.449,0,0,1-2.742-1.168A4.613,4.613,0,0,1,139.218,32a4.991,4.991,0,0,1,1.07-3.359A3.592,3.592,0,0,1,143.163,27.391Zm13.5,7.664a2.006,2.006,0,0,0,1.637-.824,3.922,3.922,0,0,0,.652-2.465,4.6,4.6,0,0,0-.289-1.719,2.118,2.118,0,0,0-4,.078,5.79,5.79,0,0,0-.289,1.984,4.207,4.207,0,0,0,.289,1.648A1.994,1.994,0,0,0,156.666,35.055Zm-3.641-7.383h1.367v1.109a3.413,3.413,0,0,1,.922-.883,2.967,2.967,0,0,1,1.672-.469,3.144,3.144,0,0,1,2.414,1.09,4.465,4.465,0,0,1,.992,3.113,4.781,4.781,0,0,1-1.43,3.906,3.23,3.23,0,0,1-2.109.742,2.863,2.863,0,0,1-1.586-.414,3.654,3.654,0,0,1-.836-.8v4.273h-1.406Zm9.048-3.148h1.406V36h-1.406Zm4.6,9.25a1.158,1.158,0,0,0,.445.961,1.651,1.651,0,0,0,1.055.352,3.207,3.207,0,0,0,1.438-.344,1.935,1.935,0,0,0,1.172-1.867V31.742a2.406,2.406,0,0,1-.664.273,5.658,5.658,0,0,1-.8.156l-.852.109a3.257,3.257,0,0,0-1.148.32A1.248,1.248,0,0,0,166.67,33.773Zm3.406-2.844a.764.764,0,0,0,.648-.406,1.236,1.236,0,0,0,.094-.539,1.142,1.142,0,0,0-.512-1.043,2.745,2.745,0,0,0-1.465-.324,1.861,1.861,0,0,0-1.562.594,1.953,1.953,0,0,0-.336.977h-1.312a2.416,2.416,0,0,1,1-2.152,4.122,4.122,0,0,1,2.238-.605,4.554,4.554,0,0,1,2.4.563,1.908,1.908,0,0,1,.914,1.75v4.82a.617.617,0,0,0,.09.352.433.433,0,0,0,.379.133q.094,0,.211-.012t.25-.035v1.039a3.917,3.917,0,0,1-.5.117,3.654,3.654,0,0,1-.469.023,1.157,1.157,0,0,1-1.055-.516,1.99,1.99,0,0,1-.242-.773,3.578,3.578,0,0,1-1.234.977,3.818,3.818,0,0,1-1.773.414,2.637,2.637,0,0,1-1.9-.707,2.349,2.349,0,0,1-.738-1.77,2.279,2.279,0,0,1,.727-1.8,3.457,3.457,0,0,1,1.906-.789Zm3.791,3.961,4.961-6h-4.594V27.633h6.484v1.148l-4.93,5.961h5.078V36h-7Zm11.947.2a1.939,1.939,0,0,0,1.918-1.059,5.274,5.274,0,0,0,.52-2.355,4.194,4.194,0,0,0-.375-1.906,2.11,2.11,0,0,0-2.047-1.156,2.018,2.018,0,0,0-1.875.984,4.563,4.563,0,0,0-.586,2.375,3.969,3.969,0,0,0,.586,2.227A2.064,2.064,0,0,0,185.813,35.094Zm.055-7.7a3.789,3.789,0,0,1,2.734,1.078,4.21,4.21,0,0,1,1.117,3.172,5.442,5.442,0,0,1-.984,3.344,3.561,3.561,0,0,1-3.055,1.32,3.449,3.449,0,0,1-2.742-1.168A4.613,4.613,0,0,1,181.923,32a4.991,4.991,0,0,1,1.07-3.359A3.592,3.592,0,0,1,185.868,27.391Zm5.822,10.242a.985.985,0,0,0,.758-.758,2.145,2.145,0,0,0,.117-.68q0-.055,0-.1a.538.538,0,0,0-.02-.1h-.852V34.3h1.672v1.578a3.418,3.418,0,0,1-.375,1.633,1.709,1.709,0,0,1-1.3.867Zm9.433-4.258a2.045,2.045,0,0,0,.352,1.078,2.209,2.209,0,0,0,1.844.68,2.719,2.719,0,0,0,1.375-.34,1.129,1.129,0,0,0,.594-1.051.9.9,0,0,0-.477-.82,5.666,5.666,0,0,0-1.2-.4l-1.117-.281a5.45,5.45,0,0,1-1.578-.594,1.775,1.775,0,0,1-.906-1.578,2.411,2.411,0,0,1,.855-1.922,3.413,3.413,0,0,1,2.3-.734,3.194,3.194,0,0,1,2.727,1.109,2.407,2.407,0,0,1,.508,1.516h-1.328a1.627,1.627,0,0,0-.336-.867,2.143,2.143,0,0,0-1.68-.555,2.008,2.008,0,0,0-1.207.3.955.955,0,0,0-.41.8.991.991,0,0,0,.539.875,3.239,3.239,0,0,0,.922.344l.93.227a7.188,7.188,0,0,1,2.031.711,1.882,1.882,0,0,1,.82,1.7,2.584,2.584,0,0,1-.848,1.93,3.608,3.608,0,0,1-2.582.813,3.464,3.464,0,0,1-2.645-.848,3.206,3.206,0,0,1-.832-2.1Zm10.486,1.719a1.939,1.939,0,0,0,1.918-1.059,5.274,5.274,0,0,0,.52-2.355,4.194,4.194,0,0,0-.375-1.906,2.11,2.11,0,0,0-2.047-1.156,2.018,2.018,0,0,0-1.875.984,4.563,4.563,0,0,0-.586,2.375,3.969,3.969,0,0,0,.586,2.227A2.064,2.064,0,0,0,211.609,35.094Zm.055-7.7a3.789,3.789,0,0,1,2.734,1.078,4.21,4.21,0,0,1,1.117,3.172,5.442,5.442,0,0,1-.984,3.344,3.561,3.561,0,0,1-3.055,1.32,3.449,3.449,0,0,1-2.742-1.168A4.613,4.613,0,0,1,207.718,32a4.991,4.991,0,0,1,1.07-3.359A3.592,3.592,0,0,1,211.664,27.391Zm5.525.242h1.336V28.82a3.747,3.747,0,0,1,1.258-1.055,3.354,3.354,0,0,1,1.477-.32,2.435,2.435,0,0,1,2.406,1.242,4.411,4.411,0,0,1,.344,1.945V36h-1.43V30.727a2.855,2.855,0,0,0-.227-1.234,1.374,1.374,0,0,0-1.359-.781,2.768,2.768,0,0,0-.82.1,2.113,2.113,0,0,0-1.016.688,2.07,2.07,0,0,0-.457.855,5.758,5.758,0,0,0-.105,1.262V36h-1.406Zm16.574-.242a3.648,3.648,0,0,1,2.3.688,3.294,3.294,0,0,1,1.066,2.367h-1.367a2.524,2.524,0,0,0-.57-1.285,1.8,1.8,0,0,0-1.43-.512,1.975,1.975,0,0,0-1.922,1.313,5.214,5.214,0,0,0-.375,2.1A3.955,3.955,0,0,0,232,34.18a2.06,2.06,0,0,0,3.059.324,2.943,2.943,0,0,0,.707-1.465h1.367a3.306,3.306,0,0,1-3.57,3.2,3.2,3.2,0,0,1-2.617-1.2,4.59,4.59,0,0,1-.977-3,5.047,5.047,0,0,1,1.07-3.43A3.459,3.459,0,0,1,233.762,27.391Zm4.814.242h1.336v1.445a3.193,3.193,0,0,1,.8-1.027,2.086,2.086,0,0,1,1.477-.605q.039,0,.133.008l.32.031v1.484a2.1,2.1,0,0,0-.23-.031q-.105-.008-.23-.008a2.007,2.007,0,0,0-1.633.684,2.386,2.386,0,0,0-.57,1.574V36h-1.406Zm8.775-.187a3.817,3.817,0,0,1,1.727.418,3.184,3.184,0,0,1,1.273,1.082,3.733,3.733,0,0,1,.563,1.477,9.661,9.661,0,0,1,.125,1.844h-6.133a3.579,3.579,0,0,0,.6,2.043,2.014,2.014,0,0,0,1.742.77,2.252,2.252,0,0,0,1.758-.727,2.449,2.449,0,0,0,.531-.977h1.383a2.912,2.912,0,0,1-.363,1.027,3.654,3.654,0,0,1-.691.926,3.277,3.277,0,0,1-1.586.844,4.818,4.818,0,0,1-1.148.125,3.524,3.524,0,0,1-2.648-1.137,4.423,4.423,0,0,1-1.086-3.184,4.809,4.809,0,0,1,1.094-3.273A3.608,3.608,0,0,1,247.351,27.445Zm2.242,3.7a3.643,3.643,0,0,0-.4-1.461,2.042,2.042,0,0,0-1.93-1.016,2.139,2.139,0,0,0-1.625.7,2.641,2.641,0,0,0-.7,1.777Zm6.4-3.758a3.648,3.648,0,0,1,2.3.688,3.293,3.293,0,0,1,1.066,2.367h-1.367a2.524,2.524,0,0,0-.57-1.285,1.8,1.8,0,0,0-1.43-.512,1.975,1.975,0,0,0-1.922,1.313,5.214,5.214,0,0,0-.375,2.1,3.955,3.955,0,0,0,.531,2.117,2.06,2.06,0,0,0,3.059.324,2.943,2.943,0,0,0,.707-1.465h1.367a3.306,3.306,0,0,1-3.57,3.2,3.2,3.2,0,0,1-2.617-1.2,4.59,4.59,0,0,1-.977-3,5.047,5.047,0,0,1,1.07-3.43A3.459,3.459,0,0,1,255.993,27.391Zm4.775.281h1.43V36h-1.43Zm0-3.148h1.43v1.594h-1.43Zm7.041,2.922a3.817,3.817,0,0,1,1.727.418,3.184,3.184,0,0,1,1.273,1.082,3.733,3.733,0,0,1,.563,1.477,9.66,9.66,0,0,1,.125,1.844h-6.133a3.579,3.579,0,0,0,.6,2.043,2.014,2.014,0,0,0,1.742.77,2.252,2.252,0,0,0,1.758-.727,2.449,2.449,0,0,0,.531-.977h1.383a2.913,2.913,0,0,1-.363,1.027,3.653,3.653,0,0,1-.691.926,3.277,3.277,0,0,1-1.586.844,4.818,4.818,0,0,1-1.148.125,3.524,3.524,0,0,1-2.648-1.137,4.423,4.423,0,0,1-1.086-3.184A4.809,4.809,0,0,1,264.95,28.7,3.608,3.608,0,0,1,267.809,27.445Zm2.242,3.7a3.643,3.643,0,0,0-.4-1.461,2.042,2.042,0,0,0-1.93-1.016,2.139,2.139,0,0,0-1.625.7,2.641,2.641,0,0,0-.7,1.777Zm3.173-3.516h1.336V28.82a3.747,3.747,0,0,1,1.258-1.055,3.354,3.354,0,0,1,1.477-.32,2.435,2.435,0,0,1,2.406,1.242,4.411,4.411,0,0,1,.344,1.945V36h-1.43V30.727a2.856,2.856,0,0,0-.227-1.234,1.374,1.374,0,0,0-1.359-.781,2.768,2.768,0,0,0-.82.1,2.113,2.113,0,0,0-1.016.688,2.07,2.07,0,0,0-.457.855,5.758,5.758,0,0,0-.105,1.262V36h-1.406Zm9.181-2.336h1.422v2.336h1.336v1.148h-1.336v5.461a.591.591,0,0,0,.3.586,1.262,1.262,0,0,0,.547.086q.1,0,.219,0t.273-.02V36a3.14,3.14,0,0,1-.5.1,4.791,4.791,0,0,1-.566.031,1.527,1.527,0,0,1-1.336-.5,2.239,2.239,0,0,1-.352-1.309V28.781h-1.133V27.633h1.133Zm7.65,2.148a3.817,3.817,0,0,1,1.727.418,3.184,3.184,0,0,1,1.273,1.082,3.733,3.733,0,0,1,.563,1.477,9.66,9.66,0,0,1,.125,1.844h-6.133a3.579,3.579,0,0,0,.6,2.043,2.014,2.014,0,0,0,1.742.77,2.252,2.252,0,0,0,1.758-.727,2.449,2.449,0,0,0,.531-.977h1.383a2.913,2.913,0,0,1-.363,1.027,3.653,3.653,0,0,1-.691.926,3.277,3.277,0,0,1-1.586.844,4.818,4.818,0,0,1-1.148.125,3.524,3.524,0,0,1-2.648-1.137,4.423,4.423,0,0,1-1.086-3.184A4.809,4.809,0,0,1,287.2,28.7,3.608,3.608,0,0,1,290.056,27.445Zm2.242,3.7a3.643,3.643,0,0,0-.4-1.461,2.042,2.042,0,0,0-1.93-1.016,2.139,2.139,0,0,0-1.625.7,2.641,2.641,0,0,0-.7,1.777Zm4.009,2.227a2.045,2.045,0,0,0,.352,1.078,2.209,2.209,0,0,0,1.844.68,2.719,2.719,0,0,0,1.375-.34,1.129,1.129,0,0,0,.594-1.051.9.9,0,0,0-.477-.82,5.666,5.666,0,0,0-1.2-.4l-1.117-.281a5.45,5.45,0,0,1-1.578-.594,1.775,1.775,0,0,1-.906-1.578,2.411,2.411,0,0,1,.855-1.922,3.413,3.413,0,0,1,2.3-.734,3.194,3.194,0,0,1,2.727,1.109,2.407,2.407,0,0,1,.508,1.516h-1.328a1.627,1.627,0,0,0-.336-.867,2.142,2.142,0,0,0-1.68-.555,2.008,2.008,0,0,0-1.207.3.955.955,0,0,0-.41.8.991.991,0,0,0,.539.875,3.239,3.239,0,0,0,.922.344l.93.227a7.188,7.188,0,0,1,2.031.711,1.882,1.882,0,0,1,.82,1.7,2.584,2.584,0,0,1-.848,1.93,3.608,3.608,0,0,1-2.582.813,3.464,3.464,0,0,1-2.645-.848,3.206,3.206,0,0,1-.832-2.1Zm7.908,4.258a.977.977,0,0,0,.758-.727,2.261,2.261,0,0,0,.109-.719.481.481,0,0,0,0-.066q0-.027-.012-.121h-.852V34.3h1.664v1.578a3.543,3.543,0,0,1-.242,1.4,1.805,1.805,0,0,1-1.422,1.1Zm0-9.891h1.664v1.7h-1.664Zm11.378-.352a3.648,3.648,0,0,1,2.3.688,3.293,3.293,0,0,1,1.066,2.367h-1.367a2.524,2.524,0,0,0-.57-1.285,1.8,1.8,0,0,0-1.43-.512,1.975,1.975,0,0,0-1.922,1.313,5.214,5.214,0,0,0-.375,2.1,3.955,3.955,0,0,0,.531,2.117,2.06,2.06,0,0,0,3.059.324,2.943,2.943,0,0,0,.707-1.465h1.367a3.306,3.306,0,0,1-3.57,3.2,3.2,3.2,0,0,1-2.617-1.2,4.59,4.59,0,0,1-.977-3,5.048,5.048,0,0,1,1.07-3.43A3.459,3.459,0,0,1,315.594,27.391Zm6.181.242v5.555a2.342,2.342,0,0,0,.2,1.047,1.417,1.417,0,0,0,1.4.75,1.977,1.977,0,0,0,2-1.312,5.207,5.207,0,0,0,.289-1.93V27.633h1.406V36h-1.328l.016-1.234a2.836,2.836,0,0,1-.68.8,2.991,2.991,0,0,1-1.953.656,2.519,2.519,0,0,1-2.437-1.2,3.56,3.56,0,0,1-.352-1.711V27.633Zm8.572,6.141a1.158,1.158,0,0,0,.445.961,1.651,1.651,0,0,0,1.055.352,3.207,3.207,0,0,0,1.438-.344,1.935,1.935,0,0,0,1.172-1.867V31.742a2.406,2.406,0,0,1-.664.273,5.659,5.659,0,0,1-.8.156l-.852.109A3.257,3.257,0,0,0,331,32.6,1.248,1.248,0,0,0,330.347,33.773Zm3.406-2.844a.764.764,0,0,0,.648-.406,1.236,1.236,0,0,0,.094-.539,1.142,1.142,0,0,0-.512-1.043,2.746,2.746,0,0,0-1.465-.324,1.861,1.861,0,0,0-1.562.594,1.954,1.954,0,0,0-.336.977h-1.312a2.416,2.416,0,0,1,1-2.152,4.122,4.122,0,0,1,2.238-.605,4.554,4.554,0,0,1,2.4.563,1.908,1.908,0,0,1,.914,1.75v4.82a.617.617,0,0,0,.09.352.433.433,0,0,0,.379.133q.094,0,.211-.012t.25-.035v1.039a3.916,3.916,0,0,1-.5.117,3.654,3.654,0,0,1-.469.023,1.157,1.157,0,0,1-1.055-.516,1.99,1.99,0,0,1-.242-.773,3.578,3.578,0,0,1-1.234.977,3.818,3.818,0,0,1-1.773.414,2.637,2.637,0,0,1-1.9-.707,2.349,2.349,0,0,1-.738-1.77A2.279,2.279,0,0,1,329.6,32a3.457,3.457,0,0,1,1.906-.789Zm4.416-3.3H339.5V28.82a3.747,3.747,0,0,1,1.258-1.055,3.354,3.354,0,0,1,1.477-.32,2.435,2.435,0,0,1,2.406,1.242,4.411,4.411,0,0,1,.344,1.945V36h-1.43V30.727a2.856,2.856,0,0,0-.227-1.234,1.374,1.374,0,0,0-1.359-.781,2.768,2.768,0,0,0-.82.1,2.113,2.113,0,0,0-1.016.688,2.07,2.07,0,0,0-.457.855,5.758,5.758,0,0,0-.105,1.262V36h-1.406Zm9.791,4.281a4.147,4.147,0,0,0,.57,2.25,2,2,0,0,0,1.828.906,1.925,1.925,0,0,0,1.605-.84,3.966,3.966,0,0,0,.629-2.41,3.564,3.564,0,0,0-.648-2.348,2.023,2.023,0,0,0-1.6-.762,2.114,2.114,0,0,0-1.723.813A3.721,3.721,0,0,0,347.96,31.914Zm2.117-4.43a2.977,2.977,0,0,1,1.609.406,3.781,3.781,0,0,1,.852.82V24.484h1.352V36h-1.266V34.836a3.043,3.043,0,0,1-1.164,1.117,3.332,3.332,0,0,1-1.539.344,3.117,3.117,0,0,1-2.422-1.176,4.6,4.6,0,0,1-1.023-3.129,5.4,5.4,0,0,1,.934-3.168A3.057,3.057,0,0,1,350.077,27.484Zm9.213,7.609a1.939,1.939,0,0,0,1.918-1.059,5.274,5.274,0,0,0,.52-2.355,4.194,4.194,0,0,0-.375-1.906,2.11,2.11,0,0,0-2.047-1.156,2.018,2.018,0,0,0-1.875.984,4.563,4.563,0,0,0-.586,2.375,3.969,3.969,0,0,0,.586,2.227A2.064,2.064,0,0,0,359.289,35.094Zm.055-7.7a3.789,3.789,0,0,1,2.734,1.078,4.21,4.21,0,0,1,1.117,3.172,5.442,5.442,0,0,1-.984,3.344,3.561,3.561,0,0,1-3.055,1.32,3.449,3.449,0,0,1-2.742-1.168A4.613,4.613,0,0,1,355.4,32a4.991,4.991,0,0,1,1.07-3.359A3.592,3.592,0,0,1,359.344,27.391Zm13.456.055a3.817,3.817,0,0,1,1.727.418,3.184,3.184,0,0,1,1.273,1.082,3.733,3.733,0,0,1,.563,1.477,9.66,9.66,0,0,1,.125,1.844h-6.133a3.579,3.579,0,0,0,.6,2.043,2.014,2.014,0,0,0,1.742.77,2.252,2.252,0,0,0,1.758-.727,2.449,2.449,0,0,0,.531-.977h1.383a2.913,2.913,0,0,1-.363,1.027,3.653,3.653,0,0,1-.691.926,3.277,3.277,0,0,1-1.586.844,4.818,4.818,0,0,1-1.148.125,3.524,3.524,0,0,1-2.648-1.137,4.423,4.423,0,0,1-1.086-3.184,4.809,4.809,0,0,1,1.094-3.273A3.608,3.608,0,0,1,372.8,27.445Zm2.242,3.7a3.643,3.643,0,0,0-.4-1.461,2.042,2.042,0,0,0-1.93-1.016,2.139,2.139,0,0,0-1.625.7,2.641,2.641,0,0,0-.7,1.777Zm3.213-6.625h1.406V36h-1.406Zm7.964,3.109h1.336V28.82a3.747,3.747,0,0,1,1.258-1.055,3.354,3.354,0,0,1,1.477-.32,2.435,2.435,0,0,1,2.406,1.242,4.411,4.411,0,0,1,.344,1.945V36h-1.43V30.727a2.856,2.856,0,0,0-.227-1.234,1.374,1.374,0,0,0-1.359-.781,2.768,2.768,0,0,0-.82.1,2.113,2.113,0,0,0-1.016.688,2.07,2.07,0,0,0-.457.855,5.758,5.758,0,0,0-.105,1.262V36h-1.406Zm8.9.039h1.43V36h-1.43Zm0-3.148h1.43v1.594h-1.43Zm4.244,3.109,2.234,6.813,2.336-6.812h1.539L402.316,36h-1.5l-3.086-8.367Zm10.8-.187a3.817,3.817,0,0,1,1.727.418,3.184,3.184,0,0,1,1.273,1.082,3.733,3.733,0,0,1,.563,1.477,9.66,9.66,0,0,1,.125,1.844h-6.133a3.579,3.579,0,0,0,.6,2.043,2.014,2.014,0,0,0,1.742.77,2.252,2.252,0,0,0,1.758-.727,2.449,2.449,0,0,0,.531-.977h1.383a2.913,2.913,0,0,1-.363,1.027,3.653,3.653,0,0,1-.691.926,3.277,3.277,0,0,1-1.586.844,4.818,4.818,0,0,1-1.148.125,3.524,3.524,0,0,1-2.648-1.137,4.423,4.423,0,0,1-1.086-3.184A4.809,4.809,0,0,1,407.3,28.7,3.608,3.608,0,0,1,410.161,27.445Zm2.242,3.7a3.643,3.643,0,0,0-.4-1.461,2.042,2.042,0,0,0-1.93-1.016,2.139,2.139,0,0,0-1.625.7,2.641,2.641,0,0,0-.7,1.777Zm3.213-6.625h1.406V36h-1.406Zm8.855,7.391a4.147,4.147,0,0,0,.57,2.25,2,2,0,0,0,1.828.906,1.925,1.925,0,0,0,1.605-.84,3.966,3.966,0,0,0,.629-2.41,3.564,3.564,0,0,0-.648-2.348,2.023,2.023,0,0,0-1.6-.762,2.114,2.114,0,0,0-1.723.813A3.721,3.721,0,0,0,424.471,31.914Zm2.117-4.43a2.977,2.977,0,0,1,1.609.406,3.781,3.781,0,0,1,.852.82V24.484H430.4V36h-1.266V34.836a3.043,3.043,0,0,1-1.164,1.117,3.332,3.332,0,0,1-1.539.344,3.117,3.117,0,0,1-2.422-1.176,4.6,4.6,0,0,1-1.023-3.129,5.4,5.4,0,0,1,.934-3.168A3.057,3.057,0,0,1,426.588,27.484Zm9.377-.039a3.817,3.817,0,0,1,1.727.418,3.184,3.184,0,0,1,1.273,1.082,3.733,3.733,0,0,1,.563,1.477,9.66,9.66,0,0,1,.125,1.844h-6.133a3.579,3.579,0,0,0,.6,2.043,2.014,2.014,0,0,0,1.742.77,2.252,2.252,0,0,0,1.758-.727,2.449,2.449,0,0,0,.531-.977h1.383a2.913,2.913,0,0,1-.363,1.027,3.653,3.653,0,0,1-.691.926,3.277,3.277,0,0,1-1.586.844,4.818,4.818,0,0,1-1.148.125A3.524,3.524,0,0,1,433.1,35.16a4.423,4.423,0,0,1-1.086-3.184,4.809,4.809,0,0,1,1.094-3.273A3.608,3.608,0,0,1,435.965,27.445Zm2.242,3.7a3.643,3.643,0,0,0-.4-1.461,2.042,2.042,0,0,0-1.93-1.016,2.139,2.139,0,0,0-1.625.7,2.641,2.641,0,0,0-.7,1.777Zm11.152,3.906A2.006,2.006,0,0,0,451,34.23a3.922,3.922,0,0,0,.652-2.465,4.6,4.6,0,0,0-.289-1.719,2.118,2.118,0,0,0-4,.078,5.79,5.79,0,0,0-.289,1.984,4.206,4.206,0,0,0,.289,1.648A1.994,1.994,0,0,0,449.359,35.055Zm-3.641-7.383h1.367v1.109a3.413,3.413,0,0,1,.922-.883,2.967,2.967,0,0,1,1.672-.469,3.144,3.144,0,0,1,2.414,1.09,4.465,4.465,0,0,1,.992,3.113,4.781,4.781,0,0,1-1.43,3.906,3.23,3.23,0,0,1-2.109.742,2.863,2.863,0,0,1-1.586-.414,3.654,3.654,0,0,1-.836-.8v4.273h-1.406Zm9.048-.039H456.1v1.445a3.193,3.193,0,0,1,.8-1.027,2.086,2.086,0,0,1,1.477-.605q.039,0,.133.008l.32.031v1.484a2.1,2.1,0,0,0-.23-.031q-.105-.008-.23-.008a2.007,2.007,0,0,0-1.633.684,2.386,2.386,0,0,0-.57,1.574V36h-1.406Zm8.611,7.461a1.939,1.939,0,0,0,1.918-1.059,5.274,5.274,0,0,0,.52-2.355,4.194,4.194,0,0,0-.375-1.906,2.11,2.11,0,0,0-2.047-1.156,2.018,2.018,0,0,0-1.875.984,4.563,4.563,0,0,0-.586,2.375,3.969,3.969,0,0,0,.586,2.227A2.064,2.064,0,0,0,463.377,35.094Zm.055-7.7a3.789,3.789,0,0,1,2.734,1.078,4.21,4.21,0,0,1,1.117,3.172,5.442,5.442,0,0,1-.984,3.344,3.561,3.561,0,0,1-3.055,1.32,3.449,3.449,0,0,1-2.742-1.168A4.613,4.613,0,0,1,459.487,32a4.991,4.991,0,0,1,1.07-3.359A3.592,3.592,0,0,1,463.432,27.391Zm6.416,4.523a4.147,4.147,0,0,0,.57,2.25,2,2,0,0,0,1.828.906,1.925,1.925,0,0,0,1.605-.84,3.966,3.966,0,0,0,.629-2.41,3.564,3.564,0,0,0-.648-2.348,2.023,2.023,0,0,0-1.6-.762,2.114,2.114,0,0,0-1.723.813A3.721,3.721,0,0,0,469.848,31.914Zm2.117-4.43a2.977,2.977,0,0,1,1.609.406,3.781,3.781,0,0,1,.852.82V24.484h1.352V36h-1.266V34.836a3.043,3.043,0,0,1-1.164,1.117,3.332,3.332,0,0,1-1.539.344,3.117,3.117,0,0,1-2.422-1.176,4.6,4.6,0,0,1-1.023-3.129,5.4,5.4,0,0,1,.934-3.168A3.057,3.057,0,0,1,471.965,27.484Zm7.3.148v5.555a2.342,2.342,0,0,0,.2,1.047,1.417,1.417,0,0,0,1.4.75,1.977,1.977,0,0,0,2-1.312,5.207,5.207,0,0,0,.289-1.93V27.633h1.406V36h-1.328l.016-1.234a2.836,2.836,0,0,1-.68.8,2.991,2.991,0,0,1-1.953.656,2.519,2.519,0,0,1-2.437-1.2,3.56,3.56,0,0,1-.352-1.711V27.633Zm10.72-.242a3.648,3.648,0,0,1,2.3.688,3.293,3.293,0,0,1,1.066,2.367h-1.367a2.524,2.524,0,0,0-.57-1.285,1.8,1.8,0,0,0-1.43-.512,1.975,1.975,0,0,0-1.922,1.313,5.214,5.214,0,0,0-.375,2.1,3.955,3.955,0,0,0,.531,2.117,2.06,2.06,0,0,0,3.059.324,2.943,2.943,0,0,0,.707-1.465h1.367a3.306,3.306,0,0,1-3.57,3.2,3.2,3.2,0,0,1-2.617-1.2,4.59,4.59,0,0,1-.977-3,5.048,5.048,0,0,1,1.07-3.43A3.459,3.459,0,0,1,489.984,27.391Zm8,0a3.648,3.648,0,0,1,2.3.688,3.293,3.293,0,0,1,1.066,2.367h-1.367a2.524,2.524,0,0,0-.57-1.285,1.8,1.8,0,0,0-1.43-.512,1.975,1.975,0,0,0-1.922,1.313,5.214,5.214,0,0,0-.375,2.1,3.955,3.955,0,0,0,.531,2.117,2.06,2.06,0,0,0,3.059.324,2.943,2.943,0,0,0,.707-1.465h1.367a3.306,3.306,0,0,1-3.57,3.2,3.2,3.2,0,0,1-2.617-1.2,4.59,4.59,0,0,1-.977-3,5.048,5.048,0,0,1,1.07-3.43A3.459,3.459,0,0,1,497.985,27.391Zm4.775.281h1.43V36h-1.43Zm0-3.148h1.43v1.594h-1.43Zm6.877,10.57a1.939,1.939,0,0,0,1.918-1.059,5.274,5.274,0,0,0,.52-2.355,4.194,4.194,0,0,0-.375-1.906,2.11,2.11,0,0,0-2.047-1.156,2.018,2.018,0,0,0-1.875.984,4.563,4.563,0,0,0-.586,2.375,3.969,3.969,0,0,0,.586,2.227A2.064,2.064,0,0,0,509.637,35.094Zm.055-7.7a3.789,3.789,0,0,1,2.734,1.078,4.21,4.21,0,0,1,1.117,3.172,5.442,5.442,0,0,1-.984,3.344A3.561,3.561,0,0,1,509.5,36.3a3.449,3.449,0,0,1-2.742-1.168A4.613,4.613,0,0,1,505.746,32a4.991,4.991,0,0,1,1.07-3.359A3.592,3.592,0,0,1,509.692,27.391Zm1.633-3.125-2.086,2.258H508.16l1.43-2.258Zm3.892,3.367h1.336V28.82a3.747,3.747,0,0,1,1.258-1.055,3.354,3.354,0,0,1,1.477-.32,2.435,2.435,0,0,1,2.406,1.242,4.411,4.411,0,0,1,.344,1.945V36h-1.43V30.727a2.855,2.855,0,0,0-.227-1.234,1.374,1.374,0,0,0-1.359-.781,2.768,2.768,0,0,0-.82.1,2.113,2.113,0,0,0-1.016.688,2.07,2.07,0,0,0-.457.855,5.758,5.758,0,0,0-.105,1.262V36h-1.406Zm16.831-.187a3.817,3.817,0,0,1,1.727.418,3.184,3.184,0,0,1,1.273,1.082,3.733,3.733,0,0,1,.563,1.477,9.662,9.662,0,0,1,.125,1.844H529.6a3.579,3.579,0,0,0,.6,2.043,2.014,2.014,0,0,0,1.742.77,2.252,2.252,0,0,0,1.758-.727,2.45,2.45,0,0,0,.531-.977h1.383a2.912,2.912,0,0,1-.363,1.027,3.655,3.655,0,0,1-.691.926,3.277,3.277,0,0,1-1.586.844,4.818,4.818,0,0,1-1.148.125,3.524,3.524,0,0,1-2.648-1.137,4.423,4.423,0,0,1-1.086-3.184,4.809,4.809,0,0,1,1.094-3.273A3.608,3.608,0,0,1,532.048,27.445Zm2.242,3.7a3.644,3.644,0,0,0-.4-1.461,2.042,2.042,0,0,0-1.93-1.016,2.139,2.139,0,0,0-1.625.7,2.641,2.641,0,0,0-.7,1.777Zm4.009,2.227a2.045,2.045,0,0,0,.352,1.078,2.209,2.209,0,0,0,1.844.68,2.719,2.719,0,0,0,1.375-.34,1.129,1.129,0,0,0,.594-1.051.9.9,0,0,0-.477-.82,5.667,5.667,0,0,0-1.2-.4l-1.117-.281a5.45,5.45,0,0,1-1.578-.594,1.775,1.775,0,0,1-.906-1.578,2.411,2.411,0,0,1,.855-1.922,3.413,3.413,0,0,1,2.3-.734,3.194,3.194,0,0,1,2.727,1.109,2.407,2.407,0,0,1,.508,1.516h-1.328a1.627,1.627,0,0,0-.336-.867,2.143,2.143,0,0,0-1.68-.555,2.008,2.008,0,0,0-1.207.3.955.955,0,0,0-.41.8.991.991,0,0,0,.539.875,3.239,3.239,0,0,0,.922.344l.93.227a7.188,7.188,0,0,1,2.031.711,1.882,1.882,0,0,1,.82,1.7,2.583,2.583,0,0,1-.848,1.93,3.608,3.608,0,0,1-2.582.813,3.464,3.464,0,0,1-2.645-.848,3.205,3.205,0,0,1-.832-2.1ZM4.258,51.391a3.648,3.648,0,0,1,2.3.688,3.294,3.294,0,0,1,1.066,2.367H6.258a2.524,2.524,0,0,0-.57-1.285,1.8,1.8,0,0,0-1.43-.512,1.975,1.975,0,0,0-1.922,1.313,5.214,5.214,0,0,0-.375,2.1,3.955,3.955,0,0,0,.531,2.117,1.822,1.822,0,0,0,1.672.859A1.828,1.828,0,0,0,5.551,58.5a2.943,2.943,0,0,0,.707-1.465H7.625a3.67,3.67,0,0,1-1.172,2.434,3.656,3.656,0,0,1-2.4.77,3.2,3.2,0,0,1-2.617-1.2,4.59,4.59,0,0,1-.977-3,5.048,5.048,0,0,1,1.07-3.43A3.459,3.459,0,0,1,4.258,51.391Zm8.259.055a3.817,3.817,0,0,1,1.727.418,3.184,3.184,0,0,1,1.273,1.082,3.733,3.733,0,0,1,.563,1.477,9.661,9.661,0,0,1,.125,1.844H10.072a3.579,3.579,0,0,0,.6,2.043,2.014,2.014,0,0,0,1.742.77,2.252,2.252,0,0,0,1.758-.727,2.449,2.449,0,0,0,.531-.977h1.383a2.912,2.912,0,0,1-.363,1.027,3.654,3.654,0,0,1-.691.926,3.277,3.277,0,0,1-1.586.844A4.818,4.818,0,0,1,12.3,60.3,3.524,3.524,0,0,1,9.65,59.16a4.423,4.423,0,0,1-1.086-3.184A4.809,4.809,0,0,1,9.658,52.7,3.608,3.608,0,0,1,12.517,51.445Zm2.242,3.7a3.643,3.643,0,0,0-.4-1.461,2.042,2.042,0,0,0-1.93-1.016,2.139,2.139,0,0,0-1.625.7,2.641,2.641,0,0,0-.7,1.777Zm3.213-3.516h1.336v1.445a3.193,3.193,0,0,1,.8-1.027,2.086,2.086,0,0,1,1.477-.605q.039,0,.133.008l.32.031v1.484a2.1,2.1,0,0,0-.23-.031q-.105-.008-.23-.008a2.007,2.007,0,0,0-1.633.684,2.386,2.386,0,0,0-.57,1.574V60H17.972Zm8.611,7.461A1.939,1.939,0,0,0,28.5,58.035a5.274,5.274,0,0,0,.52-2.355,4.194,4.194,0,0,0-.375-1.906A2.11,2.11,0,0,0,26.6,52.617a2.018,2.018,0,0,0-1.875.984,4.563,4.563,0,0,0-.586,2.375,3.969,3.969,0,0,0,.586,2.227A2.064,2.064,0,0,0,26.583,59.094Zm.055-7.7a3.789,3.789,0,0,1,2.734,1.078,4.21,4.21,0,0,1,1.117,3.172,5.442,5.442,0,0,1-.984,3.344A3.561,3.561,0,0,1,26.45,60.3a3.449,3.449,0,0,1-2.742-1.168A4.613,4.613,0,0,1,22.692,56a4.991,4.991,0,0,1,1.07-3.359A3.592,3.592,0,0,1,26.638,51.391ZM32.46,61.633a.985.985,0,0,0,.758-.758,2.145,2.145,0,0,0,.117-.68q0-.055,0-.1a.538.538,0,0,0-.02-.1H32.46V58.3h1.672v1.578a3.418,3.418,0,0,1-.375,1.633,1.709,1.709,0,0,1-1.3.867ZM41.1,48.523H42.5V60H41.1Zm6.838,10.57a1.939,1.939,0,0,0,1.918-1.059,5.274,5.274,0,0,0,.52-2.355A4.194,4.194,0,0,0,50,53.773a2.11,2.11,0,0,0-2.047-1.156,2.018,2.018,0,0,0-1.875.984,4.563,4.563,0,0,0-.586,2.375,3.969,3.969,0,0,0,.586,2.227A2.064,2.064,0,0,0,47.933,59.094Zm.055-7.7a3.789,3.789,0,0,1,2.734,1.078,4.21,4.21,0,0,1,1.117,3.172,5.442,5.442,0,0,1-.984,3.344A3.561,3.561,0,0,1,47.8,60.3a3.449,3.449,0,0,1-2.742-1.168A4.613,4.613,0,0,1,44.042,56a4.991,4.991,0,0,1,1.07-3.359A3.592,3.592,0,0,1,47.988,51.391Zm6.361,5.984a2.045,2.045,0,0,0,.352,1.078,2.209,2.209,0,0,0,1.844.68,2.719,2.719,0,0,0,1.375-.34,1.129,1.129,0,0,0,.594-1.051.9.9,0,0,0-.477-.82,5.666,5.666,0,0,0-1.2-.4l-1.117-.281a5.45,5.45,0,0,1-1.578-.594,1.775,1.775,0,0,1-.906-1.578,2.411,2.411,0,0,1,.855-1.922,3.413,3.413,0,0,1,2.3-.734,3.194,3.194,0,0,1,2.727,1.109,2.407,2.407,0,0,1,.508,1.516H58.294a1.627,1.627,0,0,0-.336-.867,2.143,2.143,0,0,0-1.68-.555,2.008,2.008,0,0,0-1.207.3.955.955,0,0,0-.41.8.991.991,0,0,0,.539.875,3.239,3.239,0,0,0,.922.344l.93.227a7.188,7.188,0,0,1,2.031.711,1.882,1.882,0,0,1,.82,1.7,2.584,2.584,0,0,1-.848,1.93,3.608,3.608,0,0,1-2.582.813,3.464,3.464,0,0,1-2.645-.848,3.206,3.206,0,0,1-.832-2.1Zm16.636-9.164a4.7,4.7,0,0,1,3.383,1.148A4.056,4.056,0,0,1,75.7,51.969H74.188a3.154,3.154,0,0,0-1.027-1.758A3.256,3.256,0,0,0,71,49.563a3.464,3.464,0,0,0-2.738,1.191,5.431,5.431,0,0,0-1.043,3.652,5.3,5.3,0,0,0,.941,3.27,3.289,3.289,0,0,0,2.809,1.254,2.967,2.967,0,0,0,2.617-1.32,5.021,5.021,0,0,0,.711-1.828h1.516a5.179,5.179,0,0,1-1.344,3.039A4.781,4.781,0,0,1,70.782,60.3a4.867,4.867,0,0,1-3.359-1.211,6.31,6.31,0,0,1-1.789-4.945,6.317,6.317,0,0,1,1.344-4.164A4.908,4.908,0,0,1,70.985,48.211Zm7.627.313,3.3,9.773,3.258-9.773h1.742L82.721,60H81.072l-4.18-11.477Zm21.863,5.055v1.313H92.325V53.578Zm0,3.352v1.336H92.325V56.93Zm9.253-8.117a3.306,3.306,0,0,1,3.141,1.789,8,8,0,0,1,.75,3.789,9.124,9.124,0,0,1-.68,3.773,3.328,3.328,0,0,1-3.219,2.141,3.223,3.223,0,0,1-3-1.75,8.013,8.013,0,0,1-.82-3.922,9.69,9.69,0,0,1,.492-3.273A3.368,3.368,0,0,1,109.727,48.813Zm-.016,10.211a2,2,0,0,0,1.742-.969,7.014,7.014,0,0,0,.648-3.609,8.918,8.918,0,0,0-.469-3.137,1.784,1.784,0,0,0-1.82-1.23A1.9,1.9,0,0,0,108,51.246a8.065,8.065,0,0,0-.574,3.441,8.451,8.451,0,0,0,.367,2.75A2,2,0,0,0,109.712,59.023Zm5.955-.727H117.3V60h-1.633Z" transform="translate(520 7617)" fill="#212429"/>
    </g>
    <path id="Trazado_994305" data-name="Trazado 994305" d="M5946.849,8500.874s30-69.2,81.787-101.629,92.592,19.721,135.989-6.291S6209,8312.135,6209,8312.135" transform="translate(-5314)" fill="none" stroke="#707070" stroke-width="1"/>
  </g>
</svg>
