<svg xmlns="http://www.w3.org/2000/svg" width="1030" height="516" viewBox="0 0 1030 516">
  <g id="Grupo_1159256" data-name="Grupo 1159256" transform="translate(-285 -9111)">
    <rect id="Fondo" width="1030" height="516" transform="translate(285 9111)" fill="#e8edf7"/>
    <g id="Grupo_1159146" data-name="Grupo 1159146" transform="translate(0 1894)">
      <rect id="Imagen_12" data-name="Imagen 12" width="611" height="435" transform="translate(495 7257)" fill="#fff"/>
      <path id="Trazado_994263" data-name="Trazado 994263" d="M4131.422,6322.642v265.488H4446.61" transform="translate(-3499.422 970.306)" fill="none" stroke="#6e7a97" stroke-width="1.5"/>
      <path id="Trazado_994727" data-name="Trazado 994727" d="M-1.321-.859A4.694,4.694,0,0,1-4.618.32,4.967,4.967,0,0,1-8.524-1.273,6.379,6.379,0,0,1-9.946-5.664a6.324,6.324,0,0,1,1.617-4.648,4.819,4.819,0,0,1,3.578-1.422A4.839,4.839,0,0,1-.5-9.828,4.127,4.127,0,0,1,.3-7.68H-2.11a3.25,3.25,0,0,0-.6-1.25,2.447,2.447,0,0,0-1.945-.75,2.412,2.412,0,0,0-2.07,1.059,5.089,5.089,0,0,0-.758,3,4.467,4.467,0,0,0,.8,2.9,2.53,2.53,0,0,0,2.035.965,2.328,2.328,0,0,0,1.93-.828A3.6,3.6,0,0,0-2.11-3.922H.273A5.178,5.178,0,0,1-1.321-.859Zm11.8-10.656v2.039H7.032V0H4.61V-9.477H1.149v-2.039Z" transform="translate(610 7298.947)" fill="#212429"/>
      <path id="Trazado_994732" data-name="Trazado 994732" d="M1.918.063A5.884,5.884,0,0,1,.066.32,5.3,5.3,0,0,1-3.652-1.023a6.091,6.091,0,0,1-1.781-4.75,6.038,6.038,0,0,1,1.828-4.773,5.4,5.4,0,0,1,3.711-1.32,5.322,5.322,0,0,1,3.75,1.4,5.853,5.853,0,0,1,1.75,4.523A7.661,7.661,0,0,1,5.23-3.367a4.3,4.3,0,0,1-.9,1.648L5.66-.477,4.4.836,3.012-.477A5.8,5.8,0,0,1,1.918.063ZM1.4-2.016.238-3.125l1.242-1.3L2.645-3.312A5.44,5.44,0,0,0,3.027-4.3,5.664,5.664,0,0,0,3.2-5.773a4.918,4.918,0,0,0-.793-3A2.715,2.715,0,0,0,.09-9.828,2.825,2.825,0,0,0-2.191-8.812a4.639,4.639,0,0,0-.852,3.039A4.2,4.2,0,0,0-1.824-2.383a2.84,2.84,0,0,0,1.891.664,3.1,3.1,0,0,0,.8-.1A3.967,3.967,0,0,0,1.4-2.016Z" transform="translate(949 7587.306)" fill="#212429"/>
      <path id="Trazado_994731" data-name="Trazado 994731" d="M-.043.281A3.205,3.205,0,0,1-3.078-1.234a8.768,8.768,0,0,1-.871-4.32,8.815,8.815,0,0,1,.871-4.328A3.2,3.2,0,0,1-.043-11.406,3.21,3.21,0,0,1,3-9.883a8.849,8.849,0,0,1,.867,4.328,8.768,8.768,0,0,1-.871,4.32A3.205,3.205,0,0,1-.043.281Zm1.3-2.852a11.146,11.146,0,0,0,.3-2.984,10.933,10.933,0,0,0-.309-3.031,1.261,1.261,0,0,0-1.3-.984,1.279,1.279,0,0,0-1.312.984,10.552,10.552,0,0,0-.32,3.031,10.67,10.67,0,0,0,.32,2.988A1.29,1.29,0,0,0-.043-1.531,1.279,1.279,0,0,0,1.262-2.57Z" transform="translate(630 7587.306)" fill="#212429"/>
      <path id="Trazado_994730" data-name="Trazado 994730" d="M-1.321-.859A4.694,4.694,0,0,1-4.618.32,4.967,4.967,0,0,1-8.524-1.273,6.379,6.379,0,0,1-9.946-5.664a6.324,6.324,0,0,1,1.617-4.648,4.819,4.819,0,0,1,3.578-1.422A4.839,4.839,0,0,1-.5-9.828,4.127,4.127,0,0,1,.3-7.68H-2.11a3.25,3.25,0,0,0-.6-1.25,2.447,2.447,0,0,0-1.945-.75,2.412,2.412,0,0,0-2.07,1.059,5.089,5.089,0,0,0-.758,3,4.467,4.467,0,0,0,.8,2.9,2.53,2.53,0,0,0,2.035.965,2.328,2.328,0,0,0,1.93-.828A3.6,3.6,0,0,0-2.11-3.922H.273A5.178,5.178,0,0,1-1.321-.859Zm11.6-8.617H4.5v2.648H9.555v2H4.5V0H2.11V-11.5h8.164Z" transform="translate(947.188 7474.878)" fill="#212429"/>
      <path id="Trazado_994729" data-name="Trazado 994729" d="M-1.77-.859A4.694,4.694,0,0,1-5.067.32,4.967,4.967,0,0,1-8.973-1.273,6.379,6.379,0,0,1-10.4-5.664a6.324,6.324,0,0,1,1.617-4.648A4.819,4.819,0,0,1-5.2-11.734,4.839,4.839,0,0,1-.95-9.828a4.127,4.127,0,0,1,.8,2.148H-2.559a3.25,3.25,0,0,0-.6-1.25,2.447,2.447,0,0,0-1.945-.75,2.412,2.412,0,0,0-2.07,1.059,5.089,5.089,0,0,0-.758,3,4.467,4.467,0,0,0,.8,2.9A2.53,2.53,0,0,0-5.1-1.758a2.328,2.328,0,0,0,1.93-.828,3.6,3.6,0,0,0,.609-1.336H-.177A5.178,5.178,0,0,1-1.77-.859ZM.809-11.516H3.38l2.5,8.742L8.4-11.516h2.5L6.973,0H4.7Z" transform="translate(917.375 7441.691)" fill="#212429"/>
      <path id="Trazado_994728" data-name="Trazado 994728" d="M-1.321-.859A4.694,4.694,0,0,1-4.618.32,4.967,4.967,0,0,1-8.524-1.273,6.379,6.379,0,0,1-9.946-5.664a6.324,6.324,0,0,1,1.617-4.648,4.819,4.819,0,0,1,3.578-1.422A4.839,4.839,0,0,1-.5-9.828,4.127,4.127,0,0,1,.3-7.68H-2.11a3.25,3.25,0,0,0-.6-1.25,2.447,2.447,0,0,0-1.945-.75,2.412,2.412,0,0,0-2.07,1.059,5.089,5.089,0,0,0-.758,3,4.467,4.467,0,0,0,.8,2.9,2.53,2.53,0,0,0,2.035.965,2.328,2.328,0,0,0,1.93-.828A3.6,3.6,0,0,0-2.11-3.922H.273A5.178,5.178,0,0,1-1.321-.859Zm11.8-10.656v2.039H7.032V0H4.61V-9.477H1.149v-2.039Z" transform="translate(908.188 7370.878)" fill="#212429"/>
      <path id="Polígono_38" data-name="Polígono 38" d="M8,0l8,10H0Z" transform="translate(624 7289.306)" fill="#0b0a0a"/>
      <path id="Polígono_39" data-name="Polígono 39" d="M8,0l8,10H0Z" transform="translate(955 7550.306) rotate(90)" fill="#0b0a0a"/>
      <path id="Trazado_994301" data-name="Trazado 994301" d="M5946,7418.878h296.375" transform="translate(-5314 50)" fill="none" stroke="#6e7a97" stroke-width="1"/>
      <path id="Contenido" d="M1.219.484H3.625V9.93h5.7V12H1.219Zm9.916,3.922a3.636,3.636,0,0,1,3.031-1.125,5.385,5.385,0,0,1,2.484.555A2.13,2.13,0,0,1,17.736,5.93V9.836q0,.406.016.984a1.238,1.238,0,0,0,.133.594.8.8,0,0,0,.328.258V12H15.791a2.48,2.48,0,0,1-.141-.484q-.039-.227-.062-.516a4.575,4.575,0,0,1-1.062.852,3.2,3.2,0,0,1-1.625.414,2.794,2.794,0,0,1-1.91-.66,2.355,2.355,0,0,1-.754-1.871,2.429,2.429,0,0,1,1.211-2.273A5.377,5.377,0,0,1,13.4,6.914l.758-.094a3.475,3.475,0,0,0,.883-.2.669.669,0,0,0,.477-.633.751.751,0,0,0-.363-.723,2.269,2.269,0,0,0-1.066-.2,1.389,1.389,0,0,0-1.117.391,1.624,1.624,0,0,0-.312.781H10.509A3.268,3.268,0,0,1,11.134,4.406Zm1.656,5.984a1.163,1.163,0,0,0,.766.258,2.268,2.268,0,0,0,1.324-.422,1.8,1.8,0,0,0,.629-1.539V7.859a2.42,2.42,0,0,1-.426.215,3.561,3.561,0,0,1-.59.152l-.5.094a3.229,3.229,0,0,0-1.008.3,1.021,1.021,0,0,0-.516.945A.978.978,0,0,0,12.791,10.391ZM31.528,6.539H29.247a1.976,1.976,0,0,0-.32-.859,1.343,1.343,0,0,0-1.164-.516,1.533,1.533,0,0,0-1.539,1.117A4.671,4.671,0,0,0,26,7.859a4.3,4.3,0,0,0,.219,1.508,1.486,1.486,0,0,0,1.5,1.063,1.323,1.323,0,0,0,1.109-.422,2.1,2.1,0,0,0,.4-1.094H31.5a3.725,3.725,0,0,1-.734,1.922,3.57,3.57,0,0,1-3.1,1.461,3.628,3.628,0,0,1-3.023-1.219,4.932,4.932,0,0,1-.969-3.164A5,5,0,0,1,24.747,4.5,3.726,3.726,0,0,1,27.7,3.281,4.447,4.447,0,0,1,30.321,4,3.343,3.343,0,0,1,31.528,6.539ZM38.522,10.8q-.031.039-.156.234a1.568,1.568,0,0,1-.3.344,3.1,3.1,0,0,1-1.012.641,3.448,3.448,0,0,1-1.145.172,2.551,2.551,0,0,1-2.547-1.359A5.2,5.2,0,0,1,33,8.617V3.484H35.28V8.617a2.687,2.687,0,0,0,.172,1.094,1.19,1.19,0,0,0,1.2.648,1.563,1.563,0,0,0,1.563-.922,3.337,3.337,0,0,0,.219-1.32V3.484h2.258V12H38.522Zm8.6-5.258a1.847,1.847,0,0,0-1.8.875,3.4,3.4,0,0,0-.258,1.516V12H42.813V3.484h2.125V4.969a4.708,4.708,0,0,1,.9-1.164,2.446,2.446,0,0,1,1.625-.523q.063,0,.105,0l.191.012V5.578q-.211-.023-.375-.031T47.117,5.539Zm1.111-2.055h2.5L52.5,9.766l1.813-6.281H56.7L53.635,12H51.283Zm10.056.922a3.636,3.636,0,0,1,3.031-1.125,5.385,5.385,0,0,1,2.484.555A2.13,2.13,0,0,1,64.886,5.93V9.836q0,.406.016.984a1.238,1.238,0,0,0,.133.594.8.8,0,0,0,.328.258V12H62.941a2.48,2.48,0,0,1-.141-.484q-.039-.227-.062-.516a4.575,4.575,0,0,1-1.062.852,3.2,3.2,0,0,1-1.625.414,2.794,2.794,0,0,1-1.91-.66,2.355,2.355,0,0,1-.754-1.871A2.429,2.429,0,0,1,58.6,7.461a5.377,5.377,0,0,1,1.953-.547l.758-.094a3.475,3.475,0,0,0,.883-.2.669.669,0,0,0,.477-.633A.751.751,0,0,0,62.3,5.27a2.269,2.269,0,0,0-1.066-.2,1.389,1.389,0,0,0-1.117.391,1.624,1.624,0,0,0-.312.781H57.66A3.268,3.268,0,0,1,58.285,4.406Zm1.656,5.984a1.163,1.163,0,0,0,.766.258,2.268,2.268,0,0,0,1.324-.422,1.8,1.8,0,0,0,.629-1.539V7.859a2.42,2.42,0,0,1-.426.215,3.561,3.561,0,0,1-.59.152l-.5.094a3.229,3.229,0,0,0-1.008.3,1.021,1.021,0,0,0-.516.945A.978.978,0,0,0,59.941,10.391ZM79.061.5V12H76.9V10.82a3.141,3.141,0,0,1-1.086,1.1,3.049,3.049,0,0,1-1.516.344,3.165,3.165,0,0,1-2.512-1.207,4.635,4.635,0,0,1-1.02-3.1,5.331,5.331,0,0,1,1-3.43,3.266,3.266,0,0,1,2.684-1.25,2.747,2.747,0,0,1,1.375.34,2.7,2.7,0,0,1,.977.941V.5Zm-6,7.3A3.348,3.348,0,0,0,73.53,9.68a1.56,1.56,0,0,0,1.406.711,1.644,1.644,0,0,0,1.438-.7,3.106,3.106,0,0,0,.492-1.82,2.792,2.792,0,0,0-.789-2.234,1.7,1.7,0,0,0-1.125-.406,1.564,1.564,0,0,0-1.434.738A3.42,3.42,0,0,0,73.061,7.8ZM88.375,9.5a2.824,2.824,0,0,1-.789,1.539,3.866,3.866,0,0,1-3.062,1.242,4.318,4.318,0,0,1-2.867-1.047,4.222,4.222,0,0,1-1.242-3.406,4.734,4.734,0,0,1,1.121-3.391,3.833,3.833,0,0,1,2.91-1.18,4.463,4.463,0,0,1,1.914.4,3.353,3.353,0,0,1,1.406,1.258,4.292,4.292,0,0,1,.648,1.758,11.353,11.353,0,0,1,.07,1.688H82.657a2.116,2.116,0,0,0,.8,1.8,1.9,1.9,0,0,0,1.109.32,1.6,1.6,0,0,0,1.117-.391A1.855,1.855,0,0,0,86.1,9.5Zm-2.2-2.609a1.938,1.938,0,0,0-.535-1.34,1.662,1.662,0,0,0-1.191-.457,1.512,1.512,0,0,0-1.2.484,2.418,2.418,0,0,0-.535,1.313Zm16.566,4.25a4.694,4.694,0,0,1-3.3,1.18,4.967,4.967,0,0,1-3.906-1.594,6.379,6.379,0,0,1-1.422-4.391A6.324,6.324,0,0,1,95.73,1.688a5.467,5.467,0,0,1,7.828.484,4.127,4.127,0,0,1,.8,2.148h-2.406a3.25,3.25,0,0,0-.6-1.25A2.447,2.447,0,0,0,99.4,2.32a2.412,2.412,0,0,0-2.07,1.059,5.089,5.089,0,0,0-.758,3,4.467,4.467,0,0,0,.8,2.9,2.53,2.53,0,0,0,2.035.965,2.328,2.328,0,0,0,1.93-.828,3.6,3.6,0,0,0,.609-1.336h2.383A5.179,5.179,0,0,1,102.738,11.141ZM114.536.484V2.523h-3.445V12h-2.422V2.523h-3.461V.484Zm9.574,9.93v1.664l-1.055.039a2.83,2.83,0,0,1-2.156-.547,1.628,1.628,0,0,1-.375-1.18V5.148h-1.187V3.563h1.188V1.188h2.2V3.563h1.383V5.148h-1.383v4.5a1.014,1.014,0,0,0,.133.652,1.462,1.462,0,0,0,.813.129q.1,0,.215,0T124.11,10.414Zm3.72-6.93V12h-2.258V3.484Zm0-3.07V2.469h-2.258V.414ZM137.277,9.5a2.824,2.824,0,0,1-.789,1.539,3.866,3.866,0,0,1-3.062,1.242,4.318,4.318,0,0,1-2.867-1.047,4.222,4.222,0,0,1-1.242-3.406,4.734,4.734,0,0,1,1.121-3.391,3.833,3.833,0,0,1,2.91-1.18,4.463,4.463,0,0,1,1.914.4,3.353,3.353,0,0,1,1.406,1.258,4.292,4.292,0,0,1,.648,1.758,11.351,11.351,0,0,1,.07,1.688h-5.828a2.116,2.116,0,0,0,.8,1.8,1.9,1.9,0,0,0,1.109.32,1.6,1.6,0,0,0,1.117-.391A1.855,1.855,0,0,0,135,9.5Zm-2.2-2.609a1.938,1.938,0,0,0-.535-1.34,1.662,1.662,0,0,0-1.191-.457,1.512,1.512,0,0,0-1.2.484,2.418,2.418,0,0,0-.535,1.313ZM142.9,5.133a1.55,1.55,0,0,0-1.555.961,3.3,3.3,0,0,0-.219,1.3V12H138.9V3.5h2.148V4.742a3.78,3.78,0,0,1,.813-.945,2.824,2.824,0,0,1,1.742-.516,3.287,3.287,0,0,1,2.16.691,2.811,2.811,0,0,1,.84,2.293V12h-2.281V6.82a2.363,2.363,0,0,0-.18-1.031A1.264,1.264,0,0,0,142.9,5.133ZM155.952,9.5a2.824,2.824,0,0,1-.789,1.539,3.866,3.866,0,0,1-3.062,1.242,4.318,4.318,0,0,1-2.867-1.047,4.222,4.222,0,0,1-1.242-3.406,4.734,4.734,0,0,1,1.121-3.391,3.833,3.833,0,0,1,2.91-1.18,4.463,4.463,0,0,1,1.914.4,3.353,3.353,0,0,1,1.406,1.258,4.292,4.292,0,0,1,.648,1.758,11.351,11.351,0,0,1,.07,1.688h-5.828a2.116,2.116,0,0,0,.8,1.8,1.9,1.9,0,0,0,1.109.32,1.6,1.6,0,0,0,1.117-.391,1.855,1.855,0,0,0,.414-.586Zm-2.2-2.609a1.938,1.938,0,0,0-.535-1.34,1.662,1.662,0,0,0-1.191-.457,1.512,1.512,0,0,0-1.2.484,2.418,2.418,0,0,0-.535,1.313Zm15.363-2.328a4.969,4.969,0,0,1,1.078,3.2,4.936,4.936,0,0,1-1.078,3.207,4.688,4.688,0,0,1-6.547,0,4.936,4.936,0,0,1-1.078-3.207,4.969,4.969,0,0,1,1.078-3.2,4.64,4.64,0,0,1,6.547,0Zm-3.281.531a1.779,1.779,0,0,0-1.5.691,3.2,3.2,0,0,0-.527,1.973,3.217,3.217,0,0,0,.527,1.977,1.97,1.97,0,0,0,3,0,3.235,3.235,0,0,0,.523-1.977,3.217,3.217,0,0,0-.523-1.973A1.769,1.769,0,0,0,165.83,5.094Zm10.236.445a1.847,1.847,0,0,0-1.8.875A3.4,3.4,0,0,0,174,7.93V12h-2.242V3.484h2.125V4.969a4.708,4.708,0,0,1,.9-1.164,2.446,2.446,0,0,1,1.625-.523q.063,0,.105,0l.191.012V5.578q-.211-.023-.375-.031T176.066,5.539ZM180.3,3.484V12h-2.258V3.484Zm0-3.07V2.469h-2.258V.414Zm4.564,13.078a1.882,1.882,0,0,0,1.211.3,1.627,1.627,0,0,0,1.609-.8,4.076,4.076,0,0,0,.266-1.734v-.547a2.715,2.715,0,0,1-.687.82,2.765,2.765,0,0,1-1.727.508,3.267,3.267,0,0,1-2.621-1.152,4.659,4.659,0,0,1-.98-3.121,5.261,5.261,0,0,1,.945-3.191,3.123,3.123,0,0,1,2.68-1.293,2.933,2.933,0,0,1,1.117.2,2.675,2.675,0,0,1,1.313,1.234V3.484h2.164v8.078a4.524,4.524,0,0,1-.555,2.484q-.953,1.437-3.656,1.438a4.982,4.982,0,0,1-2.664-.641,2.364,2.364,0,0,1-1.141-1.914h2.422A1,1,0,0,0,184.867,13.492Zm-.375-4.4a1.629,1.629,0,0,0,1.625,1.078,1.72,1.72,0,0,0,1.32-.59,2.731,2.731,0,0,0,.539-1.879,2.875,2.875,0,0,0-.512-1.844,1.673,1.673,0,0,0-1.371-.633,1.616,1.616,0,0,0-1.617,1.1,3.906,3.906,0,0,0-.234,1.445A3.3,3.3,0,0,0,184.492,9.094Zm15.033.406a2.824,2.824,0,0,1-.789,1.539,3.866,3.866,0,0,1-3.062,1.242,4.318,4.318,0,0,1-2.867-1.047,4.222,4.222,0,0,1-1.242-3.406,4.734,4.734,0,0,1,1.121-3.391,3.833,3.833,0,0,1,2.91-1.18,4.463,4.463,0,0,1,1.914.4,3.353,3.353,0,0,1,1.406,1.258,4.292,4.292,0,0,1,.648,1.758,11.351,11.351,0,0,1,.07,1.688h-5.828a2.116,2.116,0,0,0,.8,1.8,1.9,1.9,0,0,0,1.109.32,1.6,1.6,0,0,0,1.117-.391,1.855,1.855,0,0,0,.414-.586Zm-2.2-2.609a1.938,1.938,0,0,0-.535-1.34,1.662,1.662,0,0,0-1.191-.457,1.512,1.512,0,0,0-1.2.484,2.418,2.418,0,0,0-.535,1.313Zm7.822-1.758a1.55,1.55,0,0,0-1.555.961,3.3,3.3,0,0,0-.219,1.3V12h-2.219V3.5H203.3V4.742a3.78,3.78,0,0,1,.813-.945,2.824,2.824,0,0,1,1.742-.516,3.287,3.287,0,0,1,2.16.691,2.811,2.811,0,0,1,.84,2.293V12h-2.281V6.82a2.363,2.363,0,0,0-.18-1.031A1.264,1.264,0,0,0,205.143,5.133Zm17.5,4.367a2.824,2.824,0,0,1-.789,1.539,3.866,3.866,0,0,1-3.062,1.242,4.318,4.318,0,0,1-2.867-1.047,4.222,4.222,0,0,1-1.242-3.406,4.734,4.734,0,0,1,1.121-3.391,3.833,3.833,0,0,1,2.91-1.18,4.463,4.463,0,0,1,1.914.4,3.353,3.353,0,0,1,1.406,1.258,4.292,4.292,0,0,1,.648,1.758,11.351,11.351,0,0,1,.07,1.688h-5.828a2.116,2.116,0,0,0,.8,1.8,1.9,1.9,0,0,0,1.109.32,1.6,1.6,0,0,0,1.117-.391,1.855,1.855,0,0,0,.414-.586Zm-2.2-2.609a1.938,1.938,0,0,0-.535-1.34,1.662,1.662,0,0,0-1.191-.457,1.512,1.512,0,0,0-1.2.484,2.418,2.418,0,0,0-.535,1.313Zm7.822-1.758a1.55,1.55,0,0,0-1.555.961,3.3,3.3,0,0,0-.219,1.3V12h-2.219V3.5h2.148V4.742a3.78,3.78,0,0,1,.813-.945,2.824,2.824,0,0,1,1.742-.516,3.287,3.287,0,0,1,2.16.691,2.811,2.811,0,0,1,.84,2.293V12h-2.281V6.82a2.363,2.363,0,0,0-.18-1.031A1.264,1.264,0,0,0,228.265,5.133ZM238.526.484h2.227V12h-2.227Zm11.5,4.078a4.969,4.969,0,0,1,1.078,3.2,4.936,4.936,0,0,1-1.078,3.207,4.688,4.688,0,0,1-6.547,0A4.936,4.936,0,0,1,242.4,7.758a4.969,4.969,0,0,1,1.078-3.2,4.64,4.64,0,0,1,6.547,0Zm-3.281.531a1.779,1.779,0,0,0-1.5.691,3.2,3.2,0,0,0-.527,1.973,3.217,3.217,0,0,0,.527,1.977,1.97,1.97,0,0,0,3,0,3.235,3.235,0,0,0,.523-1.977,3.217,3.217,0,0,0-.523-1.973A1.769,1.769,0,0,0,246.747,5.094Zm11.822-1.219a2.744,2.744,0,0,1,1.148,2.2H257.49a1.317,1.317,0,0,0-.242-.68A1.524,1.524,0,0,0,256,4.945a1.8,1.8,0,0,0-1.035.227.652.652,0,0,0-.309.531.581.581,0,0,0,.328.555,14.2,14.2,0,0,0,2.32.617,4.262,4.262,0,0,1,1.992.945,2.146,2.146,0,0,1,.656,1.6,2.588,2.588,0,0,1-.941,2.066,5.648,5.648,0,0,1-5.875-.047,2.758,2.758,0,0,1-.957-2.16h2.258a1.487,1.487,0,0,0,.3.844,2.06,2.06,0,0,0,1.531.445,2.334,2.334,0,0,0,1.043-.2.655.655,0,0,0,.074-1.156,12.713,12.713,0,0,0-2.32-.672,4.832,4.832,0,0,1-2.039-.9,1.948,1.948,0,0,1-.594-1.531,2.656,2.656,0,0,1,.926-2.027,3.718,3.718,0,0,1,2.605-.848A4.824,4.824,0,0,1,258.568,3.875Zm15.784,7.266a4.694,4.694,0,0,1-3.3,1.18,4.967,4.967,0,0,1-3.906-1.594,6.379,6.379,0,0,1-1.422-4.391,6.324,6.324,0,0,1,1.617-4.648,5.467,5.467,0,0,1,7.828.484,4.127,4.127,0,0,1,.8,2.148h-2.406a3.25,3.25,0,0,0-.6-1.25,2.447,2.447,0,0,0-1.945-.75,2.412,2.412,0,0,0-2.07,1.059,5.089,5.089,0,0,0-.758,3,4.467,4.467,0,0,0,.8,2.9,2.53,2.53,0,0,0,2.035.965,2.328,2.328,0,0,0,1.93-.828,3.6,3.6,0,0,0,.609-1.336h2.383A5.179,5.179,0,0,1,274.353,11.141Zm11.6-8.617h-5.773V5.172h5.055v2h-5.055V12h-2.391V.5h8.164Zm1.72,11.109a.985.985,0,0,0,.758-.758,2.145,2.145,0,0,0,.117-.68q0-.055,0-.1a.538.538,0,0,0-.02-.1h-.852V10.3h1.672v1.578a3.418,3.418,0,0,1-.375,1.633,1.709,1.709,0,0,1-1.3.867ZM299.8,11.055a2.006,2.006,0,0,0,1.637-.824,3.922,3.922,0,0,0,.652-2.465,4.6,4.6,0,0,0-.289-1.719,2.118,2.118,0,0,0-4,.078,5.79,5.79,0,0,0-.289,1.984,4.206,4.206,0,0,0,.289,1.648A1.994,1.994,0,0,0,299.8,11.055Zm-3.641-7.383h1.367V4.781a3.413,3.413,0,0,1,.922-.883,2.967,2.967,0,0,1,1.672-.469,3.144,3.144,0,0,1,2.414,1.09,4.465,4.465,0,0,1,.992,3.113,4.781,4.781,0,0,1-1.43,3.906,3.23,3.23,0,0,1-2.109.742,2.863,2.863,0,0,1-1.586-.414,3.654,3.654,0,0,1-.836-.8v4.273h-1.406Zm12.33,7.422a1.939,1.939,0,0,0,1.918-1.059,5.274,5.274,0,0,0,.52-2.355,4.194,4.194,0,0,0-.375-1.906A2.11,2.11,0,0,0,308.5,4.617a2.018,2.018,0,0,0-1.875.984,4.563,4.563,0,0,0-.586,2.375,3.969,3.969,0,0,0,.586,2.227A2.064,2.064,0,0,0,308.486,11.094Zm.055-7.7a3.789,3.789,0,0,1,2.734,1.078,4.21,4.21,0,0,1,1.117,3.172,5.442,5.442,0,0,1-.984,3.344,3.561,3.561,0,0,1-3.055,1.32,3.449,3.449,0,0,1-2.742-1.168A4.613,4.613,0,0,1,304.6,8a4.991,4.991,0,0,1,1.07-3.359A3.592,3.592,0,0,1,308.541,3.391Zm5.564.242h1.336V5.078a3.193,3.193,0,0,1,.8-1.027,2.086,2.086,0,0,1,1.477-.605q.039,0,.133.008l.32.031V4.969a2.1,2.1,0,0,0-.23-.031q-.105-.008-.23-.008a2.007,2.007,0,0,0-1.633.684,2.386,2.386,0,0,0-.57,1.574V12H314.1Zm6.2,4.3a4.765,4.765,0,0,0,.3,1.82,1.936,1.936,0,0,0,1.93,1.3,2.019,2.019,0,0,0,2.023-1.375,5.248,5.248,0,0,0,.3-1.937,4.316,4.316,0,0,0-.336-1.812,2.031,2.031,0,0,0-2.008-1.242,1.968,1.968,0,0,0-1.566.793A3.813,3.813,0,0,0,320.3,7.93Zm2.078-4.484a2.87,2.87,0,0,1,1.75.523,3.1,3.1,0,0,1,.75.828V3.633h1.336v11.7H324.8v-4.3a2.523,2.523,0,0,1-.973.895,3.262,3.262,0,0,1-1.551.332,3.309,3.309,0,0,1-2.391-1.047,4.316,4.316,0,0,1-1.055-3.187,5.264,5.264,0,0,1,.988-3.3A3.081,3.081,0,0,1,322.38,3.445Zm7.322.188V9.188a2.342,2.342,0,0,0,.2,1.047,1.417,1.417,0,0,0,1.4.75,1.977,1.977,0,0,0,2-1.312,5.207,5.207,0,0,0,.289-1.93V3.633H335V12H333.67l.016-1.234a2.836,2.836,0,0,1-.68.8,2.991,2.991,0,0,1-1.953.656,2.519,2.519,0,0,1-2.437-1.2,3.56,3.56,0,0,1-.352-1.711V3.633Zm10.978-.187a3.817,3.817,0,0,1,1.727.418,3.184,3.184,0,0,1,1.273,1.082,3.733,3.733,0,0,1,.563,1.477,9.66,9.66,0,0,1,.125,1.844h-6.133a3.579,3.579,0,0,0,.6,2.043,2.014,2.014,0,0,0,1.742.77,2.252,2.252,0,0,0,1.758-.727,2.449,2.449,0,0,0,.531-.977h1.383a2.913,2.913,0,0,1-.363,1.027,3.653,3.653,0,0,1-.691.926,3.277,3.277,0,0,1-1.586.844,4.818,4.818,0,0,1-1.148.125,3.524,3.524,0,0,1-2.648-1.137,4.423,4.423,0,0,1-1.086-3.184A4.809,4.809,0,0,1,337.82,4.7,3.608,3.608,0,0,1,340.68,3.445Zm2.242,3.7a3.643,3.643,0,0,0-.4-1.461,2.042,2.042,0,0,0-1.93-1.016,2.139,2.139,0,0,0-1.625.7,2.641,2.641,0,0,0-.7,1.777Zm10.847-3.758a3.648,3.648,0,0,1,2.3.688,3.293,3.293,0,0,1,1.066,2.367h-1.367a2.524,2.524,0,0,0-.57-1.285,1.8,1.8,0,0,0-1.43-.512,1.975,1.975,0,0,0-1.922,1.313,5.214,5.214,0,0,0-.375,2.1A3.955,3.955,0,0,0,352,10.18a2.06,2.06,0,0,0,3.059.324,2.943,2.943,0,0,0,.707-1.465h1.367a3.67,3.67,0,0,1-1.172,2.434,3.656,3.656,0,0,1-2.4.77,3.2,3.2,0,0,1-2.617-1.2,4.59,4.59,0,0,1-.977-3,5.048,5.048,0,0,1,1.07-3.43A3.459,3.459,0,0,1,353.769,3.391Zm6.181.242V9.188a2.342,2.342,0,0,0,.2,1.047,1.417,1.417,0,0,0,1.4.75,1.977,1.977,0,0,0,2-1.312,5.207,5.207,0,0,0,.289-1.93V3.633h1.406V12h-1.328l.016-1.234a2.836,2.836,0,0,1-.68.8,2.991,2.991,0,0,1-1.953.656,2.519,2.519,0,0,1-2.437-1.2,3.56,3.56,0,0,1-.352-1.711V3.633Zm8.572,6.141a1.158,1.158,0,0,0,.445.961,1.651,1.651,0,0,0,1.055.352,3.207,3.207,0,0,0,1.438-.344,1.935,1.935,0,0,0,1.172-1.867V7.742a2.406,2.406,0,0,1-.664.273,5.659,5.659,0,0,1-.8.156l-.852.109a3.257,3.257,0,0,0-1.148.32A1.248,1.248,0,0,0,368.522,9.773Zm3.406-2.844a.764.764,0,0,0,.648-.406,1.236,1.236,0,0,0,.094-.539,1.142,1.142,0,0,0-.512-1.043,2.746,2.746,0,0,0-1.465-.324,1.861,1.861,0,0,0-1.562.594,1.954,1.954,0,0,0-.336.977h-1.312a2.416,2.416,0,0,1,1-2.152,4.122,4.122,0,0,1,2.238-.605,4.554,4.554,0,0,1,2.4.563,1.908,1.908,0,0,1,.914,1.75v4.82a.617.617,0,0,0,.09.352.433.433,0,0,0,.379.133q.094,0,.211-.012t.25-.035v1.039a3.916,3.916,0,0,1-.5.117,3.654,3.654,0,0,1-.469.023,1.157,1.157,0,0,1-1.055-.516,1.99,1.99,0,0,1-.242-.773,3.578,3.578,0,0,1-1.234.977,3.818,3.818,0,0,1-1.773.414,2.637,2.637,0,0,1-1.9-.707,2.349,2.349,0,0,1-.738-1.77A2.279,2.279,0,0,1,367.78,8a3.457,3.457,0,0,1,1.906-.789Zm4.416-3.3h1.336V4.82a3.747,3.747,0,0,1,1.258-1.055,3.354,3.354,0,0,1,1.477-.32,2.435,2.435,0,0,1,2.406,1.242,4.411,4.411,0,0,1,.344,1.945V12h-1.43V6.727a2.856,2.856,0,0,0-.227-1.234,1.374,1.374,0,0,0-1.359-.781,2.768,2.768,0,0,0-.82.1,2.113,2.113,0,0,0-1.016.688,2.07,2.07,0,0,0-.457.855,5.758,5.758,0,0,0-.105,1.262V12h-1.406Zm9.791,4.281a4.147,4.147,0,0,0,.57,2.25,2,2,0,0,0,1.828.906,1.925,1.925,0,0,0,1.605-.84,3.966,3.966,0,0,0,.629-2.41,3.564,3.564,0,0,0-.648-2.348,2.023,2.023,0,0,0-1.6-.762,2.114,2.114,0,0,0-1.723.813A3.721,3.721,0,0,0,386.135,7.914Zm2.117-4.43a2.977,2.977,0,0,1,1.609.406,3.781,3.781,0,0,1,.852.82V.484h1.352V12H390.8V10.836a3.043,3.043,0,0,1-1.164,1.117,3.332,3.332,0,0,1-1.539.344,3.117,3.117,0,0,1-2.422-1.176,4.6,4.6,0,0,1-1.023-3.129,5.4,5.4,0,0,1,.934-3.168A3.057,3.057,0,0,1,388.252,3.484Zm9.213,7.609a1.939,1.939,0,0,0,1.918-1.059,5.274,5.274,0,0,0,.52-2.355,4.194,4.194,0,0,0-.375-1.906,2.11,2.11,0,0,0-2.047-1.156,2.018,2.018,0,0,0-1.875.984,4.563,4.563,0,0,0-.586,2.375,3.969,3.969,0,0,0,.586,2.227A2.064,2.064,0,0,0,397.464,11.094Zm.055-7.7a3.789,3.789,0,0,1,2.734,1.078,4.21,4.21,0,0,1,1.117,3.172,5.442,5.442,0,0,1-.984,3.344,3.561,3.561,0,0,1-3.055,1.32,3.449,3.449,0,0,1-2.742-1.168A4.613,4.613,0,0,1,393.574,8a4.991,4.991,0,0,1,1.07-3.359A3.592,3.592,0,0,1,397.519,3.391Zm13.456.055a3.817,3.817,0,0,1,1.727.418,3.184,3.184,0,0,1,1.273,1.082,3.733,3.733,0,0,1,.563,1.477,9.66,9.66,0,0,1,.125,1.844H408.53a3.579,3.579,0,0,0,.6,2.043,2.014,2.014,0,0,0,1.742.77,2.252,2.252,0,0,0,1.758-.727,2.449,2.449,0,0,0,.531-.977h1.383a2.913,2.913,0,0,1-.363,1.027,3.653,3.653,0,0,1-.691.926,3.277,3.277,0,0,1-1.586.844,4.818,4.818,0,0,1-1.148.125,3.524,3.524,0,0,1-2.648-1.137,4.423,4.423,0,0,1-1.086-3.184A4.809,4.809,0,0,1,408.116,4.7,3.608,3.608,0,0,1,410.975,3.445Zm2.242,3.7a3.643,3.643,0,0,0-.4-1.461,2.042,2.042,0,0,0-1.93-1.016,2.139,2.139,0,0,0-1.625.7,2.641,2.641,0,0,0-.7,1.777ZM416.43.523h1.406V12H416.43Zm7.964,3.109h1.336V4.82a3.747,3.747,0,0,1,1.258-1.055,3.354,3.354,0,0,1,1.477-.32,2.435,2.435,0,0,1,2.406,1.242,4.411,4.411,0,0,1,.344,1.945V12h-1.43V6.727a2.856,2.856,0,0,0-.227-1.234,1.374,1.374,0,0,0-1.359-.781,2.768,2.768,0,0,0-.82.1,2.113,2.113,0,0,0-1.016.688,2.07,2.07,0,0,0-.457.855,5.758,5.758,0,0,0-.105,1.262V12h-1.406Zm8.9.039h1.43V12h-1.43Zm0-3.148h1.43V2.117h-1.43Zm4.244,3.109,2.234,6.813,2.336-6.812h1.539L440.491,12h-1.5l-3.086-8.367Zm10.8-.187a3.817,3.817,0,0,1,1.727.418,3.184,3.184,0,0,1,1.273,1.082,3.733,3.733,0,0,1,.563,1.477,9.66,9.66,0,0,1,.125,1.844h-6.133a3.579,3.579,0,0,0,.6,2.043,2.014,2.014,0,0,0,1.742.77,2.252,2.252,0,0,0,1.758-.727,2.449,2.449,0,0,0,.531-.977h1.383a2.913,2.913,0,0,1-.363,1.027,3.653,3.653,0,0,1-.691.926,3.277,3.277,0,0,1-1.586.844,4.818,4.818,0,0,1-1.148.125,3.524,3.524,0,0,1-2.648-1.137,4.423,4.423,0,0,1-1.086-3.184A4.809,4.809,0,0,1,445.477,4.7,3.608,3.608,0,0,1,448.337,3.445Zm2.242,3.7a3.643,3.643,0,0,0-.4-1.461,2.042,2.042,0,0,0-1.93-1.016,2.139,2.139,0,0,0-1.625.7,2.641,2.641,0,0,0-.7,1.777ZM453.791.523H455.2V12h-1.406Zm8.855,7.391a4.147,4.147,0,0,0,.57,2.25,2,2,0,0,0,1.828.906,1.925,1.925,0,0,0,1.605-.84,3.966,3.966,0,0,0,.629-2.41,3.564,3.564,0,0,0-.648-2.348,2.023,2.023,0,0,0-1.6-.762,2.114,2.114,0,0,0-1.723.813A3.721,3.721,0,0,0,462.646,7.914Zm2.117-4.43a2.977,2.977,0,0,1,1.609.406,3.781,3.781,0,0,1,.852.82V.484h1.352V12H467.31V10.836a3.043,3.043,0,0,1-1.164,1.117,3.332,3.332,0,0,1-1.539.344,3.117,3.117,0,0,1-2.422-1.176,4.6,4.6,0,0,1-1.023-3.129,5.4,5.4,0,0,1,.934-3.168A3.057,3.057,0,0,1,464.763,3.484Zm9.377-.039a3.817,3.817,0,0,1,1.727.418,3.184,3.184,0,0,1,1.273,1.082,3.733,3.733,0,0,1,.563,1.477,9.66,9.66,0,0,1,.125,1.844h-6.133a3.579,3.579,0,0,0,.6,2.043,2.014,2.014,0,0,0,1.742.77,2.252,2.252,0,0,0,1.758-.727,2.449,2.449,0,0,0,.531-.977h1.383a2.913,2.913,0,0,1-.363,1.027,3.653,3.653,0,0,1-.691.926,3.277,3.277,0,0,1-1.586.844,4.818,4.818,0,0,1-1.148.125,3.524,3.524,0,0,1-2.648-1.137,4.423,4.423,0,0,1-1.086-3.184A4.809,4.809,0,0,1,471.28,4.7,3.608,3.608,0,0,1,474.14,3.445Zm2.242,3.7a3.643,3.643,0,0,0-.4-1.461,2.042,2.042,0,0,0-1.93-1.016,2.139,2.139,0,0,0-1.625.7,2.641,2.641,0,0,0-.7,1.777ZM4.563,35.055A2.006,2.006,0,0,0,6.2,34.23a3.922,3.922,0,0,0,.652-2.465,4.6,4.6,0,0,0-.289-1.719,2,2,0,0,0-2-1.383,1.994,1.994,0,0,0-2,1.461,5.79,5.79,0,0,0-.289,1.984,4.207,4.207,0,0,0,.289,1.648A1.994,1.994,0,0,0,4.563,35.055ZM.922,27.672H2.289v1.109a3.413,3.413,0,0,1,.922-.883,2.967,2.967,0,0,1,1.672-.469A3.144,3.144,0,0,1,7.3,28.52a4.465,4.465,0,0,1,.992,3.113,4.781,4.781,0,0,1-1.43,3.906,3.23,3.23,0,0,1-2.109.742,2.863,2.863,0,0,1-1.586-.414,3.654,3.654,0,0,1-.836-.8v4.273H.922Zm9.048-.039h1.336v1.445a3.193,3.193,0,0,1,.8-1.027,2.086,2.086,0,0,1,1.477-.605q.039,0,.133.008l.32.031v1.484a2.1,2.1,0,0,0-.23-.031q-.105-.008-.23-.008a2.007,2.007,0,0,0-1.633.684,2.386,2.386,0,0,0-.57,1.574V36H9.97Zm8.611,7.461A1.939,1.939,0,0,0,20.5,34.035a5.274,5.274,0,0,0,.52-2.355,4.194,4.194,0,0,0-.375-1.906A2.11,2.11,0,0,0,18.6,28.617a2.018,2.018,0,0,0-1.875.984,4.563,4.563,0,0,0-.586,2.375,3.969,3.969,0,0,0,.586,2.227A2.064,2.064,0,0,0,18.581,35.094Zm.055-7.7a3.789,3.789,0,0,1,2.734,1.078,4.21,4.21,0,0,1,1.117,3.172,5.442,5.442,0,0,1-.984,3.344,3.561,3.561,0,0,1-3.055,1.32,3.449,3.449,0,0,1-2.742-1.168A4.613,4.613,0,0,1,14.691,32a4.991,4.991,0,0,1,1.07-3.359A3.592,3.592,0,0,1,18.636,27.391Zm6.416,4.523a4.148,4.148,0,0,0,.57,2.25,2,2,0,0,0,1.828.906,1.925,1.925,0,0,0,1.605-.84,3.966,3.966,0,0,0,.629-2.41,3.564,3.564,0,0,0-.648-2.348,2.023,2.023,0,0,0-1.6-.762,2.114,2.114,0,0,0-1.723.813A3.721,3.721,0,0,0,25.052,31.914Zm2.117-4.43a2.977,2.977,0,0,1,1.609.406,3.78,3.78,0,0,1,.852.82V24.484h1.352V36H29.716V34.836a3.043,3.043,0,0,1-1.164,1.117,3.332,3.332,0,0,1-1.539.344,3.117,3.117,0,0,1-2.422-1.176,4.6,4.6,0,0,1-1.023-3.129,5.4,5.4,0,0,1,.934-3.168A3.057,3.057,0,0,1,27.169,27.484Zm7.3.148v5.555a2.342,2.342,0,0,0,.2,1.047,1.417,1.417,0,0,0,1.4.75,1.977,1.977,0,0,0,2-1.312,5.207,5.207,0,0,0,.289-1.93V27.633h1.406V36H38.436l.016-1.234a2.837,2.837,0,0,1-.68.8,2.991,2.991,0,0,1-1.953.656,2.519,2.519,0,0,1-2.437-1.2,3.56,3.56,0,0,1-.352-1.711V27.633Zm10.72-.242a3.648,3.648,0,0,1,2.3.688,3.294,3.294,0,0,1,1.066,2.367H47.188a2.524,2.524,0,0,0-.57-1.285,1.8,1.8,0,0,0-1.43-.512,1.975,1.975,0,0,0-1.922,1.313,5.214,5.214,0,0,0-.375,2.1,3.955,3.955,0,0,0,.531,2.117,2.06,2.06,0,0,0,3.059.324,2.943,2.943,0,0,0,.707-1.465h1.367a3.306,3.306,0,0,1-3.57,3.2,3.2,3.2,0,0,1-2.617-1.2,4.59,4.59,0,0,1-.977-3,5.048,5.048,0,0,1,1.07-3.43A3.459,3.459,0,0,1,45.188,27.391Zm8,0a3.648,3.648,0,0,1,2.3.688,3.294,3.294,0,0,1,1.066,2.367H55.189a2.524,2.524,0,0,0-.57-1.285,1.8,1.8,0,0,0-1.43-.512,1.975,1.975,0,0,0-1.922,1.313,5.214,5.214,0,0,0-.375,2.1,3.955,3.955,0,0,0,.531,2.117,2.06,2.06,0,0,0,3.059.324,2.943,2.943,0,0,0,.707-1.465h1.367a3.306,3.306,0,0,1-3.57,3.2,3.2,3.2,0,0,1-2.617-1.2,4.59,4.59,0,0,1-.977-3,5.048,5.048,0,0,1,1.07-3.43A3.459,3.459,0,0,1,53.189,27.391Zm4.775.281h1.43V36h-1.43Zm0-3.148h1.43v1.594h-1.43Zm6.877,10.57a1.939,1.939,0,0,0,1.918-1.059,5.274,5.274,0,0,0,.52-2.355,4.194,4.194,0,0,0-.375-1.906,2.11,2.11,0,0,0-2.047-1.156,2.018,2.018,0,0,0-1.875.984,4.563,4.563,0,0,0-.586,2.375,3.969,3.969,0,0,0,.586,2.227A2.064,2.064,0,0,0,64.841,35.094Zm.055-7.7a3.789,3.789,0,0,1,2.734,1.078,4.21,4.21,0,0,1,1.117,3.172,5.442,5.442,0,0,1-.984,3.344,3.561,3.561,0,0,1-3.055,1.32,3.449,3.449,0,0,1-2.742-1.168A4.613,4.613,0,0,1,60.95,32a4.991,4.991,0,0,1,1.07-3.359A3.592,3.592,0,0,1,64.9,27.391Zm1.633-3.125-2.086,2.258H63.364l1.43-2.258Zm3.892,3.367h1.336V28.82a3.747,3.747,0,0,1,1.258-1.055,3.354,3.354,0,0,1,1.477-.32A2.435,2.435,0,0,1,76.9,28.688a4.411,4.411,0,0,1,.344,1.945V36h-1.43V30.727a2.856,2.856,0,0,0-.227-1.234,1.374,1.374,0,0,0-1.359-.781,2.768,2.768,0,0,0-.82.1,2.113,2.113,0,0,0-1.016.688,2.07,2.07,0,0,0-.457.855,5.758,5.758,0,0,0-.105,1.262V36H70.421Zm16.831-.187a3.817,3.817,0,0,1,1.727.418,3.184,3.184,0,0,1,1.273,1.082,3.733,3.733,0,0,1,.563,1.477,9.66,9.66,0,0,1,.125,1.844H84.807a3.579,3.579,0,0,0,.6,2.043,2.014,2.014,0,0,0,1.742.77,2.252,2.252,0,0,0,1.758-.727,2.449,2.449,0,0,0,.531-.977h1.383a2.912,2.912,0,0,1-.363,1.027,3.654,3.654,0,0,1-.691.926,3.277,3.277,0,0,1-1.586.844,4.818,4.818,0,0,1-1.148.125,3.524,3.524,0,0,1-2.648-1.137A4.423,4.423,0,0,1,83.3,31.977,4.809,4.809,0,0,1,84.393,28.7,3.608,3.608,0,0,1,87.252,27.445Zm2.242,3.7a3.643,3.643,0,0,0-.4-1.461,2.042,2.042,0,0,0-1.93-1.016,2.139,2.139,0,0,0-1.625.7,2.641,2.641,0,0,0-.7,1.777ZM93.5,33.375a2.045,2.045,0,0,0,.352,1.078,2.209,2.209,0,0,0,1.844.68,2.719,2.719,0,0,0,1.375-.34,1.129,1.129,0,0,0,.594-1.051.9.9,0,0,0-.477-.82,5.666,5.666,0,0,0-1.2-.4l-1.117-.281a5.45,5.45,0,0,1-1.578-.594,1.775,1.775,0,0,1-.906-1.578,2.411,2.411,0,0,1,.855-1.922,3.413,3.413,0,0,1,2.3-.734,3.194,3.194,0,0,1,2.727,1.109,2.407,2.407,0,0,1,.508,1.516H97.449a1.627,1.627,0,0,0-.336-.867,2.143,2.143,0,0,0-1.68-.555,2.008,2.008,0,0,0-1.207.3.955.955,0,0,0-.41.8.991.991,0,0,0,.539.875,3.239,3.239,0,0,0,.922.344l.93.227a7.188,7.188,0,0,1,2.031.711,1.882,1.882,0,0,1,.82,1.7,2.584,2.584,0,0,1-.848,1.93,3.608,3.608,0,0,1-2.582.813,3.464,3.464,0,0,1-2.645-.848,3.206,3.206,0,0,1-.832-2.1Zm14.839-5.984a3.648,3.648,0,0,1,2.3.688,3.294,3.294,0,0,1,1.066,2.367h-1.367a2.524,2.524,0,0,0-.57-1.285,1.8,1.8,0,0,0-1.43-.512,1.975,1.975,0,0,0-1.922,1.313,5.214,5.214,0,0,0-.375,2.1,3.955,3.955,0,0,0,.531,2.117,2.06,2.06,0,0,0,3.059.324,2.943,2.943,0,0,0,.707-1.465h1.367a3.306,3.306,0,0,1-3.57,3.2,3.2,3.2,0,0,1-2.617-1.2,4.59,4.59,0,0,1-.977-3,5.048,5.048,0,0,1,1.07-3.43A3.459,3.459,0,0,1,108.343,27.391Zm8.259.055a3.817,3.817,0,0,1,1.727.418,3.184,3.184,0,0,1,1.273,1.082,3.733,3.733,0,0,1,.563,1.477,9.66,9.66,0,0,1,.125,1.844h-6.133a3.579,3.579,0,0,0,.6,2.043,2.014,2.014,0,0,0,1.742.77,2.252,2.252,0,0,0,1.758-.727,2.449,2.449,0,0,0,.531-.977h1.383a2.912,2.912,0,0,1-.363,1.027,3.654,3.654,0,0,1-.691.926,3.277,3.277,0,0,1-1.586.844,4.818,4.818,0,0,1-1.148.125,3.524,3.524,0,0,1-2.648-1.137,4.423,4.423,0,0,1-1.086-3.184,4.809,4.809,0,0,1,1.094-3.273A3.608,3.608,0,0,1,116.6,27.445Zm2.242,3.7a3.643,3.643,0,0,0-.4-1.461,2.042,2.042,0,0,0-1.93-1.016,2.139,2.139,0,0,0-1.625.7,2.641,2.641,0,0,0-.7,1.777Zm3.213-3.516h1.336v1.445a3.193,3.193,0,0,1,.8-1.027,2.086,2.086,0,0,1,1.477-.605q.039,0,.133.008l.32.031v1.484a2.1,2.1,0,0,0-.23-.031q-.105-.008-.23-.008a2.007,2.007,0,0,0-1.633.684,2.386,2.386,0,0,0-.57,1.574V36h-1.406Zm8.611,7.461a1.939,1.939,0,0,0,1.918-1.059,5.274,5.274,0,0,0,.52-2.355,4.194,4.194,0,0,0-.375-1.906,2.11,2.11,0,0,0-2.047-1.156,2.018,2.018,0,0,0-1.875.984,4.563,4.563,0,0,0-.586,2.375,3.969,3.969,0,0,0,.586,2.227A2.064,2.064,0,0,0,130.668,35.094Zm.055-7.7a3.789,3.789,0,0,1,2.734,1.078,4.21,4.21,0,0,1,1.117,3.172,5.442,5.442,0,0,1-.984,3.344,3.561,3.561,0,0,1-3.055,1.32,3.449,3.449,0,0,1-2.742-1.168A4.613,4.613,0,0,1,126.777,32a4.991,4.991,0,0,1,1.07-3.359A3.592,3.592,0,0,1,130.723,27.391Zm5.822,10.242a.985.985,0,0,0,.758-.758,2.145,2.145,0,0,0,.117-.68q0-.055,0-.1a.538.538,0,0,0-.02-.1h-.852V34.3h1.672v1.578a3.418,3.418,0,0,1-.375,1.633,1.709,1.709,0,0,1-1.3.867Zm8.636-13.109h1.406V36H145.18Zm6.838,10.57a1.939,1.939,0,0,0,1.918-1.059,5.274,5.274,0,0,0,.52-2.355,4.194,4.194,0,0,0-.375-1.906,2.11,2.11,0,0,0-2.047-1.156,2.018,2.018,0,0,0-1.875.984,4.563,4.563,0,0,0-.586,2.375,3.969,3.969,0,0,0,.586,2.227A2.064,2.064,0,0,0,152.018,35.094Zm.055-7.7a3.789,3.789,0,0,1,2.734,1.078,4.21,4.21,0,0,1,1.117,3.172,5.442,5.442,0,0,1-.984,3.344,3.561,3.561,0,0,1-3.055,1.32,3.449,3.449,0,0,1-2.742-1.168A4.613,4.613,0,0,1,148.127,32a4.991,4.991,0,0,1,1.07-3.359A3.592,3.592,0,0,1,152.073,27.391Zm6.361,5.984a2.045,2.045,0,0,0,.352,1.078,2.209,2.209,0,0,0,1.844.68,2.719,2.719,0,0,0,1.375-.34,1.129,1.129,0,0,0,.594-1.051.9.9,0,0,0-.477-.82,5.666,5.666,0,0,0-1.2-.4l-1.117-.281a5.45,5.45,0,0,1-1.578-.594,1.775,1.775,0,0,1-.906-1.578,2.411,2.411,0,0,1,.855-1.922,3.413,3.413,0,0,1,2.3-.734,3.194,3.194,0,0,1,2.727,1.109,2.407,2.407,0,0,1,.508,1.516h-1.328a1.627,1.627,0,0,0-.336-.867,2.143,2.143,0,0,0-1.68-.555,2.008,2.008,0,0,0-1.207.3.955.955,0,0,0-.41.8.991.991,0,0,0,.539.875,3.239,3.239,0,0,0,.922.344l.93.227a7.188,7.188,0,0,1,2.031.711,1.882,1.882,0,0,1,.82,1.7,2.584,2.584,0,0,1-.848,1.93,3.608,3.608,0,0,1-2.582.813,3.464,3.464,0,0,1-2.645-.848,3.206,3.206,0,0,1-.832-2.1Zm16.636-9.164a4.7,4.7,0,0,1,3.383,1.148,4.056,4.056,0,0,1,1.336,2.609h-1.516a3.154,3.154,0,0,0-1.027-1.758,3.256,3.256,0,0,0-2.16-.648,3.464,3.464,0,0,0-2.738,1.191,5.431,5.431,0,0,0-1.043,3.652,5.3,5.3,0,0,0,.941,3.27,3.289,3.289,0,0,0,2.809,1.254,2.967,2.967,0,0,0,2.617-1.32,5.021,5.021,0,0,0,.711-1.828H179.9a5.179,5.179,0,0,1-1.344,3.039,4.781,4.781,0,0,1-3.687,1.477,4.867,4.867,0,0,1-3.359-1.211,6.31,6.31,0,0,1-1.789-4.945,6.317,6.317,0,0,1,1.344-4.164A4.908,4.908,0,0,1,175.07,24.211Zm7.627.313,3.3,9.773,3.258-9.773h1.742L186.806,36h-1.648l-4.18-11.477Zm21.863,5.055v1.313H196.41V29.578Zm0,3.352v1.336H196.41V32.93Zm9.253-8.117a3.306,3.306,0,0,1,3.141,1.789,8,8,0,0,1,.75,3.789,9.124,9.124,0,0,1-.68,3.773A3.328,3.328,0,0,1,213.8,36.3a3.223,3.223,0,0,1-3-1.75,8.013,8.013,0,0,1-.82-3.922,9.69,9.69,0,0,1,.492-3.273A3.368,3.368,0,0,1,213.812,24.813ZM213.8,35.023a2,2,0,0,0,1.742-.969,7.014,7.014,0,0,0,.648-3.609,8.918,8.918,0,0,0-.469-3.137,1.784,1.784,0,0,0-1.82-1.23,1.9,1.9,0,0,0-1.816,1.168,8.065,8.065,0,0,0-.574,3.441,8.451,8.451,0,0,0,.367,2.75A2,2,0,0,0,213.8,35.023Zm15.292-7.391h1.555q-.3.8-1.32,3.672-.766,2.156-1.281,3.516a23.768,23.768,0,0,1-1.719,3.906,1.965,1.965,0,0,1-1.719.7,3.372,3.372,0,0,1-.457-.023,3.61,3.61,0,0,1-.395-.086V38.039a4.852,4.852,0,0,0,.531.125,2.074,2.074,0,0,0,.289.023,1.012,1.012,0,0,0,.574-.129,1.189,1.189,0,0,0,.309-.316q.039-.063.281-.641t.352-.859l-3.094-8.609h1.594l2.242,6.813Zm7.261-3.109h1.406V36H236.35Zm6.838,10.57a1.939,1.939,0,0,0,1.918-1.059,5.274,5.274,0,0,0,.52-2.355,4.194,4.194,0,0,0-.375-1.906,2.11,2.11,0,0,0-2.047-1.156,2.018,2.018,0,0,0-1.875.984,4.563,4.563,0,0,0-.586,2.375,3.969,3.969,0,0,0,.586,2.227A2.064,2.064,0,0,0,243.187,35.094Zm.055-7.7a3.789,3.789,0,0,1,2.734,1.078,4.21,4.21,0,0,1,1.117,3.172,5.442,5.442,0,0,1-.984,3.344,3.561,3.561,0,0,1-3.055,1.32,3.449,3.449,0,0,1-2.742-1.168A4.613,4.613,0,0,1,239.3,32a4.991,4.991,0,0,1,1.07-3.359A3.592,3.592,0,0,1,243.242,27.391Zm6.361,5.984a2.045,2.045,0,0,0,.352,1.078,2.209,2.209,0,0,0,1.844.68,2.719,2.719,0,0,0,1.375-.34,1.129,1.129,0,0,0,.594-1.051.9.9,0,0,0-.477-.82,5.666,5.666,0,0,0-1.2-.4l-1.117-.281a5.45,5.45,0,0,1-1.578-.594,1.775,1.775,0,0,1-.906-1.578,2.411,2.411,0,0,1,.855-1.922,3.413,3.413,0,0,1,2.3-.734,3.194,3.194,0,0,1,2.727,1.109,2.407,2.407,0,0,1,.508,1.516h-1.328a1.627,1.627,0,0,0-.336-.867,2.143,2.143,0,0,0-1.68-.555,2.008,2.008,0,0,0-1.207.3.955.955,0,0,0-.41.8.991.991,0,0,0,.539.875,3.239,3.239,0,0,0,.922.344l.93.227a7.188,7.188,0,0,1,2.031.711,1.882,1.882,0,0,1,.82,1.7,2.584,2.584,0,0,1-.848,1.93,3.608,3.608,0,0,1-2.582.813,3.464,3.464,0,0,1-2.645-.848,3.206,3.206,0,0,1-.832-2.1Zm16.636-9.164a4.7,4.7,0,0,1,3.383,1.148,4.056,4.056,0,0,1,1.336,2.609h-1.516a3.154,3.154,0,0,0-1.027-1.758,3.256,3.256,0,0,0-2.16-.648,3.464,3.464,0,0,0-2.738,1.191,5.431,5.431,0,0,0-1.043,3.652,5.305,5.305,0,0,0,.941,3.27,3.289,3.289,0,0,0,2.809,1.254,2.967,2.967,0,0,0,2.617-1.32,5.021,5.021,0,0,0,.711-1.828h1.516a5.179,5.179,0,0,1-1.344,3.039,4.781,4.781,0,0,1-3.687,1.477,4.867,4.867,0,0,1-3.359-1.211,6.31,6.31,0,0,1-1.789-4.945,6.317,6.317,0,0,1,1.344-4.164A4.908,4.908,0,0,1,266.239,24.211Zm15.072.313v1.367h-3.867V36h-1.578V25.891H272V24.523Zm13.238,5.055v1.313H286.4V29.578Zm0,3.352v1.336H286.4V32.93Zm10.98-8.719a4.7,4.7,0,0,1,3.383,1.148,4.056,4.056,0,0,1,1.336,2.609h-1.516a3.154,3.154,0,0,0-1.027-1.758,3.256,3.256,0,0,0-2.16-.648,3.464,3.464,0,0,0-2.738,1.191,5.431,5.431,0,0,0-1.043,3.652,5.305,5.305,0,0,0,.941,3.27,3.289,3.289,0,0,0,2.809,1.254,2.967,2.967,0,0,0,2.617-1.32,5.021,5.021,0,0,0,.711-1.828h1.516a5.179,5.179,0,0,1-1.344,3.039,4.781,4.781,0,0,1-3.687,1.477,4.867,4.867,0,0,1-3.359-1.211,6.31,6.31,0,0,1-1.789-4.945,6.317,6.317,0,0,1,1.344-4.164A4.908,4.908,0,0,1,305.528,24.211Zm6.869.313h7.961V25.93h-6.406v3.484h5.633v1.367h-5.633V36H312.4Zm8,9.773h1.633V36H320.4Z" transform="translate(520 7617)" fill="#212429"/>
    </g>
    <path id="Trazado_994306" data-name="Trazado 994306" d="M5946.849,8426.732s30-42.02,81.787-61.707,92.592,11.975,135.989-3.819S6209,8312.135,6209,8312.135" transform="translate(-5314 1024.142)" fill="none" stroke="#707070" stroke-width="1"/>
    <path id="Trazado_994307" data-name="Trazado 994307" d="M5946.849,8426.732s30-42.02,81.787-61.707,92.592,11.975,135.989-3.819S6209,8312.135,6209,8312.135" transform="translate(-5314 935.142)" fill="none" stroke="#707070" stroke-width="1"/>
  </g>
</svg>
