<svg xmlns="http://www.w3.org/2000/svg" xmlns:xlink="http://www.w3.org/1999/xlink" width="103" height="103" viewBox="0 0 103 103">
  <defs>
    <filter id="Trazado_982547" x="0" y="0" width="103" height="103" filterUnits="userSpaceOnUse">
      <feOffset dy="3" input="SourceAlpha"/>
      <feGaussianBlur stdDeviation="3" result="blur"/>
      <feFlood flood-opacity="0.161"/>
      <feComposite operator="in" in2="blur"/>
      <feComposite in="SourceGraphic"/>
    </filter>
  </defs>
  <g id="Grupo_1159206" data-name="Grupo 1159206" transform="translate(-171 -1861)">
    <g id="Grupo_1159134" data-name="Grupo 1159134" transform="translate(180 1867)">
      <g id="Grupo_1154033" data-name="Grupo 1154033">
        <g id="Grupo_1153177" data-name="Grupo 1153177">
          <g id="Grupo_1149598" data-name="Grupo 1149598">
            <g id="Grupo_1148770" data-name="Grupo 1148770">
              <g id="Grupo_1146954" data-name="Grupo 1146954">
                <g transform="matrix(1, 0, 0, 1, -9, -6)" filter="url(#Trazado_982547)">
                  <g id="Trazado_982547-2" data-name="Trazado 982547" transform="translate(9 6)" fill="#f5fdfa">
                    <path d="M 42.5 83.5 C 36.96437835693359 83.5 31.59512901306152 82.41617584228516 26.54141235351562 80.27863311767578 C 21.65934181213379 78.21369171142578 17.27447128295898 75.25723266601562 13.50862312316895 71.49137878417969 C 9.742764472961426 67.72553253173828 6.786305904388428 63.34066009521484 4.721364498138428 58.45858764648438 C 2.583823442459106 53.40486907958984 1.5 48.03562164306641 1.5 42.5 C 1.5 36.96437835693359 2.583823442459106 31.59512901306152 4.721364498138428 26.54141235351562 C 6.786305904388428 21.65934181213379 9.742764472961426 17.27447128295898 13.50862312316895 13.50862312316895 C 17.27447128295898 9.742764472961426 21.65934181213379 6.786305904388428 26.54141235351562 4.721364498138428 C 31.59512901306152 2.583823442459106 36.96437835693359 1.5 42.5 1.5 C 48.03562164306641 1.5 53.40486907958984 2.583823442459106 58.45858764648438 4.721364498138428 C 63.34066009521484 6.786305904388428 67.72553253173828 9.742764472961426 71.49137878417969 13.50862312316895 C 75.25723266601562 17.27447128295898 78.21369171142578 21.65934181213379 80.27863311767578 26.54141235351562 C 82.41617584228516 31.59512901306152 83.5 36.96437835693359 83.5 42.5 C 83.5 48.03562164306641 82.41617584228516 53.40486907958984 80.27863311767578 58.45858764648438 C 78.21369171142578 63.34066009521484 75.25723266601562 67.72553253173828 71.49137878417969 71.49137878417969 C 67.72553253173828 75.25723266601562 63.34066009521484 78.21369171142578 58.45858764648438 80.27863311767578 C 53.40486907958984 82.41617584228516 48.03562164306641 83.5 42.5 83.5 Z" stroke="none"/>
                    <path d="M 42.5 82 C 47.83378601074219 82 53.00643920898438 80.95603942871094 57.874267578125 78.89711761474609 C 62.57753372192383 76.90781402587891 66.80214691162109 74.05929565429688 70.43071746826172 70.43071746826172 C 74.05929565429688 66.80214691162109 76.90781402587891 62.57753372192383 78.89711761474609 57.874267578125 C 80.95603942871094 53.00643920898438 82 47.83378601074219 82 42.5 C 82 37.16621398925781 80.95603942871094 31.99356079101562 78.89711761474609 27.125732421875 C 76.90781402587891 22.42246627807617 74.05929565429688 18.19785308837891 70.43071746826172 14.56927967071533 C 66.80214691162109 10.94070625305176 62.57753372192383 8.09218692779541 57.874267578125 6.102880001068115 C 53.00643920898438 4.043960094451904 47.83378601074219 3 42.5 3 C 37.16621398925781 3 31.99356079101562 4.043960094451904 27.125732421875 6.102880001068115 C 22.42246627807617 8.09218692779541 18.19785308837891 10.94070625305176 14.56927967071533 14.56927967071533 C 10.94070625305176 18.19785308837891 8.09218692779541 22.42246627807617 6.102880001068115 27.125732421875 C 4.043960094451904 31.99356079101562 3 37.16621398925781 3 42.5 C 3 47.83378601074219 4.043960094451904 53.00643920898438 6.102880001068115 57.874267578125 C 8.09218692779541 62.57753372192383 10.94070625305176 66.80214691162109 14.56927967071533 70.43071746826172 C 18.19785308837891 74.05929565429688 22.42246627807617 76.90781402587891 27.125732421875 78.89711761474609 C 31.99356079101562 80.95603942871094 37.16621398925781 82 42.5 82 M 42.5 85 C 19.02789306640625 85 0 65.97210693359375 0 42.5 C 0 19.02789306640625 19.02789306640625 0 42.5 0 C 65.97210693359375 0 85 19.02789306640625 85 42.5 C 85 65.97210693359375 65.97210693359375 85 42.5 85 Z" stroke="none" fill="#598475"/>
                  </g>
                </g>
              </g>
            </g>
          </g>
        </g>
      </g>
    </g>
    <g id="production_3052565" transform="translate(195.369 1882.369)">
      <g id="Grupo_1159205" data-name="Grupo 1159205" transform="translate(1.859 1)">
        <g id="Grupo_1159186" data-name="Grupo 1159186" transform="translate(33.504 7.732)">
          <path id="Trazado_994521" data-name="Trazado 994521" d="M45.3,10.67a2.494,2.494,0,0,1,.859,1.907,2.577,2.577,0,1,1-5.154,0,2.494,2.494,0,0,1,.859-1.907v-.009a2.562,2.562,0,0,1,3.436,0Z" transform="translate(-41 -10)" fill="#fcd770"/>
        </g>
        <g id="Grupo_1159187" data-name="Grupo 1159187" transform="translate(34.363)">
          <path id="Trazado_994522" data-name="Trazado 994522" d="M45.436,1V9.393a2.562,2.562,0,0,0-3.436,0V1Z" transform="translate(-42 -1)" fill="#ccd1d9"/>
        </g>
        <g id="Grupo_1159188" data-name="Grupo 1159188" transform="translate(18.9 47.249)">
          <path id="Trazado_994523" data-name="Trazado 994523" d="M24,56H54.927v5.154H24Z" transform="translate(-24 -56)" fill="#ccd1d9"/>
        </g>
        <g id="Grupo_1159189" data-name="Grupo 1159189" transform="translate(18.9 43.813)">
          <path id="Trazado_994524" data-name="Trazado 994524" d="M29.154,52h27.49v3.436H24V52h5.154Z" transform="translate(-24 -52)" fill="#969faa"/>
        </g>
        <g id="Grupo_1159190" data-name="Grupo 1159190" transform="translate(36.081 28.349)">
          <path id="Trazado_994525" data-name="Trazado 994525" d="M56.027,34l1.718,5.154H46.577L44,34H56.027Z" transform="translate(-44 -34)" fill="#b27946"/>
        </g>
        <g id="Grupo_1159191" data-name="Grupo 1159191" transform="translate(22.336 28.349)">
          <path id="Trazado_994526" data-name="Trazado 994526" d="M41.745,34l-2.577,5.154H28L29.718,34H41.745Z" transform="translate(-28 -34)" fill="#b27946"/>
        </g>
        <g id="Grupo_1159192" data-name="Grupo 1159192" transform="translate(36.081 28.349)">
          <path id="Trazado_994527" data-name="Trazado 994527" d="M44,49.463V34l2.577,5.154h9.45V49.463Z" transform="translate(-44 -34)" fill="#d3a06c"/>
        </g>
        <g id="Grupo_1159193" data-name="Grupo 1159193" transform="translate(24.054 28.349)">
          <path id="Trazado_994528" data-name="Trazado 994528" d="M42.027,34V49.463H33.488A1.668,1.668,0,0,0,35.154,47.8V45.976a1.668,1.668,0,0,0-1.667-1.667h-.911l-.4-.8a1.663,1.663,0,0,0-1.495-.919,3.829,3.829,0,0,0-.687.155V39.154h9.45Z" transform="translate(-30 -34)" fill="#d3a06c"/>
        </g>
        <g id="Grupo_1159194" data-name="Grupo 1159194" transform="translate(30.927 18.041)">
          <path id="Trazado_994529" data-name="Trazado 994529" d="M38,22H48.309V32.309H38Z" transform="translate(-38 -22)" fill="#d3a06c"/>
        </g>
        <g id="Grupo_1159195" data-name="Grupo 1159195" transform="translate(34.363 18.041)">
          <path id="Trazado_994530" data-name="Trazado 994530" d="M42,22h3.436v3.436H42Z" transform="translate(-42 -22)" fill="#b27946"/>
        </g>
        <g id="Grupo_1159196" data-name="Grupo 1159196" transform="translate(0 0.859)">
          <path id="Trazado_994531" data-name="Trazado 994531" d="M8.873,13.168v.859l-.507.172a3.092,3.092,0,0,0-1.5,1.1,3.036,3.036,0,0,0,.318,3.909L8.873,20.9v3.436L8.46,24.13a11.794,11.794,0,0,1-4.716-4.313A11.678,11.678,0,0,1,13.683,2h4.072a4.86,4.86,0,0,1,3.436,8.3l-.292.292H11.45A2.574,2.574,0,0,0,8.873,13.168Z" transform="translate(-2 -2)" fill="#656d78"/>
        </g>
        <g id="Grupo_1159197" data-name="Grupo 1159197" transform="translate(1.727 26.726)">
          <path id="Trazado_994532" data-name="Trazado 994532" d="M24.619,44.043V49.2h-9.45a11.154,11.154,0,0,1-11.159-11A7.487,7.487,0,0,1,7.257,32.11l1.9,5.06a6.871,6.871,0,0,0,6.873,6.873h8.591Z" transform="translate(-4.01 -32.11)" fill="#b4dd7f"/>
        </g>
        <g id="Grupo_1159198" data-name="Grupo 1159198" transform="translate(1.718 32.808)">
          <path id="Trazado_994533" data-name="Trazado 994533" d="M21.182,53.631v5.154H4V39.3a.49.49,0,0,1,.009-.112,11.154,11.154,0,0,0,11.159,11h6.014Z" transform="translate(-4 -39.19)" fill="#b4dd7f"/>
        </g>
        <g id="Grupo_1159199" data-name="Grupo 1159199" transform="translate(6.873 31.786)">
          <path id="Trazado_994534" data-name="Trazado 994534" d="M21.744,44.873H16.873A6.871,6.871,0,0,1,10,38h8.728A16.7,16.7,0,0,1,21.744,44.873Z" transform="translate(-10 -38)" fill="#b4dd7f"/>
        </g>
        <g id="Grupo_1159200" data-name="Grupo 1159200" transform="translate(4.974 25.772)">
          <path id="Trazado_994535" data-name="Trazado 994535" d="M18.408,37.014H9.689l-1.9-5.06A7.426,7.426,0,0,1,9.689,31a16.69,16.69,0,0,1,6.873,3.926A17.072,17.072,0,0,1,18.408,37.014Z" transform="translate(-7.79 -31)" fill="#a0d468"/>
        </g>
        <g id="Grupo_1159201" data-name="Grupo 1159201" transform="translate(22.336 36.94)">
          <path id="Trazado_994536" data-name="Trazado 994536" d="M30.405,44a1.663,1.663,0,0,1,1.495.919l.4.8h.911a1.668,1.668,0,0,1,1.667,1.667v1.821a1.668,1.668,0,0,1-1.667,1.667H28V45.718l1.228-1.228a1.555,1.555,0,0,1,.49-.335A3.829,3.829,0,0,1,30.405,44Z" transform="translate(-28 -44)" fill="#f0d0b4"/>
        </g>
        <g id="Grupo_1159202" data-name="Grupo 1159202" transform="translate(6.873 9.45)">
          <path id="Trazado_994537" data-name="Trazado 994537" d="M23.256,16.665a1.669,1.669,0,0,1-.43,2.672l-.8.4V21.45H14.3L10,15.436v-.859A2.574,2.574,0,0,1,12.577,12h9.45v1.692A4.214,4.214,0,0,0,23.256,16.665Z" transform="translate(-10 -12)" fill="#f0d0b4"/>
        </g>
        <g id="Grupo_1159203" data-name="Grupo 1159203" transform="translate(4.295 12.886)">
          <path id="Trazado_994538" data-name="Trazado 994538" d="M16.45,27.168v5.644a16.69,16.69,0,0,0-6.873-3.926V22.873L7.885,21.18a3.036,3.036,0,0,1-.318-3.909,3.092,3.092,0,0,1,1.5-1.1L9.577,16l4.3,6.014.859,5.154Z" transform="translate(-7 -16)" fill="#f0d0b4"/>
        </g>
        <g id="Grupo_1159204" data-name="Grupo 1159204" transform="translate(11.168 18.9)">
          <path id="Trazado_994539" data-name="Trazado 994539" d="M22.732,23v1.718A3.435,3.435,0,0,1,19.3,28.154H15.859L15,23Z" transform="translate(-15 -23)" fill="#e6e9ed"/>
        </g>
      </g>
      <path id="Trazado_994540" data-name="Trazado 994540" d="M54.263,43.954H50.826V35.363h2.051L50.586,28.49H43.954V24.726l.027-.013a6.169,6.169,0,0,0-2.758-11.686H40.9a3.355,3.355,0,0,0-.381-3.967V1H38.8V7.995a3.086,3.086,0,0,0-1.718,0V1H35.363V9.06a3.355,3.355,0,0,0-.381,3.967h-.323A6.169,6.169,0,0,0,31.9,24.713l.027.013V28.49H25.294L23,35.363h2.051v2.264a2.413,2.413,0,0,0-.235.194l-.979.978H21.163a17.348,17.348,0,0,0-4.7-8.476v-4.41h.859a4.3,4.3,0,0,0,4.3-4.3V18.712l.323-.162a2.51,2.51,0,0,0,1.4-2.257A2.54,2.54,0,0,0,22.6,14.51a3.321,3.321,0,0,1-.979-2.364V10.806l.043-.043A5.719,5.719,0,0,0,17.617,1H13.539A12.538,12.538,0,0,0,7.873,24.723V26.18a8.379,8.379,0,0,0-5.143,7.465H2.718c0,.041.006.082.006.123s-.006.1-.006.155V54.263H52.545V49.108h1.718Zm-5.154,0H38.8V32.989l1.187,2.374h9.122Zm1.386-10.309H41.048L39.33,30.209H49.348ZM36.222,11.309a1.718,1.718,0,1,1,1.718,1.718A1.72,1.72,0,0,1,36.222,11.309ZM30.209,19.2a4.456,4.456,0,0,1,4.45-4.451h6.563A4.443,4.443,0,0,1,43.954,22.7V18.182H31.927V22.7A4.412,4.412,0,0,1,30.209,19.2Zm6.873.7H38.8v1.718H37.081Zm-3.436,0h1.718v3.436h5.154V19.9h1.718V28.49H33.645ZM26.533,30.209H36.55l-1.718,3.436H25.387Zm9.361,5.154,1.187-2.374V43.954h-5.3a2.505,2.505,0,0,0,.143-.8V41.323A2.526,2.526,0,0,0,29.4,38.8h-.381l-.162-.323a2.5,2.5,0,0,0-2.088-1.383v-1.73Zm-10.84,4.651.979-.979a.83.83,0,0,1,1.289.21l.637,1.273H29.4a.806.806,0,0,1,.8.806v1.826a.806.806,0,0,1-.8.8h-4.35Zm-9.43-8.087h-6.3L7.885,28.082a6.76,6.76,0,0,1,.87-.407,15.7,15.7,0,0,1,6.868,4.252Zm1.4,1.718A15.675,15.675,0,0,1,19.4,38.8H15.6a6.018,6.018,0,0,1-5.945-5.154Zm-2.283-4.809a17.476,17.476,0,0,0-5.154-2.688V20.4L7.649,18.461a2.163,2.163,0,0,1,.757-3.552l3.806,5.329.661,3.958H11.309v1.718h3.436ZM17.322,24.2H14.614l-.572-3.436H19.9v.859A2.58,2.58,0,0,1,17.322,24.2Zm3.85-7.181-1.273.637v1.39h-6.43L9.591,13.61v-.583a1.72,1.72,0,0,1,1.718-1.718H19.9v.837a5.026,5.026,0,0,0,1.483,3.579.811.811,0,0,1,.235.57.8.8,0,0,1-.445.72ZM2.718,13.54A10.833,10.833,0,0,1,13.54,2.718h4.078a4,4,0,0,1,2.829,6.829l-.044.044H11.309a3.44,3.44,0,0,0-3.436,3.436v.241a3.887,3.887,0,0,0-1.439,6.408l1.439,1.439v1.639A10.749,10.749,0,0,1,2.718,13.54ZM6.453,29.159l1.428,3.807A7.737,7.737,0,0,0,15.6,40.517h7.732v3.436H14.745a10.316,10.316,0,0,1-10.3-10.141,6.651,6.651,0,0,1,2.009-4.654ZM4.436,39.808a12.019,12.019,0,0,0,10.309,5.864H19.9v6.873H4.436Zm46.39,12.737H21.618V49.108H50.826Zm1.718-5.154H21.618V45.672H52.545Z" transform="translate(0 0)"/>
    </g>
  </g>
</svg>
