<svg xmlns="http://www.w3.org/2000/svg" width="400" height="63" viewBox="0 0 400 63">
  <g id="Grupo_1159260" data-name="Grupo 1159260" transform="translate(-600 -6847)">
    <path id="Fondo" d="M0,0H400V63H0Z" transform="translate(600 6847)" fill="#e8edf7"/>
    <path id="Trazado_994777" data-name="Trazado 994777" d="M7.141-8,4.453-3.953,7.094,0H5.6L4.031-2.594Q3.883-2.836,3.68-3.2H3.648q-.039.07-.367.609L1.68,0H.2L2.93-3.922.32-8H1.813L3.359-5.266q.172.3.336.625h.031L5.727-8ZM10.863.179a1.351,1.351,0,0,0-.093-.524,1.038,1.038,0,0,0-.255-.371,1.046,1.046,0,0,0-.381-.221,1.49,1.49,0,0,0-.474-.073,1.568,1.568,0,0,0-.428.059,2.082,2.082,0,0,0-.408.164,2.509,2.509,0,0,0-.383.251A2.765,2.765,0,0,0,8.1-.213v-.8a2.234,2.234,0,0,1,.7-.467,2.479,2.479,0,0,1,.95-.162,2.294,2.294,0,0,1,.743.116,1.7,1.7,0,0,1,.592.339,1.569,1.569,0,0,1,.394.551,1.86,1.86,0,0,1,.144.752,2.578,2.578,0,0,1-.089.7,2.17,2.17,0,0,1-.269.592,2.859,2.859,0,0,1-.453.533,6.423,6.423,0,0,1-.643.52q-.46.328-.759.561a3.354,3.354,0,0,0-.474.435,1.263,1.263,0,0,0-.246.406,1.418,1.418,0,0,0-.071.467h3.254V5H7.842V4.676a2.7,2.7,0,0,1,.091-.738,1.917,1.917,0,0,1,.3-.606,3.364,3.364,0,0,1,.549-.574q.339-.287.832-.647a5.258,5.258,0,0,0,.595-.488,2.535,2.535,0,0,0,.385-.465A1.669,1.669,0,0,0,10.8.687,2.034,2.034,0,0,0,10.863.179Zm7.608-8.8-2.141.438,1.484,1.9-.859.594-1.219-2.07L14.5-5.7l-.859-.594,1.484-1.9-2.156-.437.352-.977,2.047.773L15.19-11.2h1.078l-.18,2.375L18.143-9.6Zm9.736,2.813H20.863V-6.844h7.344Zm0,3.328H20.863V-3.516h7.344Z" transform="translate(736 6885)" fill="#212429"/>
    <path id="Trazado_994778" data-name="Trazado 994778" d="M7.141-8,4.453-3.953,7.094,0H5.6L4.031-2.594Q3.883-2.836,3.68-3.2H3.648q-.039.07-.367.609L1.68,0H.2L2.93-3.922.32-8H1.813L3.359-5.266q.172.3.336.625h.031L5.727-8Zm3.5,13H9.9V-.646a1.73,1.73,0,0,1-.253.2,4.123,4.123,0,0,1-.374.221q-.207.109-.437.205a3.179,3.179,0,0,1-.449.15V-.628a4.345,4.345,0,0,0,.522-.185q.276-.116.542-.26t.5-.3a4,4,0,0,0,.41-.308h.283ZM24.091-5.812H16.747V-6.844h7.344Zm0,3.328H16.747V-3.516h7.344ZM38.235-5.648a11.005,11.005,0,0,1-.254,2.492,5.807,5.807,0,0,1-.734,1.832,3.305,3.305,0,0,1-1.18,1.133A3.23,3.23,0,0,1,34.477.2a3.016,3.016,0,0,1-1.5-.371A3.152,3.152,0,0,1,31.86-1.258,5.484,5.484,0,0,1,31.172-3a10.8,10.8,0,0,1-.234-2.371,12.222,12.222,0,0,1,.246-2.594,5.933,5.933,0,0,1,.723-1.887A3.216,3.216,0,0,1,33.09-11a3.323,3.323,0,0,1,1.621-.387Q38.235-11.391,38.235-5.648Zm-1.312.125q0-4.781-2.273-4.781-2.4,0-2.4,4.867Q32.25-.9,34.6-.9,36.922-.9,36.922-5.523Z" transform="translate(825 6885)" fill="#212429"/>
    <path id="Trazado_994779" data-name="Trazado 994779" d="M-.207,0H-1.551L.816-11.2H2.176ZM-9.889,21.8a6.076,6.076,0,0,1-.125,1.2,6.206,6.206,0,0,1-.383,1.223,6.02,6.02,0,0,1-.645,1.141,4.625,4.625,0,0,1-.91.949,4.22,4.22,0,0,1-1.187.648,4.323,4.323,0,0,1-1.469.238,4.833,4.833,0,0,1-.91-.086,5.6,5.6,0,0,1-.785-.2l-.8,3.8h-1.3l1.953-9.25q.055-.25.1-.6t.082-.707q.035-.355.059-.668t.023-.484h1.313q0,.133-.02.359t-.051.473q-.031.246-.062.477t-.055.371h.031a4.221,4.221,0,0,1,1.25-1.41,2.672,2.672,0,0,1,1.516-.465,2.476,2.476,0,0,1,.984.188,1.949,1.949,0,0,1,.746.563,2.6,2.6,0,0,1,.473.938A4.675,4.675,0,0,1-9.889,21.8Zm-1.313.055a3.864,3.864,0,0,0-.074-.781,1.733,1.733,0,0,0-.246-.617,1.246,1.246,0,0,0-.441-.406,1.352,1.352,0,0,0-.66-.148,1.76,1.76,0,0,0-.762.168,2.623,2.623,0,0,0-.66.449,3.682,3.682,0,0,0-.555.652,6.484,6.484,0,0,0-.445.77,6.762,6.762,0,0,0-.332.8,6.037,6.037,0,0,0-.207.754l-.492,2.32a2.192,2.192,0,0,0,.336.113q.2.051.406.09t.43.063a3.83,3.83,0,0,0,.406.023,2.7,2.7,0,0,0,1-.18,2.891,2.891,0,0,0,.82-.488,3.446,3.446,0,0,0,.641-.727,4.821,4.821,0,0,0,.465-.891,5.242,5.242,0,0,0,.281-.977A5.4,5.4,0,0,0-11.2,21.852Zm6.048,5.063a.885.885,0,0,0-.262-.681,1.026,1.026,0,0,0-.727-.244,2.288,2.288,0,0,0-.889.187,2.87,2.87,0,0,0-.834.542l.187-.838a2.421,2.421,0,0,1,.791-.41,3.389,3.389,0,0,1,.927-.114,1.684,1.684,0,0,1,1.162.385,1.318,1.318,0,0,1,.433,1.037,2.368,2.368,0,0,1-.189.977,2.6,2.6,0,0,1-.6.813,8.046,8.046,0,0,1-1.212.893q-.725.451-1.1.743a2.935,2.935,0,0,0-.558.538,1.55,1.55,0,0,0-.26.588h3.226L-5.2,32H-9.237l.068-.324a3.151,3.151,0,0,1,.353-.948,3.249,3.249,0,0,1,.658-.77A11.233,11.233,0,0,1-6.85,29.02a7.764,7.764,0,0,0,1-.729,2.361,2.361,0,0,0,.526-.633A1.568,1.568,0,0,0-5.154,26.914ZM-1.448,23.2h-.588l.916-2.238h.747Z" transform="translate(801 6869)" fill="#0b0a0a"/>
    <path id="Trazado_994268" data-name="Trazado 994268" d="M4414,6562.5h39.021" transform="translate(-3640 318)" fill="none" stroke="#383737" stroke-width="1"/>
  </g>
</svg>
