<svg xmlns="http://www.w3.org/2000/svg" width="611" height="381" viewBox="0 0 611 381">
  <g id="Grupo_1159261" data-name="Grupo 1159261" transform="translate(-495 -7047)">
    <path id="Trazado_994780" data-name="Trazado 994780" d="M0,0H611V381H0Z" transform="translate(495 7047)" fill="#fff"/>
    <path id="Trazado_994263" data-name="Trazado 994263" d="M4131.422,6322.642v265.488H4446.61" transform="translate(-3499.422 759.435)" fill="none" stroke="#6e7a97" stroke-width="1.5"/>
    <path id="Trazado_994781" data-name="Trazado 994781" d="M.585,0H-2.407l-1.93-3.648a3.2,3.2,0,0,1-.227-.75h-.031a5.677,5.677,0,0,1-.258.781L-6.79,0H-9.8l3.57-5.6-3.266-5.6h3.07l1.6,3.359a5.8,5.8,0,0,1,.336.945h.031q.094-.328.352-.977L-2.321-11.2H.491L-2.868-5.648ZM3.993-2.047h4.75V0H1.29V-.844a3.927,3.927,0,0,1,.289-1.543,5.12,5.12,0,0,1,.727-1.227,6.3,6.3,0,0,1,.957-.961q.52-.418.988-.754Q4.743-5.68,5.114-6a4.919,4.919,0,0,0,.625-.637,2.421,2.421,0,0,0,.379-.641,1.905,1.905,0,0,0,.125-.691,1.39,1.39,0,0,0-.406-1.086,1.806,1.806,0,0,0-1.242-.367A4.172,4.172,0,0,0,1.829-8.273v-2.172a5.937,5.937,0,0,1,3.3-.945,4.869,4.869,0,0,1,1.527.223,3.231,3.231,0,0,1,1.145.637,2.716,2.716,0,0,1,.715,1,3.388,3.388,0,0,1,.246,1.316A3.712,3.712,0,0,1,8.52-6.836a4.225,4.225,0,0,1-.633,1.094,5.74,5.74,0,0,1-.91.9q-.516.41-1.07.793-.375.266-.723.527A6.851,6.851,0,0,0,4.571-3a2.8,2.8,0,0,0-.422.5A.856.856,0,0,0,3.993-2.047Z" transform="translate(610 7093.436)" fill="#212429"/>
    <path id="Trazado_994782" data-name="Trazado 994782" d="M.585,0H-2.407l-1.93-3.648a3.2,3.2,0,0,1-.227-.75h-.031a5.677,5.677,0,0,1-.258.781L-6.79,0H-9.8l3.57-5.6-3.266-5.6h3.07l1.6,3.359a5.8,5.8,0,0,1,.336.945h.031q.094-.328.352-.977L-2.321-11.2H.491L-2.868-5.648ZM7.141-11.453V0H4.68V-8.672a2.947,2.947,0,0,1-.48.34,4.96,4.96,0,0,1-.59.289,5.267,5.267,0,0,1-.648.219A4.736,4.736,0,0,1,2.3-7.7V-9.773a10.266,10.266,0,0,0,1.813-.719,10.315,10.315,0,0,0,1.539-.961Z" transform="translate(950 7380.436)" fill="#212429"/>
    <path id="Trazado_994783" data-name="Trazado 994783" d="M8,0l8,10H0Z" transform="translate(624 7078.436)" fill="#0b0a0a"/>
    <path id="Trazado_994784" data-name="Trazado 994784" d="M8,0l8,10H0Z" transform="translate(955 7339.436) rotate(90)" fill="#0b0a0a"/>
    <path id="Trazado_994785" data-name="Trazado 994785" d="M10.352-9.344q-.227-.148-.52-.3a4.751,4.751,0,0,0-.645-.281,5.088,5.088,0,0,0-.77-.2,4.868,4.868,0,0,0-.895-.078A5.2,5.2,0,0,0,5.41-9.8a4.639,4.639,0,0,0-1.6,1.141A5.119,5.119,0,0,0,2.8-6.949a6.178,6.178,0,0,0-.355,2.121A4.834,4.834,0,0,0,2.7-3.184a3.3,3.3,0,0,0,.734,1.2,3.1,3.1,0,0,0,1.141.738,4.139,4.139,0,0,0,1.469.25,6.851,6.851,0,0,0,.938-.059,5.428,5.428,0,0,0,.781-.164,5.041,5.041,0,0,0,.676-.25q.316-.145.613-.309L8.75-.4A6.456,6.456,0,0,1,7.395.043,7.887,7.887,0,0,1,5.773.2,5.123,5.123,0,0,1,3.84-.156a4.177,4.177,0,0,1-1.484-1A4.474,4.474,0,0,1,1.406-2.7,5.762,5.762,0,0,1,1.07-4.719a7.548,7.548,0,0,1,.465-2.7,6.092,6.092,0,0,1,1.32-2.109A5.988,5.988,0,0,1,4.91-10.9a6.944,6.944,0,0,1,2.66-.492,6.6,6.6,0,0,1,1.77.215,6.945,6.945,0,0,1,1.3.488ZM17.3-2.562q-.062.3-.121.668t-.1.734q-.043.363-.07.676T16.978,0H15.65q.008-.156.023-.375t.043-.453q.027-.234.055-.461t.059-.391H15.8q-.242.383-.492.723a3.478,3.478,0,0,1-.555.6,2.429,2.429,0,0,1-.68.406A2.392,2.392,0,0,1,13.189.2a2.386,2.386,0,0,1-.957-.187,2.006,2.006,0,0,1-.746-.559,2.574,2.574,0,0,1-.48-.93,4.532,4.532,0,0,1-.168-1.3,6.518,6.518,0,0,1,.094-1.031,6.309,6.309,0,0,1,.316-1.18,6.006,6.006,0,0,1,.594-1.176A4.465,4.465,0,0,1,12.763-7.2a4.4,4.4,0,0,1,1.3-.727A5.051,5.051,0,0,1,15.8-8.2a9.22,9.22,0,0,1,1.289.094q.664.094,1.32.227Zm-.367-4.383q-.273-.062-.641-.109A5.447,5.447,0,0,0,15.6-7.1a3.119,3.119,0,0,0-1.2.215,3.077,3.077,0,0,0-.9.563,3.313,3.313,0,0,0-.645.8,4.965,4.965,0,0,0-.418.926,5.449,5.449,0,0,0-.223.934,5.91,5.91,0,0,0-.066.836,3.744,3.744,0,0,0,.078.8,1.748,1.748,0,0,0,.246.605,1.156,1.156,0,0,0,.43.387,1.325,1.325,0,0,0,.621.137,1.692,1.692,0,0,0,.73-.16,2.532,2.532,0,0,0,.637-.434,3.56,3.56,0,0,0,.539-.633,6.225,6.225,0,0,0,.438-.762,6.515,6.515,0,0,0,.332-.82q.137-.418.223-.809Zm7.634.352a3.33,3.33,0,0,0-.789-.367A2.845,2.845,0,0,0,22.9-7.1a1.726,1.726,0,0,0-1.137.336,1.1,1.1,0,0,0-.4.891,1.116,1.116,0,0,0,.074.414,1.25,1.25,0,0,0,.219.355,1.985,1.985,0,0,0,.367.324q.223.156.512.336A4.028,4.028,0,0,1,23.8-3.4,2.01,2.01,0,0,1,24.183-2.2a2.435,2.435,0,0,1-.168.887,2,2,0,0,1-.535.766,2.744,2.744,0,0,1-.949.535,4.331,4.331,0,0,1-1.418.2A4.7,4.7,0,0,1,20.6.164,5.462,5.462,0,0,1,20.031.07a4.942,4.942,0,0,1-.547-.152,2.407,2.407,0,0,1-.457-.207l.258-1.219a2.691,2.691,0,0,0,.387.219,4,4,0,0,0,.5.2,4.673,4.673,0,0,0,.563.141,3.166,3.166,0,0,0,.582.055,1.834,1.834,0,0,0,1.168-.312,1.053,1.053,0,0,0,.387-.867,1.155,1.155,0,0,0-.059-.375A1.052,1.052,0,0,0,22.6-2.8a2.3,2.3,0,0,0-.391-.348q-.242-.176-.609-.395a3.947,3.947,0,0,1-1.176-1.012,1.992,1.992,0,0,1-.379-1.191,2.432,2.432,0,0,1,.18-.926,2.24,2.24,0,0,1,.535-.781,2.6,2.6,0,0,1,.895-.543,3.559,3.559,0,0,1,1.258-.2,5.018,5.018,0,0,1,1.066.109,3.786,3.786,0,0,1,.855.281Zm8.611,1.555a6.659,6.659,0,0,1-.3,2.016,5.153,5.153,0,0,1-.867,1.668A4.19,4.19,0,0,1,30.634-.223,3.914,3.914,0,0,1,28.809.2a3.33,3.33,0,0,1-1.238-.219,2.576,2.576,0,0,1-.937-.629,2.786,2.786,0,0,1-.594-.992,3.912,3.912,0,0,1-.207-1.316,6.519,6.519,0,0,1,.316-2.059,5.2,5.2,0,0,1,.891-1.664,4.161,4.161,0,0,1,1.375-1.109,3.885,3.885,0,0,1,1.77-.4,3.308,3.308,0,0,1,1.23.219,2.614,2.614,0,0,1,.941.629,2.848,2.848,0,0,1,.605.992A3.783,3.783,0,0,1,33.177-5.039Zm-1.312.063a2.987,2.987,0,0,0-.125-.9,1.919,1.919,0,0,0-.352-.664,1.525,1.525,0,0,0-.547-.414,1.729,1.729,0,0,0-.719-.145,2.272,2.272,0,0,0-1.242.352,3.143,3.143,0,0,0-.937.926,4.591,4.591,0,0,0-.59,1.3,5.46,5.46,0,0,0-.207,1.5,2.988,2.988,0,0,0,.121.879,2,2,0,0,0,.344.672,1.484,1.484,0,0,0,.547.426,1.735,1.735,0,0,0,.73.148,2.3,2.3,0,0,0,1.25-.348,3.1,3.1,0,0,0,.938-.922,4.506,4.506,0,0,0,.586-1.309A5.6,5.6,0,0,0,31.864-4.977Zm5.22-2.336a.836.836,0,0,1-.07.34.9.9,0,0,1-.187.277.856.856,0,0,1-.273.184.85.85,0,0,1-.336.066.85.85,0,0,1-.336-.066.856.856,0,0,1-.273-.184.845.845,0,0,1-.184-.277.878.878,0,0,1-.066-.34.83.83,0,0,1,.066-.328.9.9,0,0,1,.184-.277.878.878,0,0,1,.273-.191.809.809,0,0,1,.336-.07.836.836,0,0,1,.34.07.866.866,0,0,1,.277.191.9.9,0,0,1,.184.277A.83.83,0,0,1,37.085-7.312ZM35.694-.687a.85.85,0,0,1-.066.336.856.856,0,0,1-.184.273.9.9,0,0,1-.277.188.836.836,0,0,1-.34.07.809.809,0,0,1-.336-.07.912.912,0,0,1-.273-.187.856.856,0,0,1-.184-.273.85.85,0,0,1-.066-.336.878.878,0,0,1,.066-.34.845.845,0,0,1,.184-.277.856.856,0,0,1,.273-.184.85.85,0,0,1,.336-.066.878.878,0,0,1,.34.066.845.845,0,0,1,.277.184.845.845,0,0,1,.184.277A.878.878,0,0,1,35.694-.687ZM54.136-5.2A6.076,6.076,0,0,1,54.011-4a6.206,6.206,0,0,1-.383,1.223,6.02,6.02,0,0,1-.645,1.141,4.625,4.625,0,0,1-.91.949,4.22,4.22,0,0,1-1.187.648A4.323,4.323,0,0,1,49.417.2a4.833,4.833,0,0,1-.91-.086,5.6,5.6,0,0,1-.785-.2l-.8,3.8h-1.3l1.953-9.25q.055-.25.1-.6t.082-.707q.035-.355.059-.668T47.847-8H49.16q0,.133-.02.359t-.051.473q-.031.246-.062.477t-.055.371H49a4.221,4.221,0,0,1,1.25-1.41A2.672,2.672,0,0,1,51.769-8.2a2.476,2.476,0,0,1,.984.188,1.949,1.949,0,0,1,.746.563,2.6,2.6,0,0,1,.473.938A4.675,4.675,0,0,1,54.136-5.2Zm-1.312.055a3.864,3.864,0,0,0-.074-.781,1.733,1.733,0,0,0-.246-.617,1.246,1.246,0,0,0-.441-.406A1.352,1.352,0,0,0,51.4-7.1a1.761,1.761,0,0,0-.762.168,2.623,2.623,0,0,0-.66.449,3.682,3.682,0,0,0-.555.652,6.484,6.484,0,0,0-.445.77,6.762,6.762,0,0,0-.332.8,6.037,6.037,0,0,0-.207.754l-.492,2.32a2.192,2.192,0,0,0,.336.113q.2.051.406.09t.43.063a3.83,3.83,0,0,0,.406.023,2.7,2.7,0,0,0,1-.18,2.891,2.891,0,0,0,.82-.488,3.446,3.446,0,0,0,.641-.727,4.822,4.822,0,0,0,.465-.891,5.242,5.242,0,0,0,.281-.977A5.4,5.4,0,0,0,52.824-5.148ZM58.871-.086a.885.885,0,0,0-.262-.681,1.026,1.026,0,0,0-.727-.244,2.288,2.288,0,0,0-.889.187,2.87,2.87,0,0,0-.834.542l.187-.838a2.421,2.421,0,0,1,.791-.41,3.389,3.389,0,0,1,.927-.114,1.684,1.684,0,0,1,1.162.385A1.318,1.318,0,0,1,59.66-.222a2.368,2.368,0,0,1-.189.977,2.6,2.6,0,0,1-.6.813,8.047,8.047,0,0,1-1.212.893q-.725.451-1.1.743A2.935,2.935,0,0,0,56,3.742a1.55,1.55,0,0,0-.26.588h3.226L58.821,5H54.788l.068-.324a3.151,3.151,0,0,1,.353-.948,3.249,3.249,0,0,1,.658-.77,11.233,11.233,0,0,1,1.308-.939,7.764,7.764,0,0,0,1-.729,2.361,2.361,0,0,0,.526-.633A1.568,1.568,0,0,0,58.871-.086ZM70.439-4.367v-.461l6.719-3.766v1.172L72.134-4.641v.031l5.023,2.453V-.992ZM92-5.2A6.075,6.075,0,0,1,91.879-4,6.207,6.207,0,0,1,91.5-2.781a6.02,6.02,0,0,1-.645,1.141,4.625,4.625,0,0,1-.91.949,4.22,4.22,0,0,1-1.187.648A4.323,4.323,0,0,1,87.285.2a4.833,4.833,0,0,1-.91-.086,5.6,5.6,0,0,1-.785-.2l-.8,3.8H83.5l1.953-9.25q.055-.25.1-.6t.082-.707q.035-.355.059-.668T85.715-8h1.313q0,.133-.02.359t-.051.473q-.031.246-.062.477t-.055.371h.031a4.221,4.221,0,0,1,1.25-1.41A2.672,2.672,0,0,1,89.637-8.2a2.476,2.476,0,0,1,.984.188,1.949,1.949,0,0,1,.746.563,2.6,2.6,0,0,1,.473.938A4.675,4.675,0,0,1,92-5.2Zm-1.312.055a3.864,3.864,0,0,0-.074-.781,1.733,1.733,0,0,0-.246-.617,1.246,1.246,0,0,0-.441-.406,1.352,1.352,0,0,0-.66-.148,1.76,1.76,0,0,0-.762.168,2.623,2.623,0,0,0-.66.449,3.682,3.682,0,0,0-.555.652,6.485,6.485,0,0,0-.445.77,6.762,6.762,0,0,0-.332.8,6.036,6.036,0,0,0-.207.754l-.492,2.32a2.192,2.192,0,0,0,.336.113q.2.051.406.09t.43.063a3.83,3.83,0,0,0,.406.023,2.7,2.7,0,0,0,1-.18,2.891,2.891,0,0,0,.82-.488,3.446,3.446,0,0,0,.641-.727,4.821,4.821,0,0,0,.465-.891A5.242,5.242,0,0,0,90.6-4.16,5.4,5.4,0,0,0,90.692-5.148ZM94.711,5,95.928-.692l-1.613.437.159-.72,2.4-.67L95.468,5Z" transform="translate(749 7170.436)" fill="#212429"/>
    <path id="Trazado_994786" data-name="Trazado 994786" d="M9.742-4.4a11.212,11.212,0,0,1-.59,1.949,4.645,4.645,0,0,1-.914,1.441,3.668,3.668,0,0,1-1.363.895A5.394,5.394,0,0,1,4.945.2,4.117,4.117,0,0,1,3.4-.078a3.248,3.248,0,0,1-1.141-.75,3.216,3.216,0,0,1-.7-1.125,3.988,3.988,0,0,1-.242-1.406,7.553,7.553,0,0,1,.043-.758q.043-.422.113-.8L2.828-11.2H4.18L2.828-4.992q-.031.18-.066.391T2.7-4.18q-.027.211-.043.4t-.016.328a2.872,2.872,0,0,0,.188,1.086,2.089,2.089,0,0,0,.52.766,2.172,2.172,0,0,0,.781.457A3.01,3.01,0,0,0,5.1-.992,3.508,3.508,0,0,0,6.289-1.18a2.465,2.465,0,0,0,.922-.586,3.487,3.487,0,0,0,.684-1.016,7.194,7.194,0,0,0,.473-1.477L9.859-11.2H11.2Zm7.634-6.8a18.768,18.768,0,0,0-1.746,1.969,13.3,13.3,0,0,0-1.324,2.1,11.049,11.049,0,0,0-.844,2.254,9.841,9.841,0,0,0-.3,2.434,9.866,9.866,0,0,0,.082,1.262,9.556,9.556,0,0,0,.246,1.25,10.148,10.148,0,0,0,.4,1.191,7.436,7.436,0,0,0,.539,1.078h-1.1a7.428,7.428,0,0,1-.574-1.1,9.192,9.192,0,0,1-.41-1.191A9.557,9.557,0,0,1,12.1-1.18a9.129,9.129,0,0,1-.082-1.2,10.858,10.858,0,0,1,.289-2.551,11.1,11.1,0,0,1,.82-2.285A12.112,12.112,0,0,1,14.42-9.293a18.134,18.134,0,0,1,1.707-1.91Zm2.884,7.3L22.1,0,20.691.016,19.683-2.492q-.047-.125-.129-.336L19.4-3.219h-.039q-.055.078-.129.176l-.145.191q-.07.094-.137.176t-.113.145L16.745,0H15.222l3.6-3.984L17.027-8h1.414L19.4-5.453q.07.188.141.406t.109.344h.031q.047-.055.109-.137l.133-.176q.07-.094.145-.187t.145-.172L22.386-8h1.461ZM25.273,5,26.49-.692l-1.613.437.159-.72,2.4-.67L26.029,5Zm3.334-2.937H27.6l1.57-3.836h1.281Zm7.455-5.969L37.905,0,36.491.016,35.484-2.492q-.047-.125-.129-.336L35.2-3.219h-.039q-.055.078-.129.176l-.145.191q-.07.094-.137.176t-.113.145L32.546,0H31.023l3.6-3.984L32.827-8h1.414L35.2-5.453q.07.188.141.406t.109.344h.031q.047-.055.109-.137l.133-.176q.07-.094.145-.187t.145-.172L38.187-8h1.461ZM43.1-.086a.885.885,0,0,0-.262-.681,1.026,1.026,0,0,0-.727-.244,2.288,2.288,0,0,0-.889.187,2.87,2.87,0,0,0-.834.542l.187-.838a2.421,2.421,0,0,1,.791-.41,3.389,3.389,0,0,1,.927-.114,1.684,1.684,0,0,1,1.162.385A1.318,1.318,0,0,1,43.89-.222,2.368,2.368,0,0,1,43.7.755a2.6,2.6,0,0,1-.6.813,8.047,8.047,0,0,1-1.212.893q-.725.451-1.1.743a2.935,2.935,0,0,0-.558.538,1.55,1.55,0,0,0-.26.588h3.226L43.051,5H39.018l.068-.324a3.151,3.151,0,0,1,.353-.948,3.249,3.249,0,0,1,.658-.77,11.233,11.233,0,0,1,1.308-.939,7.764,7.764,0,0,0,1-.729,2.361,2.361,0,0,0,.526-.633A1.568,1.568,0,0,0,43.1-.086Zm9.245-6.391a10.872,10.872,0,0,1-.289,2.547,10.858,10.858,0,0,1-.824,2.285,12.372,12.372,0,0,1-1.3,2.07,18.134,18.134,0,0,1-1.707,1.91H46.972A19.358,19.358,0,0,0,48.722.371a12.992,12.992,0,0,0,1.328-2.1,11.049,11.049,0,0,0,.844-2.254,9.841,9.841,0,0,0,.3-2.434,9.775,9.775,0,0,0-.082-1.258,10.184,10.184,0,0,0-.242-1.25,9.587,9.587,0,0,0-.395-1.2,7.809,7.809,0,0,0-.539-1.086h1.086a7.983,7.983,0,0,1,.578,1.109,9.014,9.014,0,0,1,.414,1.2,10.08,10.08,0,0,1,.25,1.223A8.637,8.637,0,0,1,52.347-6.477Zm2.931.672V-6.852h7.344V-5.8Zm0,3.328V-3.523h7.344v1.047Zm17.73-1.43L74.852,0,73.438.016,72.43-2.492q-.047-.125-.129-.336l-.152-.391h-.039q-.055.078-.129.176l-.145.191q-.07.094-.137.176t-.113.145L69.492,0H67.969l3.6-3.984L69.774-8h1.414l.961,2.547q.07.188.141.406T72.4-4.7h.031q.047-.055.109-.137l.133-.176q.07-.094.145-.187t.145-.172L75.133-8h1.461ZM78.02,5,79.236-.692l-1.613.437.159-.72,2.4-.67L78.776,5Zm9.131-9.141V-.992H86.127V-4.141H82.955V-5.187h3.172V-8.336h1.023v3.148H90.3v1.047Zm13.534.234L102.529,0l-1.414.016-1.008-2.508q-.047-.125-.129-.336l-.152-.391h-.039q-.055.078-.129.176l-.145.191q-.07.094-.137.176t-.113.145L97.17,0H95.646l3.6-3.984L97.451-8h1.414l.961,2.547q.07.188.141.406t.109.344h.031q.047-.055.109-.137l.133-.176q.07-.094.145-.187t.145-.172L102.81-8h1.461Zm7.04,3.821a.885.885,0,0,0-.262-.681,1.026,1.026,0,0,0-.727-.244,2.288,2.288,0,0,0-.889.187,2.87,2.87,0,0,0-.834.542l.187-.838a2.421,2.421,0,0,1,.791-.41,3.389,3.389,0,0,1,.927-.114,1.684,1.684,0,0,1,1.162.385,1.318,1.318,0,0,1,.433,1.037,2.368,2.368,0,0,1-.189.977,2.6,2.6,0,0,1-.6.813,8.046,8.046,0,0,1-1.212.893q-.725.451-1.1.743a2.935,2.935,0,0,0-.558.538,1.55,1.55,0,0,0-.26.588h3.226l-.141.67h-4.033l.068-.324a3.151,3.151,0,0,1,.353-.948,3.249,3.249,0,0,1,.658-.77,11.232,11.232,0,0,1,1.308-.939,7.763,7.763,0,0,0,1-.729,2.361,2.361,0,0,0,.526-.633A1.568,1.568,0,0,0,107.725-.086Z" transform="translate(781 7249.436)" fill="#e31a22"/>
    <path id="Trazado_994787" data-name="Trazado 994787" d="M7.916-3.574A9.11,9.11,0,0,1,7.436-1.99,3.774,3.774,0,0,1,6.694-.819a2.98,2.98,0,0,1-1.108.727A4.382,4.382,0,0,1,4.018.159,3.345,3.345,0,0,1,2.761-.063a2.639,2.639,0,0,1-.927-.609,2.613,2.613,0,0,1-.571-.914,3.24,3.24,0,0,1-.2-1.143A6.137,6.137,0,0,1,1.1-3.345q.035-.343.092-.647L2.3-9.1H3.4L2.3-4.056q-.025.146-.054.317T2.193-3.4q-.022.171-.035.324t-.013.267a2.333,2.333,0,0,0,.152.882A1.7,1.7,0,0,0,2.72-1.3a1.765,1.765,0,0,0,.635.371,2.446,2.446,0,0,0,.79.124A2.85,2.85,0,0,0,5.11-.958a2,2,0,0,0,.749-.476,2.833,2.833,0,0,0,.555-.825,5.845,5.845,0,0,0,.384-1.2L8.011-9.1H9.1Zm6.2-5.529A15.249,15.249,0,0,0,12.7-7.5,10.8,10.8,0,0,0,11.624-5.8a8.977,8.977,0,0,0-.686,1.831A8,8,0,0,0,10.7-1.987a8.016,8.016,0,0,0,.067,1.025,7.765,7.765,0,0,0,.2,1.016,8.245,8.245,0,0,0,.324.968,6.042,6.042,0,0,0,.438.876h-.9a6.035,6.035,0,0,1-.467-.892,7.468,7.468,0,0,1-.333-.968,7.765,7.765,0,0,1-.2-1,7.418,7.418,0,0,1-.067-.978A8.822,8.822,0,0,1,10-4.009a9.022,9.022,0,0,1,.667-1.857,9.841,9.841,0,0,1,1.051-1.685A14.734,14.734,0,0,1,13.1-9.1Zm2.344,5.929L17.96,0,16.811.013l-.819-2.038q-.038-.1-.1-.273l-.124-.317h-.032q-.044.063-.1.143l-.117.156q-.057.076-.111.143t-.092.117L13.606,0H12.368l2.926-3.237L13.834-6.5h1.149l.781,2.069q.057.152.114.33t.089.279h.025q.038-.044.089-.111l.108-.143q.057-.076.117-.152t.117-.14L18.189-6.5h1.187ZM20.534,4l.989-4.625-1.311.355.13-.585L22.289-1.4,21.149,4Zm2.709-2.324h-.819L23.7-1.441h1.041ZM29.3-3.174,30.8,0,29.649.013,28.83-2.025q-.038-.1-.1-.273L28.6-2.615H28.57q-.044.063-.1.143l-.117.156q-.057.076-.111.143t-.092.117L26.444,0H25.206l2.926-3.237L26.672-6.5h1.149L28.6-4.431q.057.152.114.33t.089.279h.025q.038-.044.089-.111l.108-.143q.057-.076.117-.152t.117-.14L31.027-6.5h1.187ZM35.02-.132a.719.719,0,0,0-.213-.554.833.833,0,0,0-.591-.2,1.859,1.859,0,0,0-.722.152,2.332,2.332,0,0,0-.678.441l.152-.681a1.967,1.967,0,0,1,.642-.333,2.754,2.754,0,0,1,.753-.093,1.369,1.369,0,0,1,.944.313,1.071,1.071,0,0,1,.352.842,1.924,1.924,0,0,1-.154.794,2.111,2.111,0,0,1-.491.661,6.538,6.538,0,0,1-.985.726q-.589.367-.894.6a2.385,2.385,0,0,0-.454.437,1.259,1.259,0,0,0-.211.478h2.621L34.979,4H31.7l.056-.263a2.56,2.56,0,0,1,.287-.77,2.64,2.64,0,0,1,.535-.626,9.126,9.126,0,0,1,1.063-.763,6.308,6.308,0,0,0,.816-.592,1.919,1.919,0,0,0,.428-.515A1.274,1.274,0,0,0,35.02-.132Zm7.512-5.13A8.834,8.834,0,0,1,42.3-3.193a8.822,8.822,0,0,1-.67,1.857A10.052,10.052,0,0,1,40.574.346,14.734,14.734,0,0,1,39.187,1.9H38.165A15.728,15.728,0,0,0,39.586.3a10.556,10.556,0,0,0,1.079-1.7,8.977,8.977,0,0,0,.686-1.831,8,8,0,0,0,.241-1.977,7.942,7.942,0,0,0-.067-1.022,8.275,8.275,0,0,0-.2-1.016,7.789,7.789,0,0,0-.321-.971A6.345,6.345,0,0,0,40.57-9.1h.882a6.486,6.486,0,0,1,.47.9,7.323,7.323,0,0,1,.336.971,8.19,8.19,0,0,1,.2.993A7.018,7.018,0,0,1,42.532-5.262Zm2.382.546v-.851H50.88v.851Zm0,2.7v-.851H50.88v.851ZM63.934-6.5q-.1.178-.241.438t-.324.568L63-4.859l-.371.635q-.181.308-.34.571t-.267.448q.038.635.1,1.073a4.225,4.225,0,0,0,.149.711.943.943,0,0,0,.216.394.427.427,0,0,0,.3.121,1.533,1.533,0,0,0,.181-.013.686.686,0,0,0,.181-.044L62.88.013a1.674,1.674,0,0,1-.209.054A1.451,1.451,0,0,1,62.4.089a.987.987,0,0,1-.47-.111.939.939,0,0,1-.359-.359,2.177,2.177,0,0,1-.238-.654,5.952,5.952,0,0,1-.114-1H61.2A5.132,5.132,0,0,1,59.893-.378a2.566,2.566,0,0,1-1.6.543A2.151,2.151,0,0,1,57.45.006a1.67,1.67,0,0,1-.638-.467,2.179,2.179,0,0,1-.4-.759,3.426,3.426,0,0,1-.143-1.035A4.96,4.96,0,0,1,56.4-3.409a5.029,5.029,0,0,1,.375-1.051,4.441,4.441,0,0,1,.578-.9,4.083,4.083,0,0,1,.74-.7,3.312,3.312,0,0,1,.86-.451,2.844,2.844,0,0,1,.939-.159,1.7,1.7,0,0,1,.793.171,1.627,1.627,0,0,1,.552.463,2.363,2.363,0,0,1,.352.673,4.239,4.239,0,0,1,.187.8h.013q.108-.19.241-.444l.273-.521q.14-.267.27-.524T62.8-6.5Zm-4.043.692a1.76,1.76,0,0,0-.971.3,2.961,2.961,0,0,0-.806.787A4.081,4.081,0,0,0,57.561-3.6a4.305,4.305,0,0,0-.2,1.32,2.426,2.426,0,0,0,.076.632,1.621,1.621,0,0,0,.213.486.972.972,0,0,0,.336.314.906.906,0,0,0,.448.111,1.883,1.883,0,0,0,1.184-.473,5.143,5.143,0,0,0,1.158-1.482l.1-.175q.057-.1.114-.206t.133-.241a8.691,8.691,0,0,0-.1-.933,3.721,3.721,0,0,0-.213-.8,1.543,1.543,0,0,0-.362-.555A.774.774,0,0,0,59.89-5.808Zm7.568,2.634L68.956,0,67.807.013l-.819-2.038q-.038-.1-.1-.273l-.124-.317h-.032q-.044.063-.1.143l-.117.156q-.057.076-.111.143t-.092.117L64.6,0H63.364L66.29-3.237,64.83-6.5h1.149l.781,2.069q.057.152.114.33t.089.279h.025q.038-.044.089-.111l.108-.143q.057-.076.117-.152t.117-.14L69.184-6.5h1.187ZM71.53,4l.989-4.625-1.311.355.13-.585L73.285-1.4,72.145,4Zm7.419-7.364V-.806h-.832V-3.364H75.54v-.851h2.577V-6.773h.832v2.558h2.558v.851ZM93.488-7.719a2.664,2.664,0,0,1-.165.974,2.182,2.182,0,0,1-.467.733,2.632,2.632,0,0,1-.72.521,4.273,4.273,0,0,1-.927.33v.025a2.573,2.573,0,0,1,.7.3,2.321,2.321,0,0,1,.562.492,2.258,2.258,0,0,1,.375.657,2.284,2.284,0,0,1,.136.8,3.311,3.311,0,0,1-.26,1.374,2.559,2.559,0,0,1-.7.939,2.916,2.916,0,0,1-1.028.54,4.278,4.278,0,0,1-1.231.175A3.433,3.433,0,0,1,89.178.1a4.179,4.179,0,0,1-.527-.124A3.633,3.633,0,0,1,88.2-.2a2.787,2.787,0,0,1-.352-.19L87.1,3.053H86.048l2.12-9.966A4.072,4.072,0,0,1,89.219-9.03a2.743,2.743,0,0,1,1.99-.72,2.822,2.822,0,0,1,.933.146,2.1,2.1,0,0,1,.717.413,1.848,1.848,0,0,1,.463.641A2.04,2.04,0,0,1,93.488-7.719Zm-1.117.076a1.2,1.2,0,0,0-.333-.9,1.225,1.225,0,0,0-.892-.324,1.641,1.641,0,0,0-1.231.482,3.2,3.2,0,0,0-.7,1.562L88.041-1.295a3.807,3.807,0,0,0,.349.209A3.147,3.147,0,0,0,88.8-.9a3.126,3.126,0,0,0,.46.127,2.585,2.585,0,0,0,.5.048A2.674,2.674,0,0,0,90.6-.857a1.782,1.782,0,0,0,.67-.39,1.82,1.82,0,0,0,.444-.67,2.6,2.6,0,0,0,.162-.965,1.8,1.8,0,0,0-.146-.752,1.56,1.56,0,0,0-.409-.546,2.065,2.065,0,0,0-.632-.362,3.459,3.459,0,0,0-.806-.187l.159-.793a5.116,5.116,0,0,0,1.022-.241,2.322,2.322,0,0,0,.73-.409,1.541,1.541,0,0,0,.435-.613A2.33,2.33,0,0,0,92.371-7.643Zm4.87,4.469L98.739,0,97.59.013l-.819-2.038q-.038-.1-.1-.273l-.124-.317H96.51q-.044.063-.1.143l-.117.156q-.057.076-.111.143t-.092.117L94.384,0H93.146l2.926-3.237L94.613-6.5h1.149l.781,2.069q.057.152.114.33t.089.279h.025q.038-.044.089-.111l.108-.143q.057-.076.117-.152t.117-.14L98.967-6.5h1.187Zm5.72,3.042a.719.719,0,0,0-.213-.554.833.833,0,0,0-.591-.2,1.859,1.859,0,0,0-.722.152,2.332,2.332,0,0,0-.678.441l.152-.681a1.967,1.967,0,0,1,.642-.333A2.754,2.754,0,0,1,102.3-1.4a1.369,1.369,0,0,1,.944.313,1.071,1.071,0,0,1,.352.842,1.924,1.924,0,0,1-.154.794,2.111,2.111,0,0,1-.491.661,6.538,6.538,0,0,1-.985.726q-.589.367-.894.6a2.385,2.385,0,0,0-.454.437,1.259,1.259,0,0,0-.211.478h2.621L102.92,4H99.643l.056-.263a2.56,2.56,0,0,1,.287-.77,2.64,2.64,0,0,1,.535-.626,9.127,9.127,0,0,1,1.063-.763A6.308,6.308,0,0,0,102.4.986a1.919,1.919,0,0,0,.428-.515A1.274,1.274,0,0,0,102.96-.132Z" transform="translate(640 7336.436)" fill="#0b0a0a"/>
    <g id="Grupo_1159124" data-name="Grupo 1159124" transform="translate(-305 601.692)">
      <text id="x2_" data-name="x2*" transform="translate(847.979 6620.129)" fill="#e31a22" font-size="16" font-family="SegoeUI-Italic, Segoe UI" font-style="italic" letter-spacing="0em"><tspan x="0" y="0">x</tspan><tspan y="0" font-size="9.333" baseline-shift="-5.33279994943018">2</tspan><tspan y="0">*</tspan></text>
      <text id="I_p2_" data-name="I
p2 " transform="translate(895.979 6604.129)" fill="#e31a22" font-size="16" font-family="SegoeUI-Italic, Segoe UI" font-style="italic" letter-spacing="0em"><tspan x="-2.129" y="0">I</tspan><tspan x="-9.052" y="27">p</tspan><tspan y="27" font-size="9.333" baseline-shift="-5.33279994943018">2</tspan><tspan y="27"> </tspan></text>
      <path id="Trazado_994264" data-name="Trazado 994264" d="M4414,6562.5h39.021" transform="translate(-3538.021 53.129)" fill="none" stroke="#e31a22" stroke-width="1"/>
    </g>
    <path id="Trazado_994265" data-name="Trazado 994265" d="M4131,6441.952c1.454,2.605,146.263,146.3,146.263,146.3" transform="translate(-3499 759.435)" fill="none" stroke="#6e7a97" stroke-width="1.5"/>
    <path id="Trazado_994267" data-name="Trazado 994267" d="M4131,6355.215l238.21,231.173" transform="translate(-3499 759.435)" fill="none" stroke="#d0555a" stroke-width="1.5"/>
    <path id="Trazado_994788" data-name="Trazado 994788" d="M7,0A7,7,0,1,1,0,7,7,7,0,0,1,7,0Z" transform="translate(626.247 7107.65)" fill="#0aa5e0"/>
    <path id="Trazado_994266" data-name="Trazado 994266" d="M4132.247,6355.179c1.826,1.861,204.707,232.291,204.707,232.291" transform="translate(-3499 759.435)" fill="#0aa5e0" stroke="#0aa5e0" stroke-width="1.5"/>
  </g>
</svg>
