<svg xmlns="http://www.w3.org/2000/svg" width="611" height="381" viewBox="0 0 611 381">
  <g id="Grupo_1159255" data-name="Grupo 1159255" transform="translate(-495 -4061)">
    <path id="Trazado_994754" data-name="Trazado 994754" d="M0,0H611V381H0Z" transform="translate(495 4061)" fill="#fff"/>
    <path id="Trazado_994255" data-name="Trazado 994255" d="M4089.389,4149.312v268.631h317.23" transform="translate(-3499 -33)" fill="none" stroke="#0b0a0a" stroke-width="1.5"/>
    <path id="Trazado_994256" data-name="Trazado 994256" d="M4142,4177.15v188.734h190.384" transform="translate(-3499 -33)" fill="none" stroke="#697693" stroke-width="1.5"/>
    <path id="Trazado_994257" data-name="Trazado 994257" d="M4184,4177.15v147.841h141.809" transform="translate(-3492.425 -33)" fill="none" stroke="#e31a22" stroke-width="1.5"/>
    <path id="Trazado_994755" data-name="Trazado 994755" d="M.585,0H-2.407l-1.93-3.648a3.2,3.2,0,0,1-.227-.75h-.031a5.677,5.677,0,0,1-.258.781L-6.79,0H-9.8l3.57-5.6-3.266-5.6h3.07l1.6,3.359a5.8,5.8,0,0,1,.336.945h.031q.094-.328.352-.977L-2.321-11.2H.491L-2.868-5.648ZM7.141-11.453V0H4.68V-8.672a2.947,2.947,0,0,1-.48.34,4.96,4.96,0,0,1-.59.289,5.267,5.267,0,0,1-.648.219A4.736,4.736,0,0,1,2.3-7.7V-9.773a10.266,10.266,0,0,0,1.813-.719,10.315,10.315,0,0,0,1.539-.961Z" transform="translate(913 4411)" fill="#212429"/>
    <path id="Trazado_994756" data-name="Trazado 994756" d="M9.742-4.4a11.212,11.212,0,0,1-.59,1.949,4.645,4.645,0,0,1-.914,1.441,3.668,3.668,0,0,1-1.363.895A5.394,5.394,0,0,1,4.945.2,4.117,4.117,0,0,1,3.4-.078a3.248,3.248,0,0,1-1.141-.75,3.216,3.216,0,0,1-.7-1.125,3.988,3.988,0,0,1-.242-1.406,7.553,7.553,0,0,1,.043-.758q.043-.422.113-.8L2.828-11.2H4.18L2.828-4.992q-.031.18-.066.391T2.7-4.18q-.027.211-.043.4t-.016.328a2.872,2.872,0,0,0,.188,1.086,2.089,2.089,0,0,0,.52.766,2.172,2.172,0,0,0,.781.457A3.01,3.01,0,0,0,5.1-.992,3.508,3.508,0,0,0,6.289-1.18a2.465,2.465,0,0,0,.922-.586,3.487,3.487,0,0,0,.684-1.016,7.194,7.194,0,0,0,.473-1.477L9.859-11.2H11.2Zm12.034-6.8a18.768,18.768,0,0,0-1.746,1.969,13.3,13.3,0,0,0-1.324,2.1,11.049,11.049,0,0,0-.844,2.254,9.841,9.841,0,0,0-.3,2.434,9.866,9.866,0,0,0,.082,1.262,9.556,9.556,0,0,0,.246,1.25,10.148,10.148,0,0,0,.4,1.191,7.436,7.436,0,0,0,.539,1.078h-1.1a7.428,7.428,0,0,1-.574-1.1,9.192,9.192,0,0,1-.41-1.191A9.557,9.557,0,0,1,16.5-1.18a9.129,9.129,0,0,1-.082-1.2,10.858,10.858,0,0,1,.289-2.551,11.1,11.1,0,0,1,.82-2.285A12.112,12.112,0,0,1,18.82-9.293a18.133,18.133,0,0,1,1.707-1.91Zm2.884,7.3L26.5,0,25.091.016,24.083-2.492q-.047-.125-.129-.336L23.8-3.219h-.039q-.055.078-.129.176l-.145.191q-.07.094-.137.176t-.113.145L21.145,0H19.622l3.6-3.984L21.427-8h1.414L23.8-5.453q.07.188.141.406t.109.344h.031q.047-.055.109-.137l.133-.176q.07-.094.145-.187t.145-.172L26.786-8h1.461ZM29.673,5,30.89-.692l-1.613.437.159-.72,2.4-.67L30.429,5Zm3.334-2.937H32l1.57-3.836h1.281Zm7.455-5.969L42.306,0,40.891.016,39.884-2.492q-.047-.125-.129-.336L39.6-3.219h-.039q-.055.078-.129.176l-.145.191q-.07.094-.137.176t-.113.145L36.946,0H35.423l3.6-3.984L37.227-8h1.414L39.6-5.453q.07.188.141.406t.109.344h.031q.047-.055.109-.137l.133-.176q.07-.094.145-.187t.145-.172L42.587-8h1.461ZM47.5-.086a.885.885,0,0,0-.262-.681,1.026,1.026,0,0,0-.727-.244,2.288,2.288,0,0,0-.889.187,2.87,2.87,0,0,0-.834.542l.187-.838a2.421,2.421,0,0,1,.791-.41,3.389,3.389,0,0,1,.927-.114,1.684,1.684,0,0,1,1.162.385A1.318,1.318,0,0,1,48.29-.222,2.368,2.368,0,0,1,48.1.755a2.6,2.6,0,0,1-.6.813,8.047,8.047,0,0,1-1.212.893q-.725.451-1.1.743a2.935,2.935,0,0,0-.558.538,1.55,1.55,0,0,0-.26.588h3.226L47.451,5H43.418l.068-.324a3.151,3.151,0,0,1,.353-.948,3.249,3.249,0,0,1,.658-.77,11.233,11.233,0,0,1,1.308-.939,7.764,7.764,0,0,0,1-.729,2.361,2.361,0,0,0,.526-.633A1.568,1.568,0,0,0,47.5-.086Zm9.245-6.391a10.872,10.872,0,0,1-.289,2.547,10.858,10.858,0,0,1-.824,2.285,12.372,12.372,0,0,1-1.3,2.07,18.134,18.134,0,0,1-1.707,1.91H51.372A19.358,19.358,0,0,0,53.122.371a12.992,12.992,0,0,0,1.328-2.1,11.049,11.049,0,0,0,.844-2.254,9.841,9.841,0,0,0,.3-2.434,9.775,9.775,0,0,0-.082-1.258,10.184,10.184,0,0,0-.242-1.25,9.587,9.587,0,0,0-.395-1.2,7.809,7.809,0,0,0-.539-1.086h1.086A7.983,7.983,0,0,1,56-10.094a9.014,9.014,0,0,1,.414,1.2,10.08,10.08,0,0,1,.25,1.223A8.637,8.637,0,0,1,56.747-6.477Zm7.331.672V-6.852h7.344V-5.8Zm0,3.328V-3.523h7.344v1.047ZM88.191,0h-1.3L88.48-7.516q.094-.445.242-1.012t.344-1.215h-.031q-.094.188-.234.418t-.293.445q-.152.215-.277.387t-.18.258L84.042-2.922H83.4l-1.75-5.3a1.939,1.939,0,0,0-.074-.27q-.059-.176-.113-.391t-.1-.441a2.272,2.272,0,0,1-.043-.422h-.031q-.047.336-.152.906T80.878-7.5L79.285,0H78.019l2.375-11.2h1.563L83.73-5.875a6.394,6.394,0,0,1,.184.656A3.756,3.756,0,0,1,84-4.687h.047q.125-.234.3-.547a5.787,5.787,0,0,1,.461-.672l4.023-5.3h1.734Zm5.588-.031a2.994,2.994,0,0,1-.441.1,3.111,3.111,0,0,1-.488.039,1.594,1.594,0,0,1-1.18-.395,1.439,1.439,0,0,1-.391-1.059,3.228,3.228,0,0,1,.039-.461q.039-.266.125-.656L92.606-8h1.3L92.731-2.43q-.07.328-.1.508a2.079,2.079,0,0,0-.027.3.644.644,0,0,0,.176.488.787.787,0,0,0,.559.168A2.366,2.366,0,0,0,93.7-.984a1.575,1.575,0,0,0,.285-.07Zm-.633-9.492h-.961l2.258-2.555H95.7ZM102.842-6a2.547,2.547,0,0,1-.027.32q-.027.2-.07.438t-.086.465q-.043.23-.082.395L101.647,0h-1.3l.977-4.687q.031-.125.063-.289t.055-.328q.023-.164.039-.3a2.01,2.01,0,0,0,.016-.215,1.424,1.424,0,0,0-.285-.937,1.038,1.038,0,0,0-.848-.344,1.972,1.972,0,0,0-1.023.3,4.211,4.211,0,0,0-.937.773,5.274,5.274,0,0,0-.738,1.031,3.952,3.952,0,0,0-.418,1.086L96.413,0h-1.3L96.35-5.711q.062-.3.125-.637t.117-.641q.055-.309.094-.574T96.749-8H98q-.039.3-.094.637t-.094.613q-.047.328-.1.641h.031a6.607,6.607,0,0,1,.605-.809,4.531,4.531,0,0,1,.719-.664,3.413,3.413,0,0,1,.82-.449,2.55,2.55,0,0,1,.91-.164,2.362,2.362,0,0,1,.914.16,1.712,1.712,0,0,1,.637.449,1.829,1.829,0,0,1,.375.7A3.108,3.108,0,0,1,102.842-6ZM113.6-10.227a1.442,1.442,0,0,0-1,.352,2.168,2.168,0,0,0-.574,1.188l-.484,2.211a3.844,3.844,0,0,1-.57,1.418,1.823,1.823,0,0,1-.961.723V-4.3a1.241,1.241,0,0,1,.5.48,1.74,1.74,0,0,1,.2.91q0,.172-.016.352a2.779,2.779,0,0,1-.062.383L110.2-.156q-.039.2-.066.383a2.241,2.241,0,0,0-.027.336.862.862,0,0,0,.246.684,1.225,1.225,0,0,0,.762.238l-.2.945a2.764,2.764,0,0,1-.887-.141,1.672,1.672,0,0,1-.609-.363,1.384,1.384,0,0,1-.348-.539A2.035,2.035,0,0,1,108.963.7a2.939,2.939,0,0,1,.02-.34q.02-.168.059-.348l.477-2.227a2.425,2.425,0,0,0,.055-.32q.016-.156.016-.3a1.2,1.2,0,0,0-.234-.781.987.987,0,0,0-.727-.328l.2-.891a1.507,1.507,0,0,0,1.027-.426,2.467,2.467,0,0,0,.559-1.223l.477-2.258a3.99,3.99,0,0,1,.438-1.215,2.488,2.488,0,0,1,.66-.75,2.311,2.311,0,0,1,.84-.387,4.517,4.517,0,0,1,.977-.117Zm3.7,6.32L119.144,0,117.73.016l-1.008-2.508q-.047-.125-.129-.336l-.152-.391H116.4q-.055.078-.129.176l-.145.191q-.07.094-.137.176t-.113.145L113.785,0h-1.523l3.6-3.984L114.066-8h1.414l.961,2.547q.07.188.141.406t.109.344h.031q.047-.055.109-.137l.133-.176q.07-.094.145-.187t.145-.172L119.425-8h1.461ZM122.312,5l1.217-5.692-1.613.437.159-.72,2.4-.67L123.069,5Zm3.334-2.937h-1.008l1.57-3.836h1.281ZM137.5-3.906,139.345,0l-1.414.016-1.008-2.508q-.047-.125-.129-.336l-.152-.391H136.6q-.055.078-.129.176l-.145.191q-.07.094-.137.176t-.113.145L133.985,0h-1.523l3.6-3.984L134.267-8h1.414l.961,2.547q.07.188.141.406t.109.344h.031q.047-.055.109-.137l.133-.176q.07-.094.145-.187t.145-.172L139.626-8h1.461Zm7.04,3.821a.885.885,0,0,0-.262-.681,1.026,1.026,0,0,0-.727-.244,2.288,2.288,0,0,0-.889.187,2.87,2.87,0,0,0-.834.542l.187-.838a2.421,2.421,0,0,1,.791-.41,3.389,3.389,0,0,1,.927-.114,1.684,1.684,0,0,1,1.162.385,1.318,1.318,0,0,1,.433,1.037,2.368,2.368,0,0,1-.189.977,2.6,2.6,0,0,1-.6.813,8.046,8.046,0,0,1-1.212.893q-.725.451-1.1.743a2.935,2.935,0,0,0-.558.538,1.55,1.55,0,0,0-.26.588h3.226l-.141.67h-4.033l.068-.324a3.15,3.15,0,0,1,.353-.948,3.249,3.249,0,0,1,.658-.77,11.232,11.232,0,0,1,1.308-.939,7.763,7.763,0,0,0,1-.729,2.361,2.361,0,0,0,.526-.633A1.568,1.568,0,0,0,144.541-.086Zm9.4-3.852a1.771,1.771,0,0,0-.574.117,1.3,1.3,0,0,0-.449.3,1.712,1.712,0,0,0-.332.5,3.48,3.48,0,0,0-.223.727L151.88-.047a4.118,4.118,0,0,1-.434,1.219,2.408,2.408,0,0,1-.652.75,2.308,2.308,0,0,1-.836.383,4.219,4.219,0,0,1-.977.109l.2-.961a1.5,1.5,0,0,0,1.008-.359,2.152,2.152,0,0,0,.578-1.187l.461-2.2a4.019,4.019,0,0,1,.578-1.426,1.808,1.808,0,0,1,.977-.73v-.031a1.291,1.291,0,0,1-.508-.48,1.7,1.7,0,0,1-.211-.918,3.34,3.34,0,0,1,.02-.344q.02-.187.059-.391l.43-2.016a3.044,3.044,0,0,0,.094-.7.914.914,0,0,0-.234-.691,1.127,1.127,0,0,0-.758-.238l.2-.945a2.872,2.872,0,0,1,.895.137,1.622,1.622,0,0,1,.605.355,1.367,1.367,0,0,1,.344.539,2.069,2.069,0,0,1,.109.688,2.976,2.976,0,0,1-.02.336,3.531,3.531,0,0,1-.059.352l-.469,2.219q-.039.18-.059.332a2.306,2.306,0,0,0-.02.293,1.2,1.2,0,0,0,.238.793.952.952,0,0,0,.723.309Z" transform="translate(843 4298)" fill="#e31a22"/>
    <path id="Trazado_994757" data-name="Trazado 994757" d="M9.742-4.4a11.212,11.212,0,0,1-.59,1.949,4.645,4.645,0,0,1-.914,1.441,3.668,3.668,0,0,1-1.363.895A5.394,5.394,0,0,1,4.945.2,4.117,4.117,0,0,1,3.4-.078a3.248,3.248,0,0,1-1.141-.75,3.216,3.216,0,0,1-.7-1.125,3.988,3.988,0,0,1-.242-1.406,7.553,7.553,0,0,1,.043-.758q.043-.422.113-.8L2.828-11.2H4.18L2.828-4.992q-.031.18-.066.391T2.7-4.18q-.027.211-.043.4t-.016.328a2.872,2.872,0,0,0,.188,1.086,2.089,2.089,0,0,0,.52.766,2.172,2.172,0,0,0,.781.457A3.01,3.01,0,0,0,5.1-.992,3.508,3.508,0,0,0,6.289-1.18a2.465,2.465,0,0,0,.922-.586,3.487,3.487,0,0,0,.684-1.016,7.194,7.194,0,0,0,.473-1.477L9.859-11.2H11.2Zm7.634-6.8a18.768,18.768,0,0,0-1.746,1.969,13.3,13.3,0,0,0-1.324,2.1,11.049,11.049,0,0,0-.844,2.254,9.841,9.841,0,0,0-.3,2.434,9.866,9.866,0,0,0,.082,1.262,9.556,9.556,0,0,0,.246,1.25,10.148,10.148,0,0,0,.4,1.191,7.436,7.436,0,0,0,.539,1.078h-1.1a7.428,7.428,0,0,1-.574-1.1,9.192,9.192,0,0,1-.41-1.191A9.557,9.557,0,0,1,12.1-1.18a9.129,9.129,0,0,1-.082-1.2,10.858,10.858,0,0,1,.289-2.551,11.1,11.1,0,0,1,.82-2.285A12.112,12.112,0,0,1,14.42-9.293a18.134,18.134,0,0,1,1.707-1.91Zm2.884,7.3L22.1,0,20.691.016,19.683-2.492q-.047-.125-.129-.336L19.4-3.219h-.039q-.055.078-.129.176l-.145.191q-.07.094-.137.176t-.113.145L16.745,0H15.222l3.6-3.984L17.027-8h1.414L19.4-5.453q.07.188.141.406t.109.344h.031q.047-.055.109-.137l.133-.176q.07-.094.145-.187t.145-.172L22.386-8h1.461ZM25.273,5,26.49-.692l-1.613.437.159-.72,2.4-.67L26.029,5Zm3.334-2.937H27.6l1.57-3.836h1.281Zm7.455-5.969L37.905,0,36.491.016,35.484-2.492q-.047-.125-.129-.336L35.2-3.219h-.039q-.055.078-.129.176l-.145.191q-.07.094-.137.176t-.113.145L32.546,0H31.023l3.6-3.984L32.827-8h1.414L35.2-5.453q.07.188.141.406t.109.344h.031q.047-.055.109-.137l.133-.176q.07-.094.145-.187t.145-.172L38.187-8h1.461ZM43.1-.086a.885.885,0,0,0-.262-.681,1.026,1.026,0,0,0-.727-.244,2.288,2.288,0,0,0-.889.187,2.87,2.87,0,0,0-.834.542l.187-.838a2.421,2.421,0,0,1,.791-.41,3.389,3.389,0,0,1,.927-.114,1.684,1.684,0,0,1,1.162.385A1.318,1.318,0,0,1,43.89-.222,2.368,2.368,0,0,1,43.7.755a2.6,2.6,0,0,1-.6.813,8.047,8.047,0,0,1-1.212.893q-.725.451-1.1.743a2.935,2.935,0,0,0-.558.538,1.55,1.55,0,0,0-.26.588h3.226L43.051,5H39.018l.068-.324a3.151,3.151,0,0,1,.353-.948,3.249,3.249,0,0,1,.658-.77,11.233,11.233,0,0,1,1.308-.939,7.764,7.764,0,0,0,1-.729,2.361,2.361,0,0,0,.526-.633A1.568,1.568,0,0,0,43.1-.086Zm9.245-6.391a10.872,10.872,0,0,1-.289,2.547,10.858,10.858,0,0,1-.824,2.285,12.372,12.372,0,0,1-1.3,2.07,18.134,18.134,0,0,1-1.707,1.91H46.972A19.358,19.358,0,0,0,48.722.371a12.992,12.992,0,0,0,1.328-2.1,11.049,11.049,0,0,0,.844-2.254,9.841,9.841,0,0,0,.3-2.434,9.775,9.775,0,0,0-.082-1.258,10.184,10.184,0,0,0-.242-1.25,9.587,9.587,0,0,0-.395-1.2,7.809,7.809,0,0,0-.539-1.086h1.086a7.983,7.983,0,0,1,.578,1.109,9.014,9.014,0,0,1,.414,1.2,10.08,10.08,0,0,1,.25,1.223A8.637,8.637,0,0,1,52.347-6.477Zm7.331.672V-6.852h7.344V-5.8Zm0,3.328V-3.523h7.344v1.047ZM83.791,0h-1.3L84.08-7.516q.094-.445.242-1.012t.344-1.215h-.031q-.094.188-.234.418t-.293.445q-.152.215-.277.387t-.18.258L79.642-2.922H79l-1.75-5.3a1.939,1.939,0,0,0-.074-.27q-.059-.176-.113-.391t-.1-.441a2.272,2.272,0,0,1-.043-.422h-.031q-.047.336-.152.906T76.478-7.5L74.884,0H73.619l2.375-11.2h1.563L79.33-5.875a6.394,6.394,0,0,1,.184.656,3.756,3.756,0,0,1,.082.531h.047q.125-.234.3-.547a5.787,5.787,0,0,1,.461-.672l4.023-5.3h1.734Zm5.588-.031a2.994,2.994,0,0,1-.441.1,3.111,3.111,0,0,1-.488.039,1.594,1.594,0,0,1-1.18-.395,1.439,1.439,0,0,1-.391-1.059,3.228,3.228,0,0,1,.039-.461q.039-.266.125-.656L88.206-8h1.3L88.331-2.43q-.07.328-.1.508a2.079,2.079,0,0,0-.027.3.644.644,0,0,0,.176.488.787.787,0,0,0,.559.168A2.366,2.366,0,0,0,89.3-.984a1.575,1.575,0,0,0,.285-.07Zm-.633-9.492h-.961l2.258-2.555H91.3ZM98.442-6a2.547,2.547,0,0,1-.027.32q-.027.2-.07.438t-.086.465q-.043.23-.082.395L97.247,0h-1.3l.977-4.687q.031-.125.063-.289t.055-.328q.023-.164.039-.3A2.01,2.01,0,0,0,97.1-5.82a1.424,1.424,0,0,0-.285-.937,1.038,1.038,0,0,0-.848-.344,1.972,1.972,0,0,0-1.023.3A4.211,4.211,0,0,0,94-6.023a5.274,5.274,0,0,0-.738,1.031,3.952,3.952,0,0,0-.418,1.086L92.013,0h-1.3L91.95-5.711q.062-.3.125-.637t.117-.641q.055-.309.094-.574T92.349-8H93.6q-.039.3-.094.637t-.094.613q-.047.328-.1.641h.031a6.607,6.607,0,0,1,.605-.809,4.531,4.531,0,0,1,.719-.664,3.413,3.413,0,0,1,.82-.449A2.55,2.55,0,0,1,96.4-8.2a2.362,2.362,0,0,1,.914.16,1.712,1.712,0,0,1,.637.449,1.829,1.829,0,0,1,.375.7A3.108,3.108,0,0,1,98.442-6ZM109.2-10.227a1.442,1.442,0,0,0-1,.352,2.168,2.168,0,0,0-.574,1.188l-.484,2.211a3.844,3.844,0,0,1-.57,1.418,1.823,1.823,0,0,1-.961.723V-4.3a1.241,1.241,0,0,1,.5.48,1.74,1.74,0,0,1,.2.91q0,.172-.016.352a2.779,2.779,0,0,1-.062.383L105.8-.156q-.039.2-.066.383a2.241,2.241,0,0,0-.027.336.862.862,0,0,0,.246.684,1.225,1.225,0,0,0,.762.238l-.2.945a2.764,2.764,0,0,1-.887-.141,1.672,1.672,0,0,1-.609-.363,1.384,1.384,0,0,1-.348-.539A2.035,2.035,0,0,1,104.563.7a2.939,2.939,0,0,1,.02-.34q.02-.168.059-.348l.477-2.227a2.425,2.425,0,0,0,.055-.32q.016-.156.016-.3a1.2,1.2,0,0,0-.234-.781.987.987,0,0,0-.727-.328l.2-.891a1.507,1.507,0,0,0,1.027-.426,2.467,2.467,0,0,0,.559-1.223l.477-2.258a3.99,3.99,0,0,1,.438-1.215,2.488,2.488,0,0,1,.66-.75,2.311,2.311,0,0,1,.84-.387,4.517,4.517,0,0,1,.977-.117ZM118.58-8q-.117.219-.3.539t-.4.7q-.219.379-.453.781t-.457.781q-.223.379-.418.7t-.328.551q.047.781.121,1.32a5.2,5.2,0,0,0,.184.875,1.16,1.16,0,0,0,.266.484.525.525,0,0,0,.375.148,1.887,1.887,0,0,0,.223-.016.845.845,0,0,0,.223-.055l-.336,1.2a2.06,2.06,0,0,1-.258.066,1.786,1.786,0,0,1-.336.027,1.215,1.215,0,0,1-.578-.137,1.156,1.156,0,0,1-.441-.441,2.679,2.679,0,0,1-.293-.8,7.326,7.326,0,0,1-.141-1.227h-.016a6.316,6.316,0,0,1-1.613,2.035A3.158,3.158,0,0,1,111.635.2a2.647,2.647,0,0,1-1.035-.2,2.055,2.055,0,0,1-.785-.574,2.682,2.682,0,0,1-.5-.934,4.216,4.216,0,0,1-.176-1.273,6.1,6.1,0,0,1,.164-1.422,6.19,6.19,0,0,1,.461-1.293,5.466,5.466,0,0,1,.711-1.1,5.026,5.026,0,0,1,.91-.855A4.076,4.076,0,0,1,112.447-8a3.5,3.5,0,0,1,1.156-.2,2.1,2.1,0,0,1,.977.211,2,2,0,0,1,.68.57,2.909,2.909,0,0,1,.434.828,5.217,5.217,0,0,1,.23.984h.016q.133-.234.3-.547l.336-.641q.172-.328.332-.645T117.182-8Zm-4.977.852a2.166,2.166,0,0,0-1.2.363,3.644,3.644,0,0,0-.992.969,5.022,5.022,0,0,0-.68,1.387,5.3,5.3,0,0,0-.25,1.625,2.986,2.986,0,0,0,.094.777,2,2,0,0,0,.262.6,1.2,1.2,0,0,0,.414.387,1.115,1.115,0,0,0,.551.137,2.318,2.318,0,0,0,1.457-.582,6.33,6.33,0,0,0,1.426-1.824l.117-.215q.07-.129.141-.254.086-.141.164-.3a10.7,10.7,0,0,0-.121-1.148,4.579,4.579,0,0,0-.262-.98,1.9,1.9,0,0,0-.445-.684A.953.953,0,0,0,113.6-7.148Zm9.314,3.242L124.761,0l-1.414.016-1.008-2.508q-.047-.125-.129-.336l-.152-.391h-.039q-.055.078-.129.176l-.145.191q-.07.094-.137.176t-.113.145L119.4,0h-1.523l3.6-3.984L119.683-8H121.1l.961,2.547q.07.188.141.406t.109.344h.031q.047-.055.109-.137l.133-.176q.07-.094.145-.187t.145-.172L125.043-8H126.5ZM127.929,5l1.217-5.692-1.613.437.159-.72,2.4-.67L128.686,5Zm3.334-2.937h-1.008l1.57-3.836h1.281ZM143.078-9.5a3.278,3.278,0,0,1-.2,1.2,2.686,2.686,0,0,1-.574.9,3.239,3.239,0,0,1-.887.641,5.259,5.259,0,0,1-1.141.406v.031a3.167,3.167,0,0,1,.859.375,2.856,2.856,0,0,1,.691.605,2.779,2.779,0,0,1,.461.809,2.811,2.811,0,0,1,.168.984,4.075,4.075,0,0,1-.32,1.691A3.149,3.149,0,0,1,141.265-.7,3.589,3.589,0,0,1,140-.035a5.265,5.265,0,0,1-1.516.215,4.225,4.225,0,0,1-.711-.059,5.143,5.143,0,0,1-.648-.152,4.471,4.471,0,0,1-.559-.211,3.432,3.432,0,0,1-.434-.234l-.914,4.234h-1.3l2.609-12.266a5.012,5.012,0,0,1,1.293-2.605A3.376,3.376,0,0,1,140.273-12a3.473,3.473,0,0,1,1.148.18,2.582,2.582,0,0,1,.883.508,2.275,2.275,0,0,1,.57.789A2.511,2.511,0,0,1,143.078-9.5Zm-1.375.094a1.475,1.475,0,0,0-.41-1.109,1.508,1.508,0,0,0-1.1-.4,2.02,2.02,0,0,0-1.516.594,3.937,3.937,0,0,0-.867,1.922l-1.437,6.8a4.684,4.684,0,0,0,.43.258,3.873,3.873,0,0,0,.5.223,3.847,3.847,0,0,0,.566.156,3.181,3.181,0,0,0,.617.059,3.292,3.292,0,0,0,1.031-.156,2.193,2.193,0,0,0,.824-.48,2.24,2.24,0,0,0,.547-.824,3.2,3.2,0,0,0,.2-1.187,2.216,2.216,0,0,0-.18-.926,1.92,1.92,0,0,0-.5-.672,2.541,2.541,0,0,0-.777-.445,4.258,4.258,0,0,0-.992-.23l.2-.977a6.3,6.3,0,0,0,1.258-.3,2.858,2.858,0,0,0,.9-.5,1.9,1.9,0,0,0,.535-.754A2.867,2.867,0,0,0,141.7-9.406Zm5.994,5.5L149.54,0l-1.414.016-1.008-2.508q-.047-.125-.129-.336l-.152-.391H146.8q-.055.078-.129.176l-.145.191q-.07.094-.137.176t-.113.145L144.181,0h-1.523l3.6-3.984L144.462-8h1.414l.961,2.547q.07.188.141.406t.109.344h.031q.047-.055.109-.137l.133-.176q.07-.094.145-.187t.145-.172L149.821-8h1.461Zm7.04,3.821a.885.885,0,0,0-.262-.681,1.026,1.026,0,0,0-.727-.244,2.288,2.288,0,0,0-.889.187,2.87,2.87,0,0,0-.834.542l.187-.838A2.421,2.421,0,0,1,153-1.53a3.389,3.389,0,0,1,.927-.114,1.684,1.684,0,0,1,1.162.385,1.318,1.318,0,0,1,.433,1.037,2.368,2.368,0,0,1-.189.977,2.6,2.6,0,0,1-.6.813,8.046,8.046,0,0,1-1.212.893q-.725.451-1.1.743a2.935,2.935,0,0,0-.558.538,1.55,1.55,0,0,0-.26.588h3.226l-.141.67h-4.033l.068-.324a3.15,3.15,0,0,1,.353-.948,3.249,3.249,0,0,1,.658-.77,11.232,11.232,0,0,1,1.308-.939,7.763,7.763,0,0,0,1-.729,2.361,2.361,0,0,0,.526-.633A1.568,1.568,0,0,0,154.736-.086Zm9.4-3.852a1.771,1.771,0,0,0-.574.117,1.3,1.3,0,0,0-.449.3,1.712,1.712,0,0,0-.332.5,3.48,3.48,0,0,0-.223.727l-.484,2.242a4.118,4.118,0,0,1-.434,1.219,2.408,2.408,0,0,1-.652.75,2.308,2.308,0,0,1-.836.383,4.219,4.219,0,0,1-.977.109l.2-.961a1.5,1.5,0,0,0,1.008-.359,2.152,2.152,0,0,0,.578-1.187l.461-2.2A4.019,4.019,0,0,1,162-3.715a1.808,1.808,0,0,1,.977-.73v-.031a1.291,1.291,0,0,1-.508-.48,1.7,1.7,0,0,1-.211-.918,3.34,3.34,0,0,1,.02-.344q.02-.187.059-.391l.43-2.016a3.044,3.044,0,0,0,.094-.7.914.914,0,0,0-.234-.691,1.127,1.127,0,0,0-.758-.238l.2-.945a2.872,2.872,0,0,1,.895.137,1.622,1.622,0,0,1,.605.355,1.367,1.367,0,0,1,.344.539,2.069,2.069,0,0,1,.109.688,2.976,2.976,0,0,1-.02.336,3.531,3.531,0,0,1-.059.352l-.469,2.219q-.039.18-.059.332a2.306,2.306,0,0,0-.02.293,1.2,1.2,0,0,0,.238.793.952.952,0,0,0,.723.309Z" transform="translate(843 4340)" fill="#212429"/>
    <path id="Trazado_994758" data-name="Trazado 994758" d="M8.063-5.2A6.076,6.076,0,0,1,7.938-4a6.206,6.206,0,0,1-.383,1.223A6.02,6.02,0,0,1,6.91-1.641,4.625,4.625,0,0,1,6-.691a4.22,4.22,0,0,1-1.187.648A4.323,4.323,0,0,1,3.344.2a4.833,4.833,0,0,1-.91-.086,5.6,5.6,0,0,1-.785-.2l-.8,3.8h-1.3l1.953-9.25q.055-.25.1-.6t.082-.707q.035-.355.059-.668T1.773-8H3.086q0,.133-.02.359t-.051.473q-.031.246-.062.477T2.9-6.32H2.93A4.221,4.221,0,0,1,4.18-7.73,2.672,2.672,0,0,1,5.7-8.2a2.476,2.476,0,0,1,.984.188,1.949,1.949,0,0,1,.746.563,2.6,2.6,0,0,1,.473.938A4.675,4.675,0,0,1,8.063-5.2ZM6.75-5.148a3.864,3.864,0,0,0-.074-.781,1.733,1.733,0,0,0-.246-.617,1.246,1.246,0,0,0-.441-.406,1.352,1.352,0,0,0-.66-.148,1.76,1.76,0,0,0-.762.168,2.623,2.623,0,0,0-.66.449,3.682,3.682,0,0,0-.555.652,6.484,6.484,0,0,0-.445.77,6.762,6.762,0,0,0-.332.8,6.037,6.037,0,0,0-.207.754l-.492,2.32a2.192,2.192,0,0,0,.336.113q.2.051.406.09t.43.063A3.83,3.83,0,0,0,3.453-.9a2.7,2.7,0,0,0,1-.18,2.891,2.891,0,0,0,.82-.488,3.446,3.446,0,0,0,.641-.727,4.821,4.821,0,0,0,.465-.891,5.242,5.242,0,0,0,.281-.977A5.4,5.4,0,0,0,6.75-5.148ZM10.77,5,11.986-.692l-1.613.437.159-.72,2.4-.67L11.526,5ZM14.1,2.063H13.1l1.57-3.836h1.281Zm7.455-5.969L23.4,0,21.988.016,20.98-2.492q-.047-.125-.129-.336L20.7-3.219H20.66q-.055.078-.129.176l-.145.191q-.07.094-.137.176t-.113.145L18.043,0H16.519l3.6-3.984L18.324-8h1.414L20.7-5.453q.07.188.141.406t.109.344h.031q.047-.055.109-.137l.133-.176q.07-.094.145-.187t.145-.172L23.684-8h1.461ZM26.57,5,27.787-.692l-1.613.437.159-.72,2.4-.67L27.327,5Zm11.7-9.141V-.992H37.245V-4.141H34.073V-5.187h3.172V-8.336h1.023v3.148h3.148v1.047ZM55.5-5.2A6.076,6.076,0,0,1,55.373-4a6.206,6.206,0,0,1-.383,1.223,6.02,6.02,0,0,1-.645,1.141,4.625,4.625,0,0,1-.91.949,4.22,4.22,0,0,1-1.187.648A4.323,4.323,0,0,1,50.779.2a4.833,4.833,0,0,1-.91-.086,5.6,5.6,0,0,1-.785-.2l-.8,3.8h-1.3l1.953-9.25q.055-.25.1-.6t.082-.707q.035-.355.059-.668T49.209-8h1.313q0,.133-.02.359t-.051.473q-.031.246-.062.477t-.055.371h.031a4.221,4.221,0,0,1,1.25-1.41A2.672,2.672,0,0,1,53.131-8.2a2.476,2.476,0,0,1,.984.188,1.949,1.949,0,0,1,.746.563,2.6,2.6,0,0,1,.473.938A4.675,4.675,0,0,1,55.5-5.2Zm-1.312.055a3.864,3.864,0,0,0-.074-.781,1.733,1.733,0,0,0-.246-.617,1.246,1.246,0,0,0-.441-.406,1.352,1.352,0,0,0-.66-.148A1.761,1.761,0,0,0,52-6.934a2.623,2.623,0,0,0-.66.449,3.682,3.682,0,0,0-.555.652,6.484,6.484,0,0,0-.445.77,6.762,6.762,0,0,0-.332.8,6.037,6.037,0,0,0-.207.754l-.492,2.32a2.192,2.192,0,0,0,.336.113q.2.051.406.09t.43.063a3.83,3.83,0,0,0,.406.023,2.7,2.7,0,0,0,1-.18,2.891,2.891,0,0,0,.82-.488,3.446,3.446,0,0,0,.641-.727,4.822,4.822,0,0,0,.465-.891,5.242,5.242,0,0,0,.281-.977A5.4,5.4,0,0,0,54.185-5.148ZM60.233-.086a.885.885,0,0,0-.262-.681,1.026,1.026,0,0,0-.727-.244,2.288,2.288,0,0,0-.889.187,2.87,2.87,0,0,0-.834.542l.187-.838a2.421,2.421,0,0,1,.791-.41,3.389,3.389,0,0,1,.927-.114,1.684,1.684,0,0,1,1.162.385,1.318,1.318,0,0,1,.433,1.037,2.368,2.368,0,0,1-.189.977,2.6,2.6,0,0,1-.6.813,8.047,8.047,0,0,1-1.212.893q-.725.451-1.1.743a2.935,2.935,0,0,0-.558.538,1.55,1.55,0,0,0-.26.588h3.226L60.183,5H56.15l.068-.324a3.151,3.151,0,0,1,.353-.948,3.249,3.249,0,0,1,.658-.77,11.233,11.233,0,0,1,1.308-.939,7.764,7.764,0,0,0,1-.729,2.361,2.361,0,0,0,.526-.633A1.568,1.568,0,0,0,60.233-.086Zm1.306,2.148H60.531L62.1-1.773h1.281Zm7.455-5.969L70.837,0,69.423.016,68.416-2.492q-.047-.125-.129-.336l-.152-.391H68.1q-.055.078-.129.176l-.145.191q-.07.094-.137.176t-.113.145L65.478,0H63.955l3.6-3.984L65.759-8h1.414l.961,2.547q.07.188.141.406t.109.344h.031q.047-.055.109-.137l.133-.176q.07-.094.145-.187t.145-.172L71.119-8H72.58Zm7.04,3.821a.885.885,0,0,0-.262-.681,1.026,1.026,0,0,0-.727-.244,2.288,2.288,0,0,0-.889.187,2.87,2.87,0,0,0-.834.542l.187-.838a2.421,2.421,0,0,1,.791-.41,3.389,3.389,0,0,1,.927-.114,1.684,1.684,0,0,1,1.162.385,1.318,1.318,0,0,1,.433,1.037,2.368,2.368,0,0,1-.189.977,2.6,2.6,0,0,1-.6.813,8.047,8.047,0,0,1-1.212.893q-.725.451-1.1.743a2.935,2.935,0,0,0-.558.538,1.55,1.55,0,0,0-.26.588h3.226L75.983,5H71.95l.068-.324a3.151,3.151,0,0,1,.353-.948,3.249,3.249,0,0,1,.658-.77,11.232,11.232,0,0,1,1.308-.939,7.763,7.763,0,0,0,1-.729,2.361,2.361,0,0,0,.526-.633A1.568,1.568,0,0,0,76.034-.086ZM78.941-5.8V-6.852h7.344V-5.8Zm0,3.328V-3.523h7.344v1.047ZM89.826,0H88.482l2.367-11.2h1.359Z" transform="translate(772 4368)" fill="#0a8dbf"/>
    <path id="Trazado_994759" data-name="Trazado 994759" d="M.585,0H-2.407l-1.93-3.648a3.2,3.2,0,0,1-.227-.75h-.031a5.677,5.677,0,0,1-.258.781L-6.79,0H-9.8l3.57-5.6-3.266-5.6h3.07l1.6,3.359a5.8,5.8,0,0,1,.336.945h.031q.094-.328.352-.977L-2.321-11.2H.491L-2.868-5.648ZM3.993-2.047h4.75V0H1.29V-.844a3.927,3.927,0,0,1,.289-1.543,5.12,5.12,0,0,1,.727-1.227,6.3,6.3,0,0,1,.957-.961q.52-.418.988-.754Q4.743-5.68,5.114-6a4.919,4.919,0,0,0,.625-.637,2.421,2.421,0,0,0,.379-.641,1.905,1.905,0,0,0,.125-.691,1.39,1.39,0,0,0-.406-1.086,1.806,1.806,0,0,0-1.242-.367A4.172,4.172,0,0,0,1.829-8.273v-2.172a5.937,5.937,0,0,1,3.3-.945,4.869,4.869,0,0,1,1.527.223,3.231,3.231,0,0,1,1.145.637,2.716,2.716,0,0,1,.715,1,3.388,3.388,0,0,1,.246,1.316A3.712,3.712,0,0,1,8.52-6.836a4.225,4.225,0,0,1-.633,1.094,5.74,5.74,0,0,1-.91.9q-.516.41-1.07.793-.375.266-.723.527A6.851,6.851,0,0,0,4.571-3a2.8,2.8,0,0,0-.422.5A.856.856,0,0,0,3.993-2.047Z" transform="translate(566 4132)" fill="#212429"/>
    <path id="Trazado_994760" data-name="Trazado 994760" d="M8,0l8,10H0Z" transform="translate(582 4116)" fill="#0b0a0a"/>
    <path id="Trazado_994761" data-name="Trazado 994761" d="M10,0,20,13H0Z" transform="translate(920.619 4374.943) rotate(90)" fill="#0b0a0a"/>
    <path id="Trazado_994258" data-name="Trazado 994258" d="M4089,4208.434,4271.2,4417.8" transform="translate(-3499 -33)" fill="none" stroke="#0aa5e0" stroke-width="1"/>
    <path id="Trazado_994762" data-name="Trazado 994762" d="M5,0A5,5,0,1,1,0,5,5,5,0,0,1,5,0Z" transform="translate(687 4287)" fill="#0a8dbf"/>
  </g>
</svg>
