<svg xmlns="http://www.w3.org/2000/svg" xmlns:xlink="http://www.w3.org/1999/xlink" width="108" height="108" viewBox="0 0 108 108">
  <defs>
    <filter id="Trazado_982547" x="0" y="0" width="108" height="108" filterUnits="userSpaceOnUse">
      <feOffset dy="3" input="SourceAlpha"/>
      <feGaussianBlur stdDeviation="3" result="blur"/>
      <feFlood flood-opacity="0.161"/>
      <feComposite operator="in" in2="blur"/>
      <feComposite in="SourceGraphic"/>
    </filter>
  </defs>
  <g id="Grupo_1159104" data-name="Grupo 1159104" transform="translate(9 6)">
    <g id="Grupo_1154033" data-name="Grupo 1154033">
      <g id="Grupo_1153177" data-name="Grupo 1153177">
        <g id="Grupo_1149598" data-name="Grupo 1149598">
          <g id="Grupo_1148770" data-name="Grupo 1148770">
            <g id="Grupo_1146954" data-name="Grupo 1146954">
              <g transform="matrix(1, 0, 0, 1, -9, -6)" filter="url(#Trazado_982547)">
                <g id="Trazado_982547-2" data-name="Trazado 982547" transform="translate(9 6)" fill="#f5fdfa">
                  <path d="M 45 88.5 C 39.12687683105469 88.5 33.43022537231445 87.35007476806641 28.06830024719238 85.08217620849609 C 22.88852500915527 82.89131164550781 18.23629951477051 79.75458526611328 14.2408504486084 75.75914764404297 C 10.24541282653809 71.76370239257812 7.108687400817871 67.11147308349609 4.917825222015381 61.93170166015625 C 2.649924993515015 56.56977462768555 1.5 50.87312316894531 1.5 45 C 1.5 39.12687683105469 2.649924993515015 33.43022537231445 4.917825222015381 28.06830024719238 C 7.108687400817871 22.88852500915527 10.24541282653809 18.23629951477051 14.2408504486084 14.2408504486084 C 18.23629951477051 10.24541282653809 22.88852500915527 7.108687400817871 28.06830024719238 4.917825222015381 C 33.43022537231445 2.649924993515015 39.12687683105469 1.5 45 1.5 C 50.87312316894531 1.5 56.56977462768555 2.649924993515015 61.93170166015625 4.917825222015381 C 67.11147308349609 7.108687400817871 71.76370239257812 10.24541282653809 75.75914764404297 14.2408504486084 C 79.75458526611328 18.23629951477051 82.89131164550781 22.88852500915527 85.08217620849609 28.06830024719238 C 87.35007476806641 33.43022537231445 88.5 39.12687683105469 88.5 45 C 88.5 50.87312316894531 87.35007476806641 56.56977462768555 85.08217620849609 61.93170166015625 C 82.89131164550781 67.11147308349609 79.75458526611328 71.76370239257812 75.75914764404297 75.75914764404297 C 71.76370239257812 79.75458526611328 67.11147308349609 82.89131164550781 61.93170166015625 85.08217620849609 C 56.56977462768555 87.35007476806641 50.87312316894531 88.5 45 88.5 Z" stroke="none"/>
                  <path d="M 45 3 C 39.32871246337891 3 33.82865524291992 4.110054016113281 28.65262985229492 6.299339294433594 C 23.65165710449219 8.414573669433594 19.15968322753906 11.44334411621094 15.301513671875 15.301513671875 C 11.44334411621094 19.15968322753906 8.414573669433594 23.65165710449219 6.299339294433594 28.65262985229492 C 4.110054016113281 33.82865524291992 3 39.32871246337891 3 45 C 3 50.67128753662109 4.110054016113281 56.17134475708008 6.299339294433594 61.34737396240234 C 8.414573669433594 66.34834289550781 11.44334411621094 70.84031677246094 15.301513671875 74.698486328125 C 19.15968322753906 78.55665588378906 23.65165710449219 81.58542633056641 28.65262985229492 83.70066070556641 C 33.82865524291992 85.88994598388672 39.32871246337891 87 45 87 C 50.67128753662109 87 56.17134475708008 85.88994598388672 61.34737396240234 83.70066070556641 C 66.34834289550781 81.58542633056641 70.84031677246094 78.55665588378906 74.698486328125 74.698486328125 C 78.55665588378906 70.84031677246094 81.58542633056641 66.34834289550781 83.70066070556641 61.34737396240234 C 85.88994598388672 56.17134475708008 87 50.67128753662109 87 45 C 87 39.32871246337891 85.88994598388672 33.82865524291992 83.70066070556641 28.65262985229492 C 81.58542633056641 23.65165710449219 78.55665588378906 19.15968322753906 74.698486328125 15.301513671875 C 70.84031677246094 11.44334411621094 66.34834289550781 8.414573669433594 61.34737396240234 6.299339294433594 C 56.17134475708008 4.110054016113281 50.67128753662109 3 45 3 M 45 0 C 69.85281372070312 0 90 20.14718627929688 90 45 C 90 69.85281372070312 69.85281372070312 90 45 90 C 20.14718627929688 90 0 69.85281372070312 0 45 C 0 20.14718627929688 20.14718627929688 0 45 0 Z" stroke="none" fill="#a4f1d6"/>
                </g>
              </g>
            </g>
          </g>
        </g>
      </g>
    </g>
    <g id="purchasing_2942402" transform="translate(13 17.741)">
      <g id="Grupo_1159174" data-name="Grupo 1159174" transform="translate(2 2)">
        <g id="Grupo_1159157" data-name="Grupo 1159157" transform="translate(1 30.189)">
          <path id="Trazado_994421" data-name="Trazado 994421" d="M9,54H3V52.34a16.8,16.8,0,0,1,1.05-5.85,17.179,17.179,0,0,1,2.6-4.59,16.649,16.649,0,0,1,6.52-4.97l.05.5A31.9,31.9,0,0,0,19,53v9H9Z" transform="translate(-3 -36.93)" fill="#fcd770"/>
        </g>
        <g id="Grupo_1159158" data-name="Grupo 1159158" transform="translate(15.204 29.669)">
          <path id="Trazado_994422" data-name="Trazado 994422" d="M37.47,62H19V53a31.747,31.747,0,0,0,5.02-11,31.807,31.807,0,0,0,.76-4.57l.09-1.02A14.933,14.933,0,0,1,35.22,44H32a2.006,2.006,0,0,0-2,2,2.015,2.015,0,0,0,2,2l1.51,10.57A4,4,0,0,0,37.47,62Z" transform="translate(-19 -36.41)" fill="#fcd770"/>
        </g>
        <g id="Grupo_1159159" data-name="Grupo 1159159" transform="translate(0 5.95)">
          <path id="Trazado_994423" data-name="Trazado 994423" d="M13.17,36.93A16.649,16.649,0,0,0,6.65,41.9a17.179,17.179,0,0,0-2.6,4.59l-.45-.34A4,4,0,0,1,2,42.95v-.06a3.86,3.86,0,0,1,1.55-3.1c.42-.31.86-.65,1.25-.94a3,3,0,0,0,0-4.8l-.81-.61a4.98,4.98,0,0,1-1.15-6.75l.32-.48A4.983,4.983,0,0,0,4,23.44V15.23A7.281,7.281,0,0,1,14.31,8.61l.01.01a14.66,14.66,0,0,0-.45,23.78L16,34v2a16.746,16.746,0,0,0-2.83.93Z" transform="translate(-2 -7.95)" fill="#656d78"/>
        </g>
        <g id="Grupo_1159160" data-name="Grupo 1159160" transform="translate(6 4)">
          <path id="Trazado_994424" data-name="Trazado 994424" d="M20.18,14H19a3,3,0,0,0-3,3v3h-.67a3.335,3.335,0,0,0-2,6L16,28v6l-2.13-1.6A14.691,14.691,0,0,1,8,20.67,14.695,14.695,0,0,1,22.67,6H26a5,5,0,0,1,0,10H23a2.977,2.977,0,0,1-2.82-2Z" transform="translate(-8 -6)" fill="#656d78"/>
        </g>
        <g id="Grupo_1159161" data-name="Grupo 1159161" transform="translate(25.614 41.259)">
          <path id="Trazado_994425" data-name="Trazado 994425" d="M32,48l1.51,10.57A4,4,0,0,0,37.47,62H54.53a4,4,0,0,0,3.96-3.43L60,48Z" transform="translate(-32 -48)" fill="#dfb28b"/>
        </g>
        <g id="Grupo_1159162" data-name="Grupo 1159162" transform="translate(41.684 38.499)">
          <path id="Trazado_994426" data-name="Trazado 994426" d="M55.6,52.8a1.965,1.965,0,0,1,.38,1.48,2,2,0,0,1-3.58.92l-4.33-5.78A3.986,3.986,0,0,0,50,46a4.667,4.667,0,0,0-.07-.76l2.08,2.78Z" transform="translate(-48.07 -45.24)" fill="#e6e9ed"/>
        </g>
        <g id="Grupo_1159163" data-name="Grupo 1159163" transform="translate(29.614)">
          <path id="Trazado_994427" data-name="Trazado 994427" d="M62,7.69c0,.2-.01.41-.03.62L60.56,20.94A5.684,5.684,0,0,1,54.91,26H52l-3.59,3.59a1.414,1.414,0,0,1-2.41-1V26H43.09a5.684,5.684,0,0,1-5.65-5.06L36.03,8.31c-.02-.21-.03-.42-.03-.62A5.693,5.693,0,0,1,41.69,2H56.31A5.7,5.7,0,0,1,62,7.69Z" transform="translate(-36 -2)" fill="#e6e9ed"/>
        </g>
        <g id="Grupo_1159164" data-name="Grupo 1159164" transform="translate(51.614 29.291)">
          <circle id="Elipse_11993" data-name="Elipse 11993" cx="2" cy="2" r="2" transform="translate(0.386 -0.032)" fill="#ff826e"/>
        </g>
        <g id="Grupo_1159165" data-name="Grupo 1159165" transform="translate(43.074 38.443)">
          <path id="Trazado_994428" data-name="Trazado 994428" d="M61.41,44.59A1.955,1.955,0,0,1,62,46a2.006,2.006,0,0,1-2,2H52.03l-.02.02-2.08-2.78c0-.01,0-.01-.01-.01A3.807,3.807,0,0,0,49.46,44H60a1.955,1.955,0,0,1,1.41.59Z" transform="translate(-49.46 -44)" fill="#ff826e"/>
        </g>
        <g id="Grupo_1159166" data-name="Grupo 1159166" transform="translate(43.614 29.291)">
          <circle id="Elipse_11994" data-name="Elipse 11994" cx="2" cy="2" r="2" transform="translate(0.386 -0.032)" fill="#ff826e"/>
        </g>
        <g id="Grupo_1159167" data-name="Grupo 1159167" transform="translate(36.626 36.353)">
          <path id="Trazado_994429" data-name="Trazado 994429" d="M49.46,44a3.807,3.807,0,0,1,.46,1.23c.01,0,.01,0,.01.01A4.667,4.667,0,0,1,50,46a4,4,0,0,1-8,0,4.667,4.667,0,0,1,.07-.76c0-.01,0-.01.01-.01A3.807,3.807,0,0,1,42.54,44a3.993,3.993,0,0,1,6.92,0Z" transform="translate(-42 -42)" fill="#aab2bd"/>
        </g>
        <g id="Grupo_1159168" data-name="Grupo 1159168" transform="translate(36.867 29.291)">
          <circle id="Elipse_11995" data-name="Elipse 11995" cx="2" cy="2" r="2" transform="translate(0.133 -0.032)" fill="#ff826e"/>
        </g>
        <g id="Grupo_1159169" data-name="Grupo 1159169" transform="translate(31.134 38.499)">
          <path id="Trazado_994430" data-name="Trazado 994430" d="M43.93,49.42,39.6,55.2a2,2,0,0,1-3.58-.92,1.965,1.965,0,0,1,.38-1.48l3.59-4.78,2.08-2.78A4.667,4.667,0,0,0,42,46,3.986,3.986,0,0,0,43.93,49.42Z" transform="translate(-35.998 -45.24)" fill="#e6e9ed"/>
        </g>
        <g id="Grupo_1159170" data-name="Grupo 1159170" transform="translate(25.412 38.443)">
          <path id="Trazado_994431" data-name="Trazado 994431" d="M35.22,44h7.32a3.807,3.807,0,0,0-.46,1.23c-.01,0-.01,0-.01.01l-2.08,2.78L39.97,48H32a2.015,2.015,0,0,1-2-2,2.006,2.006,0,0,1,2-2Z" transform="translate(-30 -44)" fill="#ff826e"/>
        </g>
        <g id="Grupo_1159171" data-name="Grupo 1159171" transform="translate(8.903 10.222)">
          <path id="Trazado_994432" data-name="Trazado 994432" d="M31.65,21.48A2.041,2.041,0,0,1,32,22.62a2.242,2.242,0,0,1-1.23,2L30,25v3a4,4,0,0,1-4,4H22v4l2.05.27c.28.04.55.08.82.14l-.09,1.02A31.807,31.807,0,0,1,24.02,42H13.98a31.807,31.807,0,0,1-.76-4.57l-.05-.5A16.746,16.746,0,0,1,16,36V28l-2.67-2a3.335,3.335,0,0,1,2-6H16V17a3,3,0,0,1,3-3h1.18A2.977,2.977,0,0,0,23,16h3a5,5,0,0,0,3.14-1.11A3.03,3.03,0,0,1,30,17v2Z" transform="translate(-12 -14)" fill="#f0d0b4"/>
        </g>
        <g id="Grupo_1159172" data-name="Grupo 1159172" transform="translate(10.928 36.13)">
          <path id="Trazado_994433" data-name="Trazado 994433" d="M13.98,42H24.02A31.747,31.747,0,0,1,19,53,31.747,31.747,0,0,1,13.98,42Z" transform="translate(-13.98 -42)" fill="#e6e9ed"/>
        </g>
        <g id="Grupo_1159173" data-name="Grupo 1159173" transform="translate(1 47.259)">
          <path id="Trazado_994434" data-name="Trazado 994434" d="M3,54H9v8H3Z" transform="translate(-3 -54)" fill="#f0d0b4"/>
        </g>
      </g>
      <g id="Grupo_1159175" data-name="Grupo 1159175" transform="translate(1 1)">
        <path id="Trazado_994435" data-name="Trazado 994435" d="M55.826,39.894H46.509a4.631,4.631,0,0,0-7.386,0H33.316a14.842,14.842,0,0,0-10.778-7.088l-1.094-.144v-1.95h2.788a4.624,4.624,0,0,0,4.646-4.591V23.933l.2-.1a2.948,2.948,0,0,0,1.658-2.652,2.776,2.776,0,0,0-.477-1.557l-1.382-2.048V16.019a3.612,3.612,0,0,0-.509-1.829,5.441,5.441,0,0,0,1.438-3.68A5.548,5.548,0,0,0,24.231,5h-3.1a14.575,14.575,0,0,0-7.856,2.294,7.687,7.687,0,0,0-10.42,7.1v7.533a3.631,3.631,0,0,1-.624,2.039l-.3.445A5.428,5.428,0,0,0,1,27.46a5.5,5.5,0,0,0,2.224,4.394l.75.556a1.824,1.824,0,0,1,0,2.937l-1.162.861A4.508,4.508,0,0,0,1,39.849a4.588,4.588,0,0,0,1.737,3.57,16.251,16.251,0,0,0-.808,5.053v9.787H50.744a4.653,4.653,0,0,0,4.6-3.942l1.308-9.051a2.743,2.743,0,0,0-.826-5.372Zm-8.7,4.453,3.869,5.1a.89.89,0,0,1,.177.68.9.9,0,0,1-.361.6.958.958,0,0,1-1.3-.185l-3.483-4.589a4.566,4.566,0,0,0,1.1-1.609Zm-4.308-4.453a2.755,2.755,0,1,1-2.788,2.755A2.775,2.775,0,0,1,42.816,39.894Zm-13.01,3.673a.918.918,0,1,1,0-1.837h8.364l-1.394,1.837Zm8.7.779a4.587,4.587,0,0,0,1.1,1.61l-3.483,4.59a.96.96,0,0,1-1.3.185.91.91,0,0,1-.187-1.286Zm-7.384-4.452H29.807a2.743,2.743,0,0,0-.825,5.372l1.308,9.051a4.513,4.513,0,0,0,.9,2.106H18.656v-7.07a29.857,29.857,0,0,0,5.352-14.371A13,13,0,0,1,31.124,39.894ZM7.5,42.648v6.428H3.788v-.6a14.382,14.382,0,0,1,7.747-12.778A29.849,29.849,0,0,0,16.8,49.367v7.055H9.363V42.648Zm10.222,4.77a28.06,28.06,0,0,1-3.454-7.525h6.908A28.046,28.046,0,0,1,17.727,47.419ZM28.878,21.182a1.122,1.122,0,0,1-.631,1.009l-1.228.606V26.12a2.775,2.775,0,0,1-2.788,2.755H19.585v5.4l2.594.341-.008.086a27.705,27.705,0,0,1-.527,3.359H13.808a27.812,27.812,0,0,1-.5-3.14,14.968,14.968,0,0,1,1.838-.557l.721-.163V25.661l-2.849-2.112a2.137,2.137,0,0,1,1.3-3.857h1.549V16.019a1.849,1.849,0,0,1,1.858-1.837h.52a3.707,3.707,0,0,0,3.194,1.837h2.791a5.594,5.594,0,0,0,2.658-.668,1.8,1.8,0,0,1,.13.668v2.115l1.694,2.51a.967.967,0,0,1,.164.539ZM24.231,6.837a3.673,3.673,0,1,1,0,7.346H21.441a1.87,1.87,0,0,1-1.856-1.919,1.766,1.766,0,0,1,1.776-1.754h.083l-.083-1.837a3.631,3.631,0,0,0-3.634,3.659s0,.009,0,.014h0a3.7,3.7,0,0,0-3.717,3.673v1.848a3.967,3.967,0,0,0-2.107,7.15l2.107,1.561v3.214l-.5-.367a12.52,12.52,0,0,1,7.62-22.589ZM2.859,39.793a2.649,2.649,0,0,1,1.069-2.115l1.162-.861a3.647,3.647,0,0,0,0-5.876l-.75-.556a3.662,3.662,0,0,1-1.48-2.926A3.611,3.611,0,0,1,3.48,25.43l.3-.444a5.454,5.454,0,0,0,.937-3.057V14.4a5.809,5.809,0,0,1,5.837-5.768,5.94,5.94,0,0,1,.869.072,14.246,14.246,0,0,0,.977,22.2l1.61,1.194v.664A16.364,16.364,0,0,0,3.476,41.565a2.812,2.812,0,0,1-.617-1.772Zm.929,11.12H7.5v5.51H3.788ZM53.5,54.057a2.783,2.783,0,0,1-2.324,2.326v-1.8H49.321v1.837H47.463V52.749H45.6v3.673H43.746V49.076H41.887v7.346H40.029V52.749H38.17v3.673H36.312V54.586H34.453v1.8a2.783,2.783,0,0,1-2.324-2.326L30.878,45.4h4.505l-2.23,2.938a2.707,2.707,0,0,0-.531,2.043A2.735,2.735,0,0,0,33.711,52.2a2.812,2.812,0,0,0,3.9-.555l3.576-4.712a4.482,4.482,0,0,0,3.254,0l3.575,4.711a2.81,2.81,0,0,0,3.9.554,2.734,2.734,0,0,0,.557-3.857L50.248,45.4h4.506Zm2.322-10.49H48.855L47.461,41.73h8.365a.918.918,0,1,1,0,1.837Z" transform="translate(-1 -1)"/>
        <path id="Trazado_994436" data-name="Trazado 994436" d="M48,18.855V21h2V18.855a2.844,2.844,0,0,0,.422-5.262l-1.95-.975A.854.854,0,0,1,48.854,11h.292a.855.855,0,0,1,.854.854V13h2V11.854a2.847,2.847,0,0,0-2-2.709V7H48V9.145a2.844,2.844,0,0,0-.422,5.262l1.95.975A.854.854,0,0,1,49.146,17h-.292A.855.855,0,0,1,48,16.146V15H46v1.146A2.849,2.849,0,0,0,48,18.855Z" transform="translate(-4.525 -1)"/>
        <path id="Trazado_994437" data-name="Trazado 994437" d="M36.444,21.053A6.679,6.679,0,0,0,43.088,27H45v1.586a2.414,2.414,0,0,0,4.121,1.707L52.414,27h2.5a6.678,6.678,0,0,0,6.644-5.947l1.4-12.631A6.966,6.966,0,0,0,63,7.686,6.693,6.693,0,0,0,56.315,1H41.685a6.684,6.684,0,0,0-6.644,7.423ZM41.685,3h14.63A4.691,4.691,0,0,1,61,7.686a4.945,4.945,0,0,1-.028.517l-1.4,12.63A4.682,4.682,0,0,1,54.912,25H51.586l-3.878,3.878A.429.429,0,0,1,47,28.586V25H43.088a4.681,4.681,0,0,1-4.657-4.168L37.029,8.2A4.683,4.683,0,0,1,41.685,3Z" transform="translate(-5.386 -1)"/>
        <path id="Trazado_994438" data-name="Trazado 994438" d="M41,36a3,3,0,1,0,3-3A3,3,0,0,0,41,36Zm4,0a1,1,0,1,1-1-1A1,1,0,0,1,45,36Z" transform="translate(-4.133 -3.709)"/>
        <path id="Trazado_994439" data-name="Trazado 994439" d="M52,33a3,3,0,1,0,3,3A3,3,0,0,0,52,33Zm0,4a1,1,0,1,1,1-1A1,1,0,0,1,52,37Z" transform="translate(-5.386 -3.709)"/>
        <path id="Trazado_994440" data-name="Trazado 994440" d="M60,33a3,3,0,1,0,3,3A3,3,0,0,0,60,33Zm0,4a1,1,0,1,1,1-1A1,1,0,0,1,60,37Z" transform="translate(-5.386 -3.709)"/>
      </g>
    </g>
  </g>
</svg>
