<svg xmlns="http://www.w3.org/2000/svg" width="1030" height="881" viewBox="0 0 1030 881">
  <g id="Grupo_1159254" data-name="Grupo 1159254" transform="translate(-285 -2608)">
    <rect id="Fondo" width="1030" height="881" transform="translate(285 2608)" fill="#e8edf7"/>
    <rect id="Imagen_9" data-name="Imagen 9" width="651" height="789" transform="translate(475 2655)" fill="#fff"/>
    <path id="Trazado_994255" data-name="Trazado 994255" d="M4089.389,4149.312v268.631h317.23" transform="translate(-3422 -1421.877)" fill="none" stroke="#0b0a0a" stroke-width="1.5"/>
    <path id="Contenido" d="M6.873-4.658H4.122V0H1.433V-12.955H7.075a4.6,4.6,0,0,1,3.111,1,3.882,3.882,0,0,1,1.16,3.1,3.976,3.976,0,0,1-1.16,3.243A5.109,5.109,0,0,1,6.873-4.658Zm1.266-2.7a1.874,1.874,0,0,0,.527-1.477,1.753,1.753,0,0,0-.532-1.441,2.308,2.308,0,0,0-1.49-.431H4.122v3.814H6.645A2.2,2.2,0,0,0,8.139-7.356Zm9.854.088a2.078,2.078,0,0,0-2.03.984,3.829,3.829,0,0,0-.29,1.705V0H13.15V-9.58h2.391v1.67a5.3,5.3,0,0,1,1.011-1.31,2.752,2.752,0,0,1,1.828-.589q.07,0,.119,0l.215.013v2.566q-.237-.026-.422-.035T17.993-7.269Zm10.18-1.1a5.59,5.59,0,0,1,1.213,3.595,5.553,5.553,0,0,1-1.213,3.608A4.456,4.456,0,0,1,24.49.334a4.456,4.456,0,0,1-3.683-1.5,5.553,5.553,0,0,1-1.213-3.608,5.59,5.59,0,0,1,1.213-3.595A4.426,4.426,0,0,1,24.49-9.888,4.426,4.426,0,0,1,28.173-8.367Zm-3.691.6a2,2,0,0,0-1.692.778A3.6,3.6,0,0,0,22.2-4.772a3.619,3.619,0,0,0,.593,2.224,2,2,0,0,0,1.692.782,1.985,1.985,0,0,0,1.688-.782,3.639,3.639,0,0,0,.589-2.224,3.619,3.619,0,0,0-.589-2.219A1.99,1.99,0,0,0,24.481-7.77ZM39.9-12.937V0H37.464V-1.327A3.533,3.533,0,0,1,36.243-.088,3.43,3.43,0,0,1,34.538.3a3.56,3.56,0,0,1-2.826-1.358,5.215,5.215,0,0,1-1.147-3.485A6,6,0,0,1,31.694-8.4a3.674,3.674,0,0,1,3.019-1.406,3.09,3.09,0,0,1,1.547.382,3.043,3.043,0,0,1,1.1,1.059v-4.57Zm-6.75,8.209a3.767,3.767,0,0,0,.527,2.118,1.756,1.756,0,0,0,1.582.8A1.849,1.849,0,0,0,36.876-2.6a3.5,3.5,0,0,0,.554-2.048,3.141,3.141,0,0,0-.888-2.514,1.91,1.91,0,0,0-1.266-.457,1.759,1.759,0,0,0-1.613.831A3.848,3.848,0,0,0,33.149-4.729ZM48.321-1.354q-.035.044-.176.264a1.764,1.764,0,0,1-.334.387,3.488,3.488,0,0,1-1.138.721,3.879,3.879,0,0,1-1.288.193A2.87,2.87,0,0,1,42.52-1.318a5.852,5.852,0,0,1-.413-2.487V-9.58h2.566v5.774a3.023,3.023,0,0,0,.193,1.23,1.338,1.338,0,0,0,1.345.729,1.758,1.758,0,0,0,1.758-1.037,3.754,3.754,0,0,0,.246-1.485V-9.58h2.54V0H48.321Zm13.141-4.79H58.9a2.223,2.223,0,0,0-.36-.967,1.511,1.511,0,0,0-1.31-.58,1.725,1.725,0,0,0-1.731,1.257,5.255,5.255,0,0,0-.246,1.775,4.832,4.832,0,0,0,.246,1.7,1.671,1.671,0,0,0,1.688,1.2,1.488,1.488,0,0,0,1.248-.475,2.362,2.362,0,0,0,.448-1.23h2.558A4.191,4.191,0,0,1,60.61-1.31,4.016,4.016,0,0,1,57.12.334a4.082,4.082,0,0,1-3.4-1.371,5.548,5.548,0,0,1-1.09-3.56,5.63,5.63,0,0,1,1.2-3.841,4.191,4.191,0,0,1,3.322-1.371A5,5,0,0,1,60.1-9,3.761,3.761,0,0,1,61.462-6.144Zm10.013,0H68.908a2.223,2.223,0,0,0-.36-.967,1.511,1.511,0,0,0-1.31-.58,1.725,1.725,0,0,0-1.731,1.257,5.255,5.255,0,0,0-.246,1.775,4.832,4.832,0,0,0,.246,1.7,1.671,1.671,0,0,0,1.688,1.2,1.488,1.488,0,0,0,1.248-.475,2.362,2.362,0,0,0,.448-1.23h2.558a4.191,4.191,0,0,1-.826,2.162A4.016,4.016,0,0,1,67.133.334a4.082,4.082,0,0,1-3.4-1.371,5.548,5.548,0,0,1-1.09-3.56,5.63,5.63,0,0,1,1.2-3.841,4.191,4.191,0,0,1,3.322-1.371A5,5,0,0,1,70.117-9,3.761,3.761,0,0,1,71.475-6.144Zm4.3-3.437V0h-2.54V-9.58Zm0-3.454v2.312h-2.54v-2.312ZM86.191-8.367A5.59,5.59,0,0,1,87.4-4.772a5.553,5.553,0,0,1-1.213,3.608,4.456,4.456,0,0,1-3.683,1.5,4.456,4.456,0,0,1-3.683-1.5,5.553,5.553,0,0,1-1.213-3.608,5.59,5.59,0,0,1,1.213-3.595,4.426,4.426,0,0,1,3.683-1.521A4.426,4.426,0,0,1,86.191-8.367Zm-3.691.6a2,2,0,0,0-1.692.778,3.6,3.6,0,0,0-.593,2.219,3.619,3.619,0,0,0,.593,2.224,2,2,0,0,0,1.692.782,1.985,1.985,0,0,0,1.688-.782,3.639,3.639,0,0,0,.589-2.224,3.619,3.619,0,0,0-.589-2.219A1.99,1.99,0,0,0,82.5-7.77Zm-1.477-3.1L82.711-13.5h2.795l-2.672,2.628ZM93.708-7.726a1.744,1.744,0,0,0-1.749,1.081,3.713,3.713,0,0,0-.246,1.459V0h-2.5V-9.562h2.417v1.4a4.252,4.252,0,0,1,.914-1.063,3.177,3.177,0,0,1,1.96-.58,3.7,3.7,0,0,1,2.43.778,3.163,3.163,0,0,1,.945,2.58V0H95.316V-5.827a2.659,2.659,0,0,0-.2-1.16A1.422,1.422,0,0,0,93.708-7.726Z" transform="translate(617 2713)" fill="#212429"/>
    <path id="Contenido-2" data-name="Contenido" d="M1.538-12.911h5.81a3.938,3.938,0,0,1,2.777.971A3.524,3.524,0,0,1,11.18-9.211a3.968,3.968,0,0,1-.94,2.632A3.563,3.563,0,0,1,7.348-5.458H3.287V0H1.538ZM9.413-9.2a1.943,1.943,0,0,0-1.055-1.934,3.808,3.808,0,0,0-1.591-.272H3.287v4.474h3.48a3.326,3.326,0,0,0,1.912-.5A1.985,1.985,0,0,0,9.413-9.2Zm13.361-3.709v1.538H18.424V0H16.648V-11.373H12.3v-1.538Z" transform="translate(976 2753)" fill="#212429"/>
    <path id="Contenido-3" data-name="Contenido" d="M1.16-12.955H3.85V0H1.16Zm9.52,5.229A1.744,1.744,0,0,0,8.931-6.645a3.713,3.713,0,0,0-.246,1.459V0h-2.5V-9.562H8.606v1.4A4.252,4.252,0,0,1,9.52-9.229a3.177,3.177,0,0,1,1.96-.58,3.7,3.7,0,0,1,2.43.778,3.163,3.163,0,0,1,.945,2.58V0H12.289V-5.827a2.659,2.659,0,0,0-.2-1.16A1.422,1.422,0,0,0,10.681-7.726ZM23.769-9.141a3.086,3.086,0,0,1,1.292,2.479h-2.5a1.482,1.482,0,0,0-.272-.765,1.714,1.714,0,0,0-1.406-.51,2.021,2.021,0,0,0-1.165.255.734.734,0,0,0-.347.6.654.654,0,0,0,.369.624,15.98,15.98,0,0,0,2.61.694A4.8,4.8,0,0,1,24.587-4.7a2.415,2.415,0,0,1,.738,1.8A2.911,2.911,0,0,1,24.266-.576a4.976,4.976,0,0,1-3.274.9,4.929,4.929,0,0,1-3.335-.954,3.1,3.1,0,0,1-1.077-2.43h2.54a1.673,1.673,0,0,0,.343.949,2.317,2.317,0,0,0,1.723.5,2.626,2.626,0,0,0,1.173-.22.7.7,0,0,0,.435-.659.711.711,0,0,0-.352-.642,14.3,14.3,0,0,0-2.61-.756A5.437,5.437,0,0,1,17.538-4.9a2.191,2.191,0,0,1-.668-1.723A2.988,2.988,0,0,1,17.911-8.9a4.183,4.183,0,0,1,2.931-.954A5.427,5.427,0,0,1,23.769-9.141Zm9.556,7.787q-.035.044-.176.264a1.764,1.764,0,0,1-.334.387,3.488,3.488,0,0,1-1.138.721,3.879,3.879,0,0,1-1.288.193,2.87,2.87,0,0,1-2.865-1.529,5.852,5.852,0,0,1-.413-2.487V-9.58h2.566v5.774a3.023,3.023,0,0,0,.193,1.23,1.338,1.338,0,0,0,1.345.729,1.758,1.758,0,0,0,1.758-1.037,3.754,3.754,0,0,0,.246-1.485V-9.58h2.54V0H33.325Zm10.232-5.59a1.227,1.227,0,0,0-1.239-.694,1.479,1.479,0,0,0-1.441.694,2.675,2.675,0,0,0-.2,1.178V0h-2.54V-9.562h2.435v1.4a4.031,4.031,0,0,1,.879-1.063,3.007,3.007,0,0,1,1.89-.562,2.989,2.989,0,0,1,1.775.483,2.812,2.812,0,0,1,.826,1.151A3.185,3.185,0,0,1,47.161-9.4a3.728,3.728,0,0,1,1.723-.4,3.335,3.335,0,0,1,1.248.246,2.784,2.784,0,0,1,1.116.861,2.752,2.752,0,0,1,.545,1.23,8.5,8.5,0,0,1,.088,1.415L51.863,0H49.3V-6.1A2,2,0,0,0,49.12-7a1.249,1.249,0,0,0-1.23-.668,1.44,1.44,0,0,0-1.433.861,2.7,2.7,0,0,0-.2,1.1V0H43.733V-5.7A3.2,3.2,0,0,0,43.557-6.943ZM62.174-8.367a5.59,5.59,0,0,1,1.213,3.595,5.553,5.553,0,0,1-1.213,3.608,4.456,4.456,0,0,1-3.683,1.5,4.456,4.456,0,0,1-3.683-1.5A5.553,5.553,0,0,1,53.6-4.772a5.59,5.59,0,0,1,1.213-3.595,4.426,4.426,0,0,1,3.683-1.521A4.426,4.426,0,0,1,62.174-8.367Zm-3.691.6a2,2,0,0,0-1.692.778A3.6,3.6,0,0,0,56.2-4.772a3.619,3.619,0,0,0,.593,2.224,2,2,0,0,0,1.692.782,1.985,1.985,0,0,0,1.688-.782,3.639,3.639,0,0,0,.589-2.224,3.619,3.619,0,0,0-.589-2.219A1.99,1.99,0,0,0,58.483-7.77Zm13.3-1.371a3.086,3.086,0,0,1,1.292,2.479h-2.5a1.482,1.482,0,0,0-.272-.765,1.714,1.714,0,0,0-1.406-.51,2.021,2.021,0,0,0-1.165.255.734.734,0,0,0-.347.6.654.654,0,0,0,.369.624,15.98,15.98,0,0,0,2.61.694A4.8,4.8,0,0,1,72.6-4.7a2.415,2.415,0,0,1,.738,1.8A2.911,2.911,0,0,1,72.279-.576,4.976,4.976,0,0,1,69,.325a4.929,4.929,0,0,1-3.335-.954,3.1,3.1,0,0,1-1.077-2.43h2.54a1.673,1.673,0,0,0,.343.949,2.317,2.317,0,0,0,1.723.5,2.626,2.626,0,0,0,1.173-.22.7.7,0,0,0,.435-.659.711.711,0,0,0-.352-.642,14.3,14.3,0,0,0-2.61-.756A5.437,5.437,0,0,1,65.551-4.9a2.191,2.191,0,0,1-.668-1.723A2.988,2.988,0,0,1,65.924-8.9a4.183,4.183,0,0,1,2.931-.954A5.427,5.427,0,0,1,71.782-9.141Zm17.133-3.8V0H86.481V-1.327A3.533,3.533,0,0,1,85.26-.088,3.43,3.43,0,0,1,83.554.3a3.56,3.56,0,0,1-2.826-1.358,5.215,5.215,0,0,1-1.147-3.485A6,6,0,0,1,80.711-8.4,3.674,3.674,0,0,1,83.73-9.809a3.09,3.09,0,0,1,1.547.382,3.043,3.043,0,0,1,1.1,1.059v-4.57Zm-6.75,8.209a3.767,3.767,0,0,0,.527,2.118,1.756,1.756,0,0,0,1.582.8A1.849,1.849,0,0,0,85.892-2.6a3.5,3.5,0,0,0,.554-2.048,3.141,3.141,0,0,0-.888-2.514,1.91,1.91,0,0,0-1.266-.457,1.759,1.759,0,0,0-1.613.831A3.848,3.848,0,0,0,82.166-4.729ZM99.394-2.812a3.178,3.178,0,0,1-.888,1.731,4.349,4.349,0,0,1-3.445,1.4A4.858,4.858,0,0,1,91.836-.861a4.75,4.75,0,0,1-1.4-3.832A5.326,5.326,0,0,1,91.7-8.508a4.312,4.312,0,0,1,3.274-1.327,5.021,5.021,0,0,1,2.153.448,3.772,3.772,0,0,1,1.582,1.415,4.828,4.828,0,0,1,.729,1.978,12.771,12.771,0,0,1,.079,1.9H92.961a2.381,2.381,0,0,0,.905,2.021,2.132,2.132,0,0,0,1.248.36,1.8,1.8,0,0,0,1.257-.439,2.087,2.087,0,0,0,.466-.659ZM96.916-5.748a2.181,2.181,0,0,0-.6-1.507,1.87,1.87,0,0,0-1.34-.514,1.7,1.7,0,0,0-1.349.545,2.72,2.72,0,0,0-.6,1.477Zm13.679,3.964V.088l-1.187.044a3.184,3.184,0,0,1-2.426-.615,1.832,1.832,0,0,1-.422-1.327v-5.9h-1.336V-9.492h1.336v-2.672h2.479v2.672h1.556v1.784h-1.556v5.063a1.14,1.14,0,0,0,.149.734,1.645,1.645,0,0,0,.914.145q.114,0,.242,0T110.595-1.784Zm6.427-5.484a2.078,2.078,0,0,0-2.03.984,3.829,3.829,0,0,0-.29,1.705V0h-2.522V-9.58h2.391v1.67a5.3,5.3,0,0,1,1.011-1.31,2.752,2.752,0,0,1,1.828-.589q.07,0,.119,0l.215.013v2.566q-.237-.026-.422-.035T117.022-7.269Zm2.551-1.274a4.09,4.09,0,0,1,3.41-1.266,6.059,6.059,0,0,1,2.795.624A2.4,2.4,0,0,1,127-6.829v4.395q0,.457.018,1.107a1.392,1.392,0,0,0,.149.668.9.9,0,0,0,.369.29V0h-2.725a2.79,2.79,0,0,1-.158-.545q-.044-.255-.07-.58a5.146,5.146,0,0,1-1.2.958A3.6,3.6,0,0,1,121.559.3a3.143,3.143,0,0,1-2.149-.743,2.649,2.649,0,0,1-.848-2.1,2.732,2.732,0,0,1,1.362-2.558,6.049,6.049,0,0,1,2.2-.615l.853-.105a3.91,3.91,0,0,0,.993-.22.753.753,0,0,0,.536-.712.845.845,0,0,0-.409-.813,2.553,2.553,0,0,0-1.2-.224,1.563,1.563,0,0,0-1.257.439,1.827,1.827,0,0,0-.352.879h-2.417A3.676,3.676,0,0,1,119.572-8.543Zm1.863,6.732a1.309,1.309,0,0,0,.861.29A2.551,2.551,0,0,0,123.787-2a2.024,2.024,0,0,0,.708-1.731v-.932a2.722,2.722,0,0,1-.479.242,4.006,4.006,0,0,1-.664.171l-.562.105a3.632,3.632,0,0,0-1.134.343,1.149,1.149,0,0,0-.58,1.063A1.1,1.1,0,0,0,121.436-1.811ZM134.428.255A3.418,3.418,0,0,1,132.52-.22a3.809,3.809,0,0,1-.932-.984V0h-2.452V-12.937h2.5v4.605a3.655,3.655,0,0,1,1.046-1.02,3.107,3.107,0,0,1,1.723-.439,3.548,3.548,0,0,1,2.958,1.362,5.53,5.53,0,0,1,1.068,3.516,6.181,6.181,0,0,1-1.055,3.7A3.42,3.42,0,0,1,134.428.255Zm1.371-4.9a4.636,4.636,0,0,0-.264-1.687A1.837,1.837,0,0,0,133.689-7.6a1.864,1.864,0,0,0-1.872,1.239,4.651,4.651,0,0,0-.264,1.705,3.572,3.572,0,0,0,.545,2.039,1.866,1.866,0,0,0,1.661.809,1.719,1.719,0,0,0,1.5-.782A3.572,3.572,0,0,0,135.8-4.649Zm4.783-3.894a4.09,4.09,0,0,1,3.41-1.266,6.059,6.059,0,0,1,2.795.624,2.4,2.4,0,0,1,1.222,2.355v4.395q0,.457.018,1.107a1.392,1.392,0,0,0,.149.668.9.9,0,0,0,.369.29V0H145.82a2.79,2.79,0,0,1-.158-.545q-.044-.255-.07-.58a5.146,5.146,0,0,1-1.2.958A3.6,3.6,0,0,1,142.568.3a3.143,3.143,0,0,1-2.149-.743,2.649,2.649,0,0,1-.848-2.1,2.732,2.732,0,0,1,1.362-2.558,6.049,6.049,0,0,1,2.2-.615l.853-.105a3.91,3.91,0,0,0,.993-.22.753.753,0,0,0,.536-.712.845.845,0,0,0-.409-.813,2.553,2.553,0,0,0-1.2-.224,1.563,1.563,0,0,0-1.257.439,1.827,1.827,0,0,0-.352.879h-2.417A3.676,3.676,0,0,1,140.582-8.543Zm1.863,6.732a1.309,1.309,0,0,0,.861.29A2.551,2.551,0,0,0,144.8-2a2.024,2.024,0,0,0,.708-1.731v-.932a2.722,2.722,0,0,1-.479.242,4.006,4.006,0,0,1-.664.171l-.562.105a3.632,3.632,0,0,0-1.134.343,1.149,1.149,0,0,0-.58,1.063A1.1,1.1,0,0,0,142.445-1.811Zm7.9-7.726h2.5V1.028a3.338,3.338,0,0,1-.571,2.145,2.826,2.826,0,0,1-2.241.694q-.114,0-.338-.009t-.558-.018v-2q.211.018.3.022t.158,0a.78.78,0,0,0,.558-.18.968.968,0,0,0,.189-.7Zm0-3.5h2.5v2.312h-2.5Zm12.878,4.667a5.59,5.59,0,0,1,1.213,3.595,5.553,5.553,0,0,1-1.213,3.608,4.456,4.456,0,0,1-3.683,1.5,4.456,4.456,0,0,1-3.683-1.5,5.553,5.553,0,0,1-1.213-3.608,5.59,5.59,0,0,1,1.213-3.595,4.426,4.426,0,0,1,3.683-1.521A4.426,4.426,0,0,1,163.226-8.367Zm-3.691.6a2,2,0,0,0-1.692.778,3.6,3.6,0,0,0-.593,2.219,3.619,3.619,0,0,0,.593,2.224,2,2,0,0,0,1.692.782,1.985,1.985,0,0,0,1.688-.782,3.639,3.639,0,0,0,.589-2.224,3.619,3.619,0,0,0-.589-2.219A1.99,1.99,0,0,0,159.535-7.77Z" transform="translate(830.619 3022)" fill="#212429"/>
    <path id="Trazado_994255-2" data-name="Trazado 994255" d="M4089.389,4149.312v268.631h317.23" transform="translate(-3422 -1080.877)" fill="none" stroke="#0b0a0a" stroke-width="1.5"/>
    <path id="Contenido-4" data-name="Contenido" d="M6.873-4.658H4.122V0H1.433V-12.955H7.075a4.6,4.6,0,0,1,3.111,1,3.882,3.882,0,0,1,1.16,3.1,3.976,3.976,0,0,1-1.16,3.243A5.109,5.109,0,0,1,6.873-4.658Zm1.266-2.7a1.874,1.874,0,0,0,.527-1.477,1.753,1.753,0,0,0-.532-1.441,2.308,2.308,0,0,0-1.49-.431H4.122v3.814H6.645A2.2,2.2,0,0,0,8.139-7.356ZM15.857,0H13.335V-12.955h3.938L19.628-2.769l2.338-10.187h3.894V0H23.337V-8.763q0-.378.009-1.059t.009-1.05L20.9,0H18.274L15.84-10.872q0,.369.009,1.05t.009,1.059ZM36.373-2.812a3.178,3.178,0,0,1-.888,1.731A4.349,4.349,0,0,1,32.04.316,4.858,4.858,0,0,1,28.814-.861a4.75,4.75,0,0,1-1.4-3.832,5.326,5.326,0,0,1,1.261-3.814,4.312,4.312,0,0,1,3.274-1.327,5.021,5.021,0,0,1,2.153.448,3.772,3.772,0,0,1,1.582,1.415,4.828,4.828,0,0,1,.729,1.978A12.771,12.771,0,0,1,36.5-4.1H29.939a2.381,2.381,0,0,0,.905,2.021,2.132,2.132,0,0,0,1.248.36,1.8,1.8,0,0,0,1.257-.439,2.087,2.087,0,0,0,.466-.659ZM33.894-5.748a2.181,2.181,0,0,0-.6-1.507,1.87,1.87,0,0,0-1.34-.514,1.7,1.7,0,0,0-1.349.545A2.72,2.72,0,0,0,30-5.748Z" transform="translate(647 3054)" fill="#212429"/>
    <path id="Contenido-5" data-name="Contenido" d="M1.538-12.911h5.81a3.938,3.938,0,0,1,2.777.971A3.524,3.524,0,0,1,11.18-9.211a3.968,3.968,0,0,1-.94,2.632A3.563,3.563,0,0,1,7.348-5.458H3.287V0H1.538ZM9.413-9.2a1.943,1.943,0,0,0-1.055-1.934,3.808,3.808,0,0,0-1.591-.272H3.287v4.474h3.48a3.326,3.326,0,0,0,1.912-.5A1.985,1.985,0,0,0,9.413-9.2Zm3.922-3.709h2.5L19.549-2l3.683-10.916H25.71V0H24.049V-7.62q0-.4.018-1.31t.018-1.96L20.4,0H18.67L14.961-10.89v.4q0,.475.022,1.446T15-7.62V0h-1.67ZM32.084-9.624a4.294,4.294,0,0,1,1.942.47,3.582,3.582,0,0,1,1.433,1.217,4.2,4.2,0,0,1,.633,1.661A10.868,10.868,0,0,1,36.232-4.2h-6.9a4.026,4.026,0,0,0,.677,2.3,2.266,2.266,0,0,0,1.96.866,2.534,2.534,0,0,0,1.978-.817,2.755,2.755,0,0,0,.6-1.1H36.1A3.276,3.276,0,0,1,35.692-1.8a4.111,4.111,0,0,1-.778,1.042A3.687,3.687,0,0,1,33.13.193a5.42,5.42,0,0,1-1.292.141A3.964,3.964,0,0,1,28.858-.945a4.976,4.976,0,0,1-1.222-3.582,5.41,5.41,0,0,1,1.23-3.683A4.059,4.059,0,0,1,32.084-9.624Zm2.522,4.166A4.1,4.1,0,0,0,34.158-7.1a2.3,2.3,0,0,0-2.171-1.143,2.406,2.406,0,0,0-1.828.787,2.972,2.972,0,0,0-.782,2Z" transform="translate(961 3293)" fill="#212429"/>
    <path id="Contenido-6" data-name="Contenido" d="M1.16-12.955H3.85V0H1.16Zm9.52,5.229A1.744,1.744,0,0,0,8.931-6.645a3.713,3.713,0,0,0-.246,1.459V0h-2.5V-9.562H8.606v1.4A4.252,4.252,0,0,1,9.52-9.229a3.177,3.177,0,0,1,1.96-.58,3.7,3.7,0,0,1,2.43.778,3.163,3.163,0,0,1,.945,2.58V0H12.289V-5.827a2.659,2.659,0,0,0-.2-1.16A1.422,1.422,0,0,0,10.681-7.726ZM23.769-9.141a3.086,3.086,0,0,1,1.292,2.479h-2.5a1.482,1.482,0,0,0-.272-.765,1.714,1.714,0,0,0-1.406-.51,2.021,2.021,0,0,0-1.165.255.734.734,0,0,0-.347.6.654.654,0,0,0,.369.624,15.98,15.98,0,0,0,2.61.694A4.8,4.8,0,0,1,24.587-4.7a2.415,2.415,0,0,1,.738,1.8A2.911,2.911,0,0,1,24.266-.576a4.976,4.976,0,0,1-3.274.9,4.929,4.929,0,0,1-3.335-.954,3.1,3.1,0,0,1-1.077-2.43h2.54a1.673,1.673,0,0,0,.343.949,2.317,2.317,0,0,0,1.723.5,2.626,2.626,0,0,0,1.173-.22.7.7,0,0,0,.435-.659.711.711,0,0,0-.352-.642,14.3,14.3,0,0,0-2.61-.756A5.437,5.437,0,0,1,17.538-4.9a2.191,2.191,0,0,1-.668-1.723A2.988,2.988,0,0,1,17.911-8.9a4.183,4.183,0,0,1,2.931-.954A5.427,5.427,0,0,1,23.769-9.141Zm9.556,7.787q-.035.044-.176.264a1.764,1.764,0,0,1-.334.387,3.488,3.488,0,0,1-1.138.721,3.879,3.879,0,0,1-1.288.193,2.87,2.87,0,0,1-2.865-1.529,5.852,5.852,0,0,1-.413-2.487V-9.58h2.566v5.774a3.023,3.023,0,0,0,.193,1.23,1.338,1.338,0,0,0,1.345.729,1.758,1.758,0,0,0,1.758-1.037,3.754,3.754,0,0,0,.246-1.485V-9.58h2.54V0H33.325Zm10.232-5.59a1.227,1.227,0,0,0-1.239-.694,1.479,1.479,0,0,0-1.441.694,2.675,2.675,0,0,0-.2,1.178V0h-2.54V-9.562h2.435v1.4a4.031,4.031,0,0,1,.879-1.063,3.007,3.007,0,0,1,1.89-.562,2.989,2.989,0,0,1,1.775.483,2.812,2.812,0,0,1,.826,1.151A3.185,3.185,0,0,1,47.161-9.4a3.728,3.728,0,0,1,1.723-.4,3.335,3.335,0,0,1,1.248.246,2.784,2.784,0,0,1,1.116.861,2.752,2.752,0,0,1,.545,1.23,8.5,8.5,0,0,1,.088,1.415L51.863,0H49.3V-6.1A2,2,0,0,0,49.12-7a1.249,1.249,0,0,0-1.23-.668,1.44,1.44,0,0,0-1.433.861,2.7,2.7,0,0,0-.2,1.1V0H43.733V-5.7A3.2,3.2,0,0,0,43.557-6.943ZM62.174-8.367a5.59,5.59,0,0,1,1.213,3.595,5.553,5.553,0,0,1-1.213,3.608,4.456,4.456,0,0,1-3.683,1.5,4.456,4.456,0,0,1-3.683-1.5A5.553,5.553,0,0,1,53.6-4.772a5.59,5.59,0,0,1,1.213-3.595,4.426,4.426,0,0,1,3.683-1.521A4.426,4.426,0,0,1,62.174-8.367Zm-3.691.6a2,2,0,0,0-1.692.778A3.6,3.6,0,0,0,56.2-4.772a3.619,3.619,0,0,0,.593,2.224,2,2,0,0,0,1.692.782,1.985,1.985,0,0,0,1.688-.782,3.639,3.639,0,0,0,.589-2.224,3.619,3.619,0,0,0-.589-2.219A1.99,1.99,0,0,0,58.483-7.77Zm13.3-1.371a3.086,3.086,0,0,1,1.292,2.479h-2.5a1.482,1.482,0,0,0-.272-.765,1.714,1.714,0,0,0-1.406-.51,2.021,2.021,0,0,0-1.165.255.734.734,0,0,0-.347.6.654.654,0,0,0,.369.624,15.98,15.98,0,0,0,2.61.694A4.8,4.8,0,0,1,72.6-4.7a2.415,2.415,0,0,1,.738,1.8A2.911,2.911,0,0,1,72.279-.576,4.976,4.976,0,0,1,69,.325a4.929,4.929,0,0,1-3.335-.954,3.1,3.1,0,0,1-1.077-2.43h2.54a1.673,1.673,0,0,0,.343.949,2.317,2.317,0,0,0,1.723.5,2.626,2.626,0,0,0,1.173-.22.7.7,0,0,0,.435-.659.711.711,0,0,0-.352-.642,14.3,14.3,0,0,0-2.61-.756A5.437,5.437,0,0,1,65.551-4.9a2.191,2.191,0,0,1-.668-1.723A2.988,2.988,0,0,1,65.924-8.9a4.183,4.183,0,0,1,2.931-.954A5.427,5.427,0,0,1,71.782-9.141Zm17.133-3.8V0H86.481V-1.327A3.533,3.533,0,0,1,85.26-.088,3.43,3.43,0,0,1,83.554.3a3.56,3.56,0,0,1-2.826-1.358,5.215,5.215,0,0,1-1.147-3.485A6,6,0,0,1,80.711-8.4,3.674,3.674,0,0,1,83.73-9.809a3.09,3.09,0,0,1,1.547.382,3.043,3.043,0,0,1,1.1,1.059v-4.57Zm-6.75,8.209a3.767,3.767,0,0,0,.527,2.118,1.756,1.756,0,0,0,1.582.8A1.849,1.849,0,0,0,85.892-2.6a3.5,3.5,0,0,0,.554-2.048,3.141,3.141,0,0,0-.888-2.514,1.91,1.91,0,0,0-1.266-.457,1.759,1.759,0,0,0-1.613.831A3.848,3.848,0,0,0,82.166-4.729ZM99.394-2.812a3.178,3.178,0,0,1-.888,1.731,4.349,4.349,0,0,1-3.445,1.4A4.858,4.858,0,0,1,91.836-.861a4.75,4.75,0,0,1-1.4-3.832A5.326,5.326,0,0,1,91.7-8.508a4.312,4.312,0,0,1,3.274-1.327,5.021,5.021,0,0,1,2.153.448,3.772,3.772,0,0,1,1.582,1.415,4.828,4.828,0,0,1,.729,1.978,12.771,12.771,0,0,1,.079,1.9H92.961a2.381,2.381,0,0,0,.905,2.021,2.132,2.132,0,0,0,1.248.36,1.8,1.8,0,0,0,1.257-.439,2.087,2.087,0,0,0,.466-.659ZM96.916-5.748a2.181,2.181,0,0,0-.6-1.507,1.87,1.87,0,0,0-1.34-.514,1.7,1.7,0,0,0-1.349.545,2.72,2.72,0,0,0-.6,1.477Zm13.679,3.964V.088l-1.187.044a3.184,3.184,0,0,1-2.426-.615,1.832,1.832,0,0,1-.422-1.327v-5.9h-1.336V-9.492h1.336v-2.672h2.479v2.672h1.556v1.784h-1.556v5.063a1.14,1.14,0,0,0,.149.734,1.645,1.645,0,0,0,.914.145q.114,0,.242,0T110.595-1.784Zm6.427-5.484a2.078,2.078,0,0,0-2.03.984,3.829,3.829,0,0,0-.29,1.705V0h-2.522V-9.58h2.391v1.67a5.3,5.3,0,0,1,1.011-1.31,2.752,2.752,0,0,1,1.828-.589q.07,0,.119,0l.215.013v2.566q-.237-.026-.422-.035T117.022-7.269Zm2.551-1.274a4.09,4.09,0,0,1,3.41-1.266,6.059,6.059,0,0,1,2.795.624A2.4,2.4,0,0,1,127-6.829v4.395q0,.457.018,1.107a1.392,1.392,0,0,0,.149.668.9.9,0,0,0,.369.29V0h-2.725a2.79,2.79,0,0,1-.158-.545q-.044-.255-.07-.58a5.146,5.146,0,0,1-1.2.958A3.6,3.6,0,0,1,121.559.3a3.143,3.143,0,0,1-2.149-.743,2.649,2.649,0,0,1-.848-2.1,2.732,2.732,0,0,1,1.362-2.558,6.049,6.049,0,0,1,2.2-.615l.853-.105a3.91,3.91,0,0,0,.993-.22.753.753,0,0,0,.536-.712.845.845,0,0,0-.409-.813,2.553,2.553,0,0,0-1.2-.224,1.563,1.563,0,0,0-1.257.439,1.827,1.827,0,0,0-.352.879h-2.417A3.676,3.676,0,0,1,119.572-8.543Zm1.863,6.732a1.309,1.309,0,0,0,.861.29A2.551,2.551,0,0,0,123.787-2a2.024,2.024,0,0,0,.708-1.731v-.932a2.722,2.722,0,0,1-.479.242,4.006,4.006,0,0,1-.664.171l-.562.105a3.632,3.632,0,0,0-1.134.343,1.149,1.149,0,0,0-.58,1.063A1.1,1.1,0,0,0,121.436-1.811ZM134.428.255A3.418,3.418,0,0,1,132.52-.22a3.809,3.809,0,0,1-.932-.984V0h-2.452V-12.937h2.5v4.605a3.655,3.655,0,0,1,1.046-1.02,3.107,3.107,0,0,1,1.723-.439,3.548,3.548,0,0,1,2.958,1.362,5.53,5.53,0,0,1,1.068,3.516,6.181,6.181,0,0,1-1.055,3.7A3.42,3.42,0,0,1,134.428.255Zm1.371-4.9a4.636,4.636,0,0,0-.264-1.687A1.837,1.837,0,0,0,133.689-7.6a1.864,1.864,0,0,0-1.872,1.239,4.651,4.651,0,0,0-.264,1.705,3.572,3.572,0,0,0,.545,2.039,1.866,1.866,0,0,0,1.661.809,1.719,1.719,0,0,0,1.5-.782A3.572,3.572,0,0,0,135.8-4.649Zm4.783-3.894a4.09,4.09,0,0,1,3.41-1.266,6.059,6.059,0,0,1,2.795.624,2.4,2.4,0,0,1,1.222,2.355v4.395q0,.457.018,1.107a1.392,1.392,0,0,0,.149.668.9.9,0,0,0,.369.29V0H145.82a2.79,2.79,0,0,1-.158-.545q-.044-.255-.07-.58a5.146,5.146,0,0,1-1.2.958A3.6,3.6,0,0,1,142.568.3a3.143,3.143,0,0,1-2.149-.743,2.649,2.649,0,0,1-.848-2.1,2.732,2.732,0,0,1,1.362-2.558,6.049,6.049,0,0,1,2.2-.615l.853-.105a3.91,3.91,0,0,0,.993-.22.753.753,0,0,0,.536-.712.845.845,0,0,0-.409-.813,2.553,2.553,0,0,0-1.2-.224,1.563,1.563,0,0,0-1.257.439,1.827,1.827,0,0,0-.352.879h-2.417A3.676,3.676,0,0,1,140.582-8.543Zm1.863,6.732a1.309,1.309,0,0,0,.861.29A2.551,2.551,0,0,0,144.8-2a2.024,2.024,0,0,0,.708-1.731v-.932a2.722,2.722,0,0,1-.479.242,4.006,4.006,0,0,1-.664.171l-.562.105a3.632,3.632,0,0,0-1.134.343,1.149,1.149,0,0,0-.58,1.063A1.1,1.1,0,0,0,142.445-1.811Zm7.9-7.726h2.5V1.028a3.338,3.338,0,0,1-.571,2.145,2.826,2.826,0,0,1-2.241.694q-.114,0-.338-.009t-.558-.018v-2q.211.018.3.022t.158,0a.78.78,0,0,0,.558-.18.968.968,0,0,0,.189-.7Zm0-3.5h2.5v2.312h-2.5Zm12.878,4.667a5.59,5.59,0,0,1,1.213,3.595,5.553,5.553,0,0,1-1.213,3.608,4.456,4.456,0,0,1-3.683,1.5,4.456,4.456,0,0,1-3.683-1.5,5.553,5.553,0,0,1-1.213-3.608,5.59,5.59,0,0,1,1.213-3.595,4.426,4.426,0,0,1,3.683-1.521A4.426,4.426,0,0,1,163.226-8.367Zm-3.691.6a2,2,0,0,0-1.692.778,3.6,3.6,0,0,0-.593,2.219,3.619,3.619,0,0,0,.593,2.224,2,2,0,0,0,1.692.782,1.985,1.985,0,0,0,1.688-.782,3.639,3.639,0,0,0,.589-2.224,3.619,3.619,0,0,0-.589-2.219A1.99,1.99,0,0,0,159.535-7.77Z" transform="translate(830.619 3366)" fill="#212429"/>
    <path id="Contenido-7" data-name="Contenido" d="M1.538-12.911h9.413v1.582H3.243v3.92h7.128v1.494H3.243v4.377h7.84V0H1.538Zm12.57,9.958a2.3,2.3,0,0,0,.4,1.213,2.485,2.485,0,0,0,2.074.765,3.059,3.059,0,0,0,1.547-.382,1.27,1.27,0,0,0,.668-1.182,1.011,1.011,0,0,0-.536-.923A6.374,6.374,0,0,0,16.9-3.911l-1.257-.316A6.131,6.131,0,0,1,13.871-4.9a2,2,0,0,1-1.02-1.775,2.713,2.713,0,0,1,.962-2.162A3.839,3.839,0,0,1,16.4-9.659,3.593,3.593,0,0,1,19.47-8.411a2.708,2.708,0,0,1,.571,1.705H18.547a1.83,1.83,0,0,0-.378-.976,2.41,2.41,0,0,0-1.89-.624,2.259,2.259,0,0,0-1.358.343,1.074,1.074,0,0,0-.461.905,1.114,1.114,0,0,0,.606.984,3.644,3.644,0,0,0,1.037.387l1.046.255a8.087,8.087,0,0,1,2.285.8,2.118,2.118,0,0,1,.923,1.907A2.906,2.906,0,0,1,19.4-.554,4.059,4.059,0,0,1,16.5.36a3.9,3.9,0,0,1-2.975-.954,3.606,3.606,0,0,1-.936-2.36Zm13.108-9.958H28.8V0H27.216ZM32.386-2.5a1.3,1.3,0,0,0,.5,1.081,1.857,1.857,0,0,0,1.187.4,3.608,3.608,0,0,0,1.617-.387,2.176,2.176,0,0,0,1.318-2.1V-4.79a2.707,2.707,0,0,1-.747.308,6.366,6.366,0,0,1-.9.176l-.958.123a3.664,3.664,0,0,0-1.292.36A1.4,1.4,0,0,0,32.386-2.5Zm3.832-3.2a.859.859,0,0,0,.729-.457,1.391,1.391,0,0,0,.105-.606,1.285,1.285,0,0,0-.576-1.173,3.089,3.089,0,0,0-1.648-.365,2.094,2.094,0,0,0-1.758.668,2.2,2.2,0,0,0-.378,1.1H31.217A2.718,2.718,0,0,1,32.347-8.96a4.637,4.637,0,0,1,2.518-.681,5.124,5.124,0,0,1,2.7.633A2.147,2.147,0,0,1,38.591-7.04v5.423a.694.694,0,0,0,.1.4.487.487,0,0,0,.426.149q.105,0,.237-.013t.281-.04V.044a4.406,4.406,0,0,1-.562.132A4.111,4.111,0,0,1,38.547.2a1.3,1.3,0,0,1-1.187-.58,2.239,2.239,0,0,1-.272-.87A4.025,4.025,0,0,1,35.7-.149a4.3,4.3,0,0,1-2,.466,2.967,2.967,0,0,1-2.14-.8,2.642,2.642,0,0,1-.831-1.991,2.564,2.564,0,0,1,.817-2.03A3.889,3.889,0,0,1,33.7-5.388ZM50.161-1.063A2.257,2.257,0,0,0,52-1.991a4.413,4.413,0,0,0,.734-2.773A5.176,5.176,0,0,0,52.411-6.7a2.244,2.244,0,0,0-2.25-1.556,2.244,2.244,0,0,0-2.25,1.644,6.514,6.514,0,0,0-.325,2.232,4.732,4.732,0,0,0,.325,1.854A2.243,2.243,0,0,0,50.161-1.063Zm-4.1-8.306H47.6v1.248a3.84,3.84,0,0,1,1.037-.993,3.338,3.338,0,0,1,1.881-.527,3.537,3.537,0,0,1,2.716,1.226,5.023,5.023,0,0,1,1.116,3.5q0,3.076-1.608,4.395a3.634,3.634,0,0,1-2.373.835,3.221,3.221,0,0,1-1.784-.466,4.111,4.111,0,0,1-.94-.905V3.753H46.065Zm10.18-.044h1.5v1.626a3.592,3.592,0,0,1,.905-1.156,2.347,2.347,0,0,1,1.661-.681q.044,0,.149.009t.36.035v1.67a2.363,2.363,0,0,0-.259-.035q-.119-.009-.259-.009a2.258,2.258,0,0,0-1.837.769,2.684,2.684,0,0,0-.642,1.771V0H56.245ZM65.932-1.02A2.182,2.182,0,0,0,68.09-2.21a5.933,5.933,0,0,0,.584-2.65A4.718,4.718,0,0,0,68.253-7a2.373,2.373,0,0,0-2.3-1.3A2.271,2.271,0,0,0,63.841-7.2a5.133,5.133,0,0,0-.659,2.672,4.465,4.465,0,0,0,.659,2.5A2.322,2.322,0,0,0,65.932-1.02Zm.062-8.666A4.262,4.262,0,0,1,69.07-8.473,4.736,4.736,0,0,1,70.327-4.9a6.122,6.122,0,0,1-1.107,3.762A4.006,4.006,0,0,1,65.783.343,3.88,3.88,0,0,1,62.7-.971,5.19,5.19,0,0,1,61.555-4.5a5.615,5.615,0,0,1,1.2-3.779A4.041,4.041,0,0,1,65.994-9.686ZM73.212-4.6a4.666,4.666,0,0,0,.642,2.531,2.248,2.248,0,0,0,2.057,1.02,2.166,2.166,0,0,0,1.806-.945A4.462,4.462,0,0,0,78.423-4.7a4.009,4.009,0,0,0-.729-2.641,2.276,2.276,0,0,0-1.8-.857,2.378,2.378,0,0,0-1.938.914A4.186,4.186,0,0,0,73.212-4.6ZM75.593-9.58a3.349,3.349,0,0,1,1.811.457,4.253,4.253,0,0,1,.958.923v-4.755h1.521V0H78.459V-1.31a3.423,3.423,0,0,1-1.31,1.257,3.748,3.748,0,0,1-1.731.387A3.506,3.506,0,0,1,72.693-.989a5.172,5.172,0,0,1-1.151-3.52,6.076,6.076,0,0,1,1.05-3.564A3.439,3.439,0,0,1,75.593-9.58Zm8.211.167v6.249a2.635,2.635,0,0,0,.229,1.178,1.6,1.6,0,0,0,1.573.844,2.224,2.224,0,0,0,2.25-1.477,5.858,5.858,0,0,0,.325-2.171V-9.413h1.582V0H88.269l.018-1.389a3.191,3.191,0,0,1-.765.905,3.365,3.365,0,0,1-2.2.738A2.834,2.834,0,0,1,82.582-1.09a4,4,0,0,1-.4-1.925v-6.4Zm12.06-.272a4.1,4.1,0,0,1,2.588.773,3.705,3.705,0,0,1,1.2,2.663H98.115a2.839,2.839,0,0,0-.642-1.446,2.027,2.027,0,0,0-1.608-.576A2.222,2.222,0,0,0,93.7-6.794a5.865,5.865,0,0,0-.422,2.364,4.449,4.449,0,0,0,.6,2.382,2.05,2.05,0,0,0,1.881.967,2.057,2.057,0,0,0,1.56-.6,3.311,3.311,0,0,0,.8-1.648h1.538A4.129,4.129,0,0,1,98.334-.593a4.113,4.113,0,0,1-2.7.866,3.6,3.6,0,0,1-2.944-1.349,5.164,5.164,0,0,1-1.1-3.371,5.678,5.678,0,0,1,1.2-3.858A3.891,3.891,0,0,1,95.865-9.686Zm9,0a4.1,4.1,0,0,1,2.588.773,3.705,3.705,0,0,1,1.2,2.663h-1.538a2.839,2.839,0,0,0-.642-1.446,2.027,2.027,0,0,0-1.608-.576A2.222,2.222,0,0,0,102.7-6.794a5.865,5.865,0,0,0-.422,2.364,4.449,4.449,0,0,0,.6,2.382,2.05,2.05,0,0,0,1.881.967,2.057,2.057,0,0,0,1.56-.6,3.311,3.311,0,0,0,.8-1.648h1.538a4.129,4.129,0,0,1-1.318,2.738,4.113,4.113,0,0,1-2.7.866,3.6,3.6,0,0,1-2.944-1.349,5.164,5.164,0,0,1-1.1-3.371,5.678,5.678,0,0,1,1.2-3.858A3.891,3.891,0,0,1,104.866-9.686Zm5.372.316h1.608V0h-1.608Zm0-3.542h1.608v1.793h-1.608ZM117.974-1.02a2.182,2.182,0,0,0,2.158-1.191,5.933,5.933,0,0,0,.584-2.65A4.718,4.718,0,0,0,120.295-7a2.373,2.373,0,0,0-2.3-1.3A2.271,2.271,0,0,0,115.883-7.2a5.133,5.133,0,0,0-.659,2.672,4.465,4.465,0,0,0,.659,2.5A2.322,2.322,0,0,0,117.974-1.02Zm.062-8.666a4.262,4.262,0,0,1,3.076,1.213A4.736,4.736,0,0,1,122.369-4.9a6.122,6.122,0,0,1-1.107,3.762A4.006,4.006,0,0,1,117.825.343,3.88,3.88,0,0,1,114.74-.971,5.19,5.19,0,0,1,113.6-4.5a5.615,5.615,0,0,1,1.2-3.779A4.041,4.041,0,0,1,118.036-9.686Zm1.837-3.516-2.347,2.54h-1.213l1.608-2.54Zm4.379,3.788h1.5v1.336a4.215,4.215,0,0,1,1.415-1.187,3.774,3.774,0,0,1,1.661-.36,2.739,2.739,0,0,1,2.707,1.4,4.962,4.962,0,0,1,.387,2.188V0h-1.608V-5.933a3.212,3.212,0,0,0-.255-1.389,1.545,1.545,0,0,0-1.529-.879,3.114,3.114,0,0,0-.923.114,2.377,2.377,0,0,0-1.143.773,2.329,2.329,0,0,0-.514.962,6.478,6.478,0,0,0-.119,1.419V0h-1.582Zm15.332-2.628h1.6v2.628h1.5v1.292h-1.5v6.144a.665.665,0,0,0,.334.659,1.42,1.42,0,0,0,.615.1q.114,0,.246,0t.308-.022V0a3.532,3.532,0,0,1-.567.114,5.39,5.39,0,0,1-.637.035,1.717,1.717,0,0,1-1.5-.567,2.519,2.519,0,0,1-.4-1.472V-8.121h-1.274V-9.413h1.274ZM148.005-1.02a2.182,2.182,0,0,0,2.158-1.191,5.933,5.933,0,0,0,.584-2.65A4.718,4.718,0,0,0,150.325-7a2.373,2.373,0,0,0-2.3-1.3A2.271,2.271,0,0,0,145.913-7.2a5.133,5.133,0,0,0-.659,2.672,4.465,4.465,0,0,0,.659,2.5A2.322,2.322,0,0,0,148.005-1.02Zm.062-8.666a4.262,4.262,0,0,1,3.076,1.213A4.736,4.736,0,0,1,152.4-4.9a6.122,6.122,0,0,1-1.107,3.762A4.006,4.006,0,0,1,147.856.343a3.88,3.88,0,0,1-3.085-1.314A5.19,5.19,0,0,1,143.628-4.5a5.615,5.615,0,0,1,1.2-3.779A4.041,4.041,0,0,1,148.067-9.686Zm6.532-2.355h1.6v2.628h1.5v1.292h-1.5v6.144a.665.665,0,0,0,.334.659,1.42,1.42,0,0,0,.615.1q.114,0,.246,0t.308-.022V0a3.532,3.532,0,0,1-.567.114,5.39,5.39,0,0,1-.637.035,1.717,1.717,0,0,1-1.5-.567,2.519,2.519,0,0,1-.4-1.472V-8.121h-1.274V-9.413H154.6ZM160.5-2.5a1.3,1.3,0,0,0,.5,1.081,1.857,1.857,0,0,0,1.187.4,3.608,3.608,0,0,0,1.617-.387,2.176,2.176,0,0,0,1.318-2.1V-4.79a2.707,2.707,0,0,1-.747.308,6.366,6.366,0,0,1-.9.176l-.958.123a3.664,3.664,0,0,0-1.292.36A1.4,1.4,0,0,0,160.5-2.5Zm3.832-3.2a.859.859,0,0,0,.729-.457,1.391,1.391,0,0,0,.105-.606,1.285,1.285,0,0,0-.576-1.173,3.089,3.089,0,0,0-1.648-.365,2.094,2.094,0,0,0-1.758.668,2.2,2.2,0,0,0-.378,1.1h-1.477a2.718,2.718,0,0,1,1.129-2.421,4.637,4.637,0,0,1,2.518-.681,5.124,5.124,0,0,1,2.7.633A2.147,2.147,0,0,1,166.7-7.04v5.423a.694.694,0,0,0,.1.4.487.487,0,0,0,.426.149q.105,0,.237-.013t.281-.04V.044a4.406,4.406,0,0,1-.562.132,4.111,4.111,0,0,1-.527.026,1.3,1.3,0,0,1-1.187-.58,2.239,2.239,0,0,1-.272-.87,4.025,4.025,0,0,1-1.389,1.1,4.3,4.3,0,0,1-2,.466,2.967,2.967,0,0,1-2.14-.8,2.642,2.642,0,0,1-.831-1.991,2.564,2.564,0,0,1,.817-2.03,3.889,3.889,0,0,1,2.145-.888Zm5.012-7.207h1.582V0h-1.582ZM179.3-4.6a4.666,4.666,0,0,0,.642,2.531A2.248,2.248,0,0,0,182-1.046a2.166,2.166,0,0,0,1.806-.945,4.462,4.462,0,0,0,.708-2.711,4.009,4.009,0,0,0-.729-2.641,2.276,2.276,0,0,0-1.8-.857,2.378,2.378,0,0,0-1.938.914A4.186,4.186,0,0,0,179.3-4.6Zm2.382-4.983a3.349,3.349,0,0,1,1.811.457,4.253,4.253,0,0,1,.958.923v-4.755h1.521V0H184.55V-1.31a3.423,3.423,0,0,1-1.31,1.257,3.748,3.748,0,0,1-1.731.387,3.506,3.506,0,0,1-2.725-1.323,5.172,5.172,0,0,1-1.151-3.52,6.076,6.076,0,0,1,1.05-3.564A3.439,3.439,0,0,1,181.685-9.58Zm6.629.211h1.608V0h-1.608Zm0-3.542h1.608v1.793h-1.608Zm4.774,3.5L195.6-1.749l2.628-7.664h1.731L196.41,0h-1.687l-3.472-9.413Zm8.228.044h1.608V0h-1.608Zm0-3.542h1.608v1.793h-1.608Zm5,8.314a4.666,4.666,0,0,0,.642,2.531,2.248,2.248,0,0,0,2.057,1.02,2.166,2.166,0,0,0,1.806-.945,4.462,4.462,0,0,0,.708-2.711,4.009,4.009,0,0,0-.729-2.641A2.276,2.276,0,0,0,209-8.2a2.378,2.378,0,0,0-1.938.914A4.186,4.186,0,0,0,206.319-4.6ZM208.7-9.58a3.349,3.349,0,0,1,1.811.457,4.253,4.253,0,0,1,.958.923v-4.755h1.521V0h-1.424V-1.31a3.423,3.423,0,0,1-1.31,1.257,3.748,3.748,0,0,1-1.731.387A3.506,3.506,0,0,1,205.8-.989a5.172,5.172,0,0,1-1.151-3.52,6.076,6.076,0,0,1,1.05-3.564A3.439,3.439,0,0,1,208.7-9.58Zm6.629.211h1.608V0H215.33Zm0-3.542h1.608v1.793H215.33Zm5,8.314a4.666,4.666,0,0,0,.642,2.531,2.248,2.248,0,0,0,2.057,1.02,2.166,2.166,0,0,0,1.806-.945,4.462,4.462,0,0,0,.708-2.711,4.009,4.009,0,0,0-.729-2.641,2.276,2.276,0,0,0-1.8-.857,2.378,2.378,0,0,0-1.938.914A4.186,4.186,0,0,0,220.332-4.6Zm2.382-4.983a3.349,3.349,0,0,1,1.811.457,4.253,4.253,0,0,1,.958.923v-4.755H227V0H225.58V-1.31a3.423,3.423,0,0,1-1.31,1.257,3.748,3.748,0,0,1-1.731.387,3.506,3.506,0,0,1-2.725-1.323,5.172,5.172,0,0,1-1.151-3.52,6.076,6.076,0,0,1,1.05-3.564A3.439,3.439,0,0,1,222.714-9.58ZM230.556-2.5a1.3,1.3,0,0,0,.5,1.081,1.857,1.857,0,0,0,1.187.4,3.608,3.608,0,0,0,1.617-.387,2.176,2.176,0,0,0,1.318-2.1V-4.79a2.707,2.707,0,0,1-.747.308,6.366,6.366,0,0,1-.9.176l-.958.123a3.664,3.664,0,0,0-1.292.36A1.4,1.4,0,0,0,230.556-2.5Zm3.832-3.2a.859.859,0,0,0,.729-.457,1.391,1.391,0,0,0,.105-.606,1.285,1.285,0,0,0-.576-1.173A3.089,3.089,0,0,0,233-8.306a2.094,2.094,0,0,0-1.758.668,2.2,2.2,0,0,0-.378,1.1h-1.477a2.718,2.718,0,0,1,1.129-2.421,4.637,4.637,0,0,1,2.518-.681,5.124,5.124,0,0,1,2.7.633,2.147,2.147,0,0,1,1.028,1.969v5.423a.694.694,0,0,0,.1.4.487.487,0,0,0,.426.149q.105,0,.237-.013t.281-.04V.044a4.406,4.406,0,0,1-.562.132,4.111,4.111,0,0,1-.527.026,1.3,1.3,0,0,1-1.187-.58,2.239,2.239,0,0,1-.272-.87,4.025,4.025,0,0,1-1.389,1.1,4.3,4.3,0,0,1-2,.466,2.967,2.967,0,0,1-2.14-.8A2.642,2.642,0,0,1,228.9-2.47a2.564,2.564,0,0,1,.817-2.03,3.889,3.889,0,0,1,2.145-.888Zm13.89-3.92a4.294,4.294,0,0,1,1.942.47,3.582,3.582,0,0,1,1.433,1.217,4.2,4.2,0,0,1,.633,1.661,10.868,10.868,0,0,1,.141,2.074h-6.9a4.026,4.026,0,0,0,.677,2.3,2.266,2.266,0,0,0,1.96.866,2.534,2.534,0,0,0,1.978-.817,2.755,2.755,0,0,0,.6-1.1h1.556a3.276,3.276,0,0,1-.409,1.156,4.111,4.111,0,0,1-.778,1.042,3.687,3.687,0,0,1-1.784.949,5.42,5.42,0,0,1-1.292.141,3.964,3.964,0,0,1-2.979-1.279,4.976,4.976,0,0,1-1.222-3.582,5.41,5.41,0,0,1,1.23-3.683A4.059,4.059,0,0,1,248.278-9.624ZM250.8-5.458a4.1,4.1,0,0,0-.448-1.644,2.3,2.3,0,0,0-2.171-1.143,2.406,2.406,0,0,0-1.828.787,2.972,2.972,0,0,0-.782,2Zm3.57-3.955h1.5v1.336a4.215,4.215,0,0,1,1.415-1.187,3.773,3.773,0,0,1,1.661-.36,2.739,2.739,0,0,1,2.707,1.4,4.962,4.962,0,0,1,.387,2.188V0h-1.608V-5.933a3.212,3.212,0,0,0-.255-1.389,1.545,1.545,0,0,0-1.529-.879,3.114,3.114,0,0,0-.923.114,2.377,2.377,0,0,0-1.143.773,2.329,2.329,0,0,0-.514.962,6.479,6.479,0,0,0-.119,1.419V0h-1.582ZM264.7-12.041h1.6v2.628h1.5v1.292h-1.5v6.144a.665.665,0,0,0,.334.659,1.42,1.42,0,0,0,.615.1q.114,0,.246,0t.308-.022V0a3.532,3.532,0,0,1-.567.114,5.39,5.39,0,0,1-.637.035,1.717,1.717,0,0,1-1.5-.567,2.519,2.519,0,0,1-.4-1.472V-8.121h-1.274V-9.413H264.7Zm4.73,2.628h1.5v1.626a3.592,3.592,0,0,1,.905-1.156,2.347,2.347,0,0,1,1.661-.681q.044,0,.149.009t.36.035v1.67a2.363,2.363,0,0,0-.259-.035q-.119-.009-.259-.009a2.258,2.258,0,0,0-1.837.769,2.684,2.684,0,0,0-.642,1.771V0H269.43Zm9.872-.211a4.294,4.294,0,0,1,1.942.47,3.582,3.582,0,0,1,1.433,1.217,4.2,4.2,0,0,1,.633,1.661,10.868,10.868,0,0,1,.141,2.074h-6.9a4.026,4.026,0,0,0,.677,2.3,2.266,2.266,0,0,0,1.96.866,2.534,2.534,0,0,0,1.978-.817,2.755,2.755,0,0,0,.6-1.1h1.556A3.276,3.276,0,0,1,282.91-1.8a4.111,4.111,0,0,1-.778,1.042,3.687,3.687,0,0,1-1.784.949,5.42,5.42,0,0,1-1.292.141,3.964,3.964,0,0,1-2.979-1.279,4.976,4.976,0,0,1-1.222-3.582,5.41,5.41,0,0,1,1.23-3.683A4.059,4.059,0,0,1,279.3-9.624Zm2.522,4.166a4.1,4.1,0,0,0-.448-1.644,2.3,2.3,0,0,0-2.171-1.143,2.406,2.406,0,0,0-1.828.787,2.972,2.972,0,0,0-.782,2Zm12.493-4.166a4.294,4.294,0,0,1,1.942.47,3.582,3.582,0,0,1,1.433,1.217,4.2,4.2,0,0,1,.633,1.661,10.868,10.868,0,0,1,.141,2.074h-6.9a4.026,4.026,0,0,0,.677,2.3,2.266,2.266,0,0,0,1.96.866,2.534,2.534,0,0,0,1.978-.817,2.755,2.755,0,0,0,.6-1.1h1.556a3.276,3.276,0,0,1-.409,1.156,4.111,4.111,0,0,1-.778,1.042,3.687,3.687,0,0,1-1.784.949,5.42,5.42,0,0,1-1.292.141,3.964,3.964,0,0,1-2.979-1.279,4.976,4.976,0,0,1-1.222-3.582,5.41,5.41,0,0,1,1.23-3.683A4.059,4.059,0,0,1,294.317-9.624Zm2.522,4.166a4.1,4.1,0,0,0-.448-1.644,2.3,2.3,0,0,0-2.171-1.143,2.406,2.406,0,0,0-1.828.787,2.972,2.972,0,0,0-.782,2Zm3.614-7.453h1.582V0h-1.582Zm8.96,3.5h1.5v1.336a4.215,4.215,0,0,1,1.415-1.187,3.773,3.773,0,0,1,1.661-.36,2.739,2.739,0,0,1,2.707,1.4,4.962,4.962,0,0,1,.387,2.188V0h-1.608V-5.933a3.212,3.212,0,0,0-.255-1.389,1.545,1.545,0,0,0-1.529-.879,3.114,3.114,0,0,0-.923.114,2.377,2.377,0,0,0-1.143.773,2.329,2.329,0,0,0-.514.962A6.478,6.478,0,0,0,311-4.931V0h-1.582Zm11.595,0v6.249a2.635,2.635,0,0,0,.229,1.178,1.6,1.6,0,0,0,1.573.844,2.224,2.224,0,0,0,2.25-1.477,5.858,5.858,0,0,0,.325-2.171V-9.413h1.582V0h-1.494l.018-1.389a3.191,3.191,0,0,1-.765.905,3.365,3.365,0,0,1-2.2.738,2.834,2.834,0,0,1-2.742-1.345,4,4,0,0,1-.4-1.925v-6.4Zm4.061-3.788-2.347,2.54h-1.213l1.608-2.54Zm4.37,3.788H331v1.336a5.258,5.258,0,0,1,1.02-1.011,3.066,3.066,0,0,1,1.775-.536,2.794,2.794,0,0,1,1.811.554,2.894,2.894,0,0,1,.7.932,3.419,3.419,0,0,1,1.239-1.121,3.457,3.457,0,0,1,1.6-.365,2.616,2.616,0,0,1,2.584,1.371,4.482,4.482,0,0,1,.369,1.986V0H340.46V-6.539a1.523,1.523,0,0,0-.47-1.292,1.861,1.861,0,0,0-1.147-.352,2.277,2.277,0,0,0-1.6.624,2.74,2.74,0,0,0-.672,2.083V0h-1.608V-6.144a3.192,3.192,0,0,0-.229-1.4,1.394,1.394,0,0,0-1.345-.659,2.32,2.32,0,0,0-1.63.694,3.4,3.4,0,0,0-.734,2.514V0h-1.582Zm18.916-.211a4.294,4.294,0,0,1,1.942.47,3.582,3.582,0,0,1,1.433,1.217,4.2,4.2,0,0,1,.633,1.661A10.868,10.868,0,0,1,352.5-4.2h-6.9a4.026,4.026,0,0,0,.677,2.3,2.266,2.266,0,0,0,1.96.866,2.534,2.534,0,0,0,1.978-.817,2.755,2.755,0,0,0,.6-1.1h1.556a3.276,3.276,0,0,1-.409,1.156,4.111,4.111,0,0,1-.778,1.042A3.687,3.687,0,0,1,349.4.193a5.42,5.42,0,0,1-1.292.141,3.964,3.964,0,0,1-2.979-1.279,4.976,4.976,0,0,1-1.222-3.582,5.41,5.41,0,0,1,1.23-3.683A4.059,4.059,0,0,1,348.355-9.624Zm2.522,4.166a4.1,4.1,0,0,0-.448-1.644,2.3,2.3,0,0,0-2.171-1.143,2.406,2.406,0,0,0-1.828.787,2.972,2.972,0,0,0-.782,2Zm3.614-3.955h1.5v1.626a3.592,3.592,0,0,1,.905-1.156,2.347,2.347,0,0,1,1.661-.681q.044,0,.149.009t.36.035v1.67a2.363,2.363,0,0,0-.259-.035q-.119-.009-.259-.009a2.258,2.258,0,0,0-1.837.769,2.684,2.684,0,0,0-.642,1.771V0h-1.582Zm9.687,8.394a2.182,2.182,0,0,0,2.158-1.191,5.933,5.933,0,0,0,.584-2.65A4.718,4.718,0,0,0,366.5-7a2.373,2.373,0,0,0-2.3-1.3A2.271,2.271,0,0,0,362.087-7.2a5.133,5.133,0,0,0-.659,2.672,4.465,4.465,0,0,0,.659,2.5A2.322,2.322,0,0,0,364.178-1.02Zm.062-8.666a4.262,4.262,0,0,1,3.076,1.213A4.736,4.736,0,0,1,368.573-4.9a6.122,6.122,0,0,1-1.107,3.762A4.006,4.006,0,0,1,364.029.343a3.88,3.88,0,0,1-3.085-1.314A5.19,5.19,0,0,1,359.8-4.5a5.615,5.615,0,0,1,1.2-3.779A4.041,4.041,0,0,1,364.24-9.686ZM376.46-4.6a4.666,4.666,0,0,0,.642,2.531,2.248,2.248,0,0,0,2.057,1.02,2.166,2.166,0,0,0,1.806-.945,4.462,4.462,0,0,0,.708-2.711,4.009,4.009,0,0,0-.729-2.641,2.276,2.276,0,0,0-1.8-.857,2.378,2.378,0,0,0-1.938.914A4.186,4.186,0,0,0,376.46-4.6Zm2.382-4.983a3.349,3.349,0,0,1,1.811.457,4.253,4.253,0,0,1,.958.923v-4.755h1.521V0h-1.424V-1.31A3.423,3.423,0,0,1,380.4-.053a3.748,3.748,0,0,1-1.731.387,3.506,3.506,0,0,1-2.725-1.323,5.172,5.172,0,0,1-1.151-3.52,6.076,6.076,0,0,1,1.05-3.564A3.439,3.439,0,0,1,378.842-9.58Zm10.549-.044a4.294,4.294,0,0,1,1.942.47,3.582,3.582,0,0,1,1.433,1.217,4.2,4.2,0,0,1,.633,1.661,10.868,10.868,0,0,1,.141,2.074h-6.9a4.026,4.026,0,0,0,.677,2.3,2.266,2.266,0,0,0,1.96.866,2.534,2.534,0,0,0,1.978-.817,2.755,2.755,0,0,0,.6-1.1h1.556A3.276,3.276,0,0,1,393-1.8a4.111,4.111,0,0,1-.778,1.042,3.687,3.687,0,0,1-1.784.949,5.42,5.42,0,0,1-1.292.141,3.964,3.964,0,0,1-2.979-1.279,4.976,4.976,0,0,1-1.222-3.582,5.41,5.41,0,0,1,1.23-3.683A4.059,4.059,0,0,1,389.391-9.624Zm2.522,4.166a4.1,4.1,0,0,0-.448-1.644,2.3,2.3,0,0,0-2.171-1.143,2.406,2.406,0,0,0-1.828.787,2.972,2.972,0,0,0-.782,2Zm8.889-6.583h1.6v2.628h1.5v1.292h-1.5v6.144a.665.665,0,0,0,.334.659,1.42,1.42,0,0,0,.615.1q.114,0,.246,0t.308-.022V0a3.532,3.532,0,0,1-.567.114,5.39,5.39,0,0,1-.637.035,1.717,1.717,0,0,1-1.5-.567,2.519,2.519,0,0,1-.4-1.472V-8.121h-1.274V-9.413H400.8Zm4.73,2.628h1.5v1.626a3.592,3.592,0,0,1,.905-1.156,2.347,2.347,0,0,1,1.661-.681q.044,0,.149.009t.36.035v1.67a2.363,2.363,0,0,0-.259-.035q-.119-.009-.259-.009a2.258,2.258,0,0,0-1.837.769,2.684,2.684,0,0,0-.642,1.771V0h-1.582ZM412.7-2.5a1.3,1.3,0,0,0,.5,1.081,1.857,1.857,0,0,0,1.187.4A3.608,3.608,0,0,0,416-1.415a2.176,2.176,0,0,0,1.318-2.1V-4.79a2.707,2.707,0,0,1-.747.308,6.366,6.366,0,0,1-.9.176l-.958.123a3.664,3.664,0,0,0-1.292.36A1.4,1.4,0,0,0,412.7-2.5Zm3.832-3.2a.859.859,0,0,0,.729-.457,1.391,1.391,0,0,0,.105-.606,1.285,1.285,0,0,0-.576-1.173,3.089,3.089,0,0,0-1.648-.365,2.094,2.094,0,0,0-1.758.668,2.2,2.2,0,0,0-.378,1.1h-1.477a2.718,2.718,0,0,1,1.129-2.421,4.637,4.637,0,0,1,2.518-.681,5.124,5.124,0,0,1,2.7.633A2.147,2.147,0,0,1,418.9-7.04v5.423a.694.694,0,0,0,.1.4.487.487,0,0,0,.426.149q.105,0,.237-.013t.281-.04V.044a4.406,4.406,0,0,1-.562.132,4.111,4.111,0,0,1-.527.026,1.3,1.3,0,0,1-1.187-.58,2.239,2.239,0,0,1-.272-.87,4.025,4.025,0,0,1-1.389,1.1,4.3,4.3,0,0,1-2,.466,2.967,2.967,0,0,1-2.14-.8,2.642,2.642,0,0,1-.831-1.991,2.564,2.564,0,0,1,.817-2.03,3.889,3.889,0,0,1,2.145-.888Zm4.845-7.251h1.538v4.685A3.508,3.508,0,0,1,424.152-9.3a3.484,3.484,0,0,1,1.564-.356,3.667,3.667,0,0,1,2.852,1.208,5.148,5.148,0,0,1,1.094,3.564,6.112,6.112,0,0,1-1.081,3.709,3.507,3.507,0,0,1-3,1.477,3.071,3.071,0,0,1-1.811-.519,4.372,4.372,0,0,1-.94-.984V0h-1.459ZM425.488-1.1a2.114,2.114,0,0,0,1.92-1.02,5.02,5.02,0,0,0,.637-2.689,4.414,4.414,0,0,0-.637-2.461,2.1,2.1,0,0,0-1.876-.976,2.617,2.617,0,0,0-1.894.8,3.592,3.592,0,0,0-.813,2.637,5.827,5.827,0,0,0,.334,2.153A2.308,2.308,0,0,0,425.488-1.1ZM432.723-2.5a1.3,1.3,0,0,0,.5,1.081,1.857,1.857,0,0,0,1.187.4,3.608,3.608,0,0,0,1.617-.387,2.176,2.176,0,0,0,1.318-2.1V-4.79a2.707,2.707,0,0,1-.747.308,6.366,6.366,0,0,1-.9.176l-.958.123a3.664,3.664,0,0,0-1.292.36A1.4,1.4,0,0,0,432.723-2.5Zm3.832-3.2a.859.859,0,0,0,.729-.457,1.391,1.391,0,0,0,.105-.606,1.285,1.285,0,0,0-.576-1.173,3.089,3.089,0,0,0-1.648-.365,2.094,2.094,0,0,0-1.758.668,2.2,2.2,0,0,0-.378,1.1h-1.477a2.718,2.718,0,0,1,1.129-2.421,4.637,4.637,0,0,1,2.518-.681,5.124,5.124,0,0,1,2.7.633,2.147,2.147,0,0,1,1.028,1.969v5.423a.694.694,0,0,0,.1.4.487.487,0,0,0,.426.149q.105,0,.237-.013t.281-.04V.044a4.406,4.406,0,0,1-.562.132,4.111,4.111,0,0,1-.527.026,1.3,1.3,0,0,1-1.187-.58,2.239,2.239,0,0,1-.272-.87,4.025,4.025,0,0,1-1.389,1.1,4.3,4.3,0,0,1-2,.466,2.967,2.967,0,0,1-2.14-.8,2.642,2.642,0,0,1-.831-1.991,2.564,2.564,0,0,1,.817-2.03,3.889,3.889,0,0,1,2.145-.888Zm6.55-5.379h-1.582v-1.828H443.1ZM440.029,2.382a3.149,3.149,0,0,0,1.279-.189q.215-.154.215-.962v-10.6H443.1V1.4a2.84,2.84,0,0,1-.334,1.538,2.31,2.31,0,0,1-2.1.861q-.114,0-.242-.009t-.4-.035ZM446.736-2.5a1.3,1.3,0,0,0,.5,1.081,1.857,1.857,0,0,0,1.187.4,3.608,3.608,0,0,0,1.617-.387,2.176,2.176,0,0,0,1.318-2.1V-4.79a2.707,2.707,0,0,1-.747.308,6.366,6.366,0,0,1-.9.176l-.958.123a3.664,3.664,0,0,0-1.292.36A1.4,1.4,0,0,0,446.736-2.5Zm3.832-3.2a.859.859,0,0,0,.729-.457,1.391,1.391,0,0,0,.105-.606,1.285,1.285,0,0,0-.576-1.173,3.089,3.089,0,0,0-1.648-.365,2.094,2.094,0,0,0-1.758.668,2.2,2.2,0,0,0-.378,1.1h-1.477A2.718,2.718,0,0,1,446.7-8.96a4.637,4.637,0,0,1,2.518-.681,5.124,5.124,0,0,1,2.7.633,2.147,2.147,0,0,1,1.028,1.969v5.423a.694.694,0,0,0,.1.4.487.487,0,0,0,.426.149q.105,0,.237-.013t.281-.04V.044a4.406,4.406,0,0,1-.562.132A4.111,4.111,0,0,1,452.9.2a1.3,1.3,0,0,1-1.187-.58,2.239,2.239,0,0,1-.272-.87,4.025,4.025,0,0,1-1.389,1.1,4.3,4.3,0,0,1-2,.466,2.967,2.967,0,0,1-2.14-.8,2.642,2.642,0,0,1-.831-1.991A2.564,2.564,0,0,1,445.9-4.5a3.889,3.889,0,0,1,2.145-.888Zm5.97,1.107a4.666,4.666,0,0,0,.642,2.531,2.248,2.248,0,0,0,2.057,1.02,2.166,2.166,0,0,0,1.806-.945A4.462,4.462,0,0,0,461.75-4.7a4.009,4.009,0,0,0-.729-2.641,2.276,2.276,0,0,0-1.8-.857,2.378,2.378,0,0,0-1.938.914A4.186,4.186,0,0,0,456.538-4.6ZM458.92-9.58a3.349,3.349,0,0,1,1.811.457,4.253,4.253,0,0,1,.958.923v-4.755h1.521V0h-1.424V-1.31a3.423,3.423,0,0,1-1.31,1.257,3.748,3.748,0,0,1-1.731.387,3.506,3.506,0,0,1-2.725-1.323,5.172,5.172,0,0,1-1.151-3.52,6.076,6.076,0,0,1,1.05-3.564A3.439,3.439,0,0,1,458.92-9.58ZM469.284-1.02a2.182,2.182,0,0,0,2.158-1.191,5.933,5.933,0,0,0,.584-2.65A4.718,4.718,0,0,0,471.6-7a2.373,2.373,0,0,0-2.3-1.3A2.271,2.271,0,0,0,467.192-7.2a5.133,5.133,0,0,0-.659,2.672,4.465,4.465,0,0,0,.659,2.5A2.322,2.322,0,0,0,469.284-1.02Zm.062-8.666a4.262,4.262,0,0,1,3.076,1.213A4.736,4.736,0,0,1,473.678-4.9a6.122,6.122,0,0,1-1.107,3.762A4.006,4.006,0,0,1,469.135.343,3.88,3.88,0,0,1,466.05-.971,5.19,5.19,0,0,1,464.907-4.5a5.615,5.615,0,0,1,1.2-3.779A4.041,4.041,0,0,1,469.345-9.686Zm6.26.272h1.5v1.626a3.592,3.592,0,0,1,.905-1.156,2.347,2.347,0,0,1,1.661-.681q.044,0,.149.009t.36.035v1.67a2.363,2.363,0,0,0-.259-.035q-.119-.009-.259-.009a2.258,2.258,0,0,0-1.837.769,2.684,2.684,0,0,0-.642,1.771V0h-1.582Zm9.872-.211a4.294,4.294,0,0,1,1.942.47,3.582,3.582,0,0,1,1.433,1.217,4.2,4.2,0,0,1,.633,1.661,10.868,10.868,0,0,1,.141,2.074h-6.9a4.026,4.026,0,0,0,.677,2.3,2.266,2.266,0,0,0,1.96.866,2.534,2.534,0,0,0,1.978-.817,2.755,2.755,0,0,0,.6-1.1h1.556a3.276,3.276,0,0,1-.409,1.156,4.111,4.111,0,0,1-.778,1.042,3.687,3.687,0,0,1-1.784.949,5.42,5.42,0,0,1-1.292.141,3.964,3.964,0,0,1-2.979-1.279,4.976,4.976,0,0,1-1.222-3.582,5.41,5.41,0,0,1,1.23-3.683A4.059,4.059,0,0,1,485.477-9.624ZM488-5.458a4.1,4.1,0,0,0-.448-1.644,2.3,2.3,0,0,0-2.171-1.143,2.406,2.406,0,0,0-1.828.787,2.972,2.972,0,0,0-.782,2Zm4.511,2.5a2.3,2.3,0,0,0,.4,1.213,2.485,2.485,0,0,0,2.074.765,3.059,3.059,0,0,0,1.547-.382,1.27,1.27,0,0,0,.668-1.182,1.011,1.011,0,0,0-.536-.923,6.374,6.374,0,0,0-1.354-.448l-1.257-.316a6.131,6.131,0,0,1-1.775-.668,2,2,0,0,1-1.02-1.775,2.713,2.713,0,0,1,.962-2.162,3.839,3.839,0,0,1,2.588-.826,3.593,3.593,0,0,1,3.067,1.248,2.708,2.708,0,0,1,.571,1.705h-1.494a1.83,1.83,0,0,0-.378-.976,2.41,2.41,0,0,0-1.89-.624,2.259,2.259,0,0,0-1.358.343,1.074,1.074,0,0,0-.461.905,1.114,1.114,0,0,0,.606.984,3.644,3.644,0,0,0,1.037.387l1.046.255a8.087,8.087,0,0,1,2.285.8,2.118,2.118,0,0,1,.923,1.907,2.906,2.906,0,0,1-.954,2.171,4.059,4.059,0,0,1-2.9.914,3.9,3.9,0,0,1-2.975-.954,3.606,3.606,0,0,1-.936-2.36Z" transform="translate(541 3415)" fill="#212429"/>
    <path id="Trazado_994283" data-name="Trazado 994283" d="M6124,2801.684v543.094" transform="translate(-5293.207 -12.335)" fill="none" stroke="#707070" stroke-width="1" stroke-dasharray="7"/>
    <path id="Trazado_994284" data-name="Trazado 994284" d="M6287.035,2744.22s-83.8-2.457-163.035,58.2-142.31,193.747-142.31,193.747" transform="translate(-5314)" fill="none" stroke="#707070" stroke-width="1"/>
    <path id="Trazado_994285" data-name="Trazado 994285" d="M6019,3286.934s62.167-75.489,125.063-75.489,126.523,75.489,126.523,75.489" transform="translate(-5314)" fill="none" stroke="#707070" stroke-width="1"/>
  </g>
</svg>
