<svg xmlns="http://www.w3.org/2000/svg" width="230" height="63" viewBox="0 0 230 63">
  <g id="Grupo_1159118" data-name="Grupo 1159118" transform="translate(-840 -6020)">
    <rect id="Fondo" width="230" height="63" transform="translate(840 6020)" fill="#fff"/>
    <path id="Trazado_994765" data-name="Trazado 994765" d="M4.367-3.906,6.211,0,4.8.016,3.789-2.492q-.047-.125-.129-.336l-.152-.391H3.469q-.055.078-.129.176L3.2-2.852q-.07.094-.137.176t-.113.145L.852,0H-.672l3.6-3.984L1.133-8H2.547l.961,2.547q.07.188.141.406t.109.344h.031q.047-.055.109-.137l.133-.176q.07-.094.145-.187t.145-.172L6.492-8H7.953ZM9.379,5,10.6-.692,8.983-.254l.159-.72,2.4-.67L10.136,5ZM17-8.2l1.492,1.906-.867.594L16.408-7.758,15.182-5.7l-.867-.594L15.823-8.2l-2.164-.43.336-.977,2.047.773L15.869-11.2h1.07l-.18,2.375L18.807-9.6l.336.977ZM25.4-5.8V-6.852h7.344V-5.8Zm0,3.328V-3.523h7.344v1.047Z" transform="translate(879 6056)" fill="#212429"/>
    <path id="Trazado_994766" data-name="Trazado 994766" d="M4.367-3.906,6.211,0,4.8.016,3.789-2.492q-.047-.125-.129-.336l-.152-.391H3.469q-.055.078-.129.176L3.2-2.852q-.07.094-.137.176t-.113.145L.852,0H-.672l3.6-3.984L1.133-8H2.547l.961,2.547q.07.188.141.406t.109.344h.031q.047-.055.109-.137l.133-.176q.07-.094.145-.187t.145-.172L6.492-8H7.953Zm9.986-4.812A1.517,1.517,0,0,0,13.9-9.887a1.759,1.759,0,0,0-1.246-.418,3.922,3.922,0,0,0-1.523.32,4.92,4.92,0,0,0-1.43.93l.32-1.437a4.15,4.15,0,0,1,1.355-.7,5.811,5.811,0,0,1,1.59-.2,2.888,2.888,0,0,1,1.992.66A2.26,2.26,0,0,1,15.7-8.953a4.059,4.059,0,0,1-.324,1.676,4.455,4.455,0,0,1-1.035,1.395,13.8,13.8,0,0,1-2.078,1.531q-1.242.773-1.887,1.273a5.032,5.032,0,0,0-.957.922,2.657,2.657,0,0,0-.445,1.008h5.531L14.267,0H7.353L7.47-.555A5.4,5.4,0,0,1,8.076-2.18,5.57,5.57,0,0,1,9.2-3.5a19.257,19.257,0,0,1,2.242-1.609,13.31,13.31,0,0,0,1.723-1.25,4.048,4.048,0,0,0,.9-1.086A2.688,2.688,0,0,0,14.353-8.719ZM22.309-5.8V-6.852h7.344V-5.8Zm0,3.328V-3.523h7.344v1.047Zm21.941-5.6q0,.586-.055,1.223T44.024-5.57a12.946,12.946,0,0,1-.3,1.285,10.138,10.138,0,0,1-.441,1.23,8.317,8.317,0,0,1-.59,1.121,5.918,5.918,0,0,1-.746.957A3.614,3.614,0,0,1,39.242.2a2.709,2.709,0,0,1-1.16-.246,2.479,2.479,0,0,1-.9-.719A3.438,3.438,0,0,1,36.6-1.934a5.551,5.551,0,0,1-.207-1.59,11.938,11.938,0,0,1,.141-1.793,11.1,11.1,0,0,1,.43-1.8,9.769,9.769,0,0,1,.719-1.66A6.191,6.191,0,0,1,38.7-10.156a4.129,4.129,0,0,1,1.242-.91,3.6,3.6,0,0,1,1.555-.324,2.927,2.927,0,0,1,1.133.211,2.318,2.318,0,0,1,.871.629,2.879,2.879,0,0,1,.559,1.035A4.775,4.775,0,0,1,44.25-8.078Zm-1.3.109a3.111,3.111,0,0,0-.406-1.715,1.323,1.323,0,0,0-1.18-.621,1.944,1.944,0,0,0-.867.2,2.953,2.953,0,0,0-.8.6,4.512,4.512,0,0,0-.574.762,7.791,7.791,0,0,0-.492.953,10.053,10.053,0,0,0-.395,1.074q-.172.563-.293,1.125t-.184,1.1A8.781,8.781,0,0,0,37.7-3.484a4.622,4.622,0,0,0,.129,1.168,2.446,2.446,0,0,0,.355.8,1.412,1.412,0,0,0,.535.465,1.5,1.5,0,0,0,.66.148,1.958,1.958,0,0,0,.828-.187,2.451,2.451,0,0,0,.758-.562A5.036,5.036,0,0,0,41.742-2.8a10.287,10.287,0,0,0,.629-1.559A13.046,13.046,0,0,0,42.8-6.145,11.042,11.042,0,0,0,42.953-7.969Z" transform="translate(986 6056)" fill="#212429"/>
    <path id="Trazado_994767" data-name="Trazado 994767" d="M-.207,0H-1.551L.816-11.2H2.176ZM1.21,18.8A6.076,6.076,0,0,1,1.085,20,6.206,6.206,0,0,1,.7,21.219a6.02,6.02,0,0,1-.645,1.141,4.625,4.625,0,0,1-.91.949,4.22,4.22,0,0,1-1.188.648,4.323,4.323,0,0,1-1.469.238,4.833,4.833,0,0,1-.91-.086,5.6,5.6,0,0,1-.785-.2l-.8,3.8H-7.3l1.953-9.25q.055-.25.1-.6t.082-.707q.035-.355.059-.668T-5.079,16h1.313q0,.133-.02.359t-.051.473q-.031.246-.062.477t-.055.371h.031a4.221,4.221,0,0,1,1.25-1.41A2.672,2.672,0,0,1-1.157,15.8a2.476,2.476,0,0,1,.984.188,1.949,1.949,0,0,1,.746.563,2.6,2.6,0,0,1,.473.938A4.675,4.675,0,0,1,1.21,18.8ZM-.1,18.852a3.864,3.864,0,0,0-.074-.781,1.733,1.733,0,0,0-.246-.617,1.246,1.246,0,0,0-.441-.406,1.352,1.352,0,0,0-.66-.148,1.76,1.76,0,0,0-.762.168,2.623,2.623,0,0,0-.66.449,3.682,3.682,0,0,0-.555.652,6.484,6.484,0,0,0-.445.77,6.762,6.762,0,0,0-.332.8,6.037,6.037,0,0,0-.207.754l-.492,2.32a2.192,2.192,0,0,0,.336.113q.2.051.406.09t.43.063A3.83,3.83,0,0,0-3.4,23.1a2.7,2.7,0,0,0,1-.18,2.891,2.891,0,0,0,.82-.488,3.446,3.446,0,0,0,.641-.727,4.822,4.822,0,0,0,.465-.891A5.242,5.242,0,0,0-.2,19.84,5.4,5.4,0,0,0-.1,18.852ZM3.917,29l1.217-5.692-1.613.437.159-.72,2.4-.67L4.674,29Z" transform="translate(947 6046)" fill="#212429"/>
    <path id="Trazado_994259" data-name="Trazado 994259" d="M4204.926,4714.5h51.317" transform="translate(-3284 1337)" fill="none" stroke="#0b0a0a" stroke-width="1"/>
  </g>
</svg>
