<svg xmlns="http://www.w3.org/2000/svg" xmlns:xlink="http://www.w3.org/1999/xlink" width="108" height="108" viewBox="0 0 108 108">
  <defs>
    <filter id="Trazado_982547" x="0" y="0" width="108" height="108" filterUnits="userSpaceOnUse">
      <feOffset dy="3" input="SourceAlpha"/>
      <feGaussianBlur stdDeviation="3" result="blur"/>
      <feFlood flood-opacity="0.161"/>
      <feComposite operator="in" in2="blur"/>
      <feComposite in="SourceGraphic"/>
    </filter>
  </defs>
  <g id="Grupo_1159095" data-name="Grupo 1159095" transform="translate(9 6)">
    <g id="Grupo_1154033" data-name="Grupo 1154033">
      <g id="Grupo_1153177" data-name="Grupo 1153177">
        <g id="Grupo_1149598" data-name="Grupo 1149598">
          <g id="Grupo_1148770" data-name="Grupo 1148770">
            <g id="Grupo_1146954" data-name="Grupo 1146954">
              <g transform="matrix(1, 0, 0, 1, -9, -6)" filter="url(#Trazado_982547)">
                <g id="Trazado_982547-2" data-name="Trazado 982547" transform="translate(9 6)" fill="#f5fdfa">
                  <path d="M 45 88.5 C 39.12687683105469 88.5 33.43022537231445 87.35007476806641 28.06830024719238 85.08217620849609 C 22.88852500915527 82.89131164550781 18.23629951477051 79.75458526611328 14.2408504486084 75.75914764404297 C 10.24541282653809 71.76370239257812 7.108687400817871 67.11147308349609 4.917825222015381 61.93170166015625 C 2.649924993515015 56.56977462768555 1.5 50.87312316894531 1.5 45 C 1.5 39.12687683105469 2.649924993515015 33.43022537231445 4.917825222015381 28.06830024719238 C 7.108687400817871 22.88852500915527 10.24541282653809 18.23629951477051 14.2408504486084 14.2408504486084 C 18.23629951477051 10.24541282653809 22.88852500915527 7.108687400817871 28.06830024719238 4.917825222015381 C 33.43022537231445 2.649924993515015 39.12687683105469 1.5 45 1.5 C 50.87312316894531 1.5 56.56977462768555 2.649924993515015 61.93170166015625 4.917825222015381 C 67.11147308349609 7.108687400817871 71.76370239257812 10.24541282653809 75.75914764404297 14.2408504486084 C 79.75458526611328 18.23629951477051 82.89131164550781 22.88852500915527 85.08217620849609 28.06830024719238 C 87.35007476806641 33.43022537231445 88.5 39.12687683105469 88.5 45 C 88.5 50.87312316894531 87.35007476806641 56.56977462768555 85.08217620849609 61.93170166015625 C 82.89131164550781 67.11147308349609 79.75458526611328 71.76370239257812 75.75914764404297 75.75914764404297 C 71.76370239257812 79.75458526611328 67.11147308349609 82.89131164550781 61.93170166015625 85.08217620849609 C 56.56977462768555 87.35007476806641 50.87312316894531 88.5 45 88.5 Z" stroke="none"/>
                  <path d="M 45 3 C 39.32871246337891 3 33.82865524291992 4.110054016113281 28.65262985229492 6.299339294433594 C 23.65165710449219 8.414573669433594 19.15968322753906 11.44334411621094 15.301513671875 15.301513671875 C 11.44334411621094 19.15968322753906 8.414573669433594 23.65165710449219 6.299339294433594 28.65262985229492 C 4.110054016113281 33.82865524291992 3 39.32871246337891 3 45 C 3 50.67128753662109 4.110054016113281 56.17134475708008 6.299339294433594 61.34737396240234 C 8.414573669433594 66.34834289550781 11.44334411621094 70.84031677246094 15.301513671875 74.698486328125 C 19.15968322753906 78.55665588378906 23.65165710449219 81.58542633056641 28.65262985229492 83.70066070556641 C 33.82865524291992 85.88994598388672 39.32871246337891 87 45 87 C 50.67128753662109 87 56.17134475708008 85.88994598388672 61.34737396240234 83.70066070556641 C 66.34834289550781 81.58542633056641 70.84031677246094 78.55665588378906 74.698486328125 74.698486328125 C 78.55665588378906 70.84031677246094 81.58542633056641 66.34834289550781 83.70066070556641 61.34737396240234 C 85.88994598388672 56.17134475708008 87 50.67128753662109 87 45 C 87 39.32871246337891 85.88994598388672 33.82865524291992 83.70066070556641 28.65262985229492 C 81.58542633056641 23.65165710449219 78.55665588378906 19.15968322753906 74.698486328125 15.301513671875 C 70.84031677246094 11.44334411621094 66.34834289550781 8.414573669433594 61.34737396240234 6.299339294433594 C 56.17134475708008 4.110054016113281 50.67128753662109 3 45 3 M 45 0 C 69.85281372070312 0 90 20.14718627929688 90 45 C 90 69.85281372070312 69.85281372070312 90 45 90 C 20.14718627929688 90 0 69.85281372070312 0 45 C 0 20.14718627929688 20.14718627929688 0 45 0 Z" stroke="none" fill="#ee9865"/>
                </g>
              </g>
            </g>
          </g>
        </g>
      </g>
    </g>
    <g id="Layer_x0020_1" transform="translate(13.18 -22.385)">
      <path id="Trazado_994541" data-name="Trazado 994541" d="M17.336,53.163h-2.05v2.088a5.147,5.147,0,0,0,5.145,5.108c1.529,0,4.064.186,5.331-.373a5.061,5.061,0,0,0,3.244-4.735V53.163Zm32.249-2.125c-1.417,0-1.081-1.752-1.081-2.983H42.277a1.051,1.051,0,0,1-1.044-1.081V41.01a1.051,1.051,0,0,1,1.044-1.081H48.5c0-1.3-.261-2.461.6-2.871a1.023,1.023,0,0,1,1.156.149l7.27,5.928a1.094,1.094,0,0,1,0,1.678l-7.27,5.965A1.161,1.161,0,0,1,49.585,51.038Zm-6.226-5.145h6.226c1.156,0,1.081,1.193,1.081,1.79l4.474-3.691L50.666,40.3c0,.6.075,1.79-1.081,1.79H43.359ZM58.2,72.252H40.935a1.082,1.082,0,0,1-1.081-1.081V54.058a1.082,1.082,0,0,1,1.081-1.081H58.2a1.082,1.082,0,0,1,1.081,1.081V71.171A1.082,1.082,0,0,1,58.2,72.252Zm-16.18-2.162h15.1V55.139H53.164V59.65a1.082,1.082,0,0,1-1.081,1.081H47.05a1.082,1.082,0,0,1-1.081-1.081V55.139H42.017Zm6.114-11.52H51v-3.43H48.131Zm6.412,9.358H44.589a1.081,1.081,0,0,1,0-2.162h9.954A1.081,1.081,0,0,1,54.543,67.927ZM7.307,74.861V70.127a6.81,6.81,0,0,1,6.785-6.785h2.274l.447-1.79a7.255,7.255,0,0,1-3.654-6.3V53.163c-.6,0-1.752.075-1.752-1.081a10.719,10.719,0,0,1,7.158-10.141c-.112-1.044-.634-3.02.895-3.02H24.83c1.566,0,1.007,1.976.895,3.02a10.719,10.719,0,0,1,7.158,10.141c0,1.156-1.118,1.081-1.715,1.081v2.088a7.289,7.289,0,0,1-3.691,6.3l.485,1.79H30.2a6.786,6.786,0,0,1,6.785,6.785v4.66H55.252a8.388,8.388,0,0,1,0,16.777H53.8v5.182a1.082,1.082,0,0,1-1.081,1.081H10.886a1.082,1.082,0,0,1-1.081-1.081V91.564H8.388a8.386,8.386,0,0,1-1.081-16.7ZM16.889,65.5h-2.8A4.646,4.646,0,0,0,9.47,70.127v4.66h3.094v-3.02a1.081,1.081,0,0,1,2.162,0v3.02h6.338V68.3Zm17.933,9.283v-4.66A4.622,4.622,0,0,0,30.2,65.5H27.439l-4.213,2.8v6.487h6.338v-3.02a1.081,1.081,0,0,1,2.162,0v3.02Zm-16.4-10.849L22.145,66.4l3.728-2.461-.41-1.6a28.222,28.222,0,0,1-6.636,0ZM30.049,51h.634a8.853,8.853,0,0,0-1.752-4.213A4.4,4.4,0,0,0,27.738,51ZM8.388,76.949a6.226,6.226,0,0,0,0,12.452H55.252a6.226,6.226,0,0,0,0-12.452ZM8.91,87.575a4.418,4.418,0,1,1,4.437-4.4A4.407,4.407,0,0,1,8.91,87.575Zm0-6.673c-2.945,0-2.945,4.511,0,4.511A2.256,2.256,0,0,0,8.91,80.9Zm11.445,6.673a4.418,4.418,0,1,1,4.437-4.4A4.407,4.407,0,0,1,20.356,87.575Zm0-6.673c-2.945,0-2.945,4.511,0,4.511A2.256,2.256,0,0,0,20.356,80.9ZM31.8,87.575a4.418,4.418,0,1,1,4.437-4.4A4.407,4.407,0,0,1,31.8,87.575Zm0-6.673c-2.945,0-2.945,4.511,0,4.511A2.256,2.256,0,0,0,31.8,80.9Zm11.445,6.673a4.418,4.418,0,1,1,4.437-4.4A4.407,4.407,0,0,1,43.247,87.575Zm0-6.673c-2.945,0-2.945,4.511,0,4.511A2.256,2.256,0,0,0,43.247,80.9Zm11.445,6.673a4.418,4.418,0,1,1,4.437-4.4A4.407,4.407,0,0,1,54.692,87.575Zm0-6.673c-2.945,0-2.945,4.511,0,4.511A2.256,2.256,0,0,0,54.692,80.9ZM11.967,95.665H51.635v-4.1H11.967ZM16.553,51A4.468,4.468,0,0,0,15.4,46.788,8.5,8.5,0,0,0,13.645,51Zm.373-5.741A6.645,6.645,0,0,1,18.79,51h6.748A6.539,6.539,0,0,1,27.4,45.26a9.057,9.057,0,0,0-1.939-1.118c-.112,1.342,0,3.169-1.379,3.02a1.086,1.086,0,0,1-.969-1.193l.522-4.884H20.654l.559,4.884a1.087,1.087,0,0,1-2.162.224l-.224-2.05A7.981,7.981,0,0,0,16.926,45.26Z" fill-rule="evenodd"/>
      <path id="Trazado_994542" data-name="Trazado 994542" d="M1127,525v14.95h15.1V525h-3.952v4.511a1.082,1.082,0,0,1-1.081,1.081h-5.033a1.082,1.082,0,0,1-1.081-1.081V525Zm2.572,10.625h9.954a1.081,1.081,0,0,1,0,2.162h-9.954A1.081,1.081,0,0,1,1129.572,535.625Z" transform="translate(-1084.984 -469.861)" fill="#ffa721" fill-rule="evenodd"/>
      <path id="Trazado_994543" data-name="Trazado 994543" d="M1291,525v3.43h2.871V525Z" transform="translate(-1242.869 -469.861)" fill="#ff3131" fill-rule="evenodd"/>
      <path id="Trazado_994544" data-name="Trazado 994544" d="M1170.307,134.382l4.474-3.691L1170.307,127c0,.6.074,1.79-1.081,1.79H1163v3.8h6.226C1170.382,132.592,1170.307,133.785,1170.307,134.382Z" transform="translate(-1119.641 -86.699)" fill="#1aa1ff" fill-rule="evenodd"/>
      <path id="Trazado_994545" data-name="Trazado 994545" d="M462.612,157.917a6.539,6.539,0,0,1,1.864-5.741,9.056,9.056,0,0,0-1.939-1.118c-.112,1.342,0,3.169-1.379,3.02a1.086,1.086,0,0,1-.969-1.193l.522-4.884h-2.983l.559,4.884a1.087,1.087,0,0,1-2.162.224l-.224-2.05a7.981,7.981,0,0,0-1.9,1.118,6.645,6.645,0,0,1,1.864,5.741Z" transform="translate(-437.074 -106.916)" fill="#ff871b" fill-rule="evenodd"/>
      <path id="Trazado_994546" data-name="Trazado 994546" d="M741.864,301a4.4,4.4,0,0,0-1.193,4.213h2.945A8.853,8.853,0,0,0,741.864,301Z" transform="translate(-712.934 -254.212)" fill="#ffa721" fill-rule="evenodd"/>
      <path id="Trazado_994547" data-name="Trazado 994547" d="M368.908,305.213A4.468,4.468,0,0,0,367.752,301,8.5,8.5,0,0,0,366,305.213Z" transform="translate(-352.355 -254.212)" fill="#ffa721" fill-rule="evenodd"/>
      <path id="Trazado_994548" data-name="Trazado 994548" d="M423.72,472H410v2.088a5.147,5.147,0,0,0,5.145,5.108c1.529,0,4.064.186,5.331-.373a5.061,5.061,0,0,0,3.244-4.735Z" transform="translate(-394.715 -418.837)" fill="#ffc06d" fill-rule="evenodd"/>
      <path id="Trazado_994549" data-name="Trazado 994549" d="M501.046,718a28.22,28.22,0,0,1-6.636,0l-.41,1.6,3.728,2.461,3.728-2.461Z" transform="translate(-475.583 -655.665)" fill="#f9b662" fill-rule="evenodd"/>
      <path id="Trazado_994550" data-name="Trazado 994550" d="M265.595,805.8l-4.176-2.8h-2.8A4.646,4.646,0,0,0,254,807.623v4.66h3.094v-3.02a1.081,1.081,0,0,1,2.162,0v3.02h6.338Z" transform="translate(-244.53 -737.496)" fill="#ff3131" fill-rule="evenodd"/>
      <path id="Trazado_994551" data-name="Trazado 994551" d="M623,805.8v6.487h6.338v-3.02a1.081,1.081,0,0,1,2.162,0v3.02h3.094v-4.66A4.622,4.622,0,0,0,629.972,803h-2.759Z" transform="translate(-599.773 -737.496)" fill="#ff3131" fill-rule="evenodd"/>
      <path id="Trazado_994552" data-name="Trazado 994552" d="M111.089,1110H64.226a6.226,6.226,0,1,0,0,12.452h46.863a6.226,6.226,0,1,0,0-12.452Zm-34.9,1.79a4.418,4.418,0,1,1-4.4,4.436A4.447,4.447,0,0,1,76.193,1111.79Zm-11.445,0a4.418,4.418,0,1,1-4.4,4.436A4.447,4.447,0,0,1,64.748,1111.79Zm18.492,4.436a4.418,4.418,0,1,1,4.4,4.4A4.415,4.415,0,0,1,83.24,1116.226Zm15.845,4.4a4.418,4.418,0,1,1,4.437-4.4A4.407,4.407,0,0,1,99.084,1120.625Zm11.445,0a4.418,4.418,0,1,1,4.437-4.4A4.407,4.407,0,0,1,110.53,1120.625Z" transform="translate(-55.838 -1033.051)" fill="#ccf" fill-rule="evenodd"/>
      <g id="Grupo_1159207" data-name="Grupo 1159207" transform="translate(6.701 80.901)">
        <path id="Trazado_994553" data-name="Trazado 994553" d="M795.959,1220.511a2.256,2.256,0,0,0,0-4.511C793.014,1216,793.014,1220.511,795.959,1220.511Z" transform="translate(-770.859 -1216)" fill="#e4e4e4" fill-rule="evenodd"/>
        <path id="Trazado_994554" data-name="Trazado 994554" d="M1102.959,1216c-2.945,0-2.945,4.511,0,4.511A2.256,2.256,0,0,0,1102.959,1216Z" transform="translate(-1066.413 -1216)" fill="#e4e4e4" fill-rule="evenodd"/>
        <path id="Trazado_994555" data-name="Trazado 994555" d="M1409.959,1216c-2.945,0-2.945,4.511,0,4.511A2.256,2.256,0,0,0,1409.959,1216Z" transform="translate(-1361.968 -1216)" fill="#e4e4e4" fill-rule="evenodd"/>
        <path id="Trazado_994556" data-name="Trazado 994556" d="M488.959,1220.511a2.256,2.256,0,0,0,0-4.511C486.014,1216,486.014,1220.511,488.959,1220.511Z" transform="translate(-475.305 -1216)" fill="#e4e4e4" fill-rule="evenodd"/>
        <path id="Trazado_994557" data-name="Trazado 994557" d="M181.959,1220.511a2.256,2.256,0,0,0,0-4.511C179.014,1216,179.014,1220.511,181.959,1220.511Z" transform="translate(-179.75 -1216)" fill="#e4e4e4" fill-rule="evenodd"/>
      </g>
      <path id="Trazado_994558" data-name="Trazado 994558" d="M360.668,1502H321v4.1h39.668Z" transform="translate(-309.033 -1410.436)" fill="#797979" fill-rule="evenodd"/>
    </g>
  </g>
</svg>
