<svg xmlns="http://www.w3.org/2000/svg" xmlns:xlink="http://www.w3.org/1999/xlink" width="108" height="108" viewBox="0 0 108 108">
  <defs>
    <filter id="Trazado_982547" x="0" y="0" width="108" height="108" filterUnits="userSpaceOnUse">
      <feOffset dy="3" input="SourceAlpha"/>
      <feGaussianBlur stdDeviation="3" result="blur"/>
      <feFlood flood-opacity="0.161"/>
      <feComposite operator="in" in2="blur"/>
      <feComposite in="SourceGraphic"/>
    </filter>
  </defs>
  <g id="Grupo_1159177" data-name="Grupo 1159177" transform="translate(-616 -528)">
    <g id="Grupo_1159106" data-name="Grupo 1159106" transform="translate(625 534)">
      <g id="Grupo_1154033" data-name="Grupo 1154033">
        <g id="Grupo_1153177" data-name="Grupo 1153177">
          <g id="Grupo_1149598" data-name="Grupo 1149598">
            <g id="Grupo_1148770" data-name="Grupo 1148770">
              <g id="Grupo_1146954" data-name="Grupo 1146954">
                <g transform="matrix(1, 0, 0, 1, -9, -6)" filter="url(#Trazado_982547)">
                  <g id="Trazado_982547-2" data-name="Trazado 982547" transform="translate(9 6)" fill="#f5fdfa">
                    <path d="M 45 88.5 C 39.12687683105469 88.5 33.43022537231445 87.35007476806641 28.06830024719238 85.08217620849609 C 22.88852500915527 82.89131164550781 18.23629951477051 79.75458526611328 14.2408504486084 75.75914764404297 C 10.24541282653809 71.76370239257812 7.108687400817871 67.11147308349609 4.917825222015381 61.93170166015625 C 2.649924993515015 56.56977462768555 1.5 50.87312316894531 1.5 45 C 1.5 39.12687683105469 2.649924993515015 33.43022537231445 4.917825222015381 28.06830024719238 C 7.108687400817871 22.88852500915527 10.24541282653809 18.23629951477051 14.2408504486084 14.2408504486084 C 18.23629951477051 10.24541282653809 22.88852500915527 7.108687400817871 28.06830024719238 4.917825222015381 C 33.43022537231445 2.649924993515015 39.12687683105469 1.5 45 1.5 C 50.87312316894531 1.5 56.56977462768555 2.649924993515015 61.93170166015625 4.917825222015381 C 67.11147308349609 7.108687400817871 71.76370239257812 10.24541282653809 75.75914764404297 14.2408504486084 C 79.75458526611328 18.23629951477051 82.89131164550781 22.88852500915527 85.08217620849609 28.06830024719238 C 87.35007476806641 33.43022537231445 88.5 39.12687683105469 88.5 45 C 88.5 50.87312316894531 87.35007476806641 56.56977462768555 85.08217620849609 61.93170166015625 C 82.89131164550781 67.11147308349609 79.75458526611328 71.76370239257812 75.75914764404297 75.75914764404297 C 71.76370239257812 79.75458526611328 67.11147308349609 82.89131164550781 61.93170166015625 85.08217620849609 C 56.56977462768555 87.35007476806641 50.87312316894531 88.5 45 88.5 Z" stroke="none"/>
                    <path d="M 45 3 C 39.32871246337891 3 33.82865524291992 4.110054016113281 28.65262985229492 6.299339294433594 C 23.65165710449219 8.414573669433594 19.15968322753906 11.44334411621094 15.301513671875 15.301513671875 C 11.44334411621094 19.15968322753906 8.414573669433594 23.65165710449219 6.299339294433594 28.65262985229492 C 4.110054016113281 33.82865524291992 3 39.32871246337891 3 45 C 3 50.67128753662109 4.110054016113281 56.17134475708008 6.299339294433594 61.34737396240234 C 8.414573669433594 66.34834289550781 11.44334411621094 70.84031677246094 15.301513671875 74.698486328125 C 19.15968322753906 78.55665588378906 23.65165710449219 81.58542633056641 28.65262985229492 83.70066070556641 C 33.82865524291992 85.88994598388672 39.32871246337891 87 45 87 C 50.67128753662109 87 56.17134475708008 85.88994598388672 61.34737396240234 83.70066070556641 C 66.34834289550781 81.58542633056641 70.84031677246094 78.55665588378906 74.698486328125 74.698486328125 C 78.55665588378906 70.84031677246094 81.58542633056641 66.34834289550781 83.70066070556641 61.34737396240234 C 85.88994598388672 56.17134475708008 87 50.67128753662109 87 45 C 87 39.32871246337891 85.88994598388672 33.82865524291992 83.70066070556641 28.65262985229492 C 81.58542633056641 23.65165710449219 78.55665588378906 19.15968322753906 74.698486328125 15.301513671875 C 70.84031677246094 11.44334411621094 66.34834289550781 8.414573669433594 61.34737396240234 6.299339294433594 C 56.17134475708008 4.110054016113281 50.67128753662109 3 45 3 M 45 0 C 69.85281372070312 0 90 20.14718627929688 90 45 C 90 69.85281372070312 69.85281372070312 90 45 90 C 20.14718627929688 90 0 69.85281372070312 0 45 C 0 20.14718627929688 20.14718627929688 0 45 0 Z" stroke="none" fill="#ee9865"/>
                  </g>
                </g>
              </g>
            </g>
          </g>
        </g>
      </g>
    </g>
    <g id="consumer-behavior_3310064" transform="translate(627.512 534.512)">
      <path id="Trazado_994441" data-name="Trazado 994441" d="M72,166.181h1.766l1.766-2.649H77.3L79.063,160H72Z" transform="translate(-49.819 -128.107)" fill="#ffb0a1"/>
      <path id="Trazado_994442" data-name="Trazado 994442" d="M52.415,152v2.649l-1.766,1.766h-.883A1.766,1.766,0,0,1,48,154.649V152Z" transform="translate(-28.468 -120.99)" fill="#ff9178"/>
      <path id="Trazado_994443" data-name="Trazado 994443" d="M40.776,272h4.241a6.181,6.181,0,0,1,4.671,2.133L60.2,286.262v6.045H57.551L46.073,279.063v7.063h2.649v6.181H46.073v4.415H24V278.243A6.243,6.243,0,0,1,30.243,272h5.235" transform="translate(-7.117 -227.746)" fill="#548aff"/>
      <path id="Trazado_994444" data-name="Trazado 994444" d="M133.3,232v5.3a2.6,2.6,0,0,1-.152.883A2.648,2.648,0,0,1,128,237.3V232Z" transform="translate(-99.639 -192.161)" fill="#ffceb6"/>
      <path id="Trazado_994445" data-name="Trazado 994445" d="M128,202.649v1.766a3.532,3.532,0,1,0,7.063,0V200h-4.415Z" transform="translate(-99.639 -163.693)" fill="#ffceb6"/>
      <path id="Trazado_994446" data-name="Trazado 994446" d="M156.415,171.532l.861-.43a1.637,1.637,0,0,0-.732-3.1h-1.012L152,171.532Z" transform="translate(-120.99 -135.224)" fill="#c47220"/>
      <path id="Trazado_994447" data-name="Trazado 994447" d="M248,400h4.093a6.18,6.18,0,0,1,4.826,2.32l1.39,1.737a1.307,1.307,0,0,1-1.021,2.124h-.023a1.307,1.307,0,0,1-.784-.261l-3.183-2.387-3.532,2.649H248Z" transform="translate(-206.395 -341.619)" fill="#ffceb6"/>
      <path id="Trazado_994448" data-name="Trazado 994448" d="M200,456h15.893v3.532H201.766A1.766,1.766,0,0,1,200,457.766Z" transform="translate(-163.693 -391.439)" fill="#ffa100"/>
      <path id="Trazado_994449" data-name="Trazado 994449" d="M344,344h15.893v15.893H344Z" transform="translate(-291.8 -291.8)" fill="#ffc431"/>
      <circle id="Elipse_11996" data-name="Elipse 11996" cx="1.5" cy="1.5" r="1.5" transform="translate(58.488 58.488)" fill="#ffd873"/>
      <path id="Trazado_994450" data-name="Trazado 994450" d="M53.244,93.3v.883a1.766,1.766,0,0,1-1.766,1.766H41.766A1.766,1.766,0,0,1,40,94.181V93.3A5.3,5.3,0,0,1,45.3,88h2.649A5.3,5.3,0,0,1,53.244,93.3Z" transform="translate(-21.351 -64.054)" fill="#ef5e3b"/>
      <rect id="Rectángulo_409906" data-name="Rectángulo 409906" width="24" height="27" rx="12" transform="translate(44.488 16.488)" fill="#ffc431"/>
      <path id="Trazado_994451" data-name="Trazado 994451" d="M328,96h12.361v3.532H328Z" transform="translate(-277.566 -71.171)" fill="#08d175"/>
      <path id="Trazado_994452" data-name="Trazado 994452" d="M328,128h9.712v3.532H328Z" transform="translate(-277.566 -99.639)" fill="#3cde8d"/>
      <path id="Trazado_994453" data-name="Trazado 994453" d="M328,64h7.063v3.532H328Z" transform="translate(-277.566 -42.702)" fill="#02c26a"/>
      <path id="Trazado_994454" data-name="Trazado 994454" d="M68.093,179.425H52.2a.883.883,0,0,0-.883.883v2.931l-8.08-9.323a7.06,7.06,0,0,0-5.338-2.437H35.422a4.391,4.391,0,0,0,.885-2.649V164.96l.373-.186A2.52,2.52,0,0,0,35.553,160H34.542a.883.883,0,0,0-.624.259l-6.181,6.181a.883.883,0,0,0-.259.624v4.415H23.126A7.134,7.134,0,0,0,16,178.6v18.479h1.766V183.3c.1.118.209.234.321.346l7.839,7.839a7.017,7.017,0,0,0,4.995,2.069h4.5v.883a2.652,2.652,0,0,0,2.649,2.649h30.02a.883.883,0,0,0,.883-.883V180.308a.883.883,0,0,0-.883-.883ZM50.616,191.7l-3.183-2.387a.883.883,0,0,0-1.059,0l-3.3,2.472h-.589v-4.415H45.7a5.272,5.272,0,0,1,4.137,1.988l1.39,1.737a.424.424,0,0,1-.331.689H50.87a.427.427,0,0,1-.255-.085Zm-2.83.085H46.02l.883-.662Zm-7.946-6.181v-3.831l3.352,3.831Zm-10.6-13.246a4.411,4.411,0,0,0,3.532.8v.089a1.766,1.766,0,0,1-3.532,0Zm5.663-10.593h.646a.754.754,0,0,1,.337,1.429l-.674.337H33.141Zm-5.663,5.663,2.132-2.132h3.166v3.532a2.649,2.649,0,0,1-5.3,0Zm-2.069,22.8-7.839-7.839a5.36,5.36,0,0,1,3.79-9.151h4.352a3.532,3.532,0,1,0,7.063,0H37.9a5.3,5.3,0,0,1,4,1.828l9.414,10.862v2.451l-.1-.13a7.029,7.029,0,0,0-5.516-2.651h-.161l-5.917-6.762a.883.883,0,0,0-1.547.581v6.181H32.259l-5.922-5.922-1.249,1.249,6.181,6.181a.883.883,0,0,0,.624.259h8.829v4.415h-9.8a5.262,5.262,0,0,1-3.746-1.552Zm10.015,4.2v-.883H51.317v1.766H38.073a.884.884,0,0,1-.883-.883Zm30.02.883H53.083V181.19H67.21Z" transform="translate(0 -128.107)"/>
      <path id="Trazado_994455" data-name="Trazado 994455" d="M394.649,397.3A2.649,2.649,0,1,0,392,394.649,2.649,2.649,0,0,0,394.649,397.3Zm0-3.532a.883.883,0,1,1-.883.883A.883.883,0,0,1,394.649,393.766Z" transform="translate(-334.502 -334.502)"/>
      <path id="Trazado_994456" data-name="Trazado 994456" d="M80.561,16H60.254A2.652,2.652,0,0,0,57.6,18.649v1.766H50.542a.883.883,0,0,0-.624.259l-4.47,4.47a6.166,6.166,0,0,0-4.618-2.079H38.18A6.187,6.187,0,0,0,32,29.244v.883a2.643,2.643,0,0,0,.883,1.972v1.56a2.652,2.652,0,0,0,2.649,2.649v1.766a.883.883,0,0,0,.883.883H38.18a.883.883,0,0,0,.735-.393l1.5-2.256h1.293a.883.883,0,0,0,.79-.488l1.522-3.044h.337a2.652,2.652,0,0,0,2.649-2.649v-.883a6.142,6.142,0,0,0-.573-2.593l4.47-4.47h6.7V41.605a2.652,2.652,0,0,0,2.649,2.649H80.561a2.652,2.652,0,0,0,2.649-2.649V18.649A2.652,2.652,0,0,0,80.561,16ZM34.649,33.659v-.883H37.3v.517l-1.249,1.249h-.517A.884.884,0,0,1,34.649,33.659Zm6.518.883h-1.22a.883.883,0,0,0-.735.393l-1.5,2.256H37.3v-1.4L38.8,34.283a.883.883,0,0,0,.259-.624v-.883h2.986Zm4.077-4.415a.884.884,0,0,1-.883.883H40.492l.883-1.766h2.1V27.478H41.2l-1.507-1.507-1.249,1.249,1.316,1.316L38.518,31.01H34.649a.884.884,0,0,1-.883-.883v-.883a4.419,4.419,0,0,1,.089-.883h1.311l1.507,1.507,1.249-1.249-1.766-1.766a.883.883,0,0,0-.624-.259h-.881a4.411,4.411,0,0,1,3.529-1.766h2.649a4.42,4.42,0,0,1,4.415,4.415Zm36.2,11.478a.884.884,0,0,1-.883.883H60.254a.884.884,0,0,1-.883-.883V18.649a.884.884,0,0,1,.883-.883H80.561a.884.884,0,0,1,.883.883Z" transform="translate(-14.234)"/>
      <path id="Trazado_994457" data-name="Trazado 994457" d="M296,72h1.766v1.766H296Z" transform="translate(-249.097 -49.819)"/>
      <path id="Trazado_994458" data-name="Trazado 994458" d="M296,104h1.766v1.766H296Z" transform="translate(-249.097 -78.288)"/>
      <path id="Trazado_994459" data-name="Trazado 994459" d="M296,136h1.766v1.766H296Z" transform="translate(-249.097 -106.756)"/>
      <path id="Trazado_994460" data-name="Trazado 994460" d="M320.883,68.361H330.6a.883.883,0,0,0,.883-.883V64.829h1.766a.883.883,0,0,0,.883-.883V60.415a.883.883,0,0,0-.883-.883h-4.415V56.883a.883.883,0,0,0-.883-.883h-7.063a.883.883,0,0,0-.883.883v10.6A.883.883,0,0,0,320.883,68.361Zm8.829-1.766h-7.946V64.829h7.946Zm2.649-3.532h-10.6V61.3h10.6Zm-10.6-5.3h5.3v1.766h-5.3Z" transform="translate(-270.449 -35.585)"/>
      <path id="Trazado_994461" data-name="Trazado 994461" d="M328,184h2.649v1.766H328Z" transform="translate(-277.566 -149.458)"/>
      <path id="Trazado_994462" data-name="Trazado 994462" d="M368,184h9.712v1.766H368Z" transform="translate(-313.151 -149.458)"/>
      <path id="Trazado_994463" data-name="Trazado 994463" d="M304,216h9.712v1.766H304Z" transform="translate(-256.214 -177.927)"/>
      <path id="Trazado_994464" data-name="Trazado 994464" d="M408,216h5.3v1.766H408Z" transform="translate(-348.736 -177.927)"/>
    </g>
  </g>
</svg>
