<svg xmlns="http://www.w3.org/2000/svg" width="400" height="63" viewBox="0 0 400 63">
  <g id="Grupo_1159264" data-name="Grupo 1159264" transform="translate(-600 -8832)">
    <g id="Grupo_1159263" data-name="Grupo 1159263">
      <path id="Fondo" d="M0,0H400V63H0Z" transform="translate(600 8832)" fill="#e8edf7"/>
      <path id="Trazado_994789" data-name="Trazado 994789" d="M-4.438-4.4a11.212,11.212,0,0,1-.59,1.949,4.645,4.645,0,0,1-.914,1.441A3.668,3.668,0,0,1-7.3-.113,5.394,5.394,0,0,1-9.235.2a4.117,4.117,0,0,1-1.547-.273,3.248,3.248,0,0,1-1.141-.75,3.216,3.216,0,0,1-.7-1.125,3.988,3.988,0,0,1-.242-1.406,7.553,7.553,0,0,1,.043-.758q.043-.422.113-.8l1.359-6.289H-10l-1.352,6.211q-.031.18-.066.391t-.062.422q-.027.211-.043.4t-.016.328a2.872,2.872,0,0,0,.188,1.086,2.089,2.089,0,0,0,.52.766,2.172,2.172,0,0,0,.781.457,3.01,3.01,0,0,0,.973.152A3.508,3.508,0,0,0-7.891-1.18a2.465,2.465,0,0,0,.922-.586,3.487,3.487,0,0,0,.684-1.016,7.194,7.194,0,0,0,.473-1.477L-4.32-11.2h1.344ZM7.6,0H6.29L7.884-7.516q.094-.445.242-1.012T8.47-9.742H8.439q-.094.188-.234.418t-.293.445q-.152.215-.277.387t-.18.258L3.447-2.922H2.806l-1.75-5.3a1.939,1.939,0,0,0-.074-.27Q.923-8.664.869-8.879t-.1-.441a2.273,2.273,0,0,1-.043-.422H.7q-.047.336-.152.906T.283-7.5L-1.311,0H-2.577L-.2-11.2H1.361L3.134-5.875a6.393,6.393,0,0,1,.184.656,3.757,3.757,0,0,1,.082.531h.047q.125-.234.3-.547a5.787,5.787,0,0,1,.461-.672l4.023-5.3H9.97ZM12.48,2.721,13.556,5l-.825.009-.588-1.463q-.027-.073-.075-.2l-.089-.228h-.023q-.032.046-.075.1l-.084.112q-.041.055-.08.1t-.066.084L10.429,5H9.541l2.1-2.324L10.593.334h.825l.561,1.486q.041.109.082.237l.064.2h.018q.027-.032.064-.08l.077-.1.084-.109q.043-.055.084-.1L13.72.334h.852ZM-2.8,21.8A6.076,6.076,0,0,1-2.923,23a6.206,6.206,0,0,1-.383,1.223,6.02,6.02,0,0,1-.645,1.141,4.625,4.625,0,0,1-.91.949,4.22,4.22,0,0,1-1.187.648,4.323,4.323,0,0,1-1.469.238,4.833,4.833,0,0,1-.91-.086,5.6,5.6,0,0,1-.785-.2l-.8,3.8h-1.3l1.953-9.25q.055-.25.1-.6t.082-.707q.035-.355.059-.668T-9.087,19h1.313q0,.133-.02.359t-.051.473q-.031.246-.062.477t-.055.371h.031a4.221,4.221,0,0,1,1.25-1.41A2.672,2.672,0,0,1-5.165,18.8a2.476,2.476,0,0,1,.984.188,1.949,1.949,0,0,1,.746.563,2.6,2.6,0,0,1,.473.938A4.675,4.675,0,0,1-2.8,21.8Zm-1.312.055a3.864,3.864,0,0,0-.074-.781,1.733,1.733,0,0,0-.246-.617,1.246,1.246,0,0,0-.441-.406,1.352,1.352,0,0,0-.66-.148,1.76,1.76,0,0,0-.762.168,2.623,2.623,0,0,0-.66.449,3.682,3.682,0,0,0-.555.652,6.484,6.484,0,0,0-.445.77,6.762,6.762,0,0,0-.332.8,6.037,6.037,0,0,0-.207.754l-.492,2.32a2.192,2.192,0,0,0,.336.113q.2.051.406.09t.43.063a3.83,3.83,0,0,0,.406.023,2.7,2.7,0,0,0,1-.18,2.891,2.891,0,0,0,.82-.488,3.446,3.446,0,0,0,.641-.727,4.822,4.822,0,0,0,.465-.891A5.242,5.242,0,0,0-4.2,22.84,5.4,5.4,0,0,0-4.11,21.852Zm4.471,7.87L1.436,32l-.825.009L.024,30.546q-.027-.073-.075-.2l-.089-.228H-.163q-.032.046-.075.1l-.084.112q-.041.055-.08.1t-.066.084L-1.69,32h-.889l2.1-2.324-1.048-2.342H-.7l.561,1.486q.041.109.082.237l.064.2H.024q.027-.032.064-.08l.077-.1.084-.109q.043-.055.084-.1L1.6,27.334h.852Z" transform="translate(740 8854)" fill="#0b0a0a"/>
      <path id="Trazado_994790" data-name="Trazado 994790" d="M-3.48-5.8V-6.852H3.863V-5.8Zm0,3.328V-3.523H3.863v1.047Z" transform="translate(771 8870)" fill="#0b0a0a"/>
      <path id="Trazado_994791" data-name="Trazado 994791" d="M-3.48-5.8V-6.852H3.863V-5.8Zm0,3.328V-3.523H3.863v1.047Z" transform="translate(832 8870)" fill="#0b0a0a"/>
      <path id="Trazado_994792" data-name="Trazado 994792" d="M-4.572-4.4a11.212,11.212,0,0,1-.59,1.949,4.645,4.645,0,0,1-.914,1.441,3.668,3.668,0,0,1-1.363.895A5.394,5.394,0,0,1-9.369.2a4.117,4.117,0,0,1-1.547-.273,3.248,3.248,0,0,1-1.141-.75,3.216,3.216,0,0,1-.7-1.125A3.988,3.988,0,0,1-13-3.359a7.553,7.553,0,0,1,.043-.758q.043-.422.113-.8l1.359-6.289h1.352l-1.352,6.211q-.031.18-.066.391t-.062.422q-.027.211-.043.4t-.016.328a2.872,2.872,0,0,0,.188,1.086,2.089,2.089,0,0,0,.52.766,2.172,2.172,0,0,0,.781.457,3.01,3.01,0,0,0,.973.152A3.508,3.508,0,0,0-8.025-1.18,2.465,2.465,0,0,0-7.1-1.766,3.487,3.487,0,0,0-6.42-2.781a7.194,7.194,0,0,0,.473-1.477L-4.455-11.2h1.344ZM7.461,0h-1.3L7.75-7.516q.094-.445.242-1.012t.344-1.215H8.3q-.094.188-.234.418t-.293.445q-.152.215-.277.387t-.18.258L3.312-2.922H2.672l-1.75-5.3a1.939,1.939,0,0,0-.074-.27Q.789-8.664.734-8.879t-.1-.441a2.273,2.273,0,0,1-.043-.422H.562q-.047.336-.152.906T.148-7.5L-1.446,0H-2.711L-.336-11.2H1.226L3-5.875a6.393,6.393,0,0,1,.184.656,3.757,3.757,0,0,1,.082.531h.047q.125-.234.3-.547a5.787,5.787,0,0,1,.461-.672L8.1-11.2H9.836Zm4.01,5.775a5.488,5.488,0,0,1-.424.6,2.811,2.811,0,0,1-.449.444,1.7,1.7,0,0,1-1.087.369,1.518,1.518,0,0,1-.235-.021,1.71,1.71,0,0,1-.207-.043l.141-.661a.674.674,0,0,0,.178.059,1.049,1.049,0,0,0,.214.023.981.981,0,0,0,.567-.173,1.764,1.764,0,0,0,.476-.529l.561-.866L10.359.334h.775l.542,3.582a1.75,1.75,0,0,1,.016.194,1.049,1.049,0,0,1-.007.162h.027q.023-.055.071-.155a1.673,1.673,0,0,1,.107-.191L13.959.334h.825ZM-2.932,21.8A6.076,6.076,0,0,1-3.057,23a6.206,6.206,0,0,1-.383,1.223,6.02,6.02,0,0,1-.645,1.141,4.625,4.625,0,0,1-.91.949,4.22,4.22,0,0,1-1.187.648,4.323,4.323,0,0,1-1.469.238,4.833,4.833,0,0,1-.91-.086,5.6,5.6,0,0,1-.785-.2l-.8,3.8h-1.3l1.953-9.25q.055-.25.1-.6t.082-.707q.035-.355.059-.668T-9.221,19h1.313q0,.133-.02.359t-.051.473q-.031.246-.062.477t-.055.371h.031a4.221,4.221,0,0,1,1.25-1.41A2.672,2.672,0,0,1-5.3,18.8a2.476,2.476,0,0,1,.984.188,1.949,1.949,0,0,1,.746.563,2.6,2.6,0,0,1,.473.938A4.675,4.675,0,0,1-2.932,21.8Zm-1.312.055a3.864,3.864,0,0,0-.074-.781,1.733,1.733,0,0,0-.246-.617,1.246,1.246,0,0,0-.441-.406,1.352,1.352,0,0,0-.66-.148,1.76,1.76,0,0,0-.762.168,2.623,2.623,0,0,0-.66.449,3.682,3.682,0,0,0-.555.652,6.484,6.484,0,0,0-.445.77,6.762,6.762,0,0,0-.332.8,6.037,6.037,0,0,0-.207.754l-.492,2.32a2.192,2.192,0,0,0,.336.113q.2.051.406.09t.43.063a3.83,3.83,0,0,0,.406.023,2.7,2.7,0,0,0,1-.18,2.891,2.891,0,0,0,.82-.488,3.446,3.446,0,0,0,.641-.727,4.822,4.822,0,0,0,.465-.891,5.242,5.242,0,0,0,.281-.977A5.4,5.4,0,0,0-4.244,21.852Zm3.6,10.923a5.488,5.488,0,0,1-.424.6,2.811,2.811,0,0,1-.449.444,1.767,1.767,0,0,1-.5.276,1.76,1.76,0,0,1-.586.093,1.518,1.518,0,0,1-.235-.021,1.71,1.71,0,0,1-.207-.043l.141-.661a.674.674,0,0,0,.178.059,1.049,1.049,0,0,0,.214.023.981.981,0,0,0,.567-.173,1.764,1.764,0,0,0,.476-.529l.561-.866-.848-4.648h.775l.542,3.582a1.75,1.75,0,0,1,.016.194,1.049,1.049,0,0,1-.007.162h.027q.023-.055.071-.155a1.673,1.673,0,0,1,.107-.191L1.84,27.334h.825Z" transform="translate(804 8854)" fill="#0b0a0a"/>
      <path id="Trazado_994793" data-name="Trazado 994793" d="M-4.424-4.4a11.212,11.212,0,0,1-.59,1.949,4.645,4.645,0,0,1-.914,1.441,3.668,3.668,0,0,1-1.363.895A5.394,5.394,0,0,1-9.221.2a4.117,4.117,0,0,1-1.547-.273,3.248,3.248,0,0,1-1.141-.75,3.216,3.216,0,0,1-.7-1.125,3.988,3.988,0,0,1-.242-1.406,7.553,7.553,0,0,1,.043-.758q.043-.422.113-.8l1.359-6.289h1.352l-1.352,6.211q-.031.18-.066.391t-.062.422q-.027.211-.043.4t-.016.328a2.872,2.872,0,0,0,.188,1.086,2.089,2.089,0,0,0,.52.766,2.172,2.172,0,0,0,.781.457,3.01,3.01,0,0,0,.973.152A3.508,3.508,0,0,0-7.877-1.18a2.465,2.465,0,0,0,.922-.586,3.487,3.487,0,0,0,.684-1.016A7.194,7.194,0,0,0-5.8-4.258L-4.307-11.2h1.344ZM7.609,0H6.3L7.9-7.516q.094-.445.242-1.012t.344-1.215H8.453q-.094.188-.234.418t-.293.445q-.152.215-.277.387t-.18.258L3.46-2.922H2.82l-1.75-5.3A1.939,1.939,0,0,0,1-8.488Q.937-8.664.882-8.879t-.1-.441a2.273,2.273,0,0,1-.043-.422H.71q-.047.336-.152.906T.3-7.5L-1.3,0H-2.563L-.188-11.2H1.374L3.148-5.875a6.393,6.393,0,0,1,.184.656,3.757,3.757,0,0,1,.082.531H3.46q.125-.234.3-.547a5.787,5.787,0,0,1,.461-.672l4.023-5.3H9.984Zm6.808.557-3.5,3.81h2.652L13.428,5H9.591l.055-.242,3.5-3.791H10.712l.141-.633h3.609ZM-2.784,21.8A6.076,6.076,0,0,1-2.909,23a6.206,6.206,0,0,1-.383,1.223,6.02,6.02,0,0,1-.645,1.141,4.625,4.625,0,0,1-.91.949,4.22,4.22,0,0,1-1.187.648A4.323,4.323,0,0,1-7.5,27.2a4.833,4.833,0,0,1-.91-.086,5.6,5.6,0,0,1-.785-.2l-.8,3.8h-1.3l1.953-9.25q.055-.25.1-.6t.082-.707q.035-.355.059-.668T-9.073,19H-7.76q0,.133-.02.359t-.051.473q-.031.246-.062.477t-.055.371h.031a4.221,4.221,0,0,1,1.25-1.41A2.672,2.672,0,0,1-5.151,18.8a2.476,2.476,0,0,1,.984.188,1.949,1.949,0,0,1,.746.563,2.6,2.6,0,0,1,.473.938A4.675,4.675,0,0,1-2.784,21.8Zm-1.312.055a3.864,3.864,0,0,0-.074-.781,1.733,1.733,0,0,0-.246-.617,1.246,1.246,0,0,0-.441-.406,1.352,1.352,0,0,0-.66-.148,1.76,1.76,0,0,0-.762.168,2.623,2.623,0,0,0-.66.449,3.682,3.682,0,0,0-.555.652,6.484,6.484,0,0,0-.445.77,6.762,6.762,0,0,0-.332.8,6.037,6.037,0,0,0-.207.754l-.492,2.32a2.192,2.192,0,0,0,.336.113q.2.051.406.09t.43.063a3.83,3.83,0,0,0,.406.023,2.7,2.7,0,0,0,1-.18,2.891,2.891,0,0,0,.82-.488,3.446,3.446,0,0,0,.641-.727,4.822,4.822,0,0,0,.465-.891,5.242,5.242,0,0,0,.281-.977A5.4,5.4,0,0,0-4.1,21.852ZM2.3,27.557l-3.5,3.81H1.45L1.309,32H-2.528l.055-.242,3.5-3.791H-1.407l.141-.633H2.343Z" transform="translate(863 8854)" fill="#0b0a0a"/>
      <path id="Trazado_994268" data-name="Trazado 994268" d="M4414,6562.5h39.021" transform="translate(-3695 2303)" fill="none" stroke="#383737" stroke-width="1"/>
      <path id="Trazado_994271" data-name="Trazado 994271" d="M4414,6562.5h39.021" transform="translate(-3631 2303)" fill="none" stroke="#383737" stroke-width="1"/>
      <path id="Trazado_994272" data-name="Trazado 994272" d="M4414,6562.5h39.021" transform="translate(-3572 2303)" fill="none" stroke="#383737" stroke-width="1"/>
    </g>
  </g>
</svg>
