<svg xmlns="http://www.w3.org/2000/svg" xmlns:xlink="http://www.w3.org/1999/xlink" width="108" height="108" viewBox="0 0 108 108">
  <defs>
    <filter id="Trazado_982547" x="0" y="0" width="108" height="108" filterUnits="userSpaceOnUse">
      <feOffset dy="3" input="SourceAlpha"/>
      <feGaussianBlur stdDeviation="3" result="blur"/>
      <feFlood flood-opacity="0.161"/>
      <feComposite operator="in" in2="blur"/>
      <feComposite in="SourceGraphic"/>
    </filter>
  </defs>
  <g id="Grupo_1159183" data-name="Grupo 1159183" transform="translate(-196 -852)">
    <g id="Grupo_1159148" data-name="Grupo 1159148" transform="translate(-420 -4375)">
      <g id="Grupo_1154033" data-name="Grupo 1154033" transform="translate(0 1317)">
        <g id="Grupo_1153177" data-name="Grupo 1153177" transform="translate(362 3397)">
          <g id="Grupo_1149598" data-name="Grupo 1149598" transform="translate(80 315)">
            <g id="Grupo_1148770" data-name="Grupo 1148770" transform="translate(-27 -2583)">
              <g id="Grupo_1146954" data-name="Grupo 1146954" transform="translate(-415 -1202)">
                <g transform="matrix(1, 0, 0, 1, 616, 3983)" filter="url(#Trazado_982547)">
                  <g id="Trazado_982547-2" data-name="Trazado 982547" transform="translate(9 6)" fill="#f5fdfa">
                    <path d="M 45 88.5 C 39.12687683105469 88.5 33.43022537231445 87.35007476806641 28.06830024719238 85.08217620849609 C 22.88852500915527 82.89131164550781 18.23629951477051 79.75458526611328 14.2408504486084 75.75914764404297 C 10.24541282653809 71.76370239257812 7.108687400817871 67.11147308349609 4.917825222015381 61.93170166015625 C 2.649924993515015 56.56977462768555 1.5 50.87312316894531 1.5 45 C 1.5 39.12687683105469 2.649924993515015 33.43022537231445 4.917825222015381 28.06830024719238 C 7.108687400817871 22.88852500915527 10.24541282653809 18.23629951477051 14.2408504486084 14.2408504486084 C 18.23629951477051 10.24541282653809 22.88852500915527 7.108687400817871 28.06830024719238 4.917825222015381 C 33.43022537231445 2.649924993515015 39.12687683105469 1.5 45 1.5 C 50.87312316894531 1.5 56.56977462768555 2.649924993515015 61.93170166015625 4.917825222015381 C 67.11147308349609 7.108687400817871 71.76370239257812 10.24541282653809 75.75914764404297 14.2408504486084 C 79.75458526611328 18.23629951477051 82.89131164550781 22.88852500915527 85.08217620849609 28.06830024719238 C 87.35007476806641 33.43022537231445 88.5 39.12687683105469 88.5 45 C 88.5 50.87312316894531 87.35007476806641 56.56977462768555 85.08217620849609 61.93170166015625 C 82.89131164550781 67.11147308349609 79.75458526611328 71.76370239257812 75.75914764404297 75.75914764404297 C 71.76370239257812 79.75458526611328 67.11147308349609 82.89131164550781 61.93170166015625 85.08217620849609 C 56.56977462768555 87.35007476806641 50.87312316894531 88.5 45 88.5 Z" stroke="none"/>
                    <path d="M 45 3 C 39.32871246337891 3 33.82865524291992 4.110054016113281 28.65262985229492 6.299339294433594 C 23.65165710449219 8.414573669433594 19.15968322753906 11.44334411621094 15.301513671875 15.301513671875 C 11.44334411621094 19.15968322753906 8.414573669433594 23.65165710449219 6.299339294433594 28.65262985229492 C 4.110054016113281 33.82865524291992 3 39.32871246337891 3 45 C 3 50.67128753662109 4.110054016113281 56.17134475708008 6.299339294433594 61.34737396240234 C 8.414573669433594 66.34834289550781 11.44334411621094 70.84031677246094 15.301513671875 74.698486328125 C 19.15968322753906 78.55665588378906 23.65165710449219 81.58542633056641 28.65262985229492 83.70066070556641 C 33.82865524291992 85.88994598388672 39.32871246337891 87 45 87 C 50.67128753662109 87 56.17134475708008 85.88994598388672 61.34737396240234 83.70066070556641 C 66.34834289550781 81.58542633056641 70.84031677246094 78.55665588378906 74.698486328125 74.698486328125 C 78.55665588378906 70.84031677246094 81.58542633056641 66.34834289550781 83.70066070556641 61.34737396240234 C 85.88994598388672 56.17134475708008 87 50.67128753662109 87 45 C 87 39.32871246337891 85.88994598388672 33.82865524291992 83.70066070556641 28.65262985229492 C 81.58542633056641 23.65165710449219 78.55665588378906 19.15968322753906 74.698486328125 15.301513671875 C 70.84031677246094 11.44334411621094 66.34834289550781 8.414573669433594 61.34737396240234 6.299339294433594 C 56.17134475708008 4.110054016113281 50.67128753662109 3 45 3 M 45 0 C 69.85281372070312 0 90 20.14718627929688 90 45 C 90 69.85281372070312 69.85281372070312 90 45 90 C 20.14718627929688 90 0 69.85281372070312 0 45 C 0 20.14718627929688 20.14718627929688 0 45 0 Z" stroke="none" fill="#598475"/>
                  </g>
                </g>
              </g>
            </g>
          </g>
        </g>
      </g>
    </g>
    <g id="financial-report_10789151" transform="translate(163.821 865.044)">
      <g id="Grupo_1159182" data-name="Grupo 1159182" transform="translate(59.093 9.015)">
        <g id="Grupo_1159178" data-name="Grupo 1159178" transform="translate(8.568 0)">
          <path id="Trazado_994465" data-name="Trazado 994465" d="M134.685,16h31.724a1,1,0,0,1,.732.3l5.811,5.811a1,1,0,0,1,.3.732V66.3a1.037,1.037,0,0,1-1.035,1.035H134.685A1.037,1.037,0,0,1,133.65,66.3V17.036A1.037,1.037,0,0,1,134.685,16Z" transform="translate(-133.65 -16.001)" fill="#eceff1" fill-rule="evenodd"/>
          <path id="Trazado_994466" data-name="Trazado 994466" d="M134.685,16h1.893V67.332h-1.893A1.037,1.037,0,0,1,133.65,66.3V17.036A1.037,1.037,0,0,1,134.685,16Z" transform="translate(-133.65 -16.001)" fill="#d1d1d6" fill-rule="evenodd"/>
          <path id="Trazado_994467" data-name="Trazado 994467" d="M395.309,16.708a1.041,1.041,0,0,1,.3.213l5.811,5.811a1.035,1.035,0,0,1,.213.3h-5.81a.518.518,0,0,1-.517-.517Z" transform="translate(-362.121 -16.618)" fill="#a79ba7" fill-rule="evenodd"/>
        </g>
        <g id="Grupo_1159179" data-name="Grupo 1159179" transform="translate(16.388 0.95)">
          <circle id="Elipse_11997" data-name="Elipse 11997" cx="5.995" cy="5.995" r="5.995" transform="translate(0 11.079) rotate(-67.486)" fill="#ffc338"/>
          <path id="Trazado_994468" data-name="Trazado 994468" d="M253.663,38.008a5.995,5.995,0,0,1,0,11.99q-.244,0-.483-.019a6,6,0,0,0,0-11.951Q253.419,38.008,253.663,38.008Z" transform="translate(-245.84 -36.167)" fill="#f5b829" fill-rule="evenodd"/>
        </g>
        <g id="Grupo_1159180" data-name="Grupo 1159180" transform="translate(12.521 24.945)">
          <path id="Trazado_994469" data-name="Trazado 994469" d="M165.636,309.65h3.2a.816.816,0,0,1,.814.814v7.8a.816.816,0,0,1-.814.814h-3.2a.816.816,0,0,1-.814-.814v-7.8A.816.816,0,0,1,165.636,309.65Z" transform="translate(-164.822 -297.349)" fill="#fe646f" fill-rule="evenodd"/>
          <path id="Trazado_994470" data-name="Trazado 994470" d="M190.015,309.65h.814a.816.816,0,0,1,.814.814v7.8a.816.816,0,0,1-.814.814h-.814a.816.816,0,0,0,.814-.814v-7.8A.816.816,0,0,0,190.015,309.65Z" transform="translate(-186.82 -297.349)" fill="#fd4755" fill-rule="evenodd"/>
          <path id="Trazado_994471" data-name="Trazado 994471" d="M236.259,262.559h3.2a.816.816,0,0,1,.814.814v13.769a.816.816,0,0,1-.814.814h-3.2a.816.816,0,0,1-.814-.814V263.373A.816.816,0,0,1,236.259,262.559Z" transform="translate(-226.487 -256.231)" fill="#ffe177" fill-rule="evenodd"/>
          <path id="Trazado_994472" data-name="Trazado 994472" d="M260.639,262.559h.814a.816.816,0,0,1,.814.814v13.769a.816.816,0,0,1-.814.814h-.814a.816.816,0,0,0,.814-.814V263.373A.816.816,0,0,0,260.639,262.559Z" transform="translate(-248.486 -256.231)" fill="#ffd064" fill-rule="evenodd"/>
          <path id="Trazado_994473" data-name="Trazado 994473" d="M306.882,278.412h3.2a.816.816,0,0,1,.814.814v11.758a.816.816,0,0,1-.814.815h-3.2a.816.816,0,0,1-.814-.815V279.226A.816.816,0,0,1,306.882,278.412Z" transform="translate(-288.153 -270.073)" fill="#6cf5c2" fill-rule="evenodd"/>
          <path id="Trazado_994474" data-name="Trazado 994474" d="M331.262,278.412h.814a.816.816,0,0,1,.814.814v11.758a.816.816,0,0,1-.814.815h-.814a.816.816,0,0,0,.814-.815V279.226A.816.816,0,0,0,331.262,278.412Z" transform="translate(-310.151 -270.073)" fill="#00e499" fill-rule="evenodd"/>
          <path id="Trazado_994475" data-name="Trazado 994475" d="M377.506,212.668h3.2a.816.816,0,0,1,.814.814v20.1a.816.816,0,0,1-.814.814h-3.2a.816.816,0,0,1-.814-.814v-20.1A.816.816,0,0,1,377.506,212.668Z" transform="translate(-349.819 -212.668)" fill="#8ac9fe" fill-rule="evenodd"/>
          <path id="Trazado_994476" data-name="Trazado 994476" d="M401.884,212.668h.814a.816.816,0,0,1,.814.814v20.1a.816.816,0,0,1-.814.814h-.814a.816.816,0,0,0,.814-.814v-20.1A.816.816,0,0,0,401.884,212.668Z" transform="translate(-371.816 -212.668)" fill="#60b7ff" fill-rule="evenodd"/>
        </g>
        <g id="Grupo_1159181" data-name="Grupo 1159181" transform="translate(0 42.083)">
          <path id="Trazado_994477" data-name="Trazado 994477" d="M90.144,354.046l8.651-5.012c1.624-.941,3.275-1.608,5.059-1.029a60.815,60.815,0,0,0,8.552,2.628,2.4,2.4,0,0,1,1.662,2.879,2.326,2.326,0,0,1-2.879,1.663l1.158.185a5.393,5.393,0,0,0,3.708-.646l8.318-4.845c6.466-3.766,7.415,2.028,5.266,3.351l-15.095,9.295a5.536,5.536,0,0,1-4.482.632l-10.949-2.934-4.055,2.341a1.638,1.638,0,0,1-2.233-.6l-3.279-5.679a1.638,1.638,0,0,1,.6-2.232Z" transform="translate(-86.383 -347.789)" fill="#f6dccd" fill-rule="evenodd"/>
          <path id="Trazado_994478" data-name="Trazado 994478" d="M222.758,382.782a2.374,2.374,0,0,1-2.682,1.144c-1.793-.474-3.585-.961-5.377-1.441a.9.9,0,1,1,.466-1.738Z" transform="translate(-195.269 -376.54)" fill="#f1cbbc" fill-rule="evenodd"/>
          <path id="Trazado_994479" data-name="Trazado 994479" d="M90.144,354.046l8.652-5.012c1.624-.941,3.275-1.608,5.059-1.029,1.065.345,2.49.9,4.092,1.437l-16.759,9.676-1.64-2.841A1.638,1.638,0,0,1,90.144,354.046Z" transform="translate(-86.383 -347.789)" fill="#f1cbbc" fill-rule="evenodd"/>
          <path id="Trazado_994480" data-name="Trazado 994480" d="M70.724,371.326l6.861,12.123a1.228,1.228,0,0,1-.463,1.669l-2.334,1.321a1.228,1.228,0,0,1-1.669-.463l-6.861-12.124a1.228,1.228,0,0,1,.463-1.669l2.334-1.321A1.228,1.228,0,0,1,70.724,371.326Z" transform="translate(-66.101 -367.799)" fill="#d1d1d6" fill-rule="evenodd"/>
          <path id="Trazado_994481" data-name="Trazado 994481" d="M96.341,379.656l1.214,2.146,1.2,2.122a1.228,1.228,0,0,1-.459,1.667l.834-.472a1.228,1.228,0,0,0,.463-1.669l-1.2-2.129-2.42-4.275-2.422-4.28-.815-1.439a1.23,1.23,0,0,0-1.426-.567l1.41,2.492,2.42,4.275,1.2,2.129Z" transform="translate(-88.109 -367.799)" fill="#b1b1b5" fill-rule="evenodd"/>
        </g>
      </g>
      <path id="Trazado_994482" data-name="Trazado 994482" d="M63.088,57.143a.834.834,0,1,1-.947-.7A.836.836,0,0,1,63.088,57.143Zm12.7-30.5A1.013,1.013,0,0,1,76.8,25.63H89.911a1.015,1.015,0,0,1,0,2.03H76.8A1.013,1.013,0,0,1,75.791,26.644Zm-5.187,0a1.013,1.013,0,0,1,1.012-1.015H73.3a1.015,1.015,0,0,1,0,2.03H71.616A1.013,1.013,0,0,1,70.6,26.644Zm5.187,4.067A1.013,1.013,0,0,1,76.8,29.7H89.911a1.015,1.015,0,0,1,0,2.03H76.8A1.013,1.013,0,0,1,75.791,30.711ZM73.3,31.726H71.616a1.015,1.015,0,0,1,0-2.03H73.3a1.015,1.015,0,0,1,0,2.03Zm28.33-4.278a1.019,1.019,0,0,0-.816-.3L97.9,27.4a1.015,1.015,0,1,0,.179,2.021l.155-.014-6.569,6.624L83.3,33.322a1.008,1.008,0,0,0-.935.164l-8.957,6.975a1.014,1.014,0,1,0,1.245,1.6l8.534-6.644,8.445,2.737a1.009,1.009,0,0,0,1.03-.251l6.908-6.964v.012a1.012,1.012,0,0,0,.893,1.121,1.026,1.026,0,0,0,.113.007,1.01,1.01,0,0,0,1.006-.9l.327-2.909a1.021,1.021,0,0,0-.28-.822ZM84.188,19.462c.018-.023.036-.045.024-.136s-.042-.379-1.06-.546c-2.162-.354-2.543-1.619-2.579-2.34a2.427,2.427,0,0,1,1.721-2.426v-.006A1.015,1.015,0,0,1,84.325,14a2.83,2.83,0,0,1,1.685,1.586,1.014,1.014,0,1,1-1.87.786.9.9,0,0,0-1.06-.476c-.119.027-.494.137-.482.445.012.255.56.383.881.436,2.084.342,2.644,1.442,2.751,2.3a2.148,2.148,0,0,1-.512,1.707,2.834,2.834,0,0,1-1.394.838,1.016,1.016,0,0,1-2.031-.019,2.741,2.741,0,0,1-1.894-1.95,1.016,1.016,0,0,1,1.971-.491c.107.431.6.573.989.564A1.263,1.263,0,0,0,84.188,19.462Zm-.881-6.641A4.98,4.98,0,1,0,88.285,17.8,4.985,4.985,0,0,0,83.306,12.821Zm0,11.99A7.01,7.01,0,1,0,76.3,17.8,7.017,7.017,0,0,0,83.306,24.811Zm22.928,34.521a.026.026,0,0,0,.018-.02V16.446h-4.883a1.532,1.532,0,0,1-1.531-1.533V10.029H68.7a.019.019,0,0,0-.018.02V52.806L70.6,51.691V46.26a1.013,1.013,0,0,1,1.012-1.015H76.44a1.018,1.018,0,0,1,1.018,1.015v4.285c.387.133.8.284,1.239.441.28.1.566.205.864.312V40.287a1.013,1.013,0,0,1,1.012-1.015H85.4a1.013,1.013,0,0,1,1.012,1.015V53.472a3.373,3.373,0,0,1,1.346,3.614,2.479,2.479,0,0,1-.119.363,4.611,4.611,0,0,0,.619-.3l.893-.521a1.021,1.021,0,0,1-.637-.941V42.3a1.015,1.015,0,0,1,1.018-1.015H94.36A1.013,1.013,0,0,1,95.372,42.3V53.005l1.209-.7c.31-.182.607-.342.893-.484V33.959a1.015,1.015,0,0,1,1.018-1.015h4.824a1.013,1.013,0,0,1,1.012,1.015V53.673a3.6,3.6,0,0,1-1.441,3.723l-3.144,1.937h6.491ZM102.3,51.179a4.542,4.542,0,0,0-2.793-.111V34.974H102.3Zm-11.75,3.492V43.313h2.793V54.187l-.828.484H90.548Zm-6.164-1.912c-.953-.213-1.894-.483-2.793-.771V41.3h2.793Zm-8.957-2.672a6.569,6.569,0,0,0-2.793.553V47.275h2.793Zm11.3,14.878a4.54,4.54,0,0,1-3.686.516L72.086,62.546a1.032,1.032,0,0,0-.774.1l-1.423.822-3.841-6.795,5.961-3.454c1.822-1.055,3.049-1.327,4.24-.942.5.163,1.084.373,1.757.616a43.484,43.484,0,0,0,6.855,2.033,1.381,1.381,0,0,1,.941,1.632c-.2.723-.738,1.037-1.614.939-1.215-.248-2.364-.578-3.585-.927-.59-.167-1.191-.339-1.816-.507a1.015,1.015,0,1,0-.524,1.961c.607.163,1.2.332,1.781.5,1.274.365,2.477.709,3.782.976l.018,0,.024,0,1.036.169a6.367,6.367,0,0,0,4.377-.771l8.32-4.847c2.215-1.289,3.96-1.472,4.556-.476a1.676,1.676,0,0,1-.328,2.088Zm-17.11,2.57a.217.217,0,0,0,.083-.288L62.832,55.12a.216.216,0,0,0-.125-.1.245.245,0,0,0-.06-.008.206.206,0,0,0-.1.027l-2.334,1.32a.217.217,0,0,0-.077.286l6.861,12.128a.213.213,0,0,0,.286.079Zm32.254-56.07,2.948,2.953h-2.948Zm6.241,3.568a.032.032,0,0,1-.006-.023.252.252,0,0,1-.03-.055.615.615,0,0,0-.048-.086.573.573,0,0,0-.048-.084c-.018-.026-.03-.052-.048-.077s-.048-.063-.071-.093a.387.387,0,0,0-.048-.06,1.871,1.871,0,0,0-.131-.145L101.869,8.6a1.569,1.569,0,0,0-.143-.132.4.4,0,0,0-.06-.045.963.963,0,0,0-.1-.071L101.5,8.3c-.03-.017-.059-.035-.083-.051l-.089-.045-.054-.027-.024-.008A2.021,2.021,0,0,0,100.422,8H68.7a2.05,2.05,0,0,0-2.049,2.05V53.981l-1.6.928L64.6,54.12a2.246,2.246,0,0,0-3.055-.846L59.211,54.6a2.241,2.241,0,0,0-.846,3.052l6.867,12.127a2.242,2.242,0,0,0,1.953,1.136,2.22,2.22,0,0,0,1.1-.289L70.616,69.3a2.241,2.241,0,0,0,.846-3.053l-.572-1.011,1.078-.621L82.515,67.44a6.947,6.947,0,0,0,1.816.247,6.534,6.534,0,0,0,3.46-.995l8.659-5.331h9.785a2.05,2.05,0,0,0,2.049-2.049V15.86a2.034,2.034,0,0,0-.173-.827Z" fill-rule="evenodd"/>
    </g>
  </g>
</svg>
