<svg xmlns="http://www.w3.org/2000/svg" xmlns:xlink="http://www.w3.org/1999/xlink" width="108" height="108" viewBox="0 0 108 108">
  <defs>
    <filter id="Trazado_982547" x="0" y="0" width="108" height="108" filterUnits="userSpaceOnUse">
      <feOffset dy="3" input="SourceAlpha"/>
      <feGaussianBlur stdDeviation="3" result="blur"/>
      <feFlood flood-opacity="0.161"/>
      <feComposite operator="in" in2="blur"/>
      <feComposite in="SourceGraphic"/>
    </filter>
  </defs>
  <g id="Grupo_1159153" data-name="Grupo 1159153" transform="translate(-196 -1277)">
    <g id="Grupo_1159095" data-name="Grupo 1159095" transform="translate(205 1283)">
      <g id="Grupo_1154033" data-name="Grupo 1154033">
        <g id="Grupo_1153177" data-name="Grupo 1153177">
          <g id="Grupo_1149598" data-name="Grupo 1149598">
            <g id="Grupo_1148770" data-name="Grupo 1148770">
              <g id="Grupo_1146954" data-name="Grupo 1146954">
                <g transform="matrix(1, 0, 0, 1, -9, -6)" filter="url(#Trazado_982547)">
                  <g id="Trazado_982547-2" data-name="Trazado 982547" transform="translate(9 6)" fill="#f5fdfa">
                    <path d="M 45 88.5 C 39.12687683105469 88.5 33.43022537231445 87.35007476806641 28.06830024719238 85.08217620849609 C 22.88852500915527 82.89131164550781 18.23629951477051 79.75458526611328 14.2408504486084 75.75914764404297 C 10.24541282653809 71.76370239257812 7.108687400817871 67.11147308349609 4.917825222015381 61.93170166015625 C 2.649924993515015 56.56977462768555 1.5 50.87312316894531 1.5 45 C 1.5 39.12687683105469 2.649924993515015 33.43022537231445 4.917825222015381 28.06830024719238 C 7.108687400817871 22.88852500915527 10.24541282653809 18.23629951477051 14.2408504486084 14.2408504486084 C 18.23629951477051 10.24541282653809 22.88852500915527 7.108687400817871 28.06830024719238 4.917825222015381 C 33.43022537231445 2.649924993515015 39.12687683105469 1.5 45 1.5 C 50.87312316894531 1.5 56.56977462768555 2.649924993515015 61.93170166015625 4.917825222015381 C 67.11147308349609 7.108687400817871 71.76370239257812 10.24541282653809 75.75914764404297 14.2408504486084 C 79.75458526611328 18.23629951477051 82.89131164550781 22.88852500915527 85.08217620849609 28.06830024719238 C 87.35007476806641 33.43022537231445 88.5 39.12687683105469 88.5 45 C 88.5 50.87312316894531 87.35007476806641 56.56977462768555 85.08217620849609 61.93170166015625 C 82.89131164550781 67.11147308349609 79.75458526611328 71.76370239257812 75.75914764404297 75.75914764404297 C 71.76370239257812 79.75458526611328 67.11147308349609 82.89131164550781 61.93170166015625 85.08217620849609 C 56.56977462768555 87.35007476806641 50.87312316894531 88.5 45 88.5 Z" stroke="none"/>
                    <path d="M 45 3 C 39.32871246337891 3 33.82865524291992 4.110054016113281 28.65262985229492 6.299339294433594 C 23.65165710449219 8.414573669433594 19.15968322753906 11.44334411621094 15.301513671875 15.301513671875 C 11.44334411621094 19.15968322753906 8.414573669433594 23.65165710449219 6.299339294433594 28.65262985229492 C 4.110054016113281 33.82865524291992 3 39.32871246337891 3 45 C 3 50.67128753662109 4.110054016113281 56.17134475708008 6.299339294433594 61.34737396240234 C 8.414573669433594 66.34834289550781 11.44334411621094 70.84031677246094 15.301513671875 74.698486328125 C 19.15968322753906 78.55665588378906 23.65165710449219 81.58542633056641 28.65262985229492 83.70066070556641 C 33.82865524291992 85.88994598388672 39.32871246337891 87 45 87 C 50.67128753662109 87 56.17134475708008 85.88994598388672 61.34737396240234 83.70066070556641 C 66.34834289550781 81.58542633056641 70.84031677246094 78.55665588378906 74.698486328125 74.698486328125 C 78.55665588378906 70.84031677246094 81.58542633056641 66.34834289550781 83.70066070556641 61.34737396240234 C 85.88994598388672 56.17134475708008 87 50.67128753662109 87 45 C 87 39.32871246337891 85.88994598388672 33.82865524291992 83.70066070556641 28.65262985229492 C 81.58542633056641 23.65165710449219 78.55665588378906 19.15968322753906 74.698486328125 15.301513671875 C 70.84031677246094 11.44334411621094 66.34834289550781 8.414573669433594 61.34737396240234 6.299339294433594 C 56.17134475708008 4.110054016113281 50.67128753662109 3 45 3 M 45 0 C 69.85281372070312 0 90 20.14718627929688 90 45 C 90 69.85281372070312 69.85281372070312 90 45 90 C 20.14718627929688 90 0 69.85281372070312 0 45 C 0 20.14718627929688 20.14718627929688 0 45 0 Z" stroke="none" fill="#ee9865"/>
                  </g>
                </g>
              </g>
            </g>
          </g>
        </g>
      </g>
    </g>
    <g id="shopping-online_1260215" transform="translate(224.377 1300.378)">
      <path id="Trazado_994372" data-name="Trazado 994372" d="M49.128,82.417l-.5-.649a8.408,8.408,0,0,1-1.77-5.156v-5.8A11.054,11.054,0,0,0,35.8,59.762h-.013A11.054,11.054,0,0,0,24.732,70.805v5.8a8.4,8.4,0,0,1-1.77,5.156l-.5.649a9.873,9.873,0,0,0-1.138,9.144H50.266a9.871,9.871,0,0,0-1.138-9.138Zm0,0" transform="translate(-18.299 -52.884)" fill="#e3584b"/>
      <path id="Trazado_994373" data-name="Trazado 994373" d="M224,168h.921a2.762,2.762,0,0,1,0,5.525H224Zm0,0" transform="translate(-198.219 -148.664)" fill="#f7bb8f"/>
      <path id="Trazado_994374" data-name="Trazado 994374" d="M88.287,132.256A8.287,8.287,0,0,1,80,123.97v-2.762l.2-.115A39.892,39.892,0,0,0,91.049,112a17.427,17.427,0,0,0,5.136,6.153l.388.292v5.524a8.287,8.287,0,0,1-8.287,8.287Zm0,0" transform="translate(-70.792 -99.11)" fill="#fec9a3"/>
      <path id="Trazado_994375" data-name="Trazado 994375" d="M71.574,295.288a9.859,9.859,0,0,0,9.353-6.741l1.105-3.518-6.768-.967v-3.634a8.229,8.229,0,0,1-3.683.872,8.138,8.138,0,0,1-1.841-.21,8.269,8.269,0,0,1-1.841-.662v3.634l-6.777.967,1.1,3.518a9.86,9.86,0,0,0,9.354,6.741Zm0,0" transform="translate(-54.087 -248.151)" fill="#fec9a3"/>
      <path id="Trazado_994376" data-name="Trazado 994376" d="M36.4,320.6l-1.377-.2-1.105,3.518a9.859,9.859,0,0,1-18.707,0l-1.1-3.518-1.371.2A5.525,5.525,0,0,0,8,326.068v11.785H41.147V326.068A5.525,5.525,0,0,0,36.4,320.6Zm0,0" transform="translate(-7.079 -283.529)" fill="#4398d1"/>
      <path id="Trazado_994377" data-name="Trazado 994377" d="M114.238,354.484h20.92V342.7a5.5,5.5,0,0,0-1.263-3.5,39.717,39.717,0,0,1-19.656,15.285Zm0,0" transform="translate(-101.09 -300.16)" fill="#3e8cc7"/>
      <path id="Trazado_994378" data-name="Trazado 994378" d="M299.336,25.494h-5.524l-5.525,6.445V25.494h-5.524A2.762,2.762,0,0,1,280,22.732V10.762A2.762,2.762,0,0,1,282.762,8h16.573a2.762,2.762,0,0,1,2.762,2.762v11.97A2.762,2.762,0,0,1,299.336,25.494Zm0,0" transform="translate(-247.773 -7.079)" fill="#87ced9"/>
      <g id="Grupo_1159152" data-name="Grupo 1159152" transform="translate(36.83 4.604)">
        <path id="Trazado_994379" data-name="Trazado 994379" d="M320,96h1.841v3.683H320Zm0,0" transform="translate(-320 -89.555)" fill="#3181bd"/>
        <path id="Trazado_994380" data-name="Trazado 994380" d="M352,64h1.841v7.366H352Zm0,0" transform="translate(-348.317 -61.238)" fill="#3181bd"/>
        <path id="Trazado_994381" data-name="Trazado 994381" d="M384,72h1.842v6.445H384Zm0,0" transform="translate(-376.634 -68.317)" fill="#3181bd"/>
        <path id="Trazado_994382" data-name="Trazado 994382" d="M416,40h1.841V50.128H416Zm0,0" transform="translate(-404.951 -40)" fill="#3181bd"/>
      </g>
      <path id="Trazado_994383" data-name="Trazado 994383" d="M304,32h1.842v1.841H304Zm0,0" transform="translate(-269.011 -28.317)" fill="#5eb3d1"/>
      <path id="Trazado_994384" data-name="Trazado 994384" d="M304,120h16.573v1.841H304Zm0,0" transform="translate(-269.011 -106.189)" fill="#3181bd"/>
      <path id="Trazado_994385" data-name="Trazado 994385" d="M179.935,168.3a1.712,1.712,0,1,0,1.21.5A1.711,1.711,0,0,0,179.935,168.3Zm0,0" transform="translate(-157.71 -148.927)" fill="#3181bd"/>
      <path id="Trazado_994386" data-name="Trazado 994386" d="M97.621,172.4a1.705,1.705,0,0,0,.52-3.331c-.724.533-1.462,1.048-2.221,1.531,0,.031-.009.059-.009.092A1.712,1.712,0,0,0,97.621,172.4Zm0,0" transform="translate(-84.872 -149.612)" fill="#3181bd"/>
      <path id="Trazado_994387" data-name="Trazado 994387" d="M127.366,282.267v-1.841a8.229,8.229,0,0,1-3.683.872,8.135,8.135,0,0,1-1.841-.21,8.269,8.269,0,0,1-1.841-.662v1.841A8.214,8.214,0,0,0,127.366,282.267Zm0,0" transform="translate(-106.188 -248.151)" fill="#f7bb8f"/>
      <path id="Trazado_994388" data-name="Trazado 994388" d="M233.841,328h23.939a1.841,1.841,0,1,1,0,3.683H233.841a1.841,1.841,0,1,1,0-3.683Zm0,0" transform="translate(-205.298 -290.249)" fill="#e3584b"/>
      <path id="Trazado_994389" data-name="Trazado 994389" d="M273.863,372.89H260.236a2.762,2.762,0,0,1-2.735-2.372L256,360h22.1l-1.5,10.518a2.762,2.762,0,0,1-2.733,2.372Zm0,0" transform="translate(-226.536 -318.566)" fill="#e3584b"/>
      <path id="Trazado_994390" data-name="Trazado 994390" d="M288.087,265.784a2.048,2.048,0,0,1-1-2.568l3.125-8.127a2.049,2.049,0,1,1,3.826,1.471l-3.13,8.127a2.048,2.048,0,0,1-2.824,1.1Zm0,0" transform="translate(-253.927 -224.567)" fill="#4398d1"/>
      <path id="Trazado_994391" data-name="Trazado 994391" d="M360.365,264.671a2.049,2.049,0,0,0,1-2.569l-3.125-8.127a2.049,2.049,0,0,0-3.826,1.471l3.13,8.127a2.05,2.05,0,0,0,2.824,1.1Zm0,0" transform="translate(-313.499 -223.582)" fill="#4398d1"/>
      <path id="Trazado_994392" data-name="Trazado 994392" d="M328,384h1.841v7.366H328Zm0,0" transform="translate(-290.249 -339.804)" fill="#c9433c"/>
      <path id="Trazado_994393" data-name="Trazado 994393" d="M296,384h1.841v7.366H296Zm0,0" transform="translate(-261.932 -339.804)" fill="#c9433c"/>
      <path id="Trazado_994394" data-name="Trazado 994394" d="M392,384h1.841v7.366H392Zm0,0" transform="translate(-346.883 -339.804)" fill="#c9433c"/>
      <path id="Trazado_994395" data-name="Trazado 994395" d="M360,384h1.842v7.366H360Zm0,0" transform="translate(-318.566 -339.804)" fill="#c9433c"/>
      <path id="Trazado_994396" data-name="Trazado 994396" d="M277.835,361.842,278.1,360H256l.263,1.842Zm0,0" transform="translate(-226.536 -318.566)" fill="#d64740"/>
      <path id="Trazado_994397" data-name="Trazado 994397" d="M179.935,168.3a1.712,1.712,0,1,0,1.21.5A1.711,1.711,0,0,0,179.935,168.3Zm0,0" transform="translate(-157.71 -148.927)"/>
      <path id="Trazado_994398" data-name="Trazado 994398" d="M1.842,87.457A4.628,4.628,0,0,1,5.795,82.9l.8-.115-.245.088L7.264,85.6a10.782,10.782,0,0,0,19.3,2.42l-1.55-1a8.94,8.94,0,0,1-16-2.005l-.82-2.461,5.756-.822a.921.921,0,0,0,.785-.912V78.561c.139.043.283.075.424.112.1.026.192.057.289.079a.249.249,0,0,1,.051.008,9.207,9.207,0,0,0,1.122.184c.057.005.114,0,.171.008.234.018.467.036.7.036.077,0,.153-.01.23-.012.113,0,.225-.01.337-.017q.422-.026.833-.092c.092-.015.184-.025.276-.042a9.081,9.081,0,0,0,1.086-.265v2.266a.921.921,0,0,0,.79.912l3.683.526.262-1.824L22.1,80.029V77.74A9.215,9.215,0,0,0,26.655,70.7H26.7a3.627,3.627,0,0,0,1.166-.207A10.518,10.518,0,0,0,29.846,74.7a8.793,8.793,0,0,1,1.65,3.552l1.8-.381a10.659,10.659,0,0,0-2-4.3,8.683,8.683,0,0,1-1.744-4.255,3.61,3.61,0,0,0-.092-4.714V62.84a11.975,11.975,0,1,0-23.95,0v5.8a7.508,7.508,0,0,1-1.577,4.593l-.5.645a10.787,10.787,0,0,0-1.575,9.073A6.44,6.44,0,0,0,0,87.457v12.706H1.842ZM20.717,76.39a7.414,7.414,0,0,1-2.281.687.929.929,0,0,0-.1.015c-.126.015-.252.02-.379.029-.111.007-.221.015-.332.018s-.222,0-.334,0-.245-.009-.368-.018-.223-.018-.334-.032-.216-.031-.323-.05c-.124-.021-.248-.04-.368-.068l-.118-.031c-.241-.059-.481-.128-.717-.211l-.084-.031a7.67,7.67,0,0,1-.725-.308,7.367,7.367,0,0,1-4.128-6.61V67.549c.388-.226.755-.482,1.134-.721a1.7,1.7,0,1,0,2.8-1.916,40.613,40.613,0,0,0,6.029-5.5A18.464,18.464,0,0,0,24.84,64.7l.02,5.079a7.367,7.367,0,0,1-4.143,6.612ZM26.7,65.175a1.841,1.841,0,1,1,0,3.683ZM4.88,75.015l.5-.649A9.362,9.362,0,0,0,7.35,68.642v-5.8a10.134,10.134,0,1,1,20.267,0v.623a3.637,3.637,0,0,0-.914-.131h-.614l-.143-.107a16.612,16.612,0,0,1-4.86-5.829.921.921,0,0,0-1.531-.179A38.812,38.812,0,0,1,8.957,66.1l-.2.115a.921.921,0,0,0-.468.8v2.762a9.208,9.208,0,0,0,4.6,7.962v2.289l-7.357,1.05a6.354,6.354,0,0,0-2.064.675,8.893,8.893,0,0,1,1.41-6.738Zm0,0" transform="translate(0 -44.918)"/>
      <path id="Trazado_994399" data-name="Trazado 994399" d="M250.7,253.286h-4.28l-2.6-6.768a2.955,2.955,0,0,0-5.135-.716,2.966,2.966,0,0,0-5.039.845l-2.555,6.639h-4.328a2.762,2.762,0,1,0,0,5.524h.122l1.39,9.728a3.7,3.7,0,0,0,3.644,3.163h13.627a3.7,3.7,0,0,0,3.646-3.163l1.388-9.728h.122a2.762,2.762,0,0,0,0-5.524Zm-14.64,3.62.686-1.779h4.018l.634,1.651c.027.067.067.126.1.191h-5.466c.009-.022.023-.04.031-.062Zm4.478-10.331a1.128,1.128,0,0,1,.5-.12,1.142,1.142,0,0,1,.41.077,1.113,1.113,0,0,1,.644.645l3.126,8.126a1.129,1.129,0,1,1-2.106.81l-3.125-8.126a1.123,1.123,0,0,1,.549-1.412Zm-1.785,3.329,1.3,3.382h-2.6Zm-6.519,5.531,3.126-8.127a1.129,1.129,0,0,1,2.107.811l-3.13,8.125a1.129,1.129,0,1,1-2.107-.809Zm-6.394.613a.921.921,0,0,1,.921-.921h3.657a2.944,2.944,0,0,0,.125,1.841h-3.782A.921.921,0,0,1,225.842,256.048Zm21.525,12.23a1.851,1.851,0,0,1-1.821,1.582H231.919a1.85,1.85,0,0,1-1.823-1.582l-1.351-9.467H248.72Zm3.335-11.309h-3.847a2.934,2.934,0,0,0,.226-1.842H250.7a.921.921,0,0,1,0,1.842Zm0,0" transform="translate(-198.219 -216.456)"/>
      <path id="Trazado_994400" data-name="Trazado 994400" d="M328,384h1.841v7.366H328Zm0,0" transform="translate(-290.249 -339.804)"/>
      <path id="Trazado_994401" data-name="Trazado 994401" d="M296,384h1.841v7.366H296Zm0,0" transform="translate(-261.932 -339.804)"/>
      <path id="Trazado_994402" data-name="Trazado 994402" d="M392,384h1.841v7.366H392Zm0,0" transform="translate(-346.883 -339.804)"/>
      <path id="Trazado_994403" data-name="Trazado 994403" d="M360,384h1.842v7.366H360Zm0,0" transform="translate(-318.566 -339.804)"/>
      <path id="Trazado_994404" data-name="Trazado 994404" d="M292.256,0H275.683A3.683,3.683,0,0,0,272,3.683v11.97a3.683,3.683,0,0,0,3.683,3.683h4.6V24.86a.921.921,0,0,0,.6.864.947.947,0,0,0,.32.057.92.92,0,0,0,.7-.322l5.249-6.123h5.1a3.683,3.683,0,0,0,3.683-3.683V3.683A3.683,3.683,0,0,0,292.256,0ZM294.1,15.653a1.842,1.842,0,0,1-1.841,1.841h-5.525a.92.92,0,0,0-.7.322l-3.905,4.557V18.415a.921.921,0,0,0-.921-.921h-5.524a1.842,1.842,0,0,1-1.841-1.841V3.683a1.842,1.842,0,0,1,1.841-1.841h16.573A1.842,1.842,0,0,1,294.1,3.683Zm0,0" transform="translate(-240.694)"/>
      <path id="Trazado_994405" data-name="Trazado 994405" d="M318.732,40H316.89v9.207h-1.841V43.683h-1.841v5.524h-1.841V42.762h-1.841v6.445h-1.841V46.445h-1.841v2.762H304v1.841h16.573V49.207h-1.842Zm0,0" transform="translate(-269.011 -35.396)"/>
      <path id="Trazado_994406" data-name="Trazado 994406" d="M304,32h1.842v1.841H304Zm0,0" transform="translate(-269.011 -28.317)"/>
    </g>
  </g>
</svg>
