<svg xmlns="http://www.w3.org/2000/svg" xmlns:xlink="http://www.w3.org/1999/xlink" width="108" height="108" viewBox="0 0 108 108">
  <defs>
    <filter id="Trazado_982547" x="0" y="0" width="108" height="108" filterUnits="userSpaceOnUse">
      <feOffset dy="3" input="SourceAlpha"/>
      <feGaussianBlur stdDeviation="3" result="blur"/>
      <feFlood flood-opacity="0.161"/>
      <feComposite operator="in" in2="blur"/>
      <feComposite in="SourceGraphic"/>
    </filter>
  </defs>
  <g id="Grupo_1159185" data-name="Grupo 1159185" transform="translate(-616 -1053)">
    <g id="Grupo_1159132" data-name="Grupo 1159132" transform="translate(625 1059)">
      <g id="Grupo_1154033" data-name="Grupo 1154033">
        <g id="Grupo_1153177" data-name="Grupo 1153177">
          <g id="Grupo_1149598" data-name="Grupo 1149598">
            <g id="Grupo_1148770" data-name="Grupo 1148770">
              <g id="Grupo_1146954" data-name="Grupo 1146954">
                <g transform="matrix(1, 0, 0, 1, -9, -6)" filter="url(#Trazado_982547)">
                  <g id="Trazado_982547-2" data-name="Trazado 982547" transform="translate(9 6)" fill="#f5fdfa">
                    <path d="M 45 88.5 C 39.12687683105469 88.5 33.43022537231445 87.35007476806641 28.06830024719238 85.08217620849609 C 22.88852500915527 82.89131164550781 18.23629951477051 79.75458526611328 14.2408504486084 75.75914764404297 C 10.24541282653809 71.76370239257812 7.108687400817871 67.11147308349609 4.917825222015381 61.93170166015625 C 2.649924993515015 56.56977462768555 1.5 50.87312316894531 1.5 45 C 1.5 39.12687683105469 2.649924993515015 33.43022537231445 4.917825222015381 28.06830024719238 C 7.108687400817871 22.88852500915527 10.24541282653809 18.23629951477051 14.2408504486084 14.2408504486084 C 18.23629951477051 10.24541282653809 22.88852500915527 7.108687400817871 28.06830024719238 4.917825222015381 C 33.43022537231445 2.649924993515015 39.12687683105469 1.5 45 1.5 C 50.87312316894531 1.5 56.56977462768555 2.649924993515015 61.93170166015625 4.917825222015381 C 67.11147308349609 7.108687400817871 71.76370239257812 10.24541282653809 75.75914764404297 14.2408504486084 C 79.75458526611328 18.23629951477051 82.89131164550781 22.88852500915527 85.08217620849609 28.06830024719238 C 87.35007476806641 33.43022537231445 88.5 39.12687683105469 88.5 45 C 88.5 50.87312316894531 87.35007476806641 56.56977462768555 85.08217620849609 61.93170166015625 C 82.89131164550781 67.11147308349609 79.75458526611328 71.76370239257812 75.75914764404297 75.75914764404297 C 71.76370239257812 79.75458526611328 67.11147308349609 82.89131164550781 61.93170166015625 85.08217620849609 C 56.56977462768555 87.35007476806641 50.87312316894531 88.5 45 88.5 Z" stroke="none"/>
                    <path d="M 45 87 C 50.67128753662109 87 56.17134475708008 85.88994598388672 61.34737014770508 83.70066070556641 C 66.34834289550781 81.58542633056641 70.84031677246094 78.55665588378906 74.698486328125 74.698486328125 C 78.55665588378906 70.84031677246094 81.58542633056641 66.34834289550781 83.70066070556641 61.34737014770508 C 85.88994598388672 56.17134475708008 87 50.67128753662109 87 45 C 87 39.32871246337891 85.88994598388672 33.82865524291992 83.70066070556641 28.65262794494629 C 81.58542633056641 23.65165710449219 78.55665588378906 19.1596851348877 74.698486328125 15.30151462554932 C 70.84031677246094 11.44334316253662 66.34834289550781 8.414571762084961 61.34737014770508 6.299342632293701 C 56.17134475708008 4.110057353973389 50.67128753662109 3 45 3 C 39.32871246337891 3 33.82865524291992 4.110057353973389 28.65262794494629 6.299342632293701 C 23.65165710449219 8.414571762084961 19.1596851348877 11.44334316253662 15.30151462554932 15.30151462554932 C 11.44334316253662 19.1596851348877 8.414571762084961 23.65165710449219 6.299342632293701 28.65262794494629 C 4.110057353973389 33.82865524291992 3 39.32871246337891 3 45 C 3 50.67128753662109 4.110057353973389 56.17134475708008 6.299342632293701 61.34737014770508 C 8.414571762084961 66.34834289550781 11.44334316253662 70.84031677246094 15.30151462554932 74.698486328125 C 19.1596851348877 78.55665588378906 23.65165710449219 81.58542633056641 28.65262794494629 83.70066070556641 C 33.82865524291992 85.88994598388672 39.32871246337891 87 45 87 M 45 90 C 20.14718627929688 90 0 69.85281372070312 0 45 C 0 20.14718627929688 20.14718627929688 0 45 0 C 69.85281372070312 0 90 20.14718627929688 90 45 C 90 69.85281372070312 69.85281372070312 90 45 90 Z" stroke="none" fill="#ee9865"/>
                  </g>
                </g>
              </g>
            </g>
          </g>
        </g>
      </g>
    </g>
    <g id="consumer_7687735" transform="translate(612.114 1066.5)">
      <path id="Trazado_994498" data-name="Trazado 994498" d="M32.221,444.156V449.5h7.125l1.781-7.125Z" transform="translate(0 -385)" fill="#ffe5c2"/>
      <path id="Trazado_994499" data-name="Trazado 994499" d="M32.221,484.5v2.294h7.125l.573-2.294Z" transform="translate(0 -422.294)" fill="#fed2a4"/>
      <path id="Trazado_994500" data-name="Trazado 994500" d="M89.691,139.546h-.742a3.441,3.441,0,0,1-3.374-2.766l-.466-2.331a2.255,2.255,0,0,1,2.924-2.581l1.658.553v7.125Z" transform="translate(-46.782 -110)" fill="#fed2a4"/>
      <path id="Trazado_994501" data-name="Trazado 994501" d="M280.72,139.546h.742a3.441,3.441,0,0,0,3.374-2.766l.466-2.331a2.255,2.255,0,0,0-2.924-2.581l-1.658.553v7.125Z" transform="translate(-219.999 -110)" fill="#ffbd86"/>
      <path id="Trazado_994502" data-name="Trazado 994502" d="M125.558,51.531h0a9.48,9.48,0,0,1-9.462-8.889l-.559-8.944a10.04,10.04,0,0,1,10.021-10.667h0A10.04,10.04,0,0,1,135.579,33.7l-.559,8.944A9.481,9.481,0,0,1,125.558,51.531Z" transform="translate(-73.743 -13.75)" fill="#ffe5c2"/>
      <path id="Trazado_994503" data-name="Trazado 994503" d="M155.911,24.844a10.016,10.016,0,0,1,3.389,8.165l-.559,8.944a9.48,9.48,0,0,1-9.462,8.889h0a9.515,9.515,0,0,1-1.786-.168,9.454,9.454,0,0,0,6.373,2.462h0a9.48,9.48,0,0,0,9.462-8.889l.559-8.944A10.044,10.044,0,0,0,155.911,24.844Z" transform="translate(-102.052 -15.355)" fill="#fed2a4"/>
      <path id="Trazado_994504" data-name="Trazado 994504" d="M119.406,17.1V14.625l2.717,2.717a14.337,14.337,0,0,0,6.2,3.647l6.272,1.792.281-4.5A10.145,10.145,0,0,0,124.75,7.5h0a10.145,10.145,0,0,0-10.125,10.778l.465,7.446,2.6-3.461A8.6,8.6,0,0,0,119.406,17.1Z" transform="translate(-72.935)" fill="#0055a3"/>
      <path id="Trazado_994505" data-name="Trazado 994505" d="M196.733,9.381a10.121,10.121,0,0,1,3.445,8.268l-.059.946a2.867,2.867,0,0,1-3.649,2.578l-2.845-.813-.076-.022a14.337,14.337,0,0,0,4.663,2.316l6.272,1.792.281-4.5A10.149,10.149,0,0,0,196.733,9.381Z" transform="translate(-142.826 -1.665)" fill="#004281"/>
      <path id="Trazado_994506" data-name="Trazado 994506" d="M63.954,302.594H39.676a7.455,7.455,0,0,0-7.455,7.455v10.358h7.125v5.344H71.408v-15.7A7.455,7.455,0,0,0,63.954,302.594Z" transform="translate(0 -261.25)" fill="#fd4755"/>
      <path id="Trazado_994507" data-name="Trazado 994507" d="M125.313,306.515h0A7.455,7.455,0,0,0,119.79,303a7.472,7.472,0,0,1,1.293,1.876,1.146,1.146,0,0,1-1.036,1.64h-2.7a.573.573,0,0,0-.571.521l-1.382,15.2a1.715,1.715,0,0,1-1.583,1.56q-.295.02-.595.02H94.346v2.294h32.062v-15.7A7.423,7.423,0,0,0,125.313,306.515Z" transform="translate(-55 -261.608)" fill="#fb2b3a"/>
      <path id="Trazado_994508" data-name="Trazado 994508" d="M315.683,333.656H297.87l-1.611,17.718a1.72,1.72,0,0,0,1.713,1.876H315.58a1.72,1.72,0,0,0,1.713-1.876Z" transform="translate(-233.75 -288.75)" fill="#a2e62e"/>
      <path id="Trazado_994509" data-name="Trazado 994509" d="M317.293,351.374l-1.611-17.718H311.3l1,11.046a5.734,5.734,0,0,1-5.711,6.254H296.3l-.038.418a1.72,1.72,0,0,0,1.713,1.876H315.58A1.72,1.72,0,0,0,317.293,351.374Z" transform="translate(-233.75 -288.75)" fill="#97d729"/>
      <path id="Trazado_994510" data-name="Trazado 994510" d="M32.221,457.906v5.344h7.125" transform="translate(0 -398.75)" fill="none" stroke="#000" stroke-linecap="round" stroke-linejoin="round" stroke-miterlimit="10" stroke-width="2"/>
      <line id="Línea_712" data-name="Línea 712" y2="8.906" transform="translate(39.346 50.25)" fill="none" stroke="#000" stroke-linecap="round" stroke-linejoin="round" stroke-miterlimit="10" stroke-width="2"/>
      <path id="Trazado_994511" data-name="Trazado 994511" d="M116.253,12.1a10.092,10.092,0,0,0-1.628,6.177l.465,7.446,2.6-3.461a8.6,8.6,0,0,0,1.72-5.161V14.625l2.717,2.717a14.336,14.336,0,0,0,6.2,3.647l6.272,1.792.281-4.5A10.145,10.145,0,0,0,124.75,7.5h0a10.089,10.089,0,0,0-5.7,1.752" transform="translate(-72.935)" fill="none" stroke="#000" stroke-linecap="round" stroke-linejoin="round" stroke-miterlimit="10" stroke-width="2"/>
      <path id="Trazado_994512" data-name="Trazado 994512" d="M202.163,162.812v2.129a1.434,1.434,0,0,1-1.434,1.434h-.7" transform="translate(-148.567 -137.5)" fill="none" stroke="#000" stroke-linecap="round" stroke-linejoin="round" stroke-miterlimit="10" stroke-width="2"/>
      <path id="Trazado_994513" data-name="Trazado 994513" d="M172,215.564a5.038,5.038,0,0,0,7.125,0" transform="translate(-123.75 -184.202)" fill="none" stroke="#000" stroke-linecap="round" stroke-linejoin="round" stroke-miterlimit="10" stroke-width="2"/>
      <path id="Trazado_994514" data-name="Trazado 994514" d="M305.107,333.656H297.87l-1.611,17.718a1.72,1.72,0,0,0,1.713,1.876H315.58a1.72,1.72,0,0,0,1.713-1.876l-1.611-17.718h-6.562" transform="translate(-233.75 -288.75)" fill="none" stroke="#000" stroke-linecap="round" stroke-linejoin="round" stroke-miterlimit="10" stroke-width="2"/>
      <path id="Trazado_994515" data-name="Trazado 994515" d="M356.953,295.969v-5.344a3.562,3.562,0,0,1,3.562-3.562h0a3.562,3.562,0,0,1,3.562,3.562v5.344" transform="translate(-287.489 -247.5)" fill="none" stroke="#000" stroke-linecap="round" stroke-linejoin="round" stroke-miterlimit="10" stroke-width="2"/>
      <path id="Trazado_994516" data-name="Trazado 994516" d="M285.013,139.546h.25a3.441,3.441,0,0,0,3.374-2.766l.466-2.331a2.255,2.255,0,0,0-2.924-2.581l-.677.226" transform="translate(-223.8 -110)" fill="none" stroke="#000" stroke-linecap="round" stroke-linejoin="round" stroke-miterlimit="10" stroke-width="2"/>
      <path id="Trazado_994517" data-name="Trazado 994517" d="M88.71,132.094l-.677-.226a2.255,2.255,0,0,0-2.924,2.581l.466,2.331a3.441,3.441,0,0,0,3.374,2.766h.25" transform="translate(-46.782 -110)" fill="none" stroke="#000" stroke-linecap="round" stroke-linejoin="round" stroke-miterlimit="10" stroke-width="2"/>
      <path id="Trazado_994518" data-name="Trazado 994518" d="M118.838,143.684l.2,3.169a9.48,9.48,0,0,0,9.462,8.889h0a9.48,9.48,0,0,0,9.462-8.889l.382-6.111" transform="translate(-76.683 -117.961)" fill="none" stroke="#000" stroke-linecap="round" stroke-linejoin="round" stroke-miterlimit="10" stroke-width="2"/>
      <path id="Trazado_994519" data-name="Trazado 994519" d="M32.221,433.361v2.815h7.125v5.344H64.223" transform="translate(0 -377.02)" fill="none" stroke="#000" stroke-linecap="round" stroke-linejoin="round" stroke-miterlimit="10" stroke-width="2"/>
      <path id="Trazado_994520" data-name="Trazado 994520" d="M70.313,306.156a7.45,7.45,0,0,0-6.359-3.562H39.676a7.455,7.455,0,0,0-7.455,7.455v3.414" transform="translate(0 -261.25)" fill="none" stroke="#000" stroke-linecap="round" stroke-linejoin="round" stroke-miterlimit="10" stroke-width="2"/>
    </g>
  </g>
</svg>
