<svg xmlns="http://www.w3.org/2000/svg" width="400" height="63" viewBox="0 0 400 63">
  <g id="Grupo_1159257" data-name="Grupo 1159257" transform="translate(-600 -4683)">
    <rect id="Fondo" width="400" height="63" transform="translate(600 4683)" fill="#e8edf7"/>
    <g id="Grupo_1159256" data-name="Grupo 1159256">
      <path id="Trazado_994763" data-name="Trazado 994763" d="M4.367-3.906,6.211,0,4.8.016,3.789-2.492q-.047-.125-.129-.336l-.152-.391H3.469q-.055.078-.129.176L3.2-2.852q-.07.094-.137.176t-.113.145L.852,0H-.672l3.6-3.984L1.133-8H2.547l.961,2.547q.07.188.141.406t.109.344h.031q.047-.055.109-.137l.133-.176q.07-.094.145-.187t.145-.172L6.492-8H7.953ZM9.379,5,10.6-.692,8.983-.254l.159-.72,2.4-.67L10.136,5ZM17-8.2l1.492,1.906-.867.594L16.408-7.758,15.182-5.7l-.867-.594L15.823-8.2l-2.164-.43.336-.977,2.047.773L15.869-11.2h1.07l-.18,2.375L18.807-9.6l.336.977ZM23.57-5.8V-6.852h7.344V-5.8Zm0,3.328V-3.523h7.344v1.047ZM41.3-3.906,43.144,0,41.73.016,40.722-2.492q-.047-.125-.129-.336l-.152-.391H40.4q-.055.078-.129.176l-.145.191q-.07.094-.137.176t-.113.145L37.785,0H36.261l3.6-3.984L38.066-8H39.48l.961,2.547q.07.188.141.406t.109.344h.031q.047-.055.109-.137l.133-.176q.07-.094.145-.187t.145-.172L43.425-8h1.461ZM48.34-.086a.885.885,0,0,0-.262-.681,1.026,1.026,0,0,0-.727-.244,2.288,2.288,0,0,0-.889.187,2.87,2.87,0,0,0-.834.542l.187-.838a2.421,2.421,0,0,1,.791-.41,3.389,3.389,0,0,1,.927-.114,1.684,1.684,0,0,1,1.162.385,1.318,1.318,0,0,1,.433,1.037,2.368,2.368,0,0,1-.189.977,2.6,2.6,0,0,1-.6.813,8.047,8.047,0,0,1-1.212.893q-.725.451-1.1.743a2.935,2.935,0,0,0-.558.538,1.55,1.55,0,0,0-.26.588h3.226L48.29,5H44.257l.068-.324a3.151,3.151,0,0,1,.353-.948,3.249,3.249,0,0,1,.658-.77,11.233,11.233,0,0,1,1.308-.939,7.764,7.764,0,0,0,1-.729,2.361,2.361,0,0,0,.526-.633A1.568,1.568,0,0,0,48.34-.086Zm5.6-8.11,1.492,1.906L54.56-5.7,53.341-7.758,52.115-5.7l-.867-.594L52.756-8.2l-2.164-.43.336-.977,2.047.773L52.8-11.2h1.07l-.18,2.375L55.74-9.6l.336.977Zm4,2.391V-6.852h7.344V-5.8Zm0,3.328V-3.523h7.344v1.047Z" transform="translate(718 4721)" fill="#212429"/>
      <path id="Trazado_994764" data-name="Trazado 994764" d="M-.207,0H-1.551L.816-11.2H2.176ZM-13.324,18.8a6.076,6.076,0,0,1-.125,1.2,6.206,6.206,0,0,1-.383,1.223,6.02,6.02,0,0,1-.645,1.141,4.625,4.625,0,0,1-.91.949,4.22,4.22,0,0,1-1.188.648,4.323,4.323,0,0,1-1.469.238,4.833,4.833,0,0,1-.91-.086,5.6,5.6,0,0,1-.785-.2l-.8,3.8h-1.3l1.953-9.25q.055-.25.1-.6t.082-.707q.035-.355.059-.668t.023-.484H-18.3q0,.133-.02.359t-.051.473q-.031.246-.062.477t-.055.371h.031a4.221,4.221,0,0,1,1.25-1.41,2.672,2.672,0,0,1,1.516-.465,2.476,2.476,0,0,1,.984.188,1.949,1.949,0,0,1,.746.563,2.6,2.6,0,0,1,.473.938A4.675,4.675,0,0,1-13.324,18.8Zm-1.312.055a3.864,3.864,0,0,0-.074-.781,1.733,1.733,0,0,0-.246-.617,1.246,1.246,0,0,0-.441-.406,1.352,1.352,0,0,0-.66-.148,1.76,1.76,0,0,0-.762.168,2.623,2.623,0,0,0-.66.449,3.682,3.682,0,0,0-.555.652,6.484,6.484,0,0,0-.445.77,6.762,6.762,0,0,0-.332.8,6.037,6.037,0,0,0-.207.754l-.492,2.32a2.192,2.192,0,0,0,.336.113q.2.051.406.09t.43.063a3.83,3.83,0,0,0,.406.023,2.7,2.7,0,0,0,1-.18,2.891,2.891,0,0,0,.82-.488,3.446,3.446,0,0,0,.641-.727,4.821,4.821,0,0,0,.465-.891,5.242,5.242,0,0,0,.281-.977A5.4,5.4,0,0,0-14.636,18.852ZM-10.616,29-9.4,23.308l-1.613.437.159-.72,2.4-.67L-9.86,29Zm9.131-9.141v3.148H-2.509V19.859H-5.681V18.813h3.172V15.664h1.023v3.148H1.663v1.047ZM15.744,18.8a6.076,6.076,0,0,1-.125,1.2,6.206,6.206,0,0,1-.383,1.223,6.02,6.02,0,0,1-.645,1.141,4.625,4.625,0,0,1-.91.949,4.22,4.22,0,0,1-1.187.648,4.323,4.323,0,0,1-1.469.238,4.833,4.833,0,0,1-.91-.086,5.6,5.6,0,0,1-.785-.2l-.8,3.8h-1.3l1.953-9.25q.055-.25.1-.6t.082-.707q.035-.355.059-.668T9.455,16h1.313q0,.133-.02.359t-.051.473q-.031.246-.062.477t-.055.371h.031a4.221,4.221,0,0,1,1.25-1.41,2.672,2.672,0,0,1,1.516-.465,2.476,2.476,0,0,1,.984.188,1.949,1.949,0,0,1,.746.563,2.6,2.6,0,0,1,.473.938A4.675,4.675,0,0,1,15.744,18.8Zm-1.312.055a3.864,3.864,0,0,0-.074-.781,1.733,1.733,0,0,0-.246-.617,1.246,1.246,0,0,0-.441-.406,1.352,1.352,0,0,0-.66-.148,1.76,1.76,0,0,0-.762.168,2.623,2.623,0,0,0-.66.449,3.682,3.682,0,0,0-.555.652,6.484,6.484,0,0,0-.445.77,6.762,6.762,0,0,0-.332.8,6.037,6.037,0,0,0-.207.754l-.492,2.32a2.192,2.192,0,0,0,.336.113q.2.051.406.09t.43.063a3.83,3.83,0,0,0,.406.023,2.7,2.7,0,0,0,1-.18,2.891,2.891,0,0,0,.82-.488,3.446,3.446,0,0,0,.641-.727,4.821,4.821,0,0,0,.465-.891,5.242,5.242,0,0,0,.281-.977A5.4,5.4,0,0,0,14.432,18.852Zm6.048,5.063a.885.885,0,0,0-.262-.681,1.026,1.026,0,0,0-.727-.244,2.288,2.288,0,0,0-.889.187,2.87,2.87,0,0,0-.834.542l.187-.838a2.421,2.421,0,0,1,.791-.41,3.389,3.389,0,0,1,.927-.114,1.684,1.684,0,0,1,1.162.385,1.318,1.318,0,0,1,.433,1.037,2.368,2.368,0,0,1-.189.977,2.6,2.6,0,0,1-.6.813,8.046,8.046,0,0,1-1.212.893q-.725.451-1.1.743a2.935,2.935,0,0,0-.558.538,1.55,1.55,0,0,0-.26.588H20.57l-.141.67H16.4l.068-.324a3.151,3.151,0,0,1,.353-.948,3.249,3.249,0,0,1,.658-.77,11.233,11.233,0,0,1,1.308-.939,7.763,7.763,0,0,0,1-.729,2.361,2.361,0,0,0,.526-.633A1.568,1.568,0,0,0,20.479,23.914Z" transform="translate(842 4709)" fill="#212429"/>
      <path id="Trazado_994259" data-name="Trazado 994259" d="M4204.926,4714.5h86.192" transform="translate(-3408)" fill="none" stroke="#0b0a0a" stroke-width="1"/>
    </g>
  </g>
</svg>
