<svg xmlns="http://www.w3.org/2000/svg" xmlns:xlink="http://www.w3.org/1999/xlink" width="108" height="108" viewBox="0 0 108 108">
  <defs>
    <filter id="Trazado_982547" x="0" y="0" width="108" height="108" filterUnits="userSpaceOnUse">
      <feOffset dy="3" input="SourceAlpha"/>
      <feGaussianBlur stdDeviation="3" result="blur"/>
      <feFlood flood-opacity="0.161"/>
      <feComposite operator="in" in2="blur"/>
      <feComposite in="SourceGraphic"/>
    </filter>
  </defs>
  <g id="Grupo_1159184" data-name="Grupo 1159184" transform="translate(-171 -4761)">
    <g id="Grupo_1159113" data-name="Grupo 1159113" transform="translate(180 4767)">
      <g id="Grupo_1154033" data-name="Grupo 1154033" transform="translate(0)">
        <g id="Grupo_1153177" data-name="Grupo 1153177">
          <g id="Grupo_1149598" data-name="Grupo 1149598">
            <g id="Grupo_1148770" data-name="Grupo 1148770">
              <g id="Grupo_1146954" data-name="Grupo 1146954">
                <g transform="matrix(1, 0, 0, 1, -9, -6)" filter="url(#Trazado_982547)">
                  <g id="Trazado_982547-2" data-name="Trazado 982547" transform="translate(9 6)" fill="#f5fdfa">
                    <path d="M 45 88.5 C 39.12687683105469 88.5 33.43022537231445 87.35007476806641 28.06830024719238 85.08217620849609 C 22.88852500915527 82.89131164550781 18.23629951477051 79.75458526611328 14.2408504486084 75.75914764404297 C 10.24541282653809 71.76370239257812 7.108687400817871 67.11147308349609 4.917825222015381 61.93170166015625 C 2.649924993515015 56.56977462768555 1.5 50.87312316894531 1.5 45 C 1.5 39.12687683105469 2.649924993515015 33.43022537231445 4.917825222015381 28.06830024719238 C 7.108687400817871 22.88852500915527 10.24541282653809 18.23629951477051 14.2408504486084 14.2408504486084 C 18.23629951477051 10.24541282653809 22.88852500915527 7.108687400817871 28.06830024719238 4.917825222015381 C 33.43022537231445 2.649924993515015 39.12687683105469 1.5 45 1.5 C 50.87312316894531 1.5 56.56977462768555 2.649924993515015 61.93170166015625 4.917825222015381 C 67.11147308349609 7.108687400817871 71.76370239257812 10.24541282653809 75.75914764404297 14.2408504486084 C 79.75458526611328 18.23629951477051 82.89131164550781 22.88852500915527 85.08217620849609 28.06830024719238 C 87.35007476806641 33.43022537231445 88.5 39.12687683105469 88.5 45 C 88.5 50.87312316894531 87.35007476806641 56.56977462768555 85.08217620849609 61.93170166015625 C 82.89131164550781 67.11147308349609 79.75458526611328 71.76370239257812 75.75914764404297 75.75914764404297 C 71.76370239257812 79.75458526611328 67.11147308349609 82.89131164550781 61.93170166015625 85.08217620849609 C 56.56977462768555 87.35007476806641 50.87312316894531 88.5 45 88.5 Z" stroke="none"/>
                    <path d="M 45 3 C 39.32871246337891 3 33.82865524291992 4.110054016113281 28.65262985229492 6.299339294433594 C 23.65165710449219 8.414573669433594 19.15968322753906 11.44334411621094 15.301513671875 15.301513671875 C 11.44334411621094 19.15968322753906 8.414573669433594 23.65165710449219 6.299339294433594 28.65262985229492 C 4.110054016113281 33.82865524291992 3 39.32871246337891 3 45 C 3 50.67128753662109 4.110054016113281 56.17134475708008 6.299339294433594 61.34737396240234 C 8.414573669433594 66.34834289550781 11.44334411621094 70.84031677246094 15.301513671875 74.698486328125 C 19.15968322753906 78.55665588378906 23.65165710449219 81.58542633056641 28.65262985229492 83.70066070556641 C 33.82865524291992 85.88994598388672 39.32871246337891 87 45 87 C 50.67128753662109 87 56.17134475708008 85.88994598388672 61.34737396240234 83.70066070556641 C 66.34834289550781 81.58542633056641 70.84031677246094 78.55665588378906 74.698486328125 74.698486328125 C 78.55665588378906 70.84031677246094 81.58542633056641 66.34834289550781 83.70066070556641 61.34737396240234 C 85.88994598388672 56.17134475708008 87 50.67128753662109 87 45 C 87 39.32871246337891 85.88994598388672 33.82865524291992 83.70066070556641 28.65262985229492 C 81.58542633056641 23.65165710449219 78.55665588378906 19.15968322753906 74.698486328125 15.301513671875 C 70.84031677246094 11.44334411621094 66.34834289550781 8.414573669433594 61.34737396240234 6.299339294433594 C 56.17134475708008 4.110054016113281 50.67128753662109 3 45 3 M 45 0 C 69.85281372070312 0 90 20.14718627929688 90 45 C 90 69.85281372070312 69.85281372070312 90 45 90 C 20.14718627929688 90 0 69.85281372070312 0 45 C 0 20.14718627929688 20.14718627929688 0 45 0 Z" stroke="none" fill="#598475"/>
                  </g>
                </g>
              </g>
            </g>
          </g>
        </g>
      </g>
    </g>
    <g id="finances_2167853" transform="translate(193.313 4780)">
      <path id="Trazado_994483" data-name="Trazado 994483" d="M49,41l-3-3-6,6-3,3-3-3H22V59a3,3,0,0,1-3,3H52V38Z" fill="#ffeaa7"/>
      <path id="Trazado_994484" data-name="Trazado 994484" d="M20,36l-2,2-1.12,1.12A3.015,3.015,0,0,0,16,41.24V59a3,3,0,0,1-6,0V33h5.5a2.5,2.5,0,0,0,1.19-.3h.01Z" fill="#cf9e76"/>
      <path id="Trazado_994485" data-name="Trazado 994485" d="M22,44V59a3,3,0,0,1-6,0V41.24a3.015,3.015,0,0,1,.88-2.12L18,38l2-2,2,2Z" fill="#cf9e76"/>
      <path id="Trazado_994486" data-name="Trazado 994486" d="M16.69,32.7a2.5,2.5,0,0,1-1.19.3H9a4,4,0,0,1-4-4V24a8.158,8.158,0,0,1,.42-2.58L7,23l3,3,2,2h3.5a2.5,2.5,0,0,1,1.2,4.7Z" fill="#b4dd7f"/>
      <path id="Trazado_994487" data-name="Trazado 994487" d="M9.05,17.04A7.968,7.968,0,0,1,13,16H32.25l.05-.01A10.892,10.892,0,0,0,35.01,21H24a2.006,2.006,0,0,0-2,2v7l-8-8-3-3L9.05,17.05Z" fill="#b4dd7f"/>
      <circle id="Elipse_11998" data-name="Elipse 11998" cx="7" cy="7" r="7" transform="translate(9 2)" fill="#f0d0b4"/>
      <path id="Trazado_994488" data-name="Trazado 994488" d="M9.05,17.05,11,19,7,23,5.42,21.42,2.83,18.83a2.828,2.828,0,1,1,4-4Z" fill="#aab2bd"/>
      <path id="Trazado_994489" data-name="Trazado 994489" d="M14,22l8,8,6,6-4,4-2-2-2-2-3.3-3.3A2.5,2.5,0,0,0,15.5,28H12l-2-2Z" fill="#fcd770"/>
      <path id="Trazado_994490" data-name="Trazado 994490" d="M28,36l1,5-5-1Z" fill="#aab2bd"/>
      <path id="Trazado_994491" data-name="Trazado 994491" d="M7.672,20.379h5.657v4.243H7.672Z" transform="translate(-12.835 14.015) rotate(-45)" fill="#ffc729"/>
      <path id="Trazado_994492" data-name="Trazado 994492" d="M48,28v1a5,5,0,0,1-10,0V28Z" fill="#aab2bd"/>
      <path id="Trazado_994493" data-name="Trazado 994493" d="M49,24a2.006,2.006,0,0,1,2,2,2.015,2.015,0,0,1-2,2H37a2.006,2.006,0,0,1-2-2,2.015,2.015,0,0,1,2-2H49Z" fill="#ccd1d9"/>
      <path id="Trazado_994494" data-name="Trazado 994494" d="M54,13v.44a11.005,11.005,0,0,1-3.22,7.78l-1.32,1.32a5.056,5.056,0,0,0-1,1.46H37.54a5.056,5.056,0,0,0-1-1.46l-1.32-1.32c-.07-.07-.14-.15-.21-.22A11,11,0,0,1,32,13.44V13a11,11,0,0,1,22,0Z" fill="#fcd770"/>
      <path id="Trazado_994495" data-name="Trazado 994495" d="M61,29l-2,8-3-3-3-3Z" fill="#ff826e"/>
      <path id="Trazado_994496" data-name="Trazado 994496" d="M42,15a1,1,0,0,1-1-1H39a3,3,0,0,0,3,3v2h2V17h3V14a3,3,0,0,0-3-3H42a1,1,0,0,1-1-1V9h3a1,1,0,0,1,1,1h2a3,3,0,0,0-3-3V5H42V7H39v3a3,3,0,0,0,3,3h2a1,1,0,0,1,1,1v1Z"/>
      <path id="Trazado_994497" data-name="Trazado 994497" d="M59.542,38.956l2.832-11.331-11.33,2.833L54.586,34,49,39.586l-3-3-9,9L34.414,43H23V40.414l.507.507,6.768,1.354-1.354-6.768L23,29.586V23a1,1,0,0,1,1-1H34.586l1.24,1.24A3,3,0,0,0,37,29a6,6,0,0,0,12,0,3,3,0,0,0,1.174-5.76l1.311-1.312A11.915,11.915,0,0,0,55,13.444V13a12,12,0,0,0-24,0v.444A12.163,12.163,0,0,0,31.112,15H21.274a8,8,0,1,0-10.269.239,8.933,8.933,0,0,0-1.756.6L7.535,14.122a3.828,3.828,0,0,0-5.414,5.414L4.3,21.712A9.016,9.016,0,0,0,4,24v5a5.006,5.006,0,0,0,5,5V59a3.983,3.983,0,0,0,7,2.618A3.973,3.973,0,0,0,19,63H53V38.414l3-3ZM45,61H41V44.414l4-4ZM39,46.414V61H35V46.414l2,2ZM33,61H29V45h4ZM27,45V61H22.444A3.959,3.959,0,0,0,23,59V45ZM15.5,27H12.414l-1-1L14,23.414,26.586,36,24,38.586l-5.839-5.839A3.467,3.467,0,0,0,19,30.5,3.5,3.5,0,0,0,15.5,27Zm-2.914-5L10,24.586,8.414,23,11,20.414ZM26.028,39.386l1.358-1.358.339,1.7ZM43,33a4,4,0,0,1-4-4h8A4,4,0,0,1,43,33Zm6-6H37a1,1,0,0,1,0-2H49a1,1,0,0,1,0,2ZM33,13a10,10,0,0,1,20,0v.444a9.934,9.934,0,0,1-2.929,7.071l-1.313,1.314A5.858,5.858,0,0,0,47.884,23H38.116a5.83,5.83,0,0,0-.874-1.171l-1.313-1.314A9.934,9.934,0,0,1,33,13.444ZM10,9a6,6,0,1,1,6,6A6.006,6.006,0,0,1,10,9Zm3,8H31.536a11.849,11.849,0,0,0,1.415,3H24a3,3,0,0,0-3,3v4.586L10.787,17.374A7.007,7.007,0,0,1,13,17ZM3,16.829a1.828,1.828,0,0,1,3.121-1.293L9.586,19,7,21.586,3.535,18.122A1.819,1.819,0,0,1,3,16.829ZM6,29V24c0-.182.03-.361.044-.542L9.586,27H8v2h7.5a1.5,1.5,0,0,1,0,3H9A3,3,0,0,1,6,29ZM17,59V41.243a1.99,1.99,0,0,1,.586-1.415l1.121-1.121-1.414-1.414-1.121,1.121A3.975,3.975,0,0,0,15,41.243V59a2,2,0,0,1-4,0V34h4.5a3.445,3.445,0,0,0,.941-.145L21,38.414V59a2,2,0,0,1-4,0Zm34,2H47V40.414l2,2,2-2Zm8.626-30.625-1.168,4.669-3.5-3.5Z"/>
    </g>
  </g>
</svg>
